<?xml version="1.0" encoding="UTF-8" standalone="no"?>
<svg
   xmlns:dc="http://purl.org/dc/elements/1.1/"
   xmlns:cc="http://creativecommons.org/ns#"
   xmlns:rdf="http://www.w3.org/1999/02/22-rdf-syntax-ns#"
   xmlns:svg="http://www.w3.org/2000/svg"
   xmlns="http://www.w3.org/2000/svg"
   xmlns:sodipodi="http://sodipodi.sourceforge.net/DTD/sodipodi-0.dtd"
   xmlns:inkscape="http://www.inkscape.org/namespaces/inkscape"
   version="1.0"
   width="64"
   height="64"
   viewBox="0 0 504 504"
   id="svg1923"
   sodipodi:docname="Chess_tile_bd.svg"
   inkscape:version="1.0.2 (e86c870879, 2021-01-15, custom)">
  <metadata
     id="metadata12">
    <rdf:RDF>
      <cc:Work
         rdf:about="">
        <dc:format>image/svg+xml</dc:format>
        <dc:type
           rdf:resource="http://purl.org/dc/dcmitype/StillImage" />
      </cc:Work>
    </rdf:RDF>
  </metadata>
  <sodipodi:namedview
     pagecolor="#ffffff"
     bordercolor="#666666"
     borderopacity="1"
     objecttolerance="10"
     gridtolerance="10"
     guidetolerance="10"
     inkscape:pageopacity="0"
     inkscape:pageshadow="2"
     inkscape:window-width="1461"
     inkscape:window-height="960"
     id="namedview10"
     showgrid="false"
     inkscape:zoom="12.5"
     inkscape:cx="32"
     inkscape:cy="31.64"
     inkscape:window-x="0"
     inkscape:window-y="0"
     inkscape:window-maximized="0"
     inkscape:current-layer="svg1923" />
  <defs
     id="defs1926" />
  <path
     d="M 277.97634 79.998123 A 26.390158 26.390158 0 1 1  225.19602,79.998123 A 26.390158 26.390158 0 1 1  277.97634 79.998123 z"
     transform="matrix(0.966666,0,0,0.966666,9.265884,2.758784e-2)"
     style="fill:#000000;fill-opacity:1;stroke:none;stroke-width:0.2;stroke-miterlimit:4;stroke-dasharray:none"
     id="path1932" />
  <path
     d="M 253.10322,101.98992 C 253.10322,101.98992 338.21149,160.48811 349.86714,180.28073 C 376.81239,226.03681 378.56624,271.31555 327.87534,300.79578 C 326.93756,301.34116 343.51707,358.7205 341.95009,359.7338 C 302.11708,385.49203 266.2983,383.48494 266.2983,383.48494 C 266.2983,383.48494 279.49338,420.871 374.49795,410.75477 C 424.15679,405.51553 456.30744,445.06198 456.30744,445.06198 L 429.03761,474.09115 C 429.03761,474.09115 395.41423,445.18704 349.86714,447.701 C 282.1324,451.43961 253.10322,425.7092 253.10322,425.7092 C 253.10322,425.7092 217.95756,452.07518 165.13603,447.701 C 108.63961,443.0225 79.807839,474.97083 79.807839,474.97083 L 49.019319,445.94165 C 49.019319,445.94165 92.598879,402.25358 156.33931,409.8751 C 223.40221,417.89389 239.90815,386.12396 239.90815,386.12396 C 239.90815,386.12396 194.85528,379.3026 164.25636,359.7338 C 162.90757,358.87121 178.33111,300.79578 178.33111,300.79578 C 178.33111,300.79578 98.281789,256.13589 160.73767,174.12302 C 177.03775,152.71885 253.10322,101.98992 253.10322,101.98992 z "
     style="fill:#000000;fill-opacity:1;fill-rule:evenodd;stroke:none;stroke-width:1.79999995;stroke-linecap:butt;stroke-linejoin:miter;stroke-miterlimit:4;stroke-dasharray:none;stroke-opacity:1"
     id="path1934" />
  <rect
     width="15.174341"
     height="65.315643"
     x="244.98863"
     y="173.90311"
     style="fill:#ffffff;fill-opacity:1;stroke:none;stroke-width:1.79999995;stroke-miterlimit:4;stroke-dasharray:none;stroke-opacity:1"
     id="rect5478" />
  <rect
     width="63.996132"
     height="14.954423"
     x="219.91798"
     y="198.97375"
     style="fill:#ffffff;fill-opacity:1;stroke:none;stroke-width:1.79999995;stroke-miterlimit:4;stroke-dasharray:none;stroke-opacity:1"
     id="rect5480" />
  <path
     d="M 187.80996,295.07791 C 223.15724,272.03508 286.77531,273.453 316.24206,294.63808 C 316.40301,294.7538 310.18969,307.18019 309.86444,306.95349 C 285.67395,290.09315 224.11436,288.59218 195.28717,306.95349 C 195.0051,307.13315 187.57374,295.2319 187.80996,295.07791 z "
     style="fill:#ffffff;fill-opacity:1;fill-rule:evenodd;stroke:none;stroke-width:1px;stroke-linecap:butt;stroke-linejoin:miter;stroke-opacity:1"
     id="path6367" />
  <path
     d="M 171.38828,355.09632 C 216.63197,316.65937 293.88485,319.8365 331.9284,354.65649 C 332.07463,354.79033 323.88082,366.34025 323.57152,366.09223 C 292.12374,340.87501 217.31903,332.43566 180.84475,366.31215 C 180.63598,366.50605 171.17338,355.27889 171.38828,355.09632 z "
     style="fill:#ffffff;fill-opacity:1;fill-rule:evenodd;stroke:none;stroke-width:1px;stroke-linecap:butt;stroke-linejoin:miter;stroke-opacity:1"
     id="path8139" />
  <path
     style="fill:#ffffff;stroke-width:0.08"
     d="m 31.12,28.76 v -1.6 H 29.56 28 v -0.92 -0.92 h 1.56 1.56 v -1.6 -1.6 h 0.92 0.92 v 1.6 1.6 H 34.48 36 v 0.92 0.92 h -1.52 -1.52 v 1.6 1.6 h -0.92 -0.92 z"
     id="path14"
     transform="scale(7.875)" />
  <path
     style="fill:#ffffff;stroke-width:0.08"
     d="m 24.574657,38.577369 c -0.126174,-0.185553 -0.326883,-0.505593 -0.446019,-0.7112 l -0.216611,-0.373831 0.480003,-0.281322 c 1.870209,-1.0961 4.357372,-1.712098 7.223189,-1.788973 2.337413,-0.0627 3.991199,0.148729 5.841099,0.746761 0.847008,0.27382 2.080883,0.845774 2.451424,1.136342 l 0.187741,0.147222 -0.364234,0.725234 -0.364235,0.725234 -0.603211,-0.316083 C 37.093534,37.71153 34.954098,37.294806 32.12,37.292658 c -2.820562,-0.0021 -5.192928,0.468094 -6.817967,1.351404 l -0.497967,0.270676 z"
     id="path16"
     transform="scale(7.875)" />
  <path
     style="fill:#ffffff;stroke-width:0.08"
     d="M 22.49709,45.929041 C 21.738184,45.028658 21.739129,45.154126 22.487073,44.599559 25.080946,42.67632 28.42854,41.64 32.04725,41.64 c 1.455648,0 2.440768,0.09724 3.731961,0.368369 2.22445,0.4671 4.574866,1.551542 6.007327,2.771677 l 0.306539,0.261102 -0.490547,0.689634 -0.490548,0.689634 -0.535991,-0.359437 C 37.486325,43.989044 32.392061,43.127765 28.2,43.968592 c -1.036082,0.207813 -2.252733,0.615691 -3.092105,1.036618 -0.701606,0.35184 -1.711464,1.013537 -1.951329,1.278584 -0.07775,0.08591 -0.162784,0.154134 -0.188965,0.151601 -0.02618,-0.0025 -0.237911,-0.230392 -0.470511,-0.506354 z"
     id="path18"
     transform="scale(7.875)" />
</svg>
