<?xml version="1.0" encoding="UTF-8"?>
<!DOCTYPE svg PUBLIC "-//W3C//DTD SVG 1.0//EN" "http://www.w3.org/TR/2001/REC-SVG-20010904/DTD/svg10.dtd">
<svg xmlns:svg="http://www.w3.org/2000/svg" xmlns="http://www.w3.org/2000/svg" xmlns:xlink="http://www.w3.org/1999/xlink" version="1.0" width="64" height="64" viewBox="0 0 504 504" id="svg2">
  <path style="fill:#ffffff" d="M 337,451.68249 C 350.85527,449.67646 359.50437,447.65996 370.8651,443.78697 L 380.2302,440.59431 L 373.3651,438.26828 C 354.44222,431.85684 318.81636,424.66529 292,421.84366 C 275.71403,420.13004 228.28597,420.13004 212,421.84366 C 185.18364,424.66529 149.55778,431.85684 130.6349,438.26828 L 123.7698,440.59431 L 133.1349,443.8041 C 148.28249,448.99578 166.59303,452.28584 186,453.30297 C 189.025,453.46151 221.875,453.50382 259,453.39697 C 313.33393,453.24061 328.54806,452.90619 337,451.68249 z M 151.5,414.48645 C 187.46192,405.60626 213.32937,402.5284 252,402.5284 C 281.0605,402.5284 294.5787,403.54415 319.5,407.60028 C 335.78817,410.25131 366.15931,417.44954 377.75,421.40605 C 381.7375,422.76719 385,423.69932 385,423.47744 C 385,423.25557 382.80862,417.99488 380.13026,411.78702 C 375.5436,401.15614 375.00588,400.37206 370.88026,398.29918 C 362.61277,394.14525 333.04265,385.00238 318.27548,382.03415 C 291.22704,376.59736 280.86786,375.59013 252,375.59013 C 223.13214,375.59013 212.77296,376.59736 185.72452,382.03415 C 170.95735,385.00238 141.38723,394.14525 133.11974,398.29918 C 128.99412,400.37206 128.4564,401.15614 123.86974,411.78702 C 121.19138,417.99488 119,423.25557 119,423.47744 C 119,423.69932 122.2625,422.76719 126.25,421.40605 C 130.2375,420.0449 141.6,416.93108 151.5,414.48645 z M 151.19948,373.16193 C 217.38044,351.74054 286.61956,351.74054 352.80052,373.16193 C 361.21581,375.88578 370.06724,378.9572 372.47036,379.98729 C 375.63639,381.34441 376.97696,381.53521 377.33819,380.6801 C 377.61238,380.03104 380.51517,373.37011 383.78884,365.87803 L 389.74096,352.25606 L 386.12048,351.09801 C 356.84267,341.73319 334.32778,336.43548 309.5,333.06936 C 243.65976,324.14282 184.85369,329.6756 117.87952,351.09801 L 114.25904,352.25606 L 120.21116,365.87803 C 123.48483,373.37011 126.38762,380.03104 126.66181,380.6801 C 127.02304,381.53521 128.36361,381.34441 131.52964,379.98729 C 133.93276,378.9572 142.78419,375.88578 151.19948,373.16193 z M 113.07485,334.44622 C 203.23386,303.43723 300.77029,303.43945 390.94369,334.45252 C 395.03773,335.86057 398.70837,336.67227 399.10067,336.25631 C 401.52698,333.68366 425.95089,303.40831 425.9294,303 C 425.91492,302.725 422.70323,299.99186 418.7923,296.92636 L 411.68151,291.35272 L 406.09076,292.27159 C 388.74947,295.12174 363.24382,289.5215 344.70855,278.794 L 337.9171,274.86336 L 330.20855,277.39336 C 305.0364,285.65503 279.76995,282.15047 257.25,267.2737 L 252,263.80552 L 246.75,267.2737 C 233.99724,275.69822 219.30798,280.70087 204.45084,281.67931 C 194.09572,282.36127 185.09378,281.10286 173.79145,277.39336 L 166.0829,274.86336 L 159.29145,278.794 C 140.75618,289.5215 115.25053,295.12174 97.909244,292.27159 L 92.318488,291.35272 L 85.211461,296.92636 C 81.302597,299.99186 78.193437,302.81827 78.302218,303.20727 C 78.472799,303.81728 105.21044,337 105.53139,337 C 105.59646,337 108.99101,335.8508 113.07485,334.44622 z M 86.550055,274.17847 C 88.536127,273.13724 90.535594,273.08422 95.976942,273.92847 C 105.68201,275.43426 114.35019,275.34709 113.72342,273.75 C 112.23509,269.95759 56.59945,156.06722 56.354726,156.31194 C 56.193628,156.47304 59.642476,185.15626 64.018832,220.05242 C 68.395188,254.94859 71.981279,283.86736 71.987922,284.31635 C 71.994565,284.76534 74.706599,282.96534 78.014665,280.31635 C 81.322731,277.66736 85.163656,274.90531 86.550055,274.17847 z M 439.93741,220.5006 C 444.33774,185.35784 447.80624,156.47291 447.64519,156.31186 C 447.39326,156.05993 391.72932,270.04203 390.21467,273.91135 C 389.74839,275.10251 391.28771,275.19564 400.0811,274.5083 C 417.81209,273.12233 416.81101,272.92975 424.55145,279.21561 C 428.36555,282.31296 431.58757,284.74576 431.7115,284.62184 C 431.83542,284.49791 435.53709,255.64335 439.93741,220.5006 z M 145.27496,266.37954 C 149.24873,264.38829 154.65032,261.19055 157.27849,259.27346 C 162.88675,255.18256 164.15092,255.22058 177.0278,259.86737 C 186.83646,263.40695 200.67933,265.25446 199.81954,262.90922 C 199.53539,262.13415 187.42225,227.01105 172.90145,184.8579 C 157.58695,140.40066 146.39411,109.32532 146.24784,110.8579 C 146.10915,112.31105 144.21101,145.675 142.02975,185 C 139.84849,224.325 137.79721,259.5375 137.47136,263.25 C 137.1455,266.9625 137.14238,270 137.46441,270 C 137.78645,270 141.30119,268.37079 145.27496,266.37954 z M 366.52864,263.25 C 366.20279,259.5375 364.15151,224.325 361.97025,185 C 359.78899,145.675 357.89085,112.31105 357.75216,110.8579 C 357.60589,109.32532 346.41305,140.40066 331.09855,184.8579 C 316.57775,227.01105 304.46461,262.13415 304.18046,262.90922 C 303.32067,265.25446 317.16354,263.40695 326.9722,259.86737 C 339.48129,255.35331 341.30983,255.23375 345.75474,258.63936 C 349.46669,261.48339 364.76211,269.91503 366.31055,269.9708 C 366.75636,269.98686 366.8545,266.9625 366.52864,263.25 z M 230.91695,256.40926 C 234.53763,254.43435 239.525,251.13198 242,249.07064 C 250.9658,241.60337 253.33374,241.51253 261.13464,248.33656 C 265.58425,252.22897 279.72612,260.66998 280.431,259.85418 C 280.90298,259.30792 252.56745,97.007753 252,97.007193 C 251.725,97.006921 245.2465,133.11769 237.60333,177.25335 C 229.96017,221.38901 223.49952,258.0625 223.24635,258.75 C 222.53677,260.67683 223.79946,260.29152 230.91695,256.40926 z M 47.980067,116.24845 C 53.155152,113.64839 56,108.77151 56,102.5 C 56,93.27286 49.5267,87.003108 40,87.003108 C 30.4733,87.003108 24,93.27286 24,102.5 C 24,111.72714 30.4733,117.99689 40,117.99689 C 42.475,117.99689 46.06603,117.21009 47.980067,116.24845 z M 471.98007,116.24845 C 477.15515,113.64839 480,108.77151 480,102.5 C 480,93.27286 473.5267,87.003108 464,87.003108 C 454.4733,87.003108 448,93.27286 448,102.5 C 448,111.72714 454.4733,117.99689 464,117.99689 C 466.475,117.99689 470.06603,117.21009 471.98007,116.24845 z M 148.07832,76.726203 C 158.71831,69.555912 158.71831,56.444088 148.07832,49.273797 C 138.26556,42.660979 124,50.793273 124,63 C 124,75.206727 138.26556,83.339021 148.07832,76.726203 z M 372.07832,76.726203 C 382.71831,69.555912 382.71831,56.444088 372.07832,49.273797 C 362.26556,42.660979 348,50.793273 348,63 C 348,75.206727 362.26556,83.339021 372.07832,76.726203 z M 260.07832,56.726203 C 270.71831,49.555912 270.71831,36.444088 260.07832,29.273797 C 250.26556,22.660979 236,30.793273 236,43 C 236,55.206727 250.26556,63.339021 260.07832,56.726203 z"/>
  <path d="M 186,471.30297 C 156.82101,469.77368 128.96551,462.8045 107.65429,451.70161 C 97.239288,446.27552 94,443.31423 94,439.21916 C 94,437.83804 98.271444,426.90124 103.4921,414.91515 L 112.9842,393.12225 L 104.06071,372.63935 L 95.13722,352.15644 L 76.89844,329.82822 C 66.867111,317.5477 58.201337,306.90159 57.641164,306.17021 C 57.080991,305.43882 51.866392,266.82553 46.053167,220.3629 L 35.483666,135.88539 L 28.871284,133.66012 C 20.791345,130.94097 15.721854,127.20478 11.854604,121.11889 C 5.0284492,110.37658 4.3747537,98.774933 9.9567548,87.436279 C 15.672539,75.825872 26.14036,69.617289 40,69.617289 C 53.85964,69.617289 64.327461,75.825872 70.043245,87.436279 C 76.667897,100.89286 74.71137,113.08088 63.610237,127.51018 C 63.032823,128.2607 72.85934,149.50832 91.602295,188.03667 L 120.48412,247.40664 L 124.67528,174.45332 C 126.98042,134.32899 128.8965,100.04665 128.93322,98.270324 C 128.99009,95.520114 128.44329,94.753678 125.25,93.107624 C 118.51758,89.637245 113.2232,84.198822 109.792,77.229053 C 101.38841,60.15895 108.77085,40.811766 127,32.131945 C 134.78597,28.42465 145.21403,28.42465 153,32.131945 C 161.15083,36.012969 166.44958,41.136504 170.208,48.770947 C 173.04859,54.541002 173.5,56.492136 173.5,63 C 173.5,69.507864 173.04859,71.458998 170.208,77.229053 C 168.27355,81.158485 165.25129,85.340987 162.87913,87.371468 L 158.84225,90.826883 L 183.67113,162.89796 C 197.32701,202.53704 208.74504,234.976 209.04453,234.98451 C 209.34402,234.99303 215.8979,198.66851 223.6087,154.26335 L 237.62833,73.526697 L 233.33585,70.683476 C 223.77021,64.347455 218.51663,54.532584 218.50656,42.978973 C 218.49483,29.534038 225.91764,18.361116 239,12.131945 C 246.78597,8.4246498 257.21403,8.4246498 265,12.131945 C 273.15083,16.012969 278.44958,21.136504 282.208,28.770947 C 285.04945,34.542743 285.4991,36.487295 285.49344,42.978973 C 285.48337,54.532584 280.22979,64.347455 270.66415,70.683476 L 266.37167,73.526697 L 280.3913,154.26335 C 288.1021,198.66851 294.65598,234.99303 294.95547,234.98451 C 295.25496,234.976 306.67299,202.53704 320.32887,162.89796 L 345.15775,90.826883 L 341.12087,87.371468 C 338.74871,85.340987 335.72645,81.158485 333.792,77.229053 C 325.38841,60.15895 332.77085,40.811766 351,32.131945 C 358.78597,28.42465 369.21403,28.42465 377,32.131945 C 385.15083,36.012969 390.44958,41.136504 394.208,48.770947 C 397.04859,54.541002 397.5,56.492136 397.5,63 C 397.5,69.507864 397.04859,71.458998 394.208,77.229053 C 390.7768,84.198822 385.48242,89.637245 378.75,93.107624 C 375.55671,94.753678 375.00991,95.520114 375.06678,98.270324 C 375.1035,100.04665 377.01958,134.32899 379.32472,174.45332 L 383.51588,247.40664 L 412.3977,188.03667 C 431.14066,149.50832 440.96718,128.2607 440.38976,127.51018 C 429.28863,113.08088 427.3321,100.89286 433.95675,87.436279 C 439.67254,75.825872 450.14036,69.617289 464,69.617289 C 477.85964,69.617289 488.32746,75.825872 494.04325,87.436279 C 499.62525,98.774933 498.97155,110.37658 492.1454,121.11889 C 488.27815,127.20478 483.20865,130.94097 475.12872,133.66012 L 468.51633,135.88539 L 457.94683,220.3629 C 452.13361,266.82553 446.91901,305.43882 446.35884,306.17021 C 445.79866,306.90159 437.13289,317.5477 427.10156,329.82822 L 408.86278,352.15644 L 399.93929,372.63935 L 391.0158,393.12225 L 400.5079,414.91515 C 405.72856,426.90124 410,437.83804 410,439.21916 C 410,443.31423 406.76071,446.27552 396.34571,451.70161 C 379.83153,460.3053 359.73998,466.39651 337.05737,469.67622 C 328.54092,470.90762 313.4511,471.24027 259,471.39697 C 221.875,471.50382 189.025,471.46151 186,471.30297 z M 337,451.68249 C 350.85527,449.67646 359.50437,447.65996 370.8651,443.78697 L 380.2302,440.59431 L 373.3651,438.26828 C 354.44222,431.85684 318.81636,424.66529 292,421.84366 C 275.71403,420.13004 228.28597,420.13004 212,421.84366 C 185.18364,424.66529 149.55778,431.85684 130.6349,438.26828 L 123.7698,440.59431 L 133.1349,443.8041 C 148.28249,448.99578 166.59303,452.28584 186,453.30297 C 189.025,453.46151 221.875,453.50382 259,453.39697 C 313.33393,453.24061 328.54806,452.90619 337,451.68249 z M 151.5,414.48645 C 187.46192,405.60626 213.32937,402.5284 252,402.5284 C 281.0605,402.5284 294.5787,403.54415 319.5,407.60028 C 335.78817,410.25131 366.15931,417.44954 377.75,421.40605 C 381.7375,422.76719 385,423.69932 385,423.47744 C 385,423.25557 382.80862,417.99488 380.13026,411.78702 C 375.5436,401.15614 375.00588,400.37206 370.88026,398.29918 C 362.61277,394.14525 333.04265,385.00238 318.27548,382.03415 C 291.22704,376.59736 280.86786,375.59013 252,375.59013 C 223.13214,375.59013 212.77296,376.59736 185.72452,382.03415 C 170.95735,385.00238 141.38723,394.14525 133.11974,398.29918 C 128.99412,400.37206 128.4564,401.15614 123.86974,411.78702 C 121.19138,417.99488 119,423.25557 119,423.47744 C 119,423.69932 122.2625,422.76719 126.25,421.40605 C 130.2375,420.0449 141.6,416.93108 151.5,414.48645 z M 151.19948,373.16193 C 217.38044,351.74054 286.61956,351.74054 352.80052,373.16193 C 361.21581,375.88578 370.06724,378.9572 372.47036,379.98729 C 375.63639,381.34441 376.97696,381.53521 377.33819,380.6801 C 377.61238,380.03104 380.51517,373.37011 383.78884,365.87803 L 389.74096,352.25606 L 386.12048,351.09801 C 356.84267,341.73319 334.32778,336.43548 309.5,333.06936 C 243.65976,324.14282 184.85369,329.6756 117.87952,351.09801 L 114.25904,352.25606 L 120.21116,365.87803 C 123.48483,373.37011 126.38762,380.03104 126.66181,380.6801 C 127.02304,381.53521 128.36361,381.34441 131.52964,379.98729 C 133.93276,378.9572 142.78419,375.88578 151.19948,373.16193 z M 113.07485,334.44622 C 203.23386,303.43723 300.77029,303.43945 390.94369,334.45252 C 395.03773,335.86057 398.70837,336.67227 399.10067,336.25631 C 401.52698,333.68366 425.95089,303.40831 425.9294,303 C 425.91492,302.725 422.70323,299.99186 418.7923,296.92636 L 411.68151,291.35272 L 406.09076,292.27159 C 388.74947,295.12174 363.24382,289.5215 344.70855,278.794 L 337.9171,274.86336 L 330.20855,277.39336 C 305.0364,285.65503 279.76995,282.15047 257.25,267.2737 L 252,263.80552 L 246.75,267.2737 C 233.99724,275.69822 219.30798,280.70087 204.45084,281.67931 C 194.09572,282.36127 185.09378,281.10286 173.79145,277.39336 L 166.0829,274.86336 L 159.29145,278.794 C 140.75618,289.5215 115.25053,295.12174 97.909244,292.27159 L 92.318488,291.35272 L 85.211461,296.92636 C 81.302597,299.99186 78.193437,302.81827 78.302218,303.20727 C 78.472799,303.81728 105.21044,337 105.53139,337 C 105.59646,337 108.99101,335.8508 113.07485,334.44622 z M 86.550055,274.17847 C 88.536127,273.13724 90.535594,273.08422 95.976942,273.92847 C 105.68201,275.43426 114.35019,275.34709 113.72342,273.75 C 112.23509,269.95759 56.59945,156.06722 56.354726,156.31194 C 56.193628,156.47304 59.642476,185.15626 64.018832,220.05242 C 68.395188,254.94859 71.981279,283.86736 71.987922,284.31635 C 71.994565,284.76534 74.706599,282.96534 78.014665,280.31635 C 81.322731,277.66736 85.163656,274.90531 86.550055,274.17847 z M 439.93741,220.5006 C 444.33774,185.35784 447.80624,156.47291 447.64519,156.31186 C 447.39326,156.05993 391.72932,270.04203 390.21467,273.91135 C 389.74839,275.10251 391.28771,275.19564 400.0811,274.5083 C 417.81209,273.12233 416.81101,272.92975 424.55145,279.21561 C 428.36555,282.31296 431.58757,284.74576 431.7115,284.62184 C 431.83542,284.49791 435.53709,255.64335 439.93741,220.5006 z M 145.27496,266.37954 C 149.24873,264.38829 154.65032,261.19055 157.27849,259.27346 C 162.88675,255.18256 164.15092,255.22058 177.0278,259.86737 C 186.83646,263.40695 200.67933,265.25446 199.81954,262.90922 C 199.53539,262.13415 187.42225,227.01105 172.90145,184.8579 C 157.58695,140.40066 146.39411,109.32532 146.24784,110.8579 C 146.10915,112.31105 144.21101,145.675 142.02975,185 C 139.84849,224.325 137.79721,259.5375 137.47136,263.25 C 137.1455,266.9625 137.14238,270 137.46441,270 C 137.78645,270 141.30119,268.37079 145.27496,266.37954 z M 366.52864,263.25 C 366.20279,259.5375 364.15151,224.325 361.97025,185 C 359.78899,145.675 357.89085,112.31105 357.75216,110.8579 C 357.60589,109.32532 346.41305,140.40066 331.09855,184.8579 C 316.57775,227.01105 304.46461,262.13415 304.18046,262.90922 C 303.32067,265.25446 317.16354,263.40695 326.9722,259.86737 C 339.48129,255.35331 341.30983,255.23375 345.75474,258.63936 C 349.46669,261.48339 364.76211,269.91503 366.31055,269.9708 C 366.75636,269.98686 366.8545,266.9625 366.52864,263.25 z M 230.91695,256.40926 C 234.53763,254.43435 239.525,251.13198 242,249.07064 C 250.9658,241.60337 253.33374,241.51253 261.13464,248.33656 C 265.58425,252.22897 279.72612,260.66998 280.431,259.85418 C 280.90298,259.30792 252.56745,97.007753 252,97.007193 C 251.725,97.006921 245.2465,133.11769 237.60333,177.25335 C 229.96017,221.38901 223.49952,258.0625 223.24635,258.75 C 222.53677,260.67683 223.79946,260.29152 230.91695,256.40926 z M 47.980067,116.24845 C 53.155152,113.64839 56,108.77151 56,102.5 C 56,93.27286 49.5267,87.003108 40,87.003108 C 30.4733,87.003108 24,93.27286 24,102.5 C 24,111.72714 30.4733,117.99689 40,117.99689 C 42.475,117.99689 46.06603,117.21009 47.980067,116.24845 z M 471.98007,116.24845 C 477.15515,113.64839 480,108.77151 480,102.5 C 480,93.27286 473.5267,87.003108 464,87.003108 C 454.4733,87.003108 448,93.27286 448,102.5 C 448,111.72714 454.4733,117.99689 464,117.99689 C 466.475,117.99689 470.06603,117.21009 471.98007,116.24845 z M 148.07832,76.726203 C 158.71831,69.555912 158.71831,56.444088 148.07832,49.273797 C 138.26556,42.660979 124,50.793273 124,63 C 124,75.206727 138.26556,83.339021 148.07832,76.726203 z M 372.07832,76.726203 C 382.71831,69.555912 382.71831,56.444088 372.07832,49.273797 C 362.26556,42.660979 348,50.793273 348,63 C 348,75.206727 362.26556,83.339021 372.07832,76.726203 z M 260.07832,56.726203 C 270.71831,49.555912 270.71831,36.444088 260.07832,29.273797 C 250.26556,22.660979 236,30.793273 236,43 C 236,55.206727 250.26556,63.339021 260.07832,56.726203 z " style="fill:#000000" id="path2161"/>
</svg>