<?xml version="1.0" encoding="UTF-8" standalone="no"?>
<svg
   xmlns:dc="http://purl.org/dc/elements/1.1/"
   xmlns:cc="http://creativecommons.org/ns#"
   xmlns:rdf="http://www.w3.org/1999/02/22-rdf-syntax-ns#"
   xmlns:svg="http://www.w3.org/2000/svg"
   xmlns="http://www.w3.org/2000/svg"
   xmlns:xlink="http://www.w3.org/1999/xlink"
   xmlns:sodipodi="http://sodipodi.sourceforge.net/DTD/sodipodi-0.dtd"
   xmlns:inkscape="http://www.inkscape.org/namespaces/inkscape"
   version="1.1"
   id="svg24"
   width="46"
   height="48"
   viewBox="0 0 46 48"
   sodipodi:docname="BKing.svg"
   inkscape:version="1.0.2 (e86c870879, 2021-01-15, custom)">
  <metadata
     id="metadata30">
    <rdf:RDF>
      <cc:Work
         rdf:about="">
        <dc:format>image/svg+xml</dc:format>
        <dc:type
           rdf:resource="http://purl.org/dc/dcmitype/StillImage" />
        <dc:title></dc:title>
      </cc:Work>
    </rdf:RDF>
  </metadata>
  <defs
     id="defs28" />
  <sodipodi:namedview
     pagecolor="#ffffff"
     bordercolor="#666666"
     borderopacity="1"
     objecttolerance="10"
     gridtolerance="10"
     guidetolerance="10"
     inkscape:pageopacity="0"
     inkscape:pageshadow="2"
     inkscape:window-width="1819"
     inkscape:window-height="938"
     id="namedview26"
     showgrid="false"
     inkscape:zoom="16.666667"
     inkscape:cx="23"
     inkscape:cy="24"
     inkscape:window-x="0"
     inkscape:window-y="0"
     inkscape:window-maximized="0"
     inkscape:current-layer="g32" />
  <g
     inkscape:groupmode="layer"
     inkscape:label="Image"
     id="g32">
    <path
       style="fill:#000000"
       d="M 8.9294597,42.92946 C 7.5090834,41.509083 6.9471396,39.834948 7.1398693,37.597936 7.3454203,35.212108 6.5592371,33.165384 4.2104096,29.971474 1.6784587,26.528555 1,24.619473 1,20.937856 1,14.282046 3.7682423,10.98832 9.3225801,11.035435 11.620161,11.054925 14.625,11.713979 16,12.5 c 3.651069,2.08714 5,1.817353 5,-1 C 21,9.9444444 20.433333,9 19.5,9 18.566667,9 18,8.0555556 18,6.5 18,4.9444444 18.566667,4 19.5,4 20.325,4 21,3.325 21,2.5 21,1.5666667 21.944444,1 23.5,1 25.055556,1 26,1.5666667 26,2.5 26,3.325 26.675,4 27.5,4 28.433333,4 29,4.9444444 29,6.5 29,8.0555556 28.433333,9 27.5,9 26.566667,9 26,9.9444444 26,11.5 c 0,2.817353 1.348931,3.08714 5,1 1.375,-0.786021 4.379839,-1.445075 6.67742,-1.464565 C 43.231758,10.98832 46,14.282046 46,20.937856 c 0,3.681617 -0.678459,5.590699 -3.21041,9.033618 -2.348827,3.19391 -3.13501,5.240634 -2.929459,7.626462 0.192729,2.237012 -0.369214,3.911147 -1.789591,5.331524 C 36.197344,44.802656 34.808619,45 23.5,45 12.191381,45 10.802656,44.802656 8.9294597,42.92946 Z M 12.230053,38.25 C 12.922388,37.397233 16.503824,37 23.5,37 c 10.604046,0 11.771332,0.411132 12.77639,4.5 0.381764,1.553125 0.517526,1.398734 0.607609,-0.690983 0.0638,-1.480041 -0.314779,-2.95722 -0.841288,-3.28262 -0.531256,-0.328334 0.358826,-2.666934 2,-5.254798 C 39.66922,29.706861 41,26.446668 41,25.026726 41,21.34109 38.338802,18 35.403171,18 32.044498,18 25.235339,25.394296 24.352774,30 l -0.670686,3.5 -1.091044,-3.686795 C 21.087611,24.732887 14.840338,18 11.629874,18 8.6602004,18 6,21.320234 6,25.026726 c 0,1.419942 1.33078,4.680135 2.9572889,7.244873 1.6411741,2.587864 2.5312561,4.926464 2.0000001,5.254798 -0.526509,0.3254 -0.905088,1.802579 -0.841288,3.28262 0.09008,2.089717 0.225845,2.244108 0.607609,0.690983 0.270384,-1.1 0.948283,-2.5625 1.506443,-3.25 z M 9.9779759,31.304219 C 6.5889608,25.960297 6.362648,24.35496 8.556704,21.222506 10.748113,18.093832 12.57694,18.440297 16.619627,22.75 c 3.585206,3.822007 4.573457,5.625698 5.752999,10.5 0.659266,2.724328 0.618419,2.75 -4.375598,2.75 -4.916292,0 -5.114791,-0.116237 -8.0190521,-4.695781 z M 24.627374,33.25 c 1.179542,-4.874302 2.167793,-6.677993 5.752999,-10.5 4.042687,-4.309703 5.871514,-4.656168 8.062923,-1.527494 2.194056,3.132454 1.967743,4.737791 -1.421272,10.081713 C 34.117763,35.883763 33.919264,36 29.002972,36 24.008955,36 23.968108,35.97433 24.627374,33.25 Z"
       id="path36" />
  </g>
</svg>
