<?xml version="1.0" encoding="UTF-8" standalone="no"?>
<svg
   xmlns:dc="http://purl.org/dc/elements/1.1/"
   xmlns:cc="http://creativecommons.org/ns#"
   xmlns:rdf="http://www.w3.org/1999/02/22-rdf-syntax-ns#"
   xmlns:svg="http://www.w3.org/2000/svg"
   xmlns="http://www.w3.org/2000/svg"
   xmlns:xlink="http://www.w3.org/1999/xlink"
   xmlns:sodipodi="http://sodipodi.sourceforge.net/DTD/sodipodi-0.dtd"
   xmlns:inkscape="http://www.inkscape.org/namespaces/inkscape"
   version="1.1"
   id="svg38"
   width="48"
   height="48"
   viewBox="0 0 48 48"
   sodipodi:docname="BMarshal.svg"
   inkscape:version="1.0.2 (e86c870879, 2021-01-15, custom)">
  <metadata
     id="metadata44">
    <rdf:RDF>
      <cc:Work
         rdf:about="">
        <dc:format>image/svg+xml</dc:format>
        <dc:type
           rdf:resource="http://purl.org/dc/dcmitype/StillImage" />
        <dc:title></dc:title>
      </cc:Work>
    </rdf:RDF>
  </metadata>
  <defs
     id="defs42" />
  <sodipodi:namedview
     pagecolor="#ffffff"
     bordercolor="#666666"
     borderopacity="1"
     objecttolerance="10"
     gridtolerance="10"
     guidetolerance="10"
     inkscape:pageopacity="0"
     inkscape:pageshadow="2"
     inkscape:window-width="1718"
     inkscape:window-height="962"
     id="namedview40"
     showgrid="false"
     inkscape:zoom="16.666667"
     inkscape:cx="24"
     inkscape:cy="24"
     inkscape:window-x="0"
     inkscape:window-y="0"
     inkscape:window-maximized="0"
     inkscape:current-layer="g46" />
  <g
     inkscape:groupmode="layer"
     inkscape:label="Image"
     id="g46">
    <path
       style="fill:#000000"
       d="M 6.556704,42.777494 C 4.6327181,40.030619 4.5658597,37.15497 6.3777091,35.078741 8.1092437,33.094545 11.627264,22.864081 12.508601,17.25 L 13.175796,13 H 24.587898 36 v 6.124139 c 0,4.85583 0.72485,7.729519 3.5,13.875861 5.46368,12.100837 5.522765,12 -7.031326,12 H 21.937349 l 0.233332,-3.46466 c 0.128333,-1.905563 -0.01606,-3.714055 -0.320879,-4.018871 -0.304816,-0.304816 -2.308219,1.253881 -4.452007,3.463772 -4.531407,4.671132 -8.3811261,5.309345 -10.841091,1.797253 z m 4.959001,-1.849 c 0.371039,-1.689328 0.406794,-3.339328 0.07946,-3.666667 C 11.267822,36.934489 11,37.609524 11,38.761905 11,39.914286 10.292857,41.564286 9.4285714,42.428571 8.0710069,43.786136 8.0601934,44 9.3491162,44 10.201492,44 11.130292,42.683268 11.515705,40.928494 Z m 26.080154,-5.582267 c -1.38255,-3.215425 -2.532206,-5.222559 -2.554793,-4.460299 -0.06451,2.177008 4.423009,13.151267 4.763726,11.649736 0.167636,-0.738765 -0.826384,-3.974012 -2.208933,-7.189437 z M 8.9210526,38.75 C 8.8683003,37.246558 8.6526465,36.997705 8.2711085,38 7.9570604,38.825 7.2050867,39.830609 6.6000559,40.234687 5.9215223,40.687855 6.1705695,40.975242 7.25,40.984687 8.4257217,40.994975 8.9740927,40.261642 8.9210526,38.75 Z M 26.531955,31.198622 c -0.63911,-0.63911 -2.550103,4.497626 -2.461493,6.616478 0.03875,0.926695 0.715544,-0.07581 1.503977,-2.22779 0.788433,-2.151979 1.219315,-4.126889 0.957516,-4.388688 z M 23,34 c 0.588702,-1.1 0.845368,-2 0.570368,-2 -0.275,0 -0.981666,0.9 -1.570368,2 -0.588702,1.1 -0.845368,2 -0.570368,2 0.275,0 0.981666,-0.9 1.570368,-2 z M 17.429973,29.113307 C 17.731376,28.625626 17.347996,27.703774 16.578017,27.064749 15.019288,25.771118 13.423141,27.257605 14.5,29 c 0.765202,1.238122 2.200494,1.293627 2.929973,0.113307 z m 15.01086,-5.173899 C 30.279766,21.726274 27.384006,19.65323 26.00581,19.332644 24.627615,19.012057 22.774247,17.841344 21.887215,16.731059 20.199954,14.619139 18,15.087719 18,17.559017 18,19.313454 16.815406,19.415406 15.2,17.8 14.418176,17.018176 14,16.975506 14,17.677555 c 0,1.283729 2.993129,3.958793 3.015313,2.69489 C 17.023735,19.8926 17.466844,20.175 18,21 c 0.735598,1.138257 0.973067,0.716223 0.984687,-1.75 0.01952,-4.143409 1.643793,-4.218004 2.544556,-0.11686 0.48468,2.206737 0.932462,2.73784 1.514418,1.796214 1.089325,-1.762564 4.55349,0.02806 9.070696,4.688633 1.786916,1.843629 3.475456,3.125533 3.752313,2.848676 0.276857,-0.276857 -1.26477,-2.314122 -3.425837,-4.527255 z M 10.949678,11.55 C 10.427355,11.0275 10,9.115 10,7.3 10,4.1952381 10.207071,4 13.5,4 16.566667,4 17,4.3095238 17,6.5 17,8.0555556 17.566667,9 18.5,9 19.433333,9 20,8.0555556 20,6.5 20,4.2037037 20.366667,4 24.5,4 28.633333,4 29,4.2037037 29,6.5 29,8.0555556 29.566667,9 30.5,9 31.433333,9 32,8.0555556 32,6.5 32,4.3095238 32.433333,4 35.5,4 38.821899,4 39,4.1750977 39,7.440983 c 0,1.8925407 -0.453207,3.72108 -1.007126,4.063421 -1.66538,1.029261 -26.018817,1.070322 -27.043196,0.0456 z"
       id="path50" />
  </g>
</svg>
