<?xml version="1.0" encoding="UTF-8" standalone="no"?>
<svg
   xmlns:dc="http://purl.org/dc/elements/1.1/"
   xmlns:cc="http://creativecommons.org/ns#"
   xmlns:rdf="http://www.w3.org/1999/02/22-rdf-syntax-ns#"
   xmlns:svg="http://www.w3.org/2000/svg"
   xmlns="http://www.w3.org/2000/svg"
   xmlns:xlink="http://www.w3.org/1999/xlink"
   xmlns:sodipodi="http://sodipodi.sourceforge.net/DTD/sodipodi-0.dtd"
   xmlns:inkscape="http://www.inkscape.org/namespaces/inkscape"
   version="1.1"
   id="svg10"
   width="48"
   height="48"
   viewBox="0 0 48 48"
   sodipodi:docname="WBishop.svg"
   inkscape:version="1.0.2 (e86c870879, 2021-01-15, custom)">
  <metadata
     id="metadata16">
    <rdf:RDF>
      <cc:Work
         rdf:about="">
        <dc:format>image/svg+xml</dc:format>
        <dc:type
           rdf:resource="http://purl.org/dc/dcmitype/StillImage" />
        <dc:title></dc:title>
      </cc:Work>
    </rdf:RDF>
  </metadata>
  <defs
     id="defs14" />
  <sodipodi:namedview
     pagecolor="#ffffff"
     bordercolor="#666666"
     borderopacity="1"
     objecttolerance="10"
     gridtolerance="10"
     guidetolerance="10"
     inkscape:pageopacity="0"
     inkscape:pageshadow="2"
     inkscape:window-width="1587"
     inkscape:window-height="974"
     id="namedview12"
     showgrid="false"
     inkscape:zoom="16.666667"
     inkscape:cx="24"
     inkscape:cy="24"
     inkscape:window-x="0"
     inkscape:window-y="0"
     inkscape:window-maximized="0"
     inkscape:current-layer="g18" />
  <g
     inkscape:groupmode="layer"
     inkscape:label="Image"
     id="g18">
    <path
       style="fill:#000000"
       d="M 8.3800024,43.547887 C 7.3915661,40.972063 9.0050987,40.000484 14.309017,39.977764 L 19.5,39.955528 17,38.022054 c -2.137193,-1.652883 -2.325095,-2.217773 -1.294783,-3.892486 0.969463,-1.575807 0.92056,-2.195256 -0.25,-3.166735 C 11.980199,28.078824 15.148524,14.832802 20.420563,10.20389 22.779044,8.1331168 23.500396,6.9003964 22.77699,6.1769898 21.387307,4.7873074 22.537073,2 24.5,2 c 1.962927,0 3.112693,2.7873074 1.72301,4.1769898 -0.723406,0.7234066 -0.0021,1.956127 2.356427,4.0269002 5.272039,4.628912 8.440364,17.874934 4.965346,20.758943 -1.17056,0.971479 -1.219463,1.590928 -0.25,3.166735 1.030676,1.675304 0.843862,2.23344 -1.289958,3.853959 l -2.495176,1.894948 5.495176,0.310763 C 39.729746,40.456441 40.5,40.780338 40.5,42.5 c 0,1.738732 -0.767911,2.039678 -5.878352,2.303734 -4.830866,0.24961 -6.270845,-0.06499 -8.080969,-1.765518 l -2.202617,-2.069251 -1.824019,2.015517 c -2.29855,2.53987 -13.2087145,2.974766 -14.1340406,0.563405 z M 21.5,42 c 2.292956,-2.533688 3.716739,-2.522975 6.041139,0.04546 1.469238,1.62349 2.844835,1.984506 6.66811,1.75 6.399312,-0.392512 6.60446,-2.212674 0.294205,-2.610318 -3.026798,-0.190736 -5.313162,-0.880624 -5.79969,-1.75 C 27.614973,37.489577 21.113701,37.540125 20.361626,39.5 19.959823,40.547082 18.326421,41 14.952028,41 10.375817,41 8.2759939,41.942661 9.6938532,43.36052 10.045567,43.712234 12.438589,44 15.011679,44 18.420033,44 20.181364,43.457077 21.5,42 Z m 9.943736,-5.616783 c 1.244067,-0.477393 1.347876,-0.929383 0.459343,-2 -1.58402,-1.908627 -13.234883,-1.89327 -14.822372,0.01954 -0.893976,1.077175 -0.86437,1.523051 0.127555,1.921053 1.857102,0.745146 12.334526,0.788872 14.235474,0.05941 z m 0.727523,-6.038205 C 34.376897,28.348938 34.465456,25.864454 32.557003,19.523149 31.13464,14.796995 26.696196,9 24.5,9 c -2.196196,0 -6.63464,5.796995 -8.057003,10.523149 -1.863389,6.191569 -1.819352,8.403502 0.211991,10.64811 2.241302,2.476612 12.840489,2.595303 15.516271,0.173753 z M 23,26.5 C 23,24.666667 22.466667,24 21,24 c -1.111111,0 -2,-0.666667 -2,-1.5 0,-0.833333 0.888889,-1.5 2,-1.5 1.466667,0 2,-0.666667 2,-2.5 0,-1.555556 0.566667,-2.5 1.5,-2.5 0.933333,0 1.5,0.944444 1.5,2.5 0,1.833333 0.533333,2.5 2,2.5 1.111111,0 2,0.666667 2,1.5 0,0.833333 -0.888889,1.5 -2,1.5 -1.466667,0 -2,0.666667 -2,2.5 C 26,28.055556 25.433333,29 24.5,29 23.566667,29 23,28.055556 23,26.5 Z m 4.316422,-3.636182 C 29.48882,22.728333 29.48848,22.725417 27.25,22.294267 25.63625,21.983445 24.957631,21.102927 24.850168,19.180449 L 24.700336,16.5 l -0.41659,2.75 c -0.299287,1.975657 -1.031441,2.788346 -2.600168,2.886182 -2.172398,0.135485 -2.172058,0.138401 0.06642,0.569551 1.61375,0.310822 2.292369,1.19134 2.399832,3.113818 L 24.299664,28.5 l 0.41659,-2.75 c 0.299287,-1.975657 1.031441,-2.788346 2.600168,-2.886182 z M 25.447214,3.9145898 C 25.125238,3.3936223 24.435557,3.2308108 23.91459,3.5527864 23.393622,3.874762 23.230811,4.5644427 23.552786,5.0854102 c 0.321976,0.5209675 1.011657,0.683779 1.532624,0.3618034 0.520968,-0.3219756 0.683779,-1.0116563 0.361804,-1.5326238 z"
       id="path22" />
  </g>
</svg>
