<?xml version="1.0" encoding="UTF-8" standalone="no"?>
<svg
   xmlns:dc="http://purl.org/dc/elements/1.1/"
   xmlns:cc="http://creativecommons.org/ns#"
   xmlns:rdf="http://www.w3.org/1999/02/22-rdf-syntax-ns#"
   xmlns:svg="http://www.w3.org/2000/svg"
   xmlns="http://www.w3.org/2000/svg"
   xmlns:xlink="http://www.w3.org/1999/xlink"
   xmlns:sodipodi="http://sodipodi.sourceforge.net/DTD/sodipodi-0.dtd"
   xmlns:inkscape="http://www.inkscape.org/namespaces/inkscape"
   version="1.1"
   id="svg24"
   width="48"
   height="48"
   viewBox="0 0 48 48"
   sodipodi:docname="WMarshal.svg"
   inkscape:version="1.0.2 (e86c870879, 2021-01-15, custom)">
  <metadata
     id="metadata30">
    <rdf:RDF>
      <cc:Work
         rdf:about="">
        <dc:format>image/svg+xml</dc:format>
        <dc:type
           rdf:resource="http://purl.org/dc/dcmitype/StillImage" />
        <dc:title></dc:title>
      </cc:Work>
    </rdf:RDF>
  </metadata>
  <defs
     id="defs28" />
  <sodipodi:namedview
     pagecolor="#ffffff"
     bordercolor="#666666"
     borderopacity="1"
     objecttolerance="10"
     gridtolerance="10"
     guidetolerance="10"
     inkscape:pageopacity="0"
     inkscape:pageshadow="2"
     inkscape:window-width="1768"
     inkscape:window-height="974"
     id="namedview26"
     showgrid="false"
     inkscape:zoom="16.666667"
     inkscape:cx="24"
     inkscape:cy="24"
     inkscape:window-x="0"
     inkscape:window-y="0"
     inkscape:window-maximized="0"
     inkscape:current-layer="g32" />
  <g
     inkscape:groupmode="layer"
     inkscape:label="Image"
     id="g32">
    <path
       style="fill:#000000"
       d="M 6.556704,42.777494 C 4.6327181,40.030619 4.5658597,37.15497 6.3777091,35.078741 8.0880562,33.118824 11.624734,22.884628 12.479649,17.421365 12.957915,14.36505 12.727138,13.018434 11.558946,12.048921 10.701526,11.337325 10,9.2352107 10,7.3775553 10,4.1841588 10.190835,4 13.5,4 16.566667,4 17,4.3095238 17,6.5 17,8.0555556 17.566667,9 18.5,9 19.433333,9 20,8.0555556 20,6.5 20,4.2037037 20.366667,4 24.5,4 28.633333,4 29,4.2037037 29,6.5 29,8.0555556 29.566667,9 30.5,9 31.433333,9 32,8.0555556 32,6.5 32,4.3095238 32.433333,4 35.5,4 38.809165,4 39,4.1841588 39,7.3775553 39,9.2352107 38.325,11.315311 37.5,12 c -2.884713,2.394099 -1.944804,12.263135 2,21 5.46368,12.100837 5.522765,12 -7.031326,12 H 21.937349 l 0.233332,-3.46466 c 0.128333,-1.905563 -0.01606,-3.714055 -0.320879,-4.018871 -0.304816,-0.304816 -2.308219,1.253881 -4.452007,3.463772 -4.531407,4.671132 -8.3811261,5.309345 -10.841091,1.797253 z m 11.833478,-5.023463 c 3.268905,-3.435284 5.449792,-5.323537 4.846416,-4.196118 -0.685688,1.281218 -0.753983,2.592102 -0.182135,3.495969 0.562954,0.88981 0.920802,0.990298 0.930224,0.261218 0.02494,-1.929993 2.0276,-6.636146 2.586229,-6.077517 0.283228,0.283227 -0.404136,2.933137 -1.527474,5.888688 C 23.920103,40.081822 23.000782,42.8375 23.000504,43.25 23.000227,43.6625 26.6,44 31,44 c 8.983172,0 9.053739,-0.08097 5.978038,-6.859204 -1.087921,-2.397562 -1.959966,-5.097562 -1.937878,-6 C 35.091553,29.041067 39.906211,39.91312 39.95984,42.25 39.981928,43.2125 40.45,44 41,44 44.488173,44 37.556534,30.584796 31.041966,24.72764 25.695206,19.920443 23.511122,19.006274 22.733379,21.25 22.49507,21.9375 21.971815,21.0375 21.57059,19.25 21.169365,17.4625 20.426844,16 19.920545,16 c -0.5063,0 -0.927436,1.4625 -0.935858,3.25 C 18.973067,21.716223 18.735598,22.138257 18,21 17.466844,20.175 17.023735,19.8926 17.015313,20.372445 16.993129,21.636348 14,18.961284 14,17.677555 14,16.975506 14.418176,17.018176 15.2,17.8 c 1.700357,1.700357 2.489311,1.49608 3.089749,-0.8 0.287656,-1.1 0.999308,-2 1.581448,-2 0.582139,0 1.540101,0.9 2.128803,2 0.588702,1.1 1.953238,2 3.032303,2 1.079064,0 3.763232,1.627363 5.964816,3.616362 L 35,26.232725 V 19.616362 13 H 24.561273 14.122546 l -0.672173,4.75 C 12.508662,24.404725 9.1476242,34.632593 7.4355626,36.053478 5.8317772,37.384502 5.4945201,40 6.9266758,40 7.4363475,40 8.0591469,39.2125 8.3106745,38.25 8.6548191,36.93309 8.7967053,37.05683 8.8839986,38.75 8.9477994,39.9875 8.5234424,41 7.940983,41 7.3585237,41 7.1600813,41.45 7.5,42 c 1.147247,1.856285 2.4374067,1.017285 3.459906,-2.25 l 1.017091,-3.25 -0.533812,3.75 c -0.293596,2.0625 -0.187909,3.75 0.234861,3.75 0.42277,0 3.443231,-2.810686 6.712136,-6.245969 z M 14.5,29 c -1.076859,-1.742395 0.519288,-3.228882 2.078017,-1.935251 0.769979,0.639025 1.153359,1.560877 0.851956,2.048558 C 16.700494,30.293627 15.265202,30.238122 14.5,29 Z M 36.8,10.8 C 37.46,10.14 38,8.565 38,7.3 38,5.5133333 37.442029,5 35.5,5 33.5,5 33,5.5 33,7.5 33,9.5 32.5,10 30.5,10 28.5,10 28,9.5 28,7.5 28,5.3095238 27.566667,5 24.5,5 21.433333,5 21,5.3095238 21,7.5 21,9.5 20.5,10 18.5,10 16.5,10 16,9.5 16,7.5 16,5.5 15.5,5 13.5,5 11.557971,5 11,5.5133333 11,7.3 c 0,1.265 0.54,2.84 1.2,3.5 1.650467,1.650467 22.949533,1.650467 24.6,0 z"
       id="path36" />
  </g>
</svg>
