<?xml version="1.0" encoding="UTF-8" standalone="no"?>
<svg
   xmlns:dc="http://purl.org/dc/elements/1.1/"
   xmlns:cc="http://creativecommons.org/ns#"
   xmlns:rdf="http://www.w3.org/1999/02/22-rdf-syntax-ns#"
   xmlns:svg="http://www.w3.org/2000/svg"
   xmlns="http://www.w3.org/2000/svg"
   xmlns:xlink="http://www.w3.org/1999/xlink"
   xmlns:sodipodi="http://sodipodi.sourceforge.net/DTD/sodipodi-0.dtd"
   xmlns:inkscape="http://www.inkscape.org/namespaces/inkscape"
   version="1.1"
   id="svg10"
   width="48"
   height="48"
   viewBox="0 0 48 48"
   sodipodi:docname="WQueen.svg"
   inkscape:version="1.0.2 (e86c870879, 2021-01-15, custom)">
  <metadata
     id="metadata16">
    <rdf:RDF>
      <cc:Work
         rdf:about="">
        <dc:format>image/svg+xml</dc:format>
        <dc:type
           rdf:resource="http://purl.org/dc/dcmitype/StillImage" />
        <dc:title></dc:title>
      </cc:Work>
    </rdf:RDF>
  </metadata>
  <defs
     id="defs14" />
  <sodipodi:namedview
     pagecolor="#ffffff"
     bordercolor="#666666"
     borderopacity="1"
     objecttolerance="10"
     gridtolerance="10"
     guidetolerance="10"
     inkscape:pageopacity="0"
     inkscape:pageshadow="2"
     inkscape:window-width="1642"
     inkscape:window-height="974"
     id="namedview12"
     showgrid="false"
     inkscape:zoom="16.666667"
     inkscape:cx="24"
     inkscape:cy="24"
     inkscape:window-x="0"
     inkscape:window-y="0"
     inkscape:window-maximized="0"
     inkscape:current-layer="g18" />
  <g
     inkscape:groupmode="layer"
     inkscape:label="Image"
     id="g18">
    <path
       style="fill:#000000"
       d="M 14.235509,43.75 C 13.680351,43.0625 12.921755,40.475 12.549741,38 11.685182,32.248101 7.1099429,19.020327 5.2126475,16.787245 3.5796175,14.865199 4.3245429,11.608434 6.2505259,12.249708 6.9377367,12.478522 7.6574235,13.528443 7.8498301,14.582866 8.0422366,15.63729 9.0248422,17.4 10.033398,18.5 c 1.008556,1.1 2.561631,3.35 3.451277,5 1.603909,2.974718 1.611935,2.949437 0.95246,-3 -0.365795,-3.3 -1.063793,-6.4275 -1.551108,-6.95 -1.339874,-1.436616 -1.06165,-5.1593565 0.481294,-6.4398865 1.946436,-1.6153979 4.009421,1.1387558 3.367656,4.4959325 -0.275206,1.439646 0.119068,3.804731 0.876164,5.255746 0.757096,1.451014 1.386201,3.538208 1.398011,4.638208 0.01181,1.1 0.433664,2.65153 0.937453,3.447845 0.990631,1.565845 0.946416,1.694306 3.001561,-8.720527 0.781793,-3.961886 0.735974,-5.760228 -0.184309,-7.2338349 -1.011377,-1.6194723 -0.923273,-2.2626382 0.505692,-3.6916033 1.640601,-1.6406016 1.820301,-1.6406016 3.460902,0 1.428965,1.4289651 1.517069,2.072131 0.505692,3.6916033 -0.920283,1.4736069 -0.966102,3.2719489 -0.184309,7.2338349 2.055145,10.414833 2.01093,10.286372 3.001561,8.720527 C 30.557184,24.15153 30.979038,22.6 30.990848,21.5 c 0.01181,-1.1 0.640915,-3.187194 1.398011,-4.638208 0.757096,-1.451015 1.15137,-3.8161 0.876164,-5.255746 -0.641765,-3.3571767 1.42122,-6.1113304 3.367656,-4.4959325 1.542944,1.28053 1.821168,5.0032705 0.481294,6.4398865 -0.487315,0.5225 -1.185313,3.65 -1.551108,6.95 -0.659475,5.949437 -0.651449,5.974718 0.95246,3 0.889646,-1.65 2.442721,-3.9 3.451277,-5 1.008556,-1.1 1.991161,-2.86271 2.183568,-3.917134 0.192406,-1.054423 0.912093,-2.104344 1.599304,-2.333158 1.925983,-0.641274 2.670908,2.615491 1.037879,4.537537 C 42.890057,19.020327 38.314818,32.248101 37.450259,38 36.434619,44.757031 36.002473,45 25,45 18.400914,45 14.91833,44.595593 14.235509,43.75 Z m 20.507851,-1 c 0.543537,-0.6875 1.197048,-2.413285 1.452246,-3.835078 0.437467,-2.437274 0.130675,-2.653924 -5.365805,-3.789203 -4.545387,-0.938835 -7.114215,-0.938835 -11.659602,0 -5.49648,1.135279 -5.803272,1.351929 -5.365805,3.789203 C 14.630582,43.51789 15.692023,44 25,44 c 5.810355,0 9.087505,-0.420434 9.74336,-1.25 z M 25,33.557241 c 2.475,0 6.1875,0.374702 8.25,0.832671 3.35129,0.744138 3.75,0.622103 3.75,-1.147779 0,-2.194848 -3.820751,-3.220122 -12,-3.220122 -8.179249,0 -12,1.025274 -12,3.220122 0,1.769882 0.39871,1.891917 3.75,1.147779 2.0625,-0.457969 5.775,-0.832671 8.25,-0.832671 z M 38.000504,29.5 c 2.78e-4,0 0.906792,-2.475 2.014476,-5.5 l 2.013971,-5.5 -2.509508,3 c -1.38023,1.65 -2.511744,3.5625 -2.514476,4.25 C 37.002235,26.4375 36.263043,27 35.362319,27 33.963088,27 33.819946,26.189073 34.379218,21.430539 35.079638,15.471056 33.6458,14.577975 32.50228,20.261468 31.354593,25.965671 30.893759,27 29.5,27 27.950837,27 27.396943,25.504989 26.443417,18.75 26.074639,16.1375 25.425102,14 25,14 24.574898,14 23.925361,16.1375 23.556583,18.75 22.603057,25.504989 22.049163,27 20.5,27 19.106241,27 18.645407,25.965671 17.49772,20.261468 16.3542,14.577975 14.920362,15.471056 15.620782,21.430539 16.180054,26.189073 16.036912,27 14.637681,27 c -0.900724,0 -1.639916,-0.5625 -1.642648,-1.25 -0.0027,-0.6875 -1.134246,-2.6 -2.514476,-4.25 l -2.5095084,-3 2.0139715,5.5 c 1.1076839,3.025 2.0141979,5.5 2.0144759,5.5 2.77e-4,0 5.850504,0 13.000504,0 7.15,0 13.000227,0 13.000504,0 z M 7,15 C 7,14.45 6.5234424,14 5.940983,14 5.3585237,14 5.1600813,14.45 5.5,15 5.8399187,15.55 6.3164763,16 6.559017,16 6.8015576,16 7,15.55 7,15 Z m 37.5,0 C 44.839919,14.45 44.641476,14 44.059017,14 43.476558,14 43,14.45 43,15 c 0,0.55 0.198442,1 0.440983,1 0.242541,0 0.719098,-0.45 1.059017,-1 z M 15.6,9.4 C 15.115953,8.1385928 14.634435,7.9655651 13.834435,8.7655651 13.229435,9.3705651 13.033939,10.646061 13.4,11.6 c 0.484047,1.261407 0.965565,1.434435 1.765565,0.634435 0.605,-0.605 0.800496,-1.880496 0.434435,-2.834435 z m 21,0 C 36.115953,8.1385928 35.634435,7.9655651 34.834435,8.7655651 34.229435,9.3705651 34.033939,10.646061 34.4,11.6 c 0.484047,1.261407 0.965565,1.434435 1.765565,0.634435 C 36.770565,11.629435 36.966061,10.353939 36.6,9.4 Z M 26.457295,8.0690983 C 27.196836,6.8724959 25.31567,5.6868712 23.983688,6.5100813 22.86533,7.2012647 23.599521,9 25,9 25.485081,9 26.140864,8.5810942 26.457295,8.0690983 Z"
       id="path22" />
  </g>
</svg>
