<?xml version="1.0" encoding="UTF-8" standalone="no"?>
<svg
   xmlns:dc="http://purl.org/dc/elements/1.1/"
   xmlns:cc="http://creativecommons.org/ns#"
   xmlns:rdf="http://www.w3.org/1999/02/22-rdf-syntax-ns#"
   xmlns:svg="http://www.w3.org/2000/svg"
   xmlns="http://www.w3.org/2000/svg"
   xmlns:sodipodi="http://sodipodi.sourceforge.net/DTD/sodipodi-0.dtd"
   xmlns:inkscape="http://www.inkscape.org/namespaces/inkscape"
   version="1.1"
   id="svg10"
   width="48"
   height="48"
   viewBox="0 0 48 48"
   sodipodi:docname="BFairyKnight.svg"
   inkscape:version="1.0.2 (e86c870879, 2021-01-15, custom)">
  <metadata
     id="metadata16">
    <rdf:RDF>
      <cc:Work
         rdf:about="">
        <dc:format>image/svg+xml</dc:format>
        <dc:type
           rdf:resource="http://purl.org/dc/dcmitype/StillImage" />
        <dc:title></dc:title>
      </cc:Work>
    </rdf:RDF>
  </metadata>
  <defs
     id="defs14" />
  <sodipodi:namedview
     pagecolor="#ffffff"
     bordercolor="#666666"
     borderopacity="1"
     objecttolerance="10"
     gridtolerance="10"
     guidetolerance="10"
     inkscape:pageopacity="0"
     inkscape:pageshadow="2"
     inkscape:window-width="1884"
     inkscape:window-height="974"
     id="namedview12"
     showgrid="false"
     inkscape:zoom="16.666667"
     inkscape:cx="24"
     inkscape:cy="24"
     inkscape:window-x="0"
     inkscape:window-y="0"
     inkscape:window-maximized="0"
     inkscape:current-layer="g18"
     inkscape:document-rotation="0" />
  <g
     inkscape:groupmode="layer"
     inkscape:label="Image"
     id="g18">
    <path
       style="fill:#000000"
       d="m 34.098298,4.4680145 c 0,0.763283 -1.623538,3.747997 -3.607863,6.6326985 -7.14824,10.391713 -6.574954,15.827815 0.796928,7.556747 5.62687,-6.313206 9.449118,-7.359588 12.254231,-3.354728 2.158979,3.082375 1.950553,5.384198 -0.823466,9.094216 -2.603791,3.48235 -6.61983,14.063151 -6.61983,17.440841 0,2.77237 -1.451903,3.60778 -3.009138,1.731427 -1.679038,-2.023117 -2.65779,-1.87066 -3.280611,0.511011 -0.669376,2.559697 -2.340342,2.559697 -3.710251,0 -0.588702,-1.100001 -1.973813,-2 -3.078025,-2 -2.905073,0 -11.710184,-8.648539 -14.5889688,-14.329548 C 6.0833922,23.1173 3.0982982,10.658381 3.0982982,5.4922585 V 3.0802265 H 18.598298 c 12.554098,0 15.5,0.26376 15.5,1.387788 z M 7.0598682,12.804852 c 1.154666,7.216117 5.9050118,20.80213 5.9973638,17.152493 0.02259,-0.892585 -0.818308,-3.592585 -1.868653,-6 C 10.138233,21.54993 8.7246522,16.081307 8.0472862,11.804852 7.3699212,7.5283955 6.5907142,4.2544775 6.3157142,4.5294775 c -0.275,0.275 0.05987,3.998918 0.744154,8.2753745 z m 31.5227248,4.346881 c -0.9397,4.278425 -0.161981,4.530118 1.140406,0.36907 0.592286,-1.892317 0.729782,-3.440576 0.305546,-3.440576 -0.424235,0 -1.074913,1.382178 -1.445952,3.071506 z m 2.594653,2.178494 c 0.05275,1.503442 0.268406,1.752295 0.649944,0.75 0.314048,-0.825 1.066022,-1.830609 1.671052,-2.234688 0.678534,-0.453168 0.429487,-0.740555 -0.649944,-0.75 -1.175721,-0.01029 -1.724092,0.723046 -1.671052,2.234688 z M 21.566343,29.881605 c 0.63911,0.639109 2.550103,-4.497626 2.461493,-6.616479 -0.03875,-0.926694 -0.715544,0.07581 -1.503977,2.22779 -0.788433,2.151979 -1.219315,4.126889 -0.957516,4.388689 z m 3.531955,-2.801378 c -0.588702,1.1 -0.845368,2 -0.570368,2 0.275,0 0.981666,-0.9 1.570368,-2 0.588702,-1.100001 0.845368,-2 0.570368,-2 -0.275,0 -0.981666,0.899999 -1.570368,2 z m 5.570027,4.886693 c -0.301403,0.48768 0.08198,1.409532 0.851956,2.048558 1.558729,1.29363 3.154876,-0.192856 2.078017,-1.935251 -0.765202,-1.238122 -2.200494,-1.293628 -2.929973,-0.113307 z"
       id="path22" />
    <path
       style="fill:#ffffff;stroke-width:0.06"
       d="m 32.725186,31.32493 c 0.551955,0.275051 1.013295,0.907218 1.159468,1.5888 0.185247,0.863776 -0.483565,1.637497 -1.328923,1.537377 -0.617579,-0.07314 -1.3558,-0.646685 -1.71518,-1.332564 -0.337971,-0.64502 -0.315076,-0.95897 0.104804,-1.437187 0.442811,-0.504333 1.184828,-0.652928 1.779831,-0.356426 z"
       id="path40" />
    <path
       style="fill:#ffffff;stroke-width:0.06"
       d="m 43.557762,17.217325 c 0.126206,0.04501 0.243421,0.09579 0.260479,0.112845 0.07773,0.07773 -0.07129,0.292849 -0.338997,0.489363 -0.590463,0.433439 -1.27009,1.307341 -1.600201,2.057623 -0.281604,0.640037 -0.334306,0.733071 -0.415269,0.733071 -0.140402,0 -0.224542,-0.48268 -0.2301,-1.32 -0.0043,-0.64908 0.01712,-0.874621 0.107858,-1.135274 0.157252,-0.451717 0.510336,-0.820349 0.895228,-0.93465 0.373739,-0.110989 1.014079,-0.112432 1.321002,-0.003 z"
       id="path42" />
    <path
       style="fill:#ffffff;stroke-width:0.06"
       d="m 40.185974,14.295227 c 0.08765,0.223517 0.02644,1.105405 -0.125505,1.808129 -0.349607,1.616882 -1.201236,3.899607 -1.591702,4.26643 l -0.14021,0.131721 -0.07348,-0.137303 c -0.152417,-0.284794 0.04864,-1.904232 0.431296,-3.473977 0.459027,-1.88302 1.245263,-3.243569 1.499604,-2.595 z"
       id="path44" />
    <path
       style="fill:#ffffff;stroke-width:0.06"
       d="m 26.738298,25.280318 c 0,0.648843 -1.085116,2.704114 -1.838173,3.481601 -0.363427,0.375219 -0.474427,0.367147 -0.419918,-0.03054 0.10749,-0.784225 1.203978,-2.762593 1.872846,-3.379134 0.310886,-0.286561 0.385245,-0.300445 0.385245,-0.07193 z"
       id="path46" />
    <path
       style="fill:#ffffff;stroke-width:0.06"
       d="m 23.938298,22.990227 c 0.07341,0.07341 0.04078,1.003343 -0.05427,1.546776 -0.361492,2.066675 -1.510965,5.016325 -2.071825,5.316488 -0.0908,0.04859 -0.145281,0.04539 -0.215231,-0.01267 -0.424564,-0.352356 1.070176,-5.233051 2.032189,-6.635596 0.173002,-0.252224 0.231342,-0.292799 0.309141,-0.215 z"
       id="path48" />
    <path
       style="fill:#ffffff;stroke-width:0.06"
       d="m 6.4846112,4.7630955 c 0.320782,0.620325 0.866613,3.11327 1.499181,6.8471305 0.480147,2.834167 0.797566,4.346067 1.442337,6.87 0.6381208,2.497903 1.1329558,4.043419 1.8437868,5.75869 1.079594,2.605116 1.729131,4.737659 1.727386,5.67131 -4.63e-4,0.2475 -0.0247,0.487684 -0.05387,0.533743 -0.557394,0.880286 -3.7185108,-7.933761 -5.2502858,-14.639215 -0.558129,-2.443251 -1.040813,-5.575618 -1.325094,-8.5991635 -0.101212,-1.076476 -0.119389,-2.529967 -0.03231,-2.583784 0.03159,-0.01953 0.09858,0.04405 0.148869,0.141289 z"
       id="path50" />
  </g>
</svg>
