<?xml version="1.0" encoding="UTF-8" standalone="no"?>
<svg
   xmlns:dc="http://purl.org/dc/elements/1.1/"
   xmlns:cc="http://creativecommons.org/ns#"
   xmlns:rdf="http://www.w3.org/1999/02/22-rdf-syntax-ns#"
   xmlns:svg="http://www.w3.org/2000/svg"
   xmlns="http://www.w3.org/2000/svg"
   xmlns:sodipodi="http://sodipodi.sourceforge.net/DTD/sodipodi-0.dtd"
   xmlns:inkscape="http://www.inkscape.org/namespaces/inkscape"
   version="1.1"
   id="svg10"
   width="48"
   height="48"
   viewBox="0 0 48 48"
   sodipodi:docname="BKnight.svg"
   inkscape:version="1.0.2 (e86c870879, 2021-01-15, custom)">
  <metadata
     id="metadata16">
    <rdf:RDF>
      <cc:Work
         rdf:about="">
        <dc:format>image/svg+xml</dc:format>
        <dc:type
           rdf:resource="http://purl.org/dc/dcmitype/StillImage" />
        <dc:title />
      </cc:Work>
    </rdf:RDF>
  </metadata>
  <defs
     id="defs14" />
  <sodipodi:namedview
     pagecolor="#ffffff"
     bordercolor="#666666"
     borderopacity="1"
     objecttolerance="10"
     gridtolerance="10"
     guidetolerance="10"
     inkscape:pageopacity="0"
     inkscape:pageshadow="2"
     inkscape:window-width="1884"
     inkscape:window-height="974"
     id="namedview12"
     showgrid="false"
     inkscape:zoom="16.666667"
     inkscape:cx="24"
     inkscape:cy="24"
     inkscape:window-x="0"
     inkscape:window-y="0"
     inkscape:window-maximized="0"
     inkscape:current-layer="g18"
     inkscape:document-rotation="0" />
  <g
     inkscape:groupmode="layer"
     inkscape:label="Image"
     id="g18">
    <path
       style="fill:#000000"
       d="m 14,44.612212 c 0,-0.763283 1.623538,-3.747997 3.607863,-6.632698 C 24.756103,27.5878 24.182817,22.151699 16.810935,30.422766 11.184065,36.735972 7.3618173,37.782354 4.556704,33.777494 2.3977248,30.695119 2.6061513,28.393296 5.3801707,24.683278 7.9839608,21.200928 12,10.620127 12,7.2424379 12,4.4700678 13.451903,3.6346575 15.009138,5.5110105 16.688176,7.5341279 17.666928,7.3816707 18.289749,5 18.959125,2.440302 20.630091,2.440302 22,5 c 0.588702,1.1 1.973813,2 3.078025,2 2.905073,0 11.710184,8.648538 14.588969,14.329548 C 42.014906,25.962927 45,38.421846 45,43.587968 V 46 H 29.5 C 16.945902,46 14,45.73624 14,44.612212 Z m 27.03843,-8.336837 c -1.154666,-7.216117 -5.905012,-20.802131 -5.997364,-17.152493 -0.02259,0.892585 0.818308,3.592585 1.868653,6 1.050346,2.407415 2.463927,7.876037 3.141293,12.152493 0.677365,4.276456 1.456572,7.550374 1.731572,7.275374 0.275,-0.275 -0.05987,-3.998918 -0.744154,-8.275374 z M 9.5157054,31.928494 C 10.455405,27.650068 9.6776867,27.398375 8.375299,31.559424 7.7830134,33.451741 7.6455176,35 8.0697528,35 8.493988,35 9.1446666,33.617822 9.5157054,31.928494 Z M 6.9210526,29.75 C 6.8683003,28.246558 6.6526465,27.997705 6.2711085,29 5.9570604,29.825 5.2050867,30.830609 4.6000559,31.234687 3.9215223,31.687855 4.1705695,31.975242 5.25,31.984687 6.4257217,31.994975 6.9740927,31.261642 6.9210526,29.75 Z M 26.531955,19.198622 c -0.63911,-0.63911 -2.550103,4.497626 -2.461493,6.616478 0.03875,0.926695 0.715544,-0.07581 1.503977,-2.22779 0.788433,-2.151979 1.219315,-4.126889 0.957516,-4.388688 z M 23,22 c 0.588702,-1.1 0.845368,-2 0.570368,-2 -0.275,0 -0.981666,0.9 -1.570368,2 -0.588702,1.1 -0.845368,2 -0.570368,2 0.275,0 0.981666,-0.9 1.570368,-2 z M 17.429973,17.113307 C 17.731376,16.625626 17.347996,15.703774 16.578017,15.064749 15.019288,13.771118 13.423141,15.257605 14.5,17 c 0.765202,1.238122 2.200494,1.293627 2.929973,0.113307 z"
       id="path22" />
    <path
       style="fill:#ffffff;stroke-width:0.06"
       d="M 15.373112,17.755297 C 14.821157,17.480246 14.359817,16.848079 14.213644,16.166496 14.028397,15.30272 14.697209,14.529 15.542567,14.62912 c 0.617579,0.07314 1.3558,0.646684 1.71518,1.332564 0.337971,0.645019 0.315076,0.95897 -0.104804,1.437187 -0.442811,0.504333 -1.184828,0.652928 -1.779831,0.356426 z"
       id="path40" />
    <path
       style="fill:#ffffff;stroke-width:0.06"
       d="m 4.5405358,31.862902 c -0.1262055,-0.04501 -0.2434207,-0.09579 -0.2604783,-0.112845 -0.077729,-0.07773 0.071292,-0.292849 0.3389971,-0.489363 0.5904628,-0.433439 1.27009,-1.307341 1.6002003,-2.057623 C 6.5008595,28.563033 6.5535608,28.47 6.6345242,28.47 c 0.1404022,0 0.224542,0.48268 0.2300997,1.32 0.00431,0.64908 -0.017119,0.874621 -0.107858,1.135274 -0.157252,0.451717 -0.5103355,0.820349 -0.8952272,0.93465 -0.3737392,0.110989 -1.0140791,0.112432 -1.3210029,0.003 z"
       id="path42" />
    <path
       style="fill:#ffffff;stroke-width:0.06"
       d="m 7.9123245,34.785 c -0.087653,-0.223517 -0.02644,-1.105405 0.1255048,-1.808129 0.3496068,-1.616882 1.2012363,-3.899607 1.5917018,-4.26643 l 0.1402103,-0.131721 0.073483,0.137303 C 9.9956409,29.000817 9.7945869,30.620255 9.4119281,32.19 8.9529017,34.07302 8.1666648,35.433569 7.9123245,34.785 Z"
       id="path44" />
    <path
       style="fill:#ffffff;stroke-width:0.06"
       d="m 21.36,23.799909 c 0,-0.648843 1.085116,-2.704114 1.838173,-3.481602 0.363427,-0.375218 0.474427,-0.367146 0.419918,0.03054 -0.10749,0.784224 -1.203978,2.762593 -1.872846,3.379134 C 21.434359,24.014542 21.36,24.028426 21.36,23.799909 Z"
       id="path46" />
    <path
       style="fill:#ffffff;stroke-width:0.06"
       d="m 24.16,26.09 c -0.07341,-0.07341 -0.04078,-1.003344 0.05427,-1.546776 0.361492,-2.066675 1.510965,-5.016325 2.071825,-5.316488 0.0908,-0.04859 0.145281,-0.04539 0.215231,0.01267 0.424564,0.352356 -1.070176,5.23305 -2.032189,6.635596 -0.173002,0.252224 -0.231342,0.292799 -0.309141,0.215 z"
       id="path48" />
    <path
       style="fill:#ffffff;stroke-width:0.06"
       d="M 41.613687,44.317131 C 41.292905,43.696806 40.747074,41.203861 40.114506,37.47 39.634359,34.635833 39.31694,33.123933 38.672169,30.6 38.034048,28.102097 37.539213,26.556581 36.828382,24.84131 35.748788,22.236194 35.099251,20.103651 35.100996,19.17 c 4.63e-4,-0.2475 0.0247,-0.487684 0.05387,-0.533743 0.557394,-0.880286 3.718511,7.933761 5.250286,14.639215 0.558129,2.443251 1.040813,5.575618 1.325094,8.599164 0.101212,1.076476 0.119389,2.529967 0.03231,2.583784 -0.03159,0.01953 -0.09858,-0.04405 -0.148868,-0.141289 z"
       id="path50" />
  </g>
</svg>
