<?xml version="1.0" encoding="UTF-8" standalone="no"?>
<svg
   xmlns:dc="http://purl.org/dc/elements/1.1/"
   xmlns:cc="http://creativecommons.org/ns#"
   xmlns:rdf="http://www.w3.org/1999/02/22-rdf-syntax-ns#"
   xmlns:svg="http://www.w3.org/2000/svg"
   xmlns="http://www.w3.org/2000/svg"
   xmlns:sodipodi="http://sodipodi.sourceforge.net/DTD/sodipodi-0.dtd"
   xmlns:inkscape="http://www.inkscape.org/namespaces/inkscape"
   version="1.0"
   width="64"
   height="64"
   id="svg3153"
   sodipodi:docname="Chess_tile_bl_inverted.svg"
   inkscape:version="1.0.2 (e86c870879, 2021-01-15, custom)">
  <metadata
     id="metadata10">
    <rdf:RDF>
      <cc:Work
         rdf:about="">
        <dc:format>image/svg+xml</dc:format>
        <dc:type
           rdf:resource="http://purl.org/dc/dcmitype/StillImage" />
        <dc:title></dc:title>
      </cc:Work>
    </rdf:RDF>
  </metadata>
  <sodipodi:namedview
     pagecolor="#ffffff"
     bordercolor="#666666"
     borderopacity="1"
     objecttolerance="10"
     gridtolerance="10"
     guidetolerance="10"
     inkscape:pageopacity="0"
     inkscape:pageshadow="2"
     inkscape:window-width="902"
     inkscape:window-height="974"
     id="namedview8"
     showgrid="false"
     inkscape:zoom="6"
     inkscape:cx="32"
     inkscape:cy="32"
     inkscape:window-x="309"
     inkscape:window-y="0"
     inkscape:window-maximized="0"
     inkscape:current-layer="svg3153"
     inkscape:document-rotation="0" />
  <defs
     id="defs3156" />
  <g
     transform="matrix(1.1703574,0,0,-1.148232,-3.7619812,71.404431)"
     id="g4479">
    <path
       d="m 30.543529,10.924369 c -1.741709,0 -3.147041,1.39383 -3.147036,3.110609 0,1.716779 1.405327,3.10199 3.147036,3.10199 1.741712,0 3.155778,-1.385211 3.155782,-3.10199 0,-1.716779 -1.414074,-3.110609 -3.155782,-3.110609 z m 0,6.212599 c -13.883171,4.976167 -14.75515,17.417988 -7.813564,19.284051 l -2.64428,6.438968 c 2.918383,3.987606 17.754253,4.211203 21.03546,0 l -2.755309,-6.438968 c 6.941588,-1.866063 6.060872,-14.307884 -7.822307,-19.284051 z m 0,29.141965 C 27.744342,48.26015 24.575584,50.80374 20.201131,48.856595 17.54928,47.676212 10.072802,52.010747 9.2665238,52.766879 l 2.2842342,3.123986 c 5.963094,-4.446972 12.965081,-0.191715 18.992771,-4.1551 5.53002,4.122383 10.880763,-1.34908 17.765441,3.762991 l 2.883162,-3.167329 c 0,0 -6.830308,-4.252753 -10.325294,-3.329681 -6.057021,1.599743 -7.645987,-0.827854 -10.323309,-2.722813 z m 0.0039,-22.38625 V 30.11289 M 27.392168,27.002784 H 33.7027"
       id="path4582"
       style="display:inline;fill:#ffffff;fill-opacity:1;fill-rule:evenodd;stroke:#000000;stroke-width:2.0059;stroke-linecap:round;stroke-linejoin:miter;stroke-miterlimit:4;stroke-dasharray:none;stroke-opacity:1"
       sodipodi:nodetypes="ssssscccccccscccccsccccc" />
    <path
       d="m 22.68221,36.572345 c 4.182284,-2.110883 11.875828,-1.672221 16.058113,0"
       id="path4588"
       style="display:inline;fill:none;fill-opacity:0.75;fill-rule:evenodd;stroke:#000000;stroke-width:2;stroke-linecap:butt;stroke-linejoin:miter;stroke-miterlimit:4;stroke-dasharray:none;stroke-opacity:1" />
    <path
       d="M 21.030855,42.853497 C 27.073657,39.471968 33.653072,39.048245 40.28131,42.665764"
       id="path4590"
       style="display:inline;fill:none;stroke:#000000;stroke-width:2;stroke-linecap:butt;stroke-linejoin:miter;stroke-miterlimit:4;stroke-dasharray:none;stroke-opacity:1" />
  </g>
</svg>
