<?xml version="1.0" encoding="UTF-8"?>
<!DOCTYPE svg PUBLIC "-//W3C//DTD SVG 1.0//EN" "http://www.w3.org/TR/2001/REC-SVG-20010904/DTD/svg10.dtd">
<svg xmlns:svg="http://www.w3.org/2000/svg" xmlns="http://www.w3.org/2000/svg" version="1.0" width="64" height="64" viewBox="0 0 750 750">
   <g transform="matrix(1.48186,0,0,1.48186,4.509212,-0.174521)">
   <path style="fill:#ffffff;fill-opacity:1" d="M 296.5,446.2528 C 317.04585,444.9725 337.00545,442.12639 351.70929,438.38025 C 364.47744,435.12727 375.5752,431.17222 375.8291,429.78438 C 376.22764,427.60587 349.16264,419.61534 324.99951,414.7777 C 297.03749,409.1795 282.76179,407.85249 250.5,407.85249 C 218.23723,407.85249 203.96153,409.1795 175.99951,414.7777 C 151.83082,419.61645 125.05441,427.5184 125.25424,429.75307 C 125.30159,430.28262 128.18865,431.79316 131.66992,433.10984 C 147.9659,439.27327 176.52687,444.58233 201.99951,446.18307 C 221.22351,447.39113 277.56436,447.43271 296.5,446.2528 z M 129,408.99227 C 154.0989,400.81273 180.86343,394.89278 207.5,391.62914 C 218.28448,390.30768 229.30146,389.85249 250.5,389.85249 C 271.69756,389.85249 282.71454,390.30768 293.5,391.62914 C 320.66313,394.95742 349.72827,401.48193 374.69474,409.85574 C 381.93221,412.28321 388.0482,414.0749 388.28582,413.83728 C 389.136,412.9871 387.27813,397.37098 386.15034,395.8878 C 383.4,392.27078 341.36518,381.99575 312.5,377.88452 C 269.47143,371.75618 232.27711,371.75318 188.71617,377.87452 C 158.99151,382.05153 116.49874,392.55466 114.54348,396.20811 C 114.06715,397.09813 113.34793,401.6036 112.94521,406.22026 C 112.33698,413.19293 112.44891,414.52448 113.60626,414.08443 C 114.37255,413.79307 121.29951,411.5016 129,408.99227 z M 129.30098,372.38103 C 209.4418,349.73197 291.60598,349.74575 371.84196,372.42171 C 379.52887,374.59415 386.14673,376.0158 386.54831,375.58093 C 387.59833,374.44387 390.43294,341.94312 389.56359,341.00874 C 388.43733,339.79822 360.24248,333.7077 342.73916,330.89393 C 279.91848,320.79512 221.08054,320.79512 158.25986,330.89393 C 140.76487,333.70636 112.5651,339.79734 111.43073,341.00874 C 110.75681,341.72842 113.07608,372.19748 114.02117,375.04026 C 114.562,376.66702 113.45205,376.86019 129.30098,372.38103 z M 124.42992,319.3048 C 151.81204,313.05736 186.35268,308.18625 216.5,306.32064 C 225.57451,305.75904 234.46201,305.29746 236.24951,305.29491 C 239.18225,305.29071 239.5,305.00166 239.5,302.33388 C 239.5,298.38466 234.13635,272.8284 231.17777,262.67957 C 222.99897,234.62375 192.80941,199.67748 159.36552,179.55247 C 138.73207,167.13619 122.61883,161.58037 104.5,160.63474 C 85.108612,159.62275 71.191163,164.45864 59.249195,176.35784 C 47.754382,187.8115 42.721281,201.5019 43.833281,218.29026 C 44.86099,233.80606 50.013551,244.07942 69.161335,268.79026 C 79.348053,281.93655 91.986696,300.38244 98.966406,312.29026 C 105.83195,324.00328 105.43792,323.55589 108.34231,322.93609 C 109.80377,322.62421 117.04319,320.99013 124.42992,319.3048 z M 402.38974,311.79026 C 412.04608,295.75039 419.58868,284.75641 432.18912,268.35514 C 451.38316,243.37136 456.22916,233.6783 457.19175,218.34438 C 458.25276,201.44282 453.23636,187.80325 441.74982,176.35784 C 429.80785,164.45864 415.8904,159.62275 396.5,160.63474 C 378.38019,161.58037 362.26695,167.13619 341.6335,179.55247 C 308.18961,199.67748 278.00005,234.62375 269.82125,262.67957 C 266.90481,272.68386 261.5,298.36278 261.5,302.21361 L 261.5,305.0497 L 274.24951,305.71323 C 312.86626,307.72289 362.22326,314.73658 386.99951,321.73514 C 389.74951,322.51193 392.84731,323.06711 393.88351,322.96888 C 395.13028,322.85067 398.00738,319.06968 402.38974,311.79026 z M 252.37535,257.54026 C 253.58782,254.55917 266.47511,217.28703 272.17022,200.29026 C 284.06052,164.80426 283.10223,139.48111 269.2746,123.77209 C 258.3789,111.39392 242.62012,111.39392 231.72442,123.77209 C 223.0695,133.6046 219.75599,145.50257 220.86937,162.7498 C 221.95033,179.49474 223.39565,184.80682 239.92611,232.79026 C 248.70637,258.27696 249.48045,260.29026 250.5,260.29026 C 250.91606,260.29026 251.76019,259.05276 252.37535,257.54026 z"/>
    <path d="M 202,464.18307 C 164.58752,461.83204 131.08398,453.59351 104.21633,440.13815 C 91.903665,433.97196 91.713248,433.61556 93.305291,419.7163 C 97.17103,385.96664 97.078224,390.11067 94.597677,362.00757 L 92.283581,335.79026 L 86.254717,325.29026 C 77.93189,310.79505 68.020974,296.13528 56.169939,280.79026 C 39.239316,258.86806 33.567118,249.38947 28.941734,235.29026 C 26.547647,227.99254 26.142354,225.09292 26.076366,214.79026 C 26.012756,204.859 26.403433,201.4973 28.34254,195.29026 C 32.370177,182.39788 38.082186,172.6439 46.496387,164.29026 C 57.855267,153.01313 68.642221,147.40726 85.804252,143.86234 C 116.68738,137.48326 158.34385,152.888 196.35156,184.7432 C 202.04518,189.51516 206.94684,193.17626 207.24413,192.87897 C 207.54143,192.58168 206.79444,187.7151 205.58416,182.06435 C 199.88137,155.43829 202.70042,134.66518 214.34321,117.52042 C 219.85255,109.40756 225.41059,104.78138 235.27342,100.09937 L 243.54733,96.171647 L 243.27342,79.480954 L 242.99951,62.790261 L 226.99951,62.290261 L 210.99951,61.790261 L 210.99951,54.790261 L 210.99951,47.790261 L 226.99951,47.290261 L 242.99951,46.790261 L 243.5,36.290261 L 243.99951,25.790261 L 250.99951,25.790261 L 257.99951,25.790261 L 258.5,36.290261 L 259,46.790261 L 275,47.290261 L 290,47.790261 L 290,54.790261 L 290,61.790261 L 275,62.290261 L 259,62.790261 L 259,79.752014 L 259,96.713767 L 266.23035,100.25201 C 275.44298,104.76 281.41123,109.79743 286.61042,117.45358 C 298.30146,134.6694 301.12618,155.39844 295.41486,182.06435 C 294.20458,187.7151 293.45759,192.58168 293.75489,192.87897 C 294.05218,193.17626 298.95384,189.51516 304.64746,184.7432 C 342.65517,152.888 384.31164,137.48326 415.19476,143.86234 C 432.3568,147.40726 443.14375,153.01313 454.50263,164.29026 C 470.88733,180.55704 478.53121,205.19984 474.05532,227.32542 C 470.76291,243.6007 464.01248,255.959 444.8514,280.79026 C 432.9838,296.16973 423.05953,310.84254 414.75102,325.29297 L 408.71544,335.79026 L 406.40134,362.00757 C 404.37765,384.93478 404.2351,389.51528 405.26544,398.50757 C 405.91345,404.16305 406.9936,413.59448 407.66579,419.4663 C 409.28914,433.64698 409.12617,433.95652 396.78269,440.13815 C 369.05013,454.02666 337.02536,461.72751 296.5,464.2528 C 277.56436,465.43271 221.22351,465.39113 202,464.18307 z M 296.5,446.2528 C 317.04585,444.9725 337.00545,442.12639 351.70929,438.38025 C 364.47744,435.12727 375.5752,431.17222 375.8291,429.78438 C 376.22764,427.60587 349.16264,419.61534 324.99951,414.7777 C 297.03749,409.1795 282.76179,407.85249 250.5,407.85249 C 218.23723,407.85249 203.96153,409.1795 175.99951,414.7777 C 151.83082,419.61645 125.05441,427.5184 125.25424,429.75307 C 125.30159,430.28262 128.18865,431.79316 131.66992,433.10984 C 147.9659,439.27327 176.52687,444.58233 201.99951,446.18307 C 221.22351,447.39113 277.56436,447.43271 296.5,446.2528 z M 129,408.99227 C 154.0989,400.81273 180.86343,394.89278 207.5,391.62914 C 218.28448,390.30768 229.30146,389.85249 250.5,389.85249 C 271.69756,389.85249 282.71454,390.30768 293.5,391.62914 C 320.66313,394.95742 349.72827,401.48193 374.69474,409.85574 C 381.93221,412.28321 388.0482,414.0749 388.28582,413.83728 C 389.136,412.9871 387.27813,397.37098 386.15034,395.8878 C 383.4,392.27078 341.36518,381.99575 312.5,377.88452 C 269.47143,371.75618 232.27711,371.75318 188.71617,377.87452 C 158.99151,382.05153 116.49874,392.55466 114.54348,396.20811 C 114.06715,397.09813 113.34793,401.6036 112.94521,406.22026 C 112.33698,413.19293 112.44891,414.52448 113.60626,414.08443 C 114.37255,413.79307 121.29951,411.5016 129,408.99227 z M 129.30098,372.38103 C 209.4418,349.73197 291.60598,349.74575 371.84196,372.42171 C 379.52887,374.59415 386.14673,376.0158 386.54831,375.58093 C 387.59833,374.44387 390.43294,341.94312 389.56359,341.00874 C 388.43733,339.79822 360.24248,333.7077 342.73916,330.89393 C 279.91848,320.79512 221.08054,320.79512 158.25986,330.89393 C 140.76487,333.70636 112.5651,339.79734 111.43073,341.00874 C 110.75681,341.72842 113.07608,372.19748 114.02117,375.04026 C 114.562,376.66702 113.45205,376.86019 129.30098,372.38103 z M 124.42992,319.3048 C 151.81204,313.05736 186.35268,308.18625 216.5,306.32064 C 225.57451,305.75904 234.46201,305.29746 236.24951,305.29491 C 239.18225,305.29071 239.5,305.00166 239.5,302.33388 C 239.5,298.38466 234.13635,272.8284 231.17777,262.67957 C 222.99897,234.62375 192.80941,199.67748 159.36552,179.55247 C 138.73207,167.13619 122.61883,161.58037 104.5,160.63474 C 85.108612,159.62275 71.191163,164.45864 59.249195,176.35784 C 47.754382,187.8115 42.721281,201.5019 43.833281,218.29026 C 44.86099,233.80606 50.013551,244.07942 69.161335,268.79026 C 79.348053,281.93655 91.986696,300.38244 98.966406,312.29026 C 105.83195,324.00328 105.43792,323.55589 108.34231,322.93609 C 109.80377,322.62421 117.04319,320.99013 124.42992,319.3048 z M 402.38974,311.79026 C 412.04608,295.75039 419.58868,284.75641 432.18912,268.35514 C 451.38316,243.37136 456.22916,233.6783 457.19175,218.34438 C 458.25276,201.44282 453.23636,187.80325 441.74982,176.35784 C 429.80785,164.45864 415.8904,159.62275 396.5,160.63474 C 378.38019,161.58037 362.26695,167.13619 341.6335,179.55247 C 308.18961,199.67748 278.00005,234.62375 269.82125,262.67957 C 266.90481,272.68386 261.5,298.36278 261.5,302.21361 L 261.5,305.0497 L 274.24951,305.71323 C 312.86626,307.72289 362.22326,314.73658 386.99951,321.73514 C 389.74951,322.51193 392.84731,323.06711 393.88351,322.96888 C 395.13028,322.85067 398.00738,319.06968 402.38974,311.79026 z M 252.37535,257.54026 C 253.58782,254.55917 266.47511,217.28703 272.17022,200.29026 C 284.06052,164.80426 283.10223,139.48111 269.2746,123.77209 C 258.3789,111.39392 242.62012,111.39392 231.72442,123.77209 C 223.0695,133.6046 219.75599,145.50257 220.86937,162.7498 C 221.95033,179.49474 223.39565,184.80682 239.92611,232.79026 C 248.70637,258.27696 249.48045,260.29026 250.5,260.29026 C 250.91606,260.29026 251.76019,259.05276 252.37535,257.54026 z " style="fill:#000000"/>
    </g>
</svg>