<?xml version="1.0" encoding="UTF-8" standalone="no"?>
<!-- Created with Inkscape (http://www.inkscape.org/) -->
<svg xmlns:dc="http://purl.org/dc/elements/1.1/" xmlns:cc="http://web.resource.org/cc/" xmlns:rdf="http://www.w3.org/1999/02/22-rdf-syntax-ns#" xmlns:svg="http://www.w3.org/2000/svg" xmlns="http://www.w3.org/2000/svg" xmlns:sodipodi="http://sodipodi.sourceforge.net/DTD/sodipodi-0.dtd" xmlns:inkscape="http://www.inkscape.org/namespaces/inkscape" id="svg3153" sodipodi:version="0.32" inkscape:version="0.44.1" width="504" height="504" version="1.0" sodipodi:docbase="/home/asereje/wikipedia/gaficos" sodipodi:docname="Chess_tile_bl.svg">
  <metadata id="metadata3158">
    <rdf:RDF>
      <cc:Work rdf:about="">
        <dc:format>image/svg+xml</dc:format>
        <dc:type rdf:resource="http://purl.org/dc/dcmitype/StillImage"/>
      </cc:Work>
    </rdf:RDF>
  </metadata>
  <defs id="defs3156"/>
  <sodipodi:namedview inkscape:window-height="767" inkscape:window-width="1278" inkscape:pageshadow="2" inkscape:pageopacity="0.0" guidetolerance="10.0" gridtolerance="10.0" objecttolerance="10.0" borderopacity="1.0" bordercolor="#666666" pagecolor="#ffffff" id="base" inkscape:zoom="1" inkscape:cx="313.86623" inkscape:cy="249.72476" inkscape:window-x="0" inkscape:window-y="0" inkscape:current-layer="svg3153"/>
  <path style="fill:black;fill-opacity:1;stroke:none;stroke-width:10;stroke-miterlimit:4;stroke-dasharray:none;stroke-dashoffset:0;stroke-opacity:0.53669727" d="M 252.375 44.0625 C 233.11643 44.0625 217.46875 59.245141 217.46875 77.96875 C 217.46875 96.692362 233.11642 111.875 252.375 111.875 C 271.63357 111.875 287.25001 96.692365 287.25 77.96875 C 287.25 59.245138 271.63357 44.062499 252.375 44.0625 z M 252.375 63.03125 C 261.36233 63.03125 268.65625 70.137314 268.65625 78.875 C 268.65627 87.612688 261.36233 94.71875 252.375 94.71875 C 243.38767 94.718754 236.09375 87.612686 236.09375 78.875 C 236.09375 70.137316 243.38767 63.03125 252.375 63.03125 z " id="path3166"/>
  <path style="fill:black;fill-opacity:1;fill-rule:evenodd;stroke:none;stroke-width:1px;stroke-linecap:butt;stroke-linejoin:miter;stroke-opacity:1" d="M 242.71875,101.5 C 239.55292,101.5 169.90122,152.14824 150.90625,172.5 C 137.37765,186.99493 126.03125,216.8089 126.03125,231.28125 C 126.03125,248.91944 132.82459,265.1952 139.15625,277.40625 C 145.48791,289.61731 166.74999,306.37501 166.75,306.375 C 166.75,306.375 153.60851,360.63018 153.15625,363.34375 C 152.70399,366.05732 154.97221,367.87673 156.78125,368.78125 C 158.59029,369.68578 167.61798,375.76211 169.90625,376.90625 C 173.52434,378.71529 195.22298,386.42619 205.625,388.6875 C 216.027,390.9488 223.71874,390.46874 223.71875,390.46875 C 223.71875,390.46875 221.46356,391.38019 218.75,394.09375 C 216.03643,396.80732 202.45933,400.44269 189.34375,403.15625 C 176.22818,405.86982 155.42634,401.34376 141.40625,401.34375 C 127.38615,401.34375 97.545224,408.13018 88.5,410.84375 C 79.45477,413.55732 42.355059,438.42619 40.09375,440.6875 C 37.83244,442.94881 37.376719,446.56768 38.28125,449.28125 C 39.18577,451.99481 77.1875,486.37499 77.1875,486.375 C 77.1875,486.375 84.440022,479.58339 93.9375,474.15625 C 103.43499,468.72912 114.28031,465.57208 121.96875,462.40625 C 129.65719,459.24042 160.85492,456.96704 174.875,456.0625 C 188.8951,455.15798 214.22818,453.34989 227.34375,448.375 C 236.17339,445.02582 251.75,437.53125 251.75,437.53125 L 251.84375,437.375 L 251.90625,437.53125 C 251.90625,437.53125 267.51411,445.02582 276.34375,448.375 C 289.45931,453.34989 314.76115,455.15798 328.78125,456.0625 C 342.80135,456.96704 374.03031,459.24042 381.71875,462.40625 C 389.40719,465.57208 400.25251,468.72912 409.75,474.15625 C 419.24749,479.58339 426.46875,486.375 426.46875,486.375 C 426.46875,486.37499 464.47048,451.99481 465.375,449.28125 C 466.27952,446.56768 465.82381,442.94881 463.5625,440.6875 C 461.30119,438.42619 424.23273,413.55732 415.1875,410.84375 C 406.14227,408.13018 376.2701,401.34375 362.25,401.34375 C 348.22992,401.34376 327.42807,405.86982 314.3125,403.15625 C 301.19692,400.44269 287.65107,396.80732 284.9375,394.09375 C 282.22392,391.38019 279.9375,390.46875 279.9375,390.46875 C 279.9375,390.46874 287.62925,390.9488 298.03125,388.6875 C 308.43325,386.42619 325.18828,380.9766 333.78125,376.90625 C 336.09334,375.81105 345.06596,369.68578 346.875,368.78125 C 348.68404,367.87673 350.95226,366.05732 350.5,363.34375 C 350.04775,360.63018 336.9375,306.375 336.9375,306.375 C 336.93749,306.37501 358.19959,289.61731 364.53125,277.40625 C 370.86291,265.1952 377.17274,251.63301 377.625,231.28125 C 378.08742,210.93476 366.2786,186.99493 352.75,172.5 C 333.75503,152.14824 264.13458,101.5 260.96875,101.5 C 258.08963,101.5 252.8159,107.22846 251.84375,108.3125 C 250.8716,107.22846 245.59786,101.5 242.71875,101.5 z M 251.90625,113.25 C 251.90625,113.25 252.36966,118.68829 265.9375,127.28125 C 279.50535,135.87421 321.99906,165.70305 329.6875,173.84375 C 337.37596,181.98445 361.46383,208.61171 360,237.15625 C 358.19095,272.88489 327,293.6875 327,293.6875 C 327.00001,293.6875 287.64007,274.70918 254.625,277.875 C 253.67914,277.9657 252.76194,278.0678 251.84375,278.1875 C 250.92556,278.0678 250.00836,277.9657 249.0625,277.875 C 216.04743,274.70918 176.68751,293.6875 176.6875,293.6875 C 176.6875,293.6875 145.49655,272.88489 143.6875,237.15625 C 142.22367,208.61171 166.28031,181.98445 173.96875,173.84375 C 181.65719,165.70305 224.18216,135.87421 237.75,127.28125 C 251.31784,118.68829 251.75,113.25 251.75,113.25 L 251.90625,113.25 z M 251.8125,296 C 253.01267,296.08871 254.21087,296.21223 255.375,296.40625 C 257.90122,296.82729 259.8644,296.67461 261.40625,296.125 C 268.0862,296.68093 274.12339,297.95438 277.25,298.21875 C 293.29626,299.57553 318.90771,306.31648 320.1875,309.53125 C 320.5701,310.49235 328.34375,345.25 328.34375,345.25 C 328.34376,345.25 284.48727,328.0625 253.28125,328.0625 C 252.77723,328.0625 252.32045,328.08446 251.84375,328.09375 C 251.36705,328.08446 250.91027,328.0625 250.40625,328.0625 C 219.20023,328.0625 175.34376,345.25 175.34375,345.25 C 175.34375,345.25 183.08615,310.49235 183.46875,309.53125 C 184.74854,306.31648 210.39124,299.57553 226.4375,298.21875 C 229.55918,297.9548 235.58267,296.68234 242.25,296.125 C 243.79379,296.67825 245.74804,296.82845 248.28125,296.40625 C 249.43534,296.2139 250.62289,296.08877 251.8125,296 z M 251.84375,346.1875 C 261.85533,346.54697 306.44486,350.63034 320.1875,360.625 C 325.16237,364.24308 274.06092,377.8125 256.875,377.8125 C 255.03769,377.8125 253.35278,378.45581 251.84375,379.375 C 250.33472,378.45581 248.61856,377.8125 246.78125,377.8125 C 229.59533,377.8125 178.49388,364.24308 183.46875,360.625 C 197.22336,350.62164 241.88393,346.54078 251.84375,346.1875 z M 244.53125,394.5625 C 244.53125,394.5625 245.88536,395.92102 251.3125,395.46875 C 251.49792,395.4533 251.66671,395.40879 251.84375,395.375 C 252.01571,395.40726 252.19516,395.45376 252.375,395.46875 C 257.80214,395.92102 259.15625,394.5625 259.15625,394.5625 C 259.15625,394.56249 276.79507,409.47566 284.03125,413.09375 C 291.26744,416.71185 325.16835,421.6875 331.5,421.6875 C 337.83166,421.68751 364.53643,419.875 367.25,419.875 C 369.96357,419.87499 398.4408,421.22126 416.53125,430.71875 C 434.62169,440.21622 442.75,446.125 442.75,446.125 L 425.125,463.75 C 425.125,463.75 401.1685,449.29083 391.21875,446.125 C 381.269,442.95917 345.98194,439.3125 328.34375,439.3125 C 310.72407,439.31249 292.39236,437.06689 277.25,431.1875 C 267.88903,427.55288 263.68231,426.64934 260.96875,423.03125 C 258.25518,419.41315 252.375,416.25 252.375,416.25 L 251.84375,417.40625 L 251.3125,416.25 C 251.3125,416.25 245.43232,419.41315 242.71875,423.03125 C 240.00519,426.64934 235.79847,427.55288 226.4375,431.1875 C 211.29514,437.06689 192.96345,439.31249 175.34375,439.3125 C 157.70556,439.3125 122.4185,442.95917 112.46875,446.125 C 102.519,449.29083 78.562499,463.75 78.5625,463.75 L 60.90625,446.125 C 60.90625,446.125 69.065812,440.21622 87.15625,430.71875 C 105.2467,421.22126 133.72395,419.87499 136.4375,419.875 C 139.15107,419.875 165.82458,421.68751 172.15625,421.6875 C 178.4879,421.6875 212.42007,416.71185 219.65625,413.09375 C 226.89243,409.47566 244.53125,394.56249 244.53125,394.5625 z " id="path3168" sodipodi:nodetypes="cssscsssscsssssscsssscccsssscsssssscsssscsssscccssccscsccsscccscsscssscsscsccsscssccscscssssccsssscccssssccssssc"/>
  <path style="fill:black;fill-opacity:1;stroke:none;stroke-width:10;stroke-miterlimit:4;stroke-dasharray:none;stroke-dashoffset:0;stroke-opacity:0.53669727" d="M 252.375 165.25 C 248.30739 165.25 244.85533 167.95977 243.71875 171.65625 L 242.40625 171.59375 L 243.78125 197.8125 L 219.34375 197.8125 L 219.34375 198.3125 C 214.76993 198.76191 211.21875 202.6212 211.21875 207.3125 C 211.21875 212.30546 215.25703 216.375 220.25 216.375 C 221.24453 216.375 222.19846 216.20321 223.09375 215.90625 L 243.3125 215.90625 L 242.875 239.4375 L 243.34375 239.46875 C 243.60149 244.23138 247.54843 248.03126 252.375 248.03125 C 256.59463 248.03125 260.12723 245.12903 261.125 241.21875 L 261.40625 241.25 L 261.40625 215.90625 L 280.71875 215.90625 C 281.61557 216.20434 282.566 216.375 283.5625 216.375 C 288.55546 216.375 292.62501 212.30546 292.625 207.3125 C 292.625 202.31954 288.55545 198.28125 283.5625 198.28125 L 283.5625 197.8125 L 260.96875 197.375 L 260.28125 178.65625 C 260.99105 177.36542 261.40625 175.88873 261.40625 174.3125 C 261.40625 169.31954 257.36797 165.25001 252.375 165.25 z " id="path3173"/>
</svg>