<?xml version="1.0" encoding="UTF-8" standalone="no"?>
<!-- Created with Inkscape (http://www.inkscape.org/) -->

<svg
   width="48"
   height="48"
   viewBox="0 0 12.7 12.7"
   version="1.1"
   id="svg1"
   xmlns="http://www.w3.org/2000/svg"
   xmlns:svg="http://www.w3.org/2000/svg">
  <defs
     id="defs1" />
  <g
     id="layer1"
     transform="matrix(0.12550381,0,0,0.12550381,-0.08318672,-0.00224015)">
    <path
       style="fill:#000000;stroke-width:0.0264583"
       d="m 53.506076,96.292564 c -1.32424,-0.01 -7.947092,-0.0191 -14.717449,-0.0212 l -12.309739,-0.004 v -0.0652 c 0,-0.0359 0.03347,-0.10433 0.07438,-0.15213 0.07389,-0.0863 0.345342,-0.53314 0.564967,-0.92991 0.06309,-0.11399 0.140745,-0.25074 0.172559,-0.3039 0.03182,-0.0532 0.09442,-0.16213 0.139112,-0.24216 0.0447,-0.08 0.09265,-0.16338 0.106556,-0.18521 0.0272,-0.0427 0.383326,-0.66363 0.482796,-0.8418 0.0332,-0.0595 0.107627,-0.18906 0.165396,-0.288 0.141941,-0.24309 0.175424,-0.30163 0.249116,-0.43559 0.03471,-0.0631 0.238207,-0.41833 0.452212,-0.7894 0.461751,-0.80067 0.488548,-0.84756 0.64906,-1.135769 0.06829,-0.12262 0.145085,-0.25359 0.170649,-0.29104 0.02556,-0.0374 0.186875,-0.31812 0.358473,-0.62371 0.171598,-0.3056 0.33197,-0.5854 0.356381,-0.62178 0.02441,-0.0364 0.08978,-0.14949 0.145259,-0.25135 0.05548,-0.10186 0.123208,-0.22093 0.150508,-0.26458 0.06766,-0.1082 0.557649,-0.96824 0.93554,-1.64209 0.374076,-0.66704 1.057669,-1.84884 1.127112,-1.94856 0.02746,-0.0394 0.04992,-0.0782 0.04992,-0.0861 0,-0.037 0.625747,-1.09509 0.68906,-1.1651 0.03948,-0.0436 0.265284,-0.38894 0.501785,-0.76729 0.638759,-1.02189 1.489593,-2.32285 2.226815,-3.40487 2.456082,-3.604821 3.918953,-5.907408 5.483447,-8.631068 7.335065,-12.769742 7.407789,-19.948012 0.147643,-14.5733 -1.911686,1.415227 -4.178948,3.593584 -6.945225,6.672884 -2.423195,2.697393 -4.579305,4.861504 -6.457035,6.480992 -0.159459,0.137531 -0.379595,0.334598 -0.489191,0.437923 -0.109593,0.103328 -0.258421,0.228404 -0.330729,0.27795 -0.07231,0.04954 -0.333872,0.25206 -0.581258,0.450038 -7.468856,5.977109 -13.232057,6.002813 -17.6977595,0.07893 -3.3437,-4.435515 -4.244104,-8.283141 -2.896652,-12.378042 0.715543,-2.174533 1.899207,-4.283215 4.0719025,-7.254041 2.888374,-3.949406 6.243631,-10.812801 9.396907,-19.221979 3.026325,-8.070625 4.653129,-14.213966 4.757324,-17.965208 0.06175,-2.22319 0.365273,-3.536787 1.055831,-4.5694966 0.307528,-0.459897 0.904291,-0.974147 1.079442,-0.930187 0.04674,0.01173 0.05805,0.0062 0.04685,-0.02303 -0.04634,-0.120767 0.702524,-0.234539 1.125426,-0.170982 1.035863,0.155677 1.949252,0.801757 3.186727,2.2541156 2.654196,3.115083 4.404889,3.624464 5.683427,1.653645 0.412763,-0.636258 0.744355,-1.473808 1.130125,-2.8545066 0.281588,-1.00782 0.522372,-1.642433 0.839378,-2.212263 1.717682,-3.0875911 4.490209,-2.3177741 6.860934,1.905 1.50594,2.6824076 4.011319,4.3850336 6.638287,4.5113036 0.294841,0.01417 0.607378,0.046 0.779286,0.07935 6.959147,1.350287 24.514044,19.014185 30.199744,30.38726 3.008498,6.017882 6.734581,18.582349 9.184221,30.969479 1.09244,5.524143 1.72059,9.982083 1.99082,14.128753 0.0186,0.28614 0.0347,1.70872 0.0421,3.724009 l 0.0119,3.26099 -19.323353,-0.005 c -10.627841,-0.003 -20.406817,-0.0131 -21.731056,-0.0226 z m -4.246563,-2.16917 c 23.91765,-0.064 26.959702,-0.11492 30.810728,-0.51607 3.509852,-0.36561 4.974347,-0.78488 5.664611,-1.62172 0.246798,-0.2992 0.288623,-0.66729 0.224464,-1.975459 -0.314674,-6.41619 -4.360722,-25.257566 -7.612721,-35.450422 -0.617053,-1.934054 -1.15565,-3.31302 -2.073444,-5.308637 -2.060615,-4.480518 -3.03787,-8.122721 -2.754469,-10.265833 0.09391,-0.710142 0.443794,-0.93417 0.862018,-0.551937 1.131146,1.033807 3.136736,5.779884 5.538483,13.106416 3.300688,10.068753 5.032232,17.006501 6.620063,26.524479 1.67812,10.059194 3.22468,15.986303 4.19565,16.079603 1.01293,0.0973 1.59526,-1.1991 1.50617,-3.353149 -0.0294,-0.71202 -0.0939,-1.59479 -0.13512,-1.85048 -0.0136,-0.0843 -0.0112,-0.0882 0.0318,-0.0529 0.0425,0.0349 0.0449,0.0325 0.029,-0.0281 -0.01,-0.0364 -0.019,-0.10782 -0.0209,-0.15875 -0.002,-0.0509 -0.009,-0.0718 -0.0155,-0.0463 -0.0192,0.0734 -0.0611,0.0538 -0.0611,-0.0285 0,-0.511 -0.71022,-5.19706 -1.31197,-8.65645 -2.19783,-12.634186 -4.04217,-19.857019 -6.891378,-26.987474 -4.82936,-12.08601 -11.626802,-21.148312 -22.874752,-30.496465 -5.448372,-4.528132 -8.454776,-6.30036 -10.6733,-6.29174 -1.323961,0.0051 -1.796547,0.350713 -2.656591,1.94258 -0.350848,0.649392 -0.474837,0.830901 -0.604962,0.885614 -0.591349,0.248644 -1.295905,-1.357972 -2.268042,-5.171864 -0.809065,-3.174128 -1.500325,-4.7654346 -2.464279,-5.6728606 -0.569903,-0.53648 -0.978144,-0.565807 -1.474836,-0.105949 -0.820536,0.759692 -1.213405,2.4503426 -1.432012,6.1624556 -0.183663,3.118701 -0.392692,4.423356 -0.764098,4.769115 -0.166233,0.154751 -0.357839,-0.03113 -0.770491,-0.747448 -0.700794,-1.216499 -1.52178,-1.665045 -2.410428,-1.316937 -0.698706,0.273703 -1.009877,0.248273 -1.809782,-0.147902 -1.099756,-0.544684 -1.935384,-1.33452 -3.316493,-3.134752 -0.17684,-0.230504 -0.321527,-0.430859 -0.321527,-0.445233 0,-0.09547 -1.41055,-2.031792 -1.60445,-2.202494 -0.576294,-0.507353 -1.309626,-0.417808 -1.541544,0.188235 -0.0542,0.141626 -0.05548,0.183419 -0.0559,1.829302 -5e-4,1.972534 -0.06295,3.904212 -0.131421,4.065614 -0.01235,0.0291 -0.04817,0.261276 -0.07961,0.515938 -0.05712,0.462647 -0.278577,1.82551 -0.356061,2.191157 -0.02256,0.106453 -0.04102,0.234835 -0.04102,0.285291 0,0.254139 -0.677429,3.134492 -1.138148,4.839281 -2.223744,8.228478 -5.721134,17.144669 -9.319735,23.759583 -1.004734,1.846895 -1.751901,3.032286 -3.260354,5.172604 -2.369822,3.3625 -4.2163355,6.573538 -4.5949055,7.990417 -0.350139,1.310468 0.432678,2.662102 1.513115,2.612588 1.3818985,-0.06333 2.5310285,-1.478127 3.3360505,-4.10731 0.391629,-1.279048 0.625031,-1.616281 0.827787,-1.196035 0.320896,0.665115 0.410659,3.859868 0.146733,5.222361 -0.238642,1.231964 -0.974092,2.238349 -1.69221,2.315607 -0.611594,0.0658 -1.132006,0.33595 -1.286565,0.667867 -0.368076,0.79045 0.864747,2.675091 2.137006,3.266879 0.89188,0.414859 1.838181,9e-4 2.820143,-1.23358 0.84438,-1.061546 1.497246,-2.474227 2.498019,-5.405252 0.148005,-0.433473 0.472364,-1.662896 0.472415,-1.790608 1.3e-5,-0.03167 0.07741,-0.375306 0.172003,-0.76363 0.09459,-0.388323 0.17187,-0.731504 0.171736,-0.762621 -10e-5,-0.03112 0.07628,-0.378048 0.16981,-0.770954 0.09353,-0.392906 0.189164,-0.821362 0.212522,-0.952124 0.09139,-0.511612 0.512562,-0.754618 0.883003,-0.509474 0.339535,0.224695 0.343349,0.375552 0.04164,1.646806 -0.09325,0.392907 -0.169427,0.739582 -0.169284,0.770393 10e-5,0.03081 -0.07713,0.373338 -0.171718,0.761169 -0.09459,0.387834 -0.171979,0.730028 -0.171979,0.760429 0,0.0304 -0.07122,0.348673 -0.158258,0.707268 -0.190889,0.786426 -0.399199,2.191081 -0.528304,3.562408 -0.334726,3.555373 0.04655,6.206503 0.916365,6.371677 1.558827,0.296016 11.629087,-9.933424 21.600957,-21.942406 1.62545,-1.957504 3.25174,-3.956561 3.25174,-3.997076 0,-0.107429 2.089502,-2.448356 2.651755,-2.970837 1.256093,-1.167236 1.423725,-0.984512 0.70508,0.768564 -1.343872,3.278256 -1.241967,5.454039 0.36064,7.700137 0.858192,1.20278 1.325931,1.200796 1.389314,-0.0059 0.12736,-2.424705 1.62428,-7.218844 3.279749,-10.503958 2.062683,-4.093189 3.045354,-3.286255 1.852678,1.521354 -2.125628,8.568303 -9.119089,26.096534 -13.079402,32.781874 -0.249748,0.421598 -0.983919,1.533337 -1.043982,1.580886 -0.02298,0.01819 -0.03127,0.03307 -0.01844,0.03307 0.01284,0 0.0048,0.01488 -0.01789,0.03307 -0.05032,0.04036 -0.947839,1.25188 -0.947839,1.27944 0,0.0108 0.03238,-0.009 0.07196,-0.0445 0.03958,-0.0353 0.05925,-0.0463 0.0437,-0.0245 -4.217067,5.92314 -6.037998,8.8989 -9.096753,14.865879 l -0.04557,0.0889 4.268592,-0.0169 c 2.347724,-0.009 8.644138,-0.0286 13.992029,-0.0429 z M 32.594795,36.931798 c -0.80749,-0.109654 -1.710015,-0.698458 -2.286891,-1.491962 -0.06877,-0.09459 -0.138393,-0.187962 -0.154726,-0.207497 -0.184052,-0.220143 -0.605997,-1.035073 -0.673423,-1.300628 -0.02402,-0.09459 -0.0527,-0.177932 -0.06374,-0.185208 -0.09263,-0.06105 -0.195504,-0.8166 -0.1783,-1.309542 0.0649,-1.85987 1.602176,-3.032178 3.366272,-2.567085 2.106917,0.555471 4.202435,3.218502 3.800533,4.829794 -0.190047,0.761928 -0.875112,1.547397 -1.715926,1.967412 -0.525748,0.262628 -1.345747,0.3663 -2.093804,0.264716 z"
       id="path2" />
    <path
       style="fill:#ffffff;stroke-width:1.52724"
       d="m 119.12453,354.50499 c 0,-2.08132 16.11862,-29.01003 27.84385,-46.51758 7.68623,-11.4767 17.32117,-27.6172 21.41096,-35.86777 18.52932,-37.38018 42.37945,-103.87299 42.37945,-118.15147 0,-15.21713 -13.78107,7.25052 -20.31398,33.11844 l -3.66417,14.50876 -3.27759,-5.34534 c -3.94298,-6.43048 -4.22711,-15.02957 -0.82639,-25.01013 4.79301,-14.0667 1.25753,-11.702 -19.12575,12.79223 -33.04703,39.71205 -67.085717,76.39051 -79.919065,86.11696 -8.703953,6.59677 -10.324439,4.96013 -10.324439,-10.42735 0,-7.14233 1.125067,-18.1062 2.500147,-24.36414 2.694872,-12.26427 2.030431,-18.47225 -1.55848,-14.5611 -1.100315,1.19911 -2.867413,6.30373 -3.926882,11.34362 -2.507616,11.92869 -11.102352,30.5668 -15.076233,32.69357 -4.588135,2.4555 -6.119464,2.10168 -10.265372,-2.37183 -4.821738,-5.20274 -4.725931,-7.53986 0.410039,-10.0025 5.565083,-2.66841 8.013028,-8.00312 8.040177,-17.52166 0.03838,-13.454 -2.977937,-16.86932 -6.179985,-6.99748 -2.823375,8.70439 -7.212881,14.12694 -11.435632,14.12694 -2.673812,0 -3.952546,-1.06598 -4.659994,-3.88468 -1.186354,-4.72681 2.750255,-12.70474 16.656099,-33.75522 28.687413,-43.42662 54.51363,-115.769912 54.51363,-152.701234 0,-11.939624 2.35592,-12.748796 9.00044,-3.09132 7.47679,10.867153 14.6145,16.272893 21.48661,16.272893 4.62392,0 6.65806,0.906565 9.15408,4.07974 2.08757,2.653907 3.73025,3.558614 4.70023,2.588641 0.8201,-0.820104 2.14758,-8.381054 2.94994,-16.802111 3.06586,-32.177051 9.36631,-32.537017 19.18135,-1.095896 2.9524,9.457632 6.13241,17.668124 7.06669,18.245536 0.95658,0.591201 3.82009,-1.47701 6.55467,-4.734203 4.41309,-5.256485 5.34632,-5.692059 10.23182,-4.775533 12.05053,2.26069 36.2041,20.403393 63.19469,47.468017 46.27361,46.40052 68.47413,94.38206 84.4797,182.58421 6.58328,36.27854 8.48414,53.30831 6.52053,58.41684 -0.88791,2.30995 -2.24402,4.19991 -3.01358,4.19991 -3.63243,0 -8.87168,-20.22994 -16.92486,-65.35094 -5.80732,-32.53757 -14.17965,-65.43971 -24.56479,-96.53625 -13.08056,-39.16751 -21.96015,-55.44099 -25.38349,-46.51993 -1.66519,4.33945 2.71357,21.17468 10.11349,38.88374 13.99539,33.49298 33.76144,114.89876 36.24435,149.27111 l 0.90896,12.58334 -5.51076,2.30255 c -9.19625,3.84244 -43.752,5.33887 -123.61038,5.35297 -41.78904,0.007 -75.98008,-0.24659 -75.98008,-0.56435 z m 17.20129,-219.55931 c 2.6303,-3.53609 2.77507,-4.71413 1.1751,-9.5621 -3.7571,-11.38414 -19.69019,-17.54992 -25.16235,-9.73732 -3.00334,4.28786 -3.03737,10.75365 -0.0866,16.45973 3.11116,6.01632 6.4228,7.68806 14.35512,7.24658 5.23834,-0.29154 7.37993,-1.26263 9.71877,-4.40689 z"
       id="path1"
       transform="scale(0.26458333)" />
  </g>
</svg>
