<?xml version="1.0" encoding="UTF-8" standalone="no"?>
<svg
   xmlns:dc="http://purl.org/dc/elements/1.1/"
   xmlns:cc="http://creativecommons.org/ns#"
   xmlns:rdf="http://www.w3.org/1999/02/22-rdf-syntax-ns#"
   xmlns:svg="http://www.w3.org/2000/svg"
   xmlns="http://www.w3.org/2000/svg"
   xmlns:sodipodi="http://sodipodi.sourceforge.net/DTD/sodipodi-0.dtd"
   xmlns:inkscape="http://www.inkscape.org/namespaces/inkscape"
   version="1.1"
   id="svg52"
   width="48"
   height="48"
   viewBox="0 0 48 48"
   sodipodi:docname="WKnight.svg"
   inkscape:version="1.0.2 (e86c870879, 2021-01-15, custom)">
  <metadata
     id="metadata58">
    <rdf:RDF>
      <cc:Work
         rdf:about="">
        <dc:format>image/svg+xml</dc:format>
        <dc:type
           rdf:resource="http://purl.org/dc/dcmitype/StillImage" />
        <dc:title />
      </cc:Work>
    </rdf:RDF>
  </metadata>
  <defs
     id="defs56" />
  <sodipodi:namedview
     pagecolor="#ffffff"
     bordercolor="#666666"
     borderopacity="1"
     objecttolerance="10"
     gridtolerance="10"
     guidetolerance="10"
     inkscape:pageopacity="0"
     inkscape:pageshadow="2"
     inkscape:window-width="1321"
     inkscape:window-height="964"
     id="namedview54"
     showgrid="false"
     inkscape:zoom="16.666667"
     inkscape:cx="24"
     inkscape:cy="24"
     inkscape:window-x="0"
     inkscape:window-y="0"
     inkscape:window-maximized="0"
     inkscape:current-layer="g60"
     inkscape:document-rotation="0" />
  <g
     inkscape:groupmode="layer"
     inkscape:label="Image"
     id="g60">
    <path
       style="fill:#000000"
       d="m 14,44.612212 c 0,-0.763283 1.623538,-3.747997 3.607863,-6.632698 C 24.756103,27.5878 24.182817,22.151699 16.810935,30.422766 11.184065,36.735972 7.3618173,37.782354 4.556704,33.777494 2.3977248,30.695119 2.6061513,28.393296 5.3801707,24.683278 7.9839608,21.200928 12,10.620127 12,7.2424379 12,4.4700678 13.451903,3.6346575 15.009138,5.5110105 16.688176,7.5341279 17.666928,7.3816707 18.289749,5 18.959125,2.440302 20.630091,2.440302 22,5 c 0.588702,1.1 1.973813,2 3.078025,2 2.905073,0 11.710184,8.648538 14.588969,14.329548 C 42.014906,25.962927 45,38.421846 45,43.587968 V 46 H 29.5 C 16.945902,46 14,45.73624 14,44.612212 Z M 41,43.587968 C 41,40.120306 37.975294,26.852903 36.561397,24.118729 35.702629,22.458054 35.018072,20.289473 35.04016,19.29966 35.130986,15.229584 39.939135,29.110225 41.084826,36.75 41.765288,41.2875 42.699572,45 43.161014,45 44.318183,45 44.222543,43.339066 42.567191,34.687319 40.677831,24.812524 37.249774,18.308992 30.947161,12.642402 25.689224,7.9150639 23.508331,7.0143262 22.733379,9.25 22.49507,9.9375 21.971815,9.0375 21.57059,7.25 20.629621,3.057888 19.022885,3.057888 18.921053,7.25 18.877632,9.0375 18.614197,9.9346962 18.335642,9.2437694 18.057088,8.5528426 17.448404,8.222871 16.983012,8.5104993 16.51762,8.7981275 15.431054,8.0258035 14.568422,6.7942236 L 13,4.5549875 V 7.4609147 C 13,11.504118 9.2369968,21.862513 6.3801707,25.683278 5.0710768,27.434081 4,29.346581 4,29.933278 4,31.679909 5.8160062,31.142907 6.3106745,29.25 6.6548191,27.93309 6.7967053,28.05683 6.8839986,29.75 6.9477994,30.9875 6.5234424,32 5.940983,32 5.3585237,32 5.1600813,32.45 5.5,33 6.647247,34.856285 7.9374067,34.017285 8.9599063,30.75 L 9.9769965,27.5 9.4431852,31.25 C 9.149589,33.3125 9.3224528,35 9.8273269,35 10.772407,35 16.362153,29.173719 21.340151,23 c 1.552168,-1.925 2.367011,-2.575753 1.810762,-1.446118 -0.622835,1.264858 -0.659888,2.609426 -0.09645,3.5 0.562954,0.88981 0.920802,0.990298 0.930224,0.261218 0.02387,-1.847227 2.016336,-6.64741 2.541307,-6.122439 0.836295,0.836295 -4.626208,15.215169 -6.954918,18.307339 -1.242614,1.65 -2.795281,4.0125 -3.450371,5.25 L 14.929632,45 H 27.964816 C 38.524055,45 41,44.731794 41,43.587968 Z M 14.5,17 c -1.076859,-1.742395 0.519288,-3.228882 2.078017,-1.935251 0.769979,0.639025 1.153359,1.560877 0.851956,2.048558 C 16.700494,18.293627 15.265202,18.238122 14.5,17 Z"
       id="path64" />
    <path
       style="fill:#ffffff;stroke-width:0.06"
       d="M 15.452104,44.090341 C 16.59426,41.910817 17.466875,40.498816 18.978902,38.383543 19.467797,37.699594 19.997329,36.924 20.155638,36.66 22.03457,33.526649 25.407219,25.081703 26.39788,21.029735 c 0.57376,-2.346773 0.01122,-2.591493 -1.017687,-0.442721 -0.759938,1.587056 -1.438881,3.864721 -1.439952,4.83064 -3e-4,0.267673 -0.120458,0.388563 -0.293938,0.295719 -0.18756,-0.100379 -0.6607,-0.801589 -0.790981,-1.172262 -0.278062,-0.791138 -0.193315,-1.736853 0.248724,-2.775558 0.386323,-0.907786 0.298406,-1.018247 -0.337203,-0.423668 -0.21865,0.204537 -0.713553,0.751287 -1.099785,1.215 -0.38623,0.463713 -1.241073,1.491021 -1.899648,2.282906 C 15.214549,30.314243 10.560305,35.043416 9.8276942,34.939526 9.5806839,34.904498 9.4084538,34.441852 9.3663506,33.70026 9.311321,32.730989 9.3926531,31.758789 9.7135522,29.55 9.9732435,27.762511 10.011274,27.42233 9.9410577,27.515 9.9306393,27.52875 9.6711916,28.35 9.3645075,29.34 8.539574,32.002949 8.1248582,32.934238 7.4890612,33.551514 7.2034393,33.828816 6.9919163,33.93 6.6978412,33.93 6.1245346,33.93 5.2181541,32.818292 5.4004796,32.338739 5.4642111,32.171113 5.7747309,32.01 6.0340732,32.01 c 0.2259169,0 0.520536,-0.322165 0.685874,-0.75 0.1121447,-0.29019 0.144228,-0.511255 0.165449,-1.14 0.027128,-0.803747 -0.049084,-1.617689 -0.1620468,-1.730651 -0.1101165,-0.110117 -0.2249195,0.07794 -0.3827022,0.626903 -0.3476892,1.209689 -0.9511171,1.930112 -1.616666,1.930112 -0.4401042,0 -0.7795,-0.57369 -0.6761915,-1.142985 C 4.1559423,29.20739 5.0953396,27.546932 6.2102445,25.981072 6.9898223,24.886171 7.3487912,24.309538 7.9290847,23.22 10.077259,19.186664 12.093867,13.504063 12.84814,9.3585897 12.958188,8.7537698 12.984518,8.3273229 13.014444,6.6650712 L 13.05,4.690142 13.8,5.7648341 c 1.279211,1.8330103 1.785171,2.3797996 2.508989,2.7114541 0.328354,0.1504525 0.48295,0.15259 0.82543,0.011413 0.369631,-0.1523693 0.7899,0.096954 1.091113,0.6472994 0.112884,0.20625 0.244697,0.375 0.292918,0.375 0.222396,0 0.351644,-0.6841829 0.440081,-2.3296023 0.08792,-1.6359038 0.28732,-2.5019402 0.657753,-2.8568378 0.245232,-0.234947 0.44166,-0.2189802 0.726383,0.059045 0.434265,0.4240484 0.809907,1.2981722 1.13623,2.6440234 0.41279,1.702469 0.770471,2.5288833 1.069596,2.4712772 0.05367,-0.010336 0.206462,-0.2335284 0.339543,-0.495984 0.31393,-0.6191204 0.585013,-0.8256033 1.129413,-0.860268 0.443069,-0.028212 1.095591,0.1655467 1.722551,0.5114925 1.759628,0.9709334 5.19198,3.8473114 7.48434,6.2720224 4.604996,4.87087 7.451273,10.734984 9.100692,18.749932 0.731202,3.553094 1.392097,7.464235 1.538525,9.1049 0.132528,1.484922 -0.07987,2.19 -0.659714,2.19 -0.455892,0 -1.213483,-2.922688 -2.014065,-7.77 -0.716364,-4.337392 -1.650496,-8.026014 -3.236496,-12.78 -0.93369,-2.798707 -1.688751,-4.650737 -2.226166,-5.460387 -0.269927,-0.406662 -0.430485,-0.494455 -0.582116,-0.3183 -0.08463,0.09832 -0.105,0.236583 -0.105,0.712753 0,1.035464 0.49507,2.672022 1.371617,4.534165 0.230874,0.490473 0.558536,1.296769 0.728136,1.791769 1.541641,4.499471 3.749947,14.686208 3.799534,17.52695 0.01048,0.600112 0.0069,0.617653 -0.161342,0.794005 -0.33384,0.349911 -0.976672,0.530914 -2.467945,0.6949 -1.841983,0.202553 -3.220911,0.229241 -13.282235,0.257061 l -10.042234,0.02777 z M 16.653923,17.856576 C 17.241836,17.589546 17.62479,17.03782 17.553268,16.560878 17.408151,15.593166 16.283763,14.55 15.385822,14.55 c -1.040494,0 -1.573482,1.084118 -1.065566,2.167403 0.281873,0.60118 0.73738,1.051875 1.205587,1.192855 0.300299,0.09042 0.870557,0.06328 1.12808,-0.05368 z"
       id="path186" />
  </g>
</svg>
