<?xml version="1.0" encoding="UTF-8" standalone="no"?>
<svg
   xmlns:dc="http://purl.org/dc/elements/1.1/"
   xmlns:cc="http://creativecommons.org/ns#"
   xmlns:rdf="http://www.w3.org/1999/02/22-rdf-syntax-ns#"
   xmlns:svg="http://www.w3.org/2000/svg"
   xmlns="http://www.w3.org/2000/svg"
   xmlns:sodipodi="http://sodipodi.sourceforge.net/DTD/sodipodi-0.dtd"
   xmlns:inkscape="http://www.inkscape.org/namespaces/inkscape"
   version="1.1"
   id="svg10"
   width="48"
   height="48"
   viewBox="0 0 48 48"
   sodipodi:docname="BBishop.svg"
   inkscape:version="1.0.2 (e86c870879, 2021-01-15, custom)">
  <metadata
     id="metadata16">
    <rdf:RDF>
      <cc:Work
         rdf:about="">
        <dc:format>image/svg+xml</dc:format>
        <dc:type
           rdf:resource="http://purl.org/dc/dcmitype/StillImage" />
        <dc:title />
      </cc:Work>
    </rdf:RDF>
  </metadata>
  <defs
     id="defs14" />
  <sodipodi:namedview
     pagecolor="#ffffff"
     bordercolor="#666666"
     borderopacity="1"
     objecttolerance="10"
     gridtolerance="10"
     guidetolerance="10"
     inkscape:pageopacity="0"
     inkscape:pageshadow="2"
     inkscape:window-width="1738"
     inkscape:window-height="933"
     id="namedview12"
     showgrid="false"
     inkscape:zoom="16.666667"
     inkscape:cx="24"
     inkscape:cy="24"
     inkscape:window-x="0"
     inkscape:window-y="0"
     inkscape:window-maximized="0"
     inkscape:current-layer="g18"
     inkscape:document-rotation="0" />
  <g
     inkscape:groupmode="layer"
     inkscape:label="Image"
     id="g18">
    <path
       style="fill:#000000"
       d="M 8.3800024,43.547887 C 7.3915661,40.972063 9.0050987,40.000484 14.309017,39.977764 L 19.5,39.955528 17,38.022054 c -2.137193,-1.652883 -2.325095,-2.217773 -1.294783,-3.892486 0.969463,-1.575807 0.92056,-2.195256 -0.25,-3.166735 C 11.980199,28.078824 15.148524,14.832802 20.420563,10.20389 22.779044,8.1331168 23.500396,6.9003964 22.77699,6.1769898 21.387307,4.7873074 22.537073,2 24.5,2 c 1.962927,0 3.112693,2.7873074 1.72301,4.1769898 -0.723406,0.7234066 -0.0021,1.956127 2.356427,4.0269002 5.272039,4.628912 8.440364,17.874934 4.965346,20.758943 -1.17056,0.971479 -1.219463,1.590928 -0.25,3.166735 1.030676,1.675304 0.843862,2.23344 -1.289958,3.853959 l -2.495176,1.894948 5.495176,0.310763 C 39.729746,40.456441 40.5,40.780338 40.5,42.5 c 0,1.738732 -0.767911,2.039678 -5.878352,2.303734 -4.830866,0.24961 -6.270845,-0.06499 -8.080969,-1.765518 l -2.202617,-2.069251 -1.824019,2.015517 c -2.29855,2.53987 -13.2087145,2.974766 -14.1340406,0.563405 z M 29.12375,36.996069 c -1.229938,-0.237362 -7.559938,-0.243505 -9.08,-0.01365 -1.520063,0.229854 1.70625,0.724059 4.45625,0.731567 2.75,0.0075 5.853687,-0.480555 4.62375,-0.717917 z m 0.04395,-4.785867 c -2.074768,-0.216476 -8.404768,-0.272846 -10.18,-0.0519 C 17.212463,32.37918 20.83,33.156296 24.68,33.15186 c 3.85,-0.0044 6.562463,-0.725183 4.487696,-0.941658 z M 26,26.5 c 0,-1.833333 0.533333,-2.5 2,-2.5 1.111111,0 2,-0.666667 2,-1.5 C 30,21.666667 29.111111,21 28,21 26.533333,21 26,20.333333 26,18.5 26,16.944444 25.433333,16 24.5,16 23.566667,16 23,16.944444 23,18.5 c 0,1.833333 -0.533333,2.5 -2,2.5 -1.111111,0 -2,0.666667 -2,1.5 0,0.833333 0.888889,1.5 2,1.5 1.466667,0 2,0.666667 2,2.5 0,1.555556 0.566667,2.5 1.5,2.5 0.933333,0 1.5,-0.944444 1.5,-2.5 z"
       id="path22"
       sodipodi:nodetypes="sscssssssscssscsssscsssssssccssssssssssssss" />
  </g>
</svg>
