<?xml version="1.0" encoding="UTF-8" standalone="no"?>
<svg
   xmlns:dc="http://purl.org/dc/elements/1.1/"
   xmlns:cc="http://creativecommons.org/ns#"
   xmlns:rdf="http://www.w3.org/1999/02/22-rdf-syntax-ns#"
   xmlns:svg="http://www.w3.org/2000/svg"
   xmlns="http://www.w3.org/2000/svg"
   xmlns:sodipodi="http://sodipodi.sourceforge.net/DTD/sodipodi-0.dtd"
   xmlns:inkscape="http://www.inkscape.org/namespaces/inkscape"
   version="1.1"
   id="svg24"
   width="46"
   height="48"
   viewBox="0 0 46 48"
   sodipodi:docname="BKing.svg"
   inkscape:version="1.0.2 (e86c870879, 2021-01-15, custom)">
  <metadata
     id="metadata30">
    <rdf:RDF>
      <cc:Work
         rdf:about="">
        <dc:format>image/svg+xml</dc:format>
        <dc:type
           rdf:resource="http://purl.org/dc/dcmitype/StillImage" />
        <dc:title />
      </cc:Work>
    </rdf:RDF>
  </metadata>
  <defs
     id="defs28" />
  <sodipodi:namedview
     pagecolor="#ffffff"
     bordercolor="#666666"
     borderopacity="1"
     objecttolerance="10"
     gridtolerance="10"
     guidetolerance="10"
     inkscape:pageopacity="0"
     inkscape:pageshadow="2"
     inkscape:window-width="1819"
     inkscape:window-height="938"
     id="namedview26"
     showgrid="false"
     inkscape:zoom="16.666667"
     inkscape:cx="23"
     inkscape:cy="24"
     inkscape:window-x="0"
     inkscape:window-y="0"
     inkscape:window-maximized="0"
     inkscape:current-layer="g32"
     inkscape:document-rotation="0" />
  <g
     inkscape:groupmode="layer"
     inkscape:label="Image"
     id="g32">
    <path
       style="fill:#000000"
       d="M 8.9294597,42.92946 C 7.5090834,41.509083 6.9471396,39.834948 7.1398693,37.597936 7.3454203,35.212108 6.5592371,33.165384 4.2104096,29.971474 1.6784587,26.528555 1,24.619473 1,20.937856 1,14.282046 3.7682423,10.98832 9.3225801,11.035435 11.620161,11.054925 14.625,11.713979 16,12.5 c 3.651069,2.08714 5,1.817353 5,-1 C 21,9.9444444 20.433333,9 19.5,9 18.566667,9 18,8.0555556 18,6.5 18,4.9444444 18.566667,4 19.5,4 20.325,4 21,3.325 21,2.5 21,1.5666667 21.944444,1 23.5,1 25.055556,1 26,1.5666667 26,2.5 26,3.325 26.675,4 27.5,4 28.433333,4 29,4.9444444 29,6.5 29,8.0555556 28.433333,9 27.5,9 26.566667,9 26,9.9444444 26,11.5 c 0,2.817353 1.348931,3.08714 5,1 1.375,-0.786021 4.379839,-1.445075 6.67742,-1.464565 C 43.231758,10.98832 46,14.282046 46,20.937856 c 0,3.681617 -0.678459,5.590699 -3.21041,9.033618 -2.348827,3.19391 -3.13501,5.240634 -2.929459,7.626462 0.192729,2.237012 -0.369214,3.911147 -1.789591,5.331524 C 36.197344,44.802656 34.808619,45 23.5,45 12.191381,45 10.802656,44.802656 8.9294597,42.92946 Z M 12.230053,38.25 C 12.922388,37.397233 16.503824,37 23.5,37 c 10.604046,0 11.771332,0.411132 12.77639,4.5 0.381764,1.553125 0.517526,1.398734 0.607609,-0.690983 0.0638,-1.480041 -0.314779,-2.95722 -0.841288,-3.28262 -0.531256,-0.328334 0.358826,-2.666934 2,-5.254798 C 39.66922,29.706861 41,26.446668 41,25.026726 41,21.34109 38.338802,18 35.403171,18 32.044498,18 25.235339,25.394296 24.352774,30 l -0.670686,3.5 -1.091044,-3.686795 C 21.087611,24.732887 14.840338,18 11.629874,18 8.6602004,18 6,21.320234 6,25.026726 c 0,1.419942 1.33078,4.680135 2.9572889,7.244873 1.6411741,2.587864 2.5312561,4.926464 2.0000001,5.254798 -0.526509,0.3254 -0.905088,1.802579 -0.841288,3.28262 0.09008,2.089717 0.225845,2.244108 0.607609,0.690983 0.270384,-1.1 0.948283,-2.5625 1.506443,-3.25 z M 9.9779759,31.304219 C 6.5889608,25.960297 6.362648,24.35496 8.556704,21.222506 10.748113,18.093832 12.57694,18.440297 16.619627,22.75 c 3.585206,3.822007 4.573457,5.625698 5.752999,10.5 0.659266,2.724328 0.618419,2.75 -4.375598,2.75 -4.916292,0 -5.114791,-0.116237 -8.0190521,-4.695781 z M 24.627374,33.25 c 1.179542,-4.874302 2.167793,-6.677993 5.752999,-10.5 4.042687,-4.309703 5.871514,-4.656168 8.062923,-1.527494 2.194056,3.132454 1.967743,4.737791 -1.421272,10.081713 C 34.117763,35.883763 33.919264,36 29.002972,36 24.008955,36 23.968108,35.97433 24.627374,33.25 Z"
       id="path36" />
    <path
       style="fill:#ffffff;stroke-width:0.06"
       d="M 36.539365,42.263127 C 36.486143,42.118407 36.333202,41.595 36.199495,41.1 35.740806,39.401866 35.161173,38.507666 34.19,37.999946 32.650276,37.194995 30.54562,36.990273 23.81,36.990273 c -7.67364,0 -10.913441,0.360398 -11.650103,1.295969 -0.537268,0.682338 -1.083644,1.882813 -1.475686,3.242318 -0.139816,0.484846 -0.286064,0.892134 -0.324995,0.905084 -0.120382,0.04004 -0.169283,-0.488105 -0.167925,-1.813644 0.001,-0.975876 0.02386,-1.348622 0.101356,-1.653009 0.174438,-0.685115 0.345861,-1.065646 0.598515,-1.328609 l 0.243042,-0.252958 -0.0285,-0.422712 C 11.04494,36.061383 10.379305,34.560218 9.0958445,32.43 7.771243,30.231498 7.0449741,28.740058 6.4954893,27.09 6.0682368,25.806996 5.9829662,25.260373 6.0699474,24.362085 6.3247041,21.731112 7.7498919,19.480312 9.7990744,18.472673 10.394186,18.18004 10.884982,18.066891 11.57,18.064399 c 0.701871,-0.0026 1.13446,0.118698 1.949463,0.546415 1.209948,0.634985 2.132442,1.360744 3.60276,2.834422 1.882502,1.886803 3.382511,3.912901 4.468993,6.036376 0.537414,1.050349 0.792627,1.748754 1.435517,3.928388 0.646717,2.192609 0.625959,2.127308 0.664114,2.089154 0.01541,-0.01541 0.191466,-0.876527 0.391233,-1.913588 0.199766,-1.037062 0.417386,-2.068561 0.4836,-2.292222 C 25.654755,25.614593 30.224395,20.203179 33.65,18.535601 34.258986,18.239148 34.996184,18.03 35.432127,18.03 c 0.763339,0 1.829768,0.379522 2.588484,0.921193 0.203163,0.145045 0.579938,0.484176 0.837275,0.753626 1.307376,1.36891 2.082114,3.29237 2.082114,5.169317 0,0.722884 -0.0799,1.145829 -0.401601,2.125864 -0.515731,1.571129 -1.334871,3.271765 -2.540442,5.27427 -1.217059,2.021587 -1.928687,3.535662 -2.094953,4.457267 -0.08482,0.470133 -0.04045,0.6481 0.237674,0.953334 0.558783,0.613255 0.819156,2.132086 0.666147,3.885827 -0.08124,0.931132 -0.131664,1.061681 -0.26746,0.692429 z m -14.83799,-6.375622 c 0.978548,-0.223374 1.143731,-0.576569 0.877328,-1.8759 -0.30109,-1.468511 -0.92777,-3.627465 -1.39086,-4.791605 -0.916748,-2.304567 -2.537786,-4.515197 -5.413155,-7.381989 -1.951139,-1.945319 -3.16485,-2.695528 -4.357713,-2.693556 -0.468031,7.74e-4 -0.554732,0.02065 -0.988542,0.22667 -0.6374143,0.302707 -1.3719886,1.041363 -2.0581776,2.069614 -0.5948829,0.89143 -0.7951062,1.277825 -1.0383235,2.00378 -0.6164833,1.84008 -0.048759,3.613748 2.4234356,7.571224 1.9151145,3.065706 2.6628525,3.980985 3.6498325,4.467632 0.963558,0.475098 1.657655,0.543562 5.2448,0.517336 2.127401,-0.01555 2.719875,-0.03754 3.051375,-0.113206 z m 9.798606,0.08299 c 2.258378,-0.175661 2.932358,-0.665211 4.791285,-3.480183 2.029683,-3.073546 3.060552,-4.999394 3.429141,-6.406245 0.193572,-0.738833 0.215532,-1.687278 0.05381,-2.32407 -0.371114,-1.461304 -1.967499,-3.733628 -3.028812,-4.311266 -1.528612,-0.831975 -3.10908,-0.09053 -5.885684,2.761144 -2.676587,2.748954 -4.055676,4.632893 -4.944674,6.754795 -0.381775,0.91124 -0.813609,2.27836 -1.211238,3.834594 -0.300045,1.174316 -0.343264,1.416249 -0.348188,1.949122 -0.0063,0.679021 0.03655,0.773589 0.444378,0.981371 0.211479,0.107744 0.854483,0.22646 1.41,0.260322 0.750734,0.04576 4.634703,0.03139 5.289981,-0.01958 z"
       id="path26" />
  </g>
</svg>
