<?xml version="1.0" encoding="UTF-8" standalone="no"?>
<svg
   xmlns:dc="http://purl.org/dc/elements/1.1/"
   xmlns:cc="http://creativecommons.org/ns#"
   xmlns:rdf="http://www.w3.org/1999/02/22-rdf-syntax-ns#"
   xmlns:svg="http://www.w3.org/2000/svg"
   xmlns="http://www.w3.org/2000/svg"
   xmlns:xlink="http://www.w3.org/1999/xlink"
   xmlns:sodipodi="http://sodipodi.sourceforge.net/DTD/sodipodi-0.dtd"
   xmlns:inkscape="http://www.inkscape.org/namespaces/inkscape"
   version="1.1"
   id="svg10"
   width="48"
   height="48"
   viewBox="0 0 48 48"
   sodipodi:docname="BKnight.svg"
   inkscape:version="1.0.2 (e86c870879, 2021-01-15, custom)">
  <metadata
     id="metadata16">
    <rdf:RDF>
      <cc:Work
         rdf:about="">
        <dc:format>image/svg+xml</dc:format>
        <dc:type
           rdf:resource="http://purl.org/dc/dcmitype/StillImage" />
        <dc:title></dc:title>
      </cc:Work>
    </rdf:RDF>
  </metadata>
  <defs
     id="defs14" />
  <sodipodi:namedview
     pagecolor="#ffffff"
     bordercolor="#666666"
     borderopacity="1"
     objecttolerance="10"
     gridtolerance="10"
     guidetolerance="10"
     inkscape:pageopacity="0"
     inkscape:pageshadow="2"
     inkscape:window-width="1884"
     inkscape:window-height="974"
     id="namedview12"
     showgrid="false"
     inkscape:zoom="16.666667"
     inkscape:cx="24"
     inkscape:cy="24"
     inkscape:window-x="0"
     inkscape:window-y="0"
     inkscape:window-maximized="0"
     inkscape:current-layer="g18" />
  <g
     inkscape:groupmode="layer"
     inkscape:label="Image"
     id="g18">
    <path
       style="fill:#000000"
       d="m 14,44.612212 c 0,-0.763283 1.623538,-3.747997 3.607863,-6.632698 C 24.756103,27.5878 24.182817,22.151699 16.810935,30.422766 11.184065,36.735972 7.3618173,37.782354 4.556704,33.777494 2.3977248,30.695119 2.6061513,28.393296 5.3801707,24.683278 7.9839608,21.200928 12,10.620127 12,7.2424379 12,4.4700678 13.451903,3.6346575 15.009138,5.5110105 16.688176,7.5341279 17.666928,7.3816707 18.289749,5 18.959125,2.440302 20.630091,2.440302 22,5 c 0.588702,1.1 1.973813,2 3.078025,2 2.905073,0 11.710184,8.648538 14.588969,14.329548 C 42.014906,25.962927 45,38.421846 45,43.587968 V 46 H 29.5 C 16.945902,46 14,45.73624 14,44.612212 Z m 27.03843,-8.336837 c -1.154666,-7.216117 -5.905012,-20.802131 -5.997364,-17.152493 -0.02259,0.892585 0.818308,3.592585 1.868653,6 1.050346,2.407415 2.463927,7.876037 3.141293,12.152493 0.677365,4.276456 1.456572,7.550374 1.731572,7.275374 0.275,-0.275 -0.05987,-3.998918 -0.744154,-8.275374 z M 9.5157054,31.928494 C 10.455405,27.650068 9.6776867,27.398375 8.375299,31.559424 7.7830134,33.451741 7.6455176,35 8.0697528,35 8.493988,35 9.1446666,33.617822 9.5157054,31.928494 Z M 6.9210526,29.75 C 6.8683003,28.246558 6.6526465,27.997705 6.2711085,29 5.9570604,29.825 5.2050867,30.830609 4.6000559,31.234687 3.9215223,31.687855 4.1705695,31.975242 5.25,31.984687 6.4257217,31.994975 6.9740927,31.261642 6.9210526,29.75 Z M 26.531955,19.198622 c -0.63911,-0.63911 -2.550103,4.497626 -2.461493,6.616478 0.03875,0.926695 0.715544,-0.07581 1.503977,-2.22779 0.788433,-2.151979 1.219315,-4.126889 0.957516,-4.388688 z M 23,22 c 0.588702,-1.1 0.845368,-2 0.570368,-2 -0.275,0 -0.981666,0.9 -1.570368,2 -0.588702,1.1 -0.845368,2 -0.570368,2 0.275,0 0.981666,-0.9 1.570368,-2 z M 17.429973,17.113307 C 17.731376,16.625626 17.347996,15.703774 16.578017,15.064749 15.019288,13.771118 13.423141,15.257605 14.5,17 c 0.765202,1.238122 2.200494,1.293627 2.929973,0.113307 z"
       id="path22" />
  </g>
</svg>
