<?xml version="1.0" encoding="UTF-8" standalone="no"?>
<svg
   xmlns:dc="http://purl.org/dc/elements/1.1/"
   xmlns:cc="http://creativecommons.org/ns#"
   xmlns:rdf="http://www.w3.org/1999/02/22-rdf-syntax-ns#"
   xmlns:svg="http://www.w3.org/2000/svg"
   xmlns="http://www.w3.org/2000/svg"
   xmlns:sodipodi="http://sodipodi.sourceforge.net/DTD/sodipodi-0.dtd"
   xmlns:inkscape="http://www.inkscape.org/namespaces/inkscape"
   version="1.1"
   id="svg38"
   width="48"
   height="48"
   viewBox="0 0 48 48"
   sodipodi:docname="BMarshal.svg"
   inkscape:version="1.0.2 (e86c870879, 2021-01-15, custom)">
  <metadata
     id="metadata44">
    <rdf:RDF>
      <cc:Work
         rdf:about="">
        <dc:format>image/svg+xml</dc:format>
        <dc:type
           rdf:resource="http://purl.org/dc/dcmitype/StillImage" />
        <dc:title />
      </cc:Work>
    </rdf:RDF>
  </metadata>
  <defs
     id="defs42" />
  <sodipodi:namedview
     pagecolor="#ffffff"
     bordercolor="#666666"
     borderopacity="1"
     objecttolerance="10"
     gridtolerance="10"
     guidetolerance="10"
     inkscape:pageopacity="0"
     inkscape:pageshadow="2"
     inkscape:window-width="1718"
     inkscape:window-height="962"
     id="namedview40"
     showgrid="false"
     inkscape:zoom="16.666667"
     inkscape:cx="24"
     inkscape:cy="24"
     inkscape:window-x="0"
     inkscape:window-y="0"
     inkscape:window-maximized="0"
     inkscape:current-layer="g46"
     inkscape:document-rotation="0" />
  <g
     inkscape:groupmode="layer"
     inkscape:label="Image"
     id="g46">
    <path
       style="fill:#000000"
       d="M 6.556704,42.777494 C 4.6327181,40.030619 4.5658597,37.15497 6.3777091,35.078741 8.1092437,33.094545 11.627264,22.864081 12.508601,17.25 L 13.175796,13 H 24.587898 36 v 6.124139 c 0,4.85583 0.72485,7.729519 3.5,13.875861 5.46368,12.100837 5.522765,12 -7.031326,12 H 21.937349 l 0.233332,-3.46466 c 0.128333,-1.905563 -0.01606,-3.714055 -0.320879,-4.018871 -0.304816,-0.304816 -2.308219,1.253881 -4.452007,3.463772 -4.531407,4.671132 -8.3811261,5.309345 -10.841091,1.797253 z m 4.959001,-1.849 c 0.371039,-1.689328 0.406794,-3.339328 0.07946,-3.666667 C 11.267822,36.934489 11,37.609524 11,38.761905 11,39.914286 10.292857,41.564286 9.4285714,42.428571 8.0710069,43.786136 8.0601934,44 9.3491162,44 10.201492,44 11.130292,42.683268 11.515705,40.928494 Z m 26.080154,-5.582267 c -1.38255,-3.215425 -2.532206,-5.222559 -2.554793,-4.460299 -0.06451,2.177008 4.423009,13.151267 4.763726,11.649736 0.167636,-0.738765 -0.826384,-3.974012 -2.208933,-7.189437 z M 8.9210526,38.75 C 8.8683003,37.246558 8.6526465,36.997705 8.2711085,38 7.9570604,38.825 7.2050867,39.830609 6.6000559,40.234687 5.9215223,40.687855 6.1705695,40.975242 7.25,40.984687 8.4257217,40.994975 8.9740927,40.261642 8.9210526,38.75 Z M 26.531955,31.198622 c -0.63911,-0.63911 -2.550103,4.497626 -2.461493,6.616478 0.03875,0.926695 0.715544,-0.07581 1.503977,-2.22779 0.788433,-2.151979 1.219315,-4.126889 0.957516,-4.388688 z M 23,34 c 0.588702,-1.1 0.845368,-2 0.570368,-2 -0.275,0 -0.981666,0.9 -1.570368,2 -0.588702,1.1 -0.845368,2 -0.570368,2 0.275,0 0.981666,-0.9 1.570368,-2 z M 17.429973,29.113307 C 17.731376,28.625626 17.347996,27.703774 16.578017,27.064749 15.019288,25.771118 13.423141,27.257605 14.5,29 c 0.765202,1.238122 2.200494,1.293627 2.929973,0.113307 z m 15.01086,-5.173899 C 30.279766,21.726274 27.384006,19.65323 26.00581,19.332644 24.627615,19.012057 22.774247,17.841344 21.887215,16.731059 20.199954,14.619139 18,15.087719 18,17.559017 18,19.313454 16.815406,19.415406 15.2,17.8 14.418176,17.018176 14,16.975506 14,17.677555 c 0,1.283729 2.993129,3.958793 3.015313,2.69489 C 17.023735,19.8926 17.466844,20.175 18,21 c 0.735598,1.138257 0.973067,0.716223 0.984687,-1.75 0.01952,-4.143409 1.643793,-4.218004 2.544556,-0.11686 0.48468,2.206737 0.932462,2.73784 1.514418,1.796214 1.089325,-1.762564 4.55349,0.02806 9.070696,4.688633 1.786916,1.843629 3.475456,3.125533 3.752313,2.848676 0.276857,-0.276857 -1.26477,-2.314122 -3.425837,-4.527255 z M 10.949678,11.55 C 10.427355,11.0275 10,9.115 10,7.3 10,4.1952381 10.207071,4 13.5,4 16.566667,4 17,4.3095238 17,6.5 17,8.0555556 17.566667,9 18.5,9 19.433333,9 20,8.0555556 20,6.5 20,4.2037037 20.366667,4 24.5,4 28.633333,4 29,4.2037037 29,6.5 29,8.0555556 29.566667,9 30.5,9 31.433333,9 32,8.0555556 32,6.5 32,4.3095238 32.433333,4 35.5,4 38.821899,4 39,4.1750977 39,7.440983 c 0,1.8925407 -0.453207,3.72108 -1.007126,4.063421 -1.66538,1.029261 -26.018817,1.070322 -27.043196,0.0456 z"
       id="path50" />
    <path
       style="fill:#ffffff;stroke-width:0.06"
       d="M 35.394845,28.325865 C 34.691584,27.990831 33.837407,27.259919 31.74,25.198441 c -1.978122,-1.944234 -3.08866,-2.891097 -4.384993,-3.738716 -1.530201,-1.000534 -2.722634,-1.38847 -3.538674,-1.15124 -0.354693,0.103112 -0.422267,0.15805 -0.991752,0.806301 -0.11848,0.134868 -0.249398,0.245214 -0.290928,0.245214 -0.14601,0 -0.409984,-0.360633 -0.559776,-0.764749 -0.08326,-0.224611 -0.24954,-0.812679 -0.36952,-1.306818 C 21.258667,17.864712 20.995108,17.1295 20.637023,16.59 c -0.664158,-1.000638 -1.37208,-0.475586 -1.585146,1.175672 -0.03579,0.27738 -0.08896,1.125328 -0.118144,1.884328 -0.05541,1.440827 -0.12391,1.841064 -0.321615,1.879135 -0.148214,0.02854 -0.233027,-0.05333 -0.604674,-0.583713 -0.359788,-0.513455 -0.720541,-0.861328 -0.864475,-0.833608 -0.05246,0.0101 -0.119047,0.112828 -0.147964,0.228278 -0.102538,0.409378 -0.340827,0.419683 -0.911423,0.03942 -1.021524,-0.680782 -2.025876,-2.007309 -2.038408,-2.692284 -0.01036,-0.566441 0.273426,-0.601888 0.847333,-0.105838 0.191121,0.165193 0.535537,0.463346 0.765368,0.662562 0.53735,0.46577 1.052123,0.716051 1.472762,0.716051 0.282273,0 0.335864,-0.0224 0.538318,-0.225 C 17.918801,18.484973 18.03,18.120003 18.03,17.55 c 0,-0.70111 0.230523,-1.34448 0.615653,-1.718236 0.804596,-0.780834 2.146305,-0.386121 3.242655,0.953945 0.578756,0.707412 1.624791,1.501117 2.6581,2.0169 0.300524,0.150008 0.921524,0.396475 1.38,0.547704 1.181641,0.389765 2.396851,1.110887 3.953592,2.346114 2.220611,1.761987 5.121482,4.886977 5.826431,6.276579 0.25902,0.510582 0.188091,0.590906 -0.311586,0.352859 z"
       id="path64" />
    <path
       style="fill:#ffffff;stroke-width:0.06"
       d="m 15.559184,29.845225 c -0.40154,-0.123567 -0.898576,-0.597701 -1.139414,-1.086911 -0.330532,-0.671407 -0.299694,-1.297827 0.08549,-1.736525 0.256977,-0.29268 0.49836,-0.401118 0.893694,-0.401479 0.893554,-8.17e-4 2.001084,1.077359 2.077182,2.022129 0.02163,0.268476 0.0017,0.339181 -0.156578,0.556379 -0.228197,0.31309 -0.514403,0.532933 -0.84622,0.650005 -0.314367,0.110915 -0.544984,0.110007 -0.914152,-0.0036 z"
       id="path66" />
    <path
       style="fill:#ffffff;stroke-width:0.06"
       d="M 6.7957983,40.921844 C 6.4418454,40.874719 6.2700004,40.7847 6.2700004,40.64641 c 0,-0.04339 0.18225,-0.233271 0.4049999,-0.421952 0.7112255,-0.602446 1.0538811,-1.052441 1.545,-2.028983 0.198,-0.393703 0.387,-0.717637 0.42,-0.719851 0.1295359,-0.0087 0.2192014,0.493393 0.2293711,1.284376 0.011572,0.900027 -0.063997,1.235117 -0.3755256,1.665169 -0.2915862,0.402523 -0.9527288,0.595906 -1.6980475,0.496675 z"
       id="path68" />
    <path
       style="fill:#ffffff;stroke-width:0.06"
       d="M 8.7064167,43.927901 C 8.2686762,43.832322 8.3676437,43.601534 9.2511694,42.65756 9.8750082,41.991039 10.066134,41.725774 10.395018,41.07 c 0.395173,-0.78795 0.55679,-1.388863 0.621278,-2.31 0.08539,-1.219743 0.264071,-1.714015 0.531969,-1.471571 0.183847,0.16638 0.261853,0.692844 0.222485,1.501571 -0.120096,2.467124 -0.970917,4.588329 -2.0339089,5.070791 -0.2562941,0.116325 -0.6789522,0.143852 -1.0304244,0.06711 z"
       id="path70" />
    <path
       style="fill:#ffffff;stroke-width:0.06"
       d="m 21.358456,35.877501 c -0.02125,-0.03437 0.02014,-0.257124 0.09197,-0.495 0.410815,-1.360486 1.878444,-3.587628 2.171222,-3.294851 0.169696,0.169697 -0.512535,1.770623 -1.181432,2.77235 -0.359521,0.538411 -0.845658,1.08 -0.969422,1.08 -0.04054,0 -0.0911,-0.02812 -0.112341,-0.0625 z"
       id="path72" />
    <path
       style="fill:#ffffff;stroke-width:0.06"
       d="m 24.111421,37.93718 c -0.0681,-0.271337 0.08485,-1.437974 0.305163,-2.327716 0.567408,-2.291444 1.56165,-4.481479 1.996875,-4.398558 0.258182,0.04919 0.119761,1.217018 -0.317051,2.674897 C 25.462512,36.001454 24.539017,38.1 24.241888,38.1 c -0.04928,0 -0.107991,-0.07327 -0.130467,-0.16282 z"
       id="path74" />
    <path
       style="fill:#ffffff;stroke-width:0.06"
       d="m 39.530081,42.528199 c -0.797106,-0.868438 -2.9039,-5.78066 -3.910055,-9.116726 C 35.178603,31.947866 34.958759,30.78 35.124666,30.78 c 0.351906,0 2.146734,3.666311 3.306538,6.754296 0.980064,2.609424 1.52916,4.722025 1.305788,5.023903 -0.07614,0.102905 -0.08627,0.101437 -0.206911,-0.03 z"
       id="path76" />
  </g>
</svg>
