<?xml version="1.0" encoding="UTF-8" standalone="no"?>
<svg
   xmlns:dc="http://purl.org/dc/elements/1.1/"
   xmlns:cc="http://creativecommons.org/ns#"
   xmlns:rdf="http://www.w3.org/1999/02/22-rdf-syntax-ns#"
   xmlns:svg="http://www.w3.org/2000/svg"
   xmlns="http://www.w3.org/2000/svg"
   xmlns:sodipodi="http://sodipodi.sourceforge.net/DTD/sodipodi-0.dtd"
   xmlns:inkscape="http://www.inkscape.org/namespaces/inkscape"
   version="1.1"
   id="svg52"
   width="48"
   height="48"
   viewBox="0 0 48 48"
   sodipodi:docname="BPawn.svg"
   inkscape:version="1.0.2 (e86c870879, 2021-01-15, custom)">
  <metadata
     id="metadata58">
    <rdf:RDF>
      <cc:Work
         rdf:about="">
        <dc:format>image/svg+xml</dc:format>
        <dc:type
           rdf:resource="http://purl.org/dc/dcmitype/StillImage" />
        <dc:title />
      </cc:Work>
    </rdf:RDF>
  </metadata>
  <defs
     id="defs56" />
  <sodipodi:namedview
     pagecolor="#ffffff"
     bordercolor="#666666"
     borderopacity="1"
     objecttolerance="10"
     gridtolerance="10"
     guidetolerance="10"
     inkscape:pageopacity="0"
     inkscape:pageshadow="2"
     inkscape:window-width="1534"
     inkscape:window-height="948"
     id="namedview54"
     showgrid="false"
     inkscape:zoom="16.666667"
     inkscape:cx="24"
     inkscape:cy="24"
     inkscape:window-x="0"
     inkscape:window-y="0"
     inkscape:window-maximized="0"
     inkscape:current-layer="g60"
     inkscape:document-rotation="0" />
  <g
     inkscape:groupmode="layer"
     inkscape:label="Image"
     id="g60">
    <path
       style="fill:#000000"
       d="m 13.449778,43.91874 c -0.36754,-0.594694 0.515206,-2.316529 1.96166,-3.826301 2.629085,-2.744174 2.629277,-2.745617 0.609238,-4.573727 -2.864648,-2.592471 -2.508146,-5.893922 1.077421,-9.977657 2.544707,-2.898261 2.812641,-3.618967 1.5,-4.034796 -5.265972,-1.668199 -5.016422,-1.386534 -3.102333,-3.501579 0.972402,-1.074492 2.596033,-2.216428 3.608069,-2.537635 1.529221,-0.485356 1.641139,-0.902547 0.662504,-2.46959 -0.957789,-1.533665 -0.830312,-2.269283 0.683039,-3.9415156 2.364144,-2.6123505 4.737104,-2.6123505 7.101248,0 1.513351,1.6722326 1.640828,2.4078506 0.683039,3.9415156 -0.978635,1.567043 -0.866717,1.984234 0.662504,2.46959 1.012036,0.321207 2.635667,1.463143 3.608069,2.537635 1.914089,2.115045 2.163639,1.83338 -3.102333,3.501579 -1.312641,0.415829 -1.044707,1.136535 1.5,4.034796 3.585567,4.083735 3.942069,7.385186 1.077421,9.977657 -2.020039,1.82811 -2.019847,1.829553 0.609238,4.573727 1.446454,1.509772 2.3292,3.231607 1.96166,3.826301 -0.898562,1.453903 -20.201882,1.453903 -21.100444,0 z M 28.85,35.983746 c -1.5125,-0.229125 -7.8275,-0.229125 -9.34,0 -1.5125,0.229124 1.525,1.31659 4.55,1.31659 3.025,0 6.3025,-1.087466 4.79,-1.31659 z M 27.87,20.054267 c -1.2375,-0.238353 -6.6225,-0.238353 -7.86,0 -1.2375,0.238353 1.515,1.333369 3.99,1.333369 2.475,0 5.1075,-1.095016 3.87,-1.333369 z m -1.36,-5.956548 c -0.6875,-0.277412 -4.3325,-0.27741 -5.02,0 -0.6875,0.277413 1.135,1.104386 2.51,1.104386 1.375,0 3.1975,-0.826973 2.51,-1.104386 z"
       id="path64"
       sodipodi:nodetypes="sssssssssssssssssssssssssssssss" />
    <path
       style="fill:#ffffff;stroke-width:0.06"
       d="m 23.28,15.112228 c -0.999972,-0.193324 -2.032802,-0.691169 -1.895338,-0.913591 0.211393,-0.34204 5.019283,-0.34204 5.230676,0 0.102751,0.166256 -0.561491,0.56058 -1.30562,0.775077 C 24.878366,15.098052 23.64281,15.18237 23.28,15.112228 Z"
       id="path90" />
    <path
       style="fill:#ffffff;stroke-width:0.06"
       d="m 22.479505,21.239249 c -1.305944,-0.211475 -2.629796,-0.684645 -2.724756,-0.97388 -0.06427,-0.195766 0.810258,-0.294066 3.105251,-0.349038 2.46677,-0.05909 5.050604,0.07807 5.247892,0.278573 0.197793,0.201015 -0.838544,0.671096 -2.067892,0.937991 -0.875406,0.190053 -2.705949,0.244733 -3.560495,0.106354 z"
       id="path92" />
    <path
       style="fill:#ffffff;stroke-width:0.06"
       d="m 23.31,37.249927 c -1.67666,-0.139022 -3.050072,-0.423124 -3.791696,-0.784346 -0.575296,-0.280208 -0.465049,-0.398688 0.473324,-0.50867 0.854501,-0.100151 7.522243,-0.100151 8.376744,0 0.969573,0.113638 1.045752,0.21573 0.382934,0.513186 -1.156164,0.518855 -3.880271,0.909266 -5.441306,0.77983 z"
       id="path94" />
  </g>
</svg>
