<?xml version="1.0" encoding="UTF-8" standalone="no"?>
<svg
   xmlns:dc="http://purl.org/dc/elements/1.1/"
   xmlns:cc="http://creativecommons.org/ns#"
   xmlns:rdf="http://www.w3.org/1999/02/22-rdf-syntax-ns#"
   xmlns:svg="http://www.w3.org/2000/svg"
   xmlns="http://www.w3.org/2000/svg"
   xmlns:sodipodi="http://sodipodi.sourceforge.net/DTD/sodipodi-0.dtd"
   xmlns:inkscape="http://www.inkscape.org/namespaces/inkscape"
   version="1.1"
   id="svg52"
   width="48"
   height="48"
   viewBox="0 0 48 48"
   sodipodi:docname="BPawn.svg"
   inkscape:version="1.0.2 (e86c870879, 2021-01-15, custom)">
  <metadata
     id="metadata58">
    <rdf:RDF>
      <cc:Work
         rdf:about="">
        <dc:format>image/svg+xml</dc:format>
        <dc:type
           rdf:resource="http://purl.org/dc/dcmitype/StillImage" />
        <dc:title />
      </cc:Work>
    </rdf:RDF>
  </metadata>
  <defs
     id="defs56" />
  <sodipodi:namedview
     pagecolor="#ffffff"
     bordercolor="#666666"
     borderopacity="1"
     objecttolerance="10"
     gridtolerance="10"
     guidetolerance="10"
     inkscape:pageopacity="0"
     inkscape:pageshadow="2"
     inkscape:window-width="1534"
     inkscape:window-height="948"
     id="namedview54"
     showgrid="false"
     inkscape:zoom="16.666667"
     inkscape:cx="24"
     inkscape:cy="24"
     inkscape:window-x="0"
     inkscape:window-y="0"
     inkscape:window-maximized="0"
     inkscape:current-layer="g60"
     inkscape:document-rotation="0" />
  <g
     inkscape:groupmode="layer"
     inkscape:label="Image"
     id="g60">
    <path
       style="fill:#000000"
       d="m 13.449778,43.91874 c -0.36754,-0.594694 0.515206,-2.316529 1.96166,-3.826301 2.629085,-2.744174 2.629277,-2.745617 0.609238,-4.573727 -2.864648,-2.592471 -2.508146,-5.893922 1.077421,-9.977657 2.544707,-2.898261 2.812641,-3.618967 1.5,-4.034796 -5.265972,-1.668199 -5.016422,-1.386534 -3.102333,-3.501579 0.972402,-1.074492 2.596033,-2.216428 3.608069,-2.537635 1.529221,-0.485356 1.641139,-0.902547 0.662504,-2.46959 -0.957789,-1.533665 -0.830312,-2.269283 0.683039,-3.9415156 2.364144,-2.6123505 4.737104,-2.6123505 7.101248,0 1.513351,1.6722326 1.640828,2.4078506 0.683039,3.9415156 -0.978635,1.567043 -0.866717,1.984234 0.662504,2.46959 1.012036,0.321207 2.635667,1.463143 3.608069,2.537635 1.914089,2.115045 2.163639,1.83338 -3.102333,3.501579 -1.312641,0.415829 -1.044707,1.136535 1.5,4.034796 3.585567,4.083735 3.942069,7.385186 1.077421,9.977657 -2.020039,1.82811 -2.019847,1.829553 0.609238,4.573727 1.446454,1.509772 2.3292,3.231607 1.96166,3.826301 -0.898562,1.453903 -20.201882,1.453903 -21.100444,0 z M 28.79,36.223746 c -1.5125,-0.229125 -7.8275,-0.169125 -9.34,0.06 -1.5125,0.229124 1.525,0.41659 4.55,0.41659 3.025,0 6.3025,-0.247466 4.79,-0.47659 z M 27.87,20.234267 c -1.2375,-0.238353 -6.5625,-0.238353 -7.8,0 -1.2375,0.238353 1.455,0.493369 3.93,0.493369 2.475,0 5.1075,-0.255016 3.87,-0.493369 z m -1.72,-6.016548 c -0.6875,-0.277412 -3.6125,-0.157412 -4.3,0.12 -0.6875,0.277413 0.775,0.504386 2.15,0.504386 1.375,0 2.8375,-0.346973 2.15,-0.624386 z"
       id="path64"
       sodipodi:nodetypes="sssssssssssssssssssssssssssssss" />
  </g>
</svg>
