<?xml version="1.0" encoding="UTF-8" standalone="no"?>
<svg
   xmlns:dc="http://purl.org/dc/elements/1.1/"
   xmlns:cc="http://creativecommons.org/ns#"
   xmlns:rdf="http://www.w3.org/1999/02/22-rdf-syntax-ns#"
   xmlns:svg="http://www.w3.org/2000/svg"
   xmlns="http://www.w3.org/2000/svg"
   xmlns:xlink="http://www.w3.org/1999/xlink"
   xmlns:sodipodi="http://sodipodi.sourceforge.net/DTD/sodipodi-0.dtd"
   xmlns:inkscape="http://www.inkscape.org/namespaces/inkscape"
   version="1.1"
   id="svg66"
   width="48"
   height="48"
   viewBox="0 0 48 48"
   sodipodi:docname="BQueen.svg"
   inkscape:version="1.0.2 (e86c870879, 2021-01-15, custom)">
  <metadata
     id="metadata72">
    <rdf:RDF>
      <cc:Work
         rdf:about="">
        <dc:format>image/svg+xml</dc:format>
        <dc:type
           rdf:resource="http://purl.org/dc/dcmitype/StillImage" />
        <dc:title></dc:title>
      </cc:Work>
    </rdf:RDF>
  </metadata>
  <defs
     id="defs70" />
  <sodipodi:namedview
     pagecolor="#ffffff"
     bordercolor="#666666"
     borderopacity="1"
     objecttolerance="10"
     gridtolerance="10"
     guidetolerance="10"
     inkscape:pageopacity="0"
     inkscape:pageshadow="2"
     inkscape:window-width="1738"
     inkscape:window-height="970"
     id="namedview68"
     showgrid="false"
     inkscape:zoom="16.666667"
     inkscape:cx="24"
     inkscape:cy="24"
     inkscape:window-x="0"
     inkscape:window-y="0"
     inkscape:window-maximized="0"
     inkscape:current-layer="g74" />
  <g
     inkscape:groupmode="layer"
     inkscape:label="Image"
     id="g74">
    <path
       style="fill:#000000"
       d="M 14.235509,43.75 C 13.680351,43.0625 12.921755,40.475 12.549741,38 11.685182,32.248101 7.1099429,19.020327 5.2126475,16.787245 3.5796175,14.865199 4.3245429,11.608434 6.2505259,12.249708 6.9377367,12.478522 7.6574235,13.528443 7.8498301,14.582866 8.0422366,15.63729 9.0248422,17.4 10.033398,18.5 c 1.008556,1.1 2.561631,3.35 3.451277,5 1.603909,2.974718 1.611935,2.949437 0.95246,-3 -0.365795,-3.3 -1.063793,-6.4275 -1.551108,-6.95 -1.339874,-1.436616 -1.06165,-5.1593565 0.481294,-6.4398865 1.946436,-1.6153979 4.009421,1.1387558 3.367656,4.4959325 -0.275206,1.439646 0.119068,3.804731 0.876164,5.255746 0.757096,1.451014 1.386201,3.538208 1.398011,4.638208 0.01181,1.1 0.433664,2.65153 0.937453,3.447845 0.990631,1.565845 0.946416,1.694306 3.001561,-8.720527 0.781793,-3.961886 0.735974,-5.760228 -0.184309,-7.2338349 -1.011377,-1.6194723 -0.923273,-2.2626382 0.505692,-3.6916033 1.640601,-1.6406016 1.820301,-1.6406016 3.460902,0 1.428965,1.4289651 1.517069,2.072131 0.505692,3.6916033 -0.920283,1.4736069 -0.966102,3.2719489 -0.184309,7.2338349 2.055145,10.414833 2.01093,10.286372 3.001561,8.720527 C 30.557184,24.15153 30.979038,22.6 30.990848,21.5 c 0.01181,-1.1 0.640915,-3.187194 1.398011,-4.638208 0.757096,-1.451015 1.15137,-3.8161 0.876164,-5.255746 -0.641765,-3.3571767 1.42122,-6.1113304 3.367656,-4.4959325 1.542944,1.28053 1.821168,5.0032705 0.481294,6.4398865 -0.487315,0.5225 -1.185313,3.65 -1.551108,6.95 -0.659475,5.949437 -0.651449,5.974718 0.95246,3 0.889646,-1.65 2.442721,-3.9 3.451277,-5 1.008556,-1.1 1.991161,-2.86271 2.183568,-3.917134 0.192406,-1.054423 0.912093,-2.104344 1.599304,-2.333158 1.925983,-0.641274 2.670908,2.615491 1.037879,4.537537 C 42.890057,19.020327 38.314818,32.248101 37.450259,38 36.434619,44.757031 36.002473,45 25,45 18.400914,45 14.91833,44.595593 14.235509,43.75 Z M 25,34.626661 c 1.925,0 5.525,0.296201 8,0.658225 3.504494,0.51261 3.117353,0.294215 -1.75,-0.987215 -5.801082,-1.527252 -6.698918,-1.527252 -12.5,0 -4.867353,1.28143 -5.254494,1.499825 -1.75,0.987215 2.475,-0.362024 6.075,-0.658225 8,-0.658225 z M 35.443303,29.868315 C 33.824487,29.520888 29.125,29.23663 25,29.23663 c -4.125,0 -8.824487,0.284258 -10.443303,0.631685 C 12.93788,30.215742 17.637366,30.5 25,30.5 c 7.362634,0 12.06212,-0.284258 10.443303,-0.631685 z"
       id="path78" />
  </g>
</svg>
