<?xml version="1.0" encoding="UTF-8" standalone="no"?>
<svg
   xmlns:dc="http://purl.org/dc/elements/1.1/"
   xmlns:cc="http://creativecommons.org/ns#"
   xmlns:rdf="http://www.w3.org/1999/02/22-rdf-syntax-ns#"
   xmlns:svg="http://www.w3.org/2000/svg"
   xmlns="http://www.w3.org/2000/svg"
   xmlns:xlink="http://www.w3.org/1999/xlink"
   xmlns:sodipodi="http://sodipodi.sourceforge.net/DTD/sodipodi-0.dtd"
   xmlns:inkscape="http://www.inkscape.org/namespaces/inkscape"
   version="1.1"
   id="svg10"
   width="48"
   height="48"
   viewBox="0 0 48 48"
   sodipodi:docname="BRook.svg"
   inkscape:version="1.0.2 (e86c870879, 2021-01-15, custom)">
  <metadata
     id="metadata16">
    <rdf:RDF>
      <cc:Work
         rdf:about="">
        <dc:format>image/svg+xml</dc:format>
        <dc:type
           rdf:resource="http://purl.org/dc/dcmitype/StillImage" />
        <dc:title></dc:title>
      </cc:Work>
    </rdf:RDF>
  </metadata>
  <defs
     id="defs14" />
  <sodipodi:namedview
     pagecolor="#ffffff"
     bordercolor="#666666"
     borderopacity="1"
     objecttolerance="10"
     gridtolerance="10"
     guidetolerance="10"
     inkscape:pageopacity="0"
     inkscape:pageshadow="2"
     inkscape:window-width="1556"
     inkscape:window-height="974"
     id="namedview12"
     showgrid="false"
     inkscape:zoom="16.666667"
     inkscape:cx="24"
     inkscape:cy="24"
     inkscape:window-x="0"
     inkscape:window-y="0"
     inkscape:window-maximized="0"
     inkscape:current-layer="g18" />
  <g
     inkscape:groupmode="layer"
     inkscape:label="Image"
     id="g18">
    <path
       style="fill:#000000"
       d="M 10.395817,40.25 C 10.766736,37.6375 11.471566,33.025 11.962105,30 13.406207,21.094674 13.209139,13.41846 11.5,12 10.675,11.315311 10,9.2352107 10,7.3775553 10,4.1841588 10.190835,4 13.5,4 16.566667,4 17,4.3095238 17,6.5 17,8.0555556 17.566667,9 18.5,9 19.433333,9 20,8.0555556 20,6.5 20,4.2037037 20.366667,4 24.5,4 28.633333,4 29,4.2037037 29,6.5 29,8.0555556 29.566667,9 30.5,9 31.433333,9 32,8.0555556 32,6.5 32,4.3095238 32.433333,4 35.5,4 38.809165,4 39,4.1841588 39,7.3775553 39,9.2352107 38.325,11.315311 37.5,12 c -1.709139,1.41846 -1.906207,9.094674 -0.462105,18 0.490539,3.025 1.195369,7.6375 1.566288,10.25 L 39.278582,45 H 24.5 9.7214181 Z M 38,40 C 38,39.382716 32.833333,39 24.5,39 16.166667,39 11,39.382716 11,40 c 0,0.617284 5.166667,1 13.5,1 C 32.833333,41 38,40.617284 38,40 Z M 36,30 c 0,-0.608696 -4.5,-1 -11.5,-1 -7,0 -11.5,0.391304 -11.5,1 0,0.608696 4.5,1 11.5,1 7,0 11.5,-0.391304 11.5,-1 z M 35,13 C 35,12.396825 30.833333,12 24.5,12 18.166667,12 14,12.396825 14,13 c 0,0.603175 4.166667,1 10.5,1 6.333333,0 10.5,-0.396825 10.5,-1 z"
       id="path22" />
  </g>
</svg>
