<?xml version="1.0" encoding="UTF-8" standalone="no"?>
<svg
   xmlns:dc="http://purl.org/dc/elements/1.1/"
   xmlns:cc="http://creativecommons.org/ns#"
   xmlns:rdf="http://www.w3.org/1999/02/22-rdf-syntax-ns#"
   xmlns:svg="http://www.w3.org/2000/svg"
   xmlns="http://www.w3.org/2000/svg"
   xmlns:sodipodi="http://sodipodi.sourceforge.net/DTD/sodipodi-0.dtd"
   xmlns:inkscape="http://www.inkscape.org/namespaces/inkscape"
   version="1.1"
   id="svg52"
   width="48"
   height="48"
   viewBox="0 0 48 48"
   sodipodi:docname="WFairyKnight.svg"
   inkscape:version="1.0.2 (e86c870879, 2021-01-15, custom)">
  <metadata
     id="metadata58">
    <rdf:RDF>
      <cc:Work
         rdf:about="">
        <dc:format>image/svg+xml</dc:format>
        <dc:type
           rdf:resource="http://purl.org/dc/dcmitype/StillImage" />
        <dc:title></dc:title>
      </cc:Work>
    </rdf:RDF>
  </metadata>
  <defs
     id="defs56" />
  <sodipodi:namedview
     pagecolor="#ffffff"
     bordercolor="#666666"
     borderopacity="1"
     objecttolerance="10"
     gridtolerance="10"
     guidetolerance="10"
     inkscape:pageopacity="0"
     inkscape:pageshadow="2"
     inkscape:window-width="1321"
     inkscape:window-height="964"
     id="namedview54"
     showgrid="false"
     inkscape:zoom="16.666667"
     inkscape:cx="24"
     inkscape:cy="24"
     inkscape:window-x="0"
     inkscape:window-y="0"
     inkscape:window-maximized="0"
     inkscape:current-layer="g60"
     inkscape:document-rotation="0" />
  <g
     inkscape:groupmode="layer"
     inkscape:label="Image"
     id="g60">
    <path
       style="fill:#000000"
       d="m 34.098298,4.4680145 c 0,0.763283 -1.623538,3.747997 -3.607863,6.6326985 -7.14824,10.391713 -6.574954,15.827815 0.796928,7.556747 5.62687,-6.313206 9.449118,-7.359588 12.254231,-3.354728 2.158979,3.082375 1.950553,5.384198 -0.823466,9.094216 -2.603791,3.48235 -6.61983,14.063151 -6.61983,17.440841 0,2.77237 -1.451903,3.60778 -3.009138,1.731427 -1.679038,-2.023117 -2.65779,-1.87066 -3.280611,0.511011 -0.669376,2.559697 -2.340342,2.559697 -3.710251,0 -0.588702,-1.100001 -1.973813,-2 -3.078025,-2 -2.905073,0 -11.710184,-8.648539 -14.5889688,-14.329548 C 6.0833922,23.1173 3.0982982,10.658381 3.0982982,5.4922585 V 3.0802265 H 18.598298 c 12.554098,0 15.5,0.26376 15.5,1.387788 z M 7.0982982,5.4922585 c 0,3.467662 3.0247058,16.7350655 4.4386028,19.4692395 0.858768,1.660675 1.543325,3.829256 1.521237,4.819069 -0.09083,4.070076 -4.8989748,-9.810565 -6.0446658,-17.45034 -0.680462,-4.5375005 -1.614746,-8.2500005 -2.076188,-8.2500005 -1.157169,0 -1.061529,1.660934 0.593823,10.3126815 1.88936,9.874795 5.3174168,16.378327 11.6200298,22.044917 5.257937,4.727338 7.43883,5.628075 8.213782,3.392402 0.238309,-0.6875 0.761564,0.212499 1.162789,2 0.940969,4.192112 2.547705,4.192112 2.649537,0 0.04342,-1.787501 0.306856,-2.684697 0.585411,-1.99377 0.278554,0.690927 0.887238,1.020899 1.35263,0.73327 0.465392,-0.287628 1.551958,0.484696 2.41459,1.716276 l 1.568422,2.239236 v -2.905927 c 0,-4.043203 3.763003,-14.401598 6.61983,-18.222364 1.309093,-1.750803 2.38017,-3.663302 2.38017,-4.25 0,-1.746631 -1.816006,-1.209629 -2.310674,0.683279 -0.344145,1.31691 -0.486031,1.193169 -0.573324,-0.5 -0.0638,-1.2375 0.360556,-2.25 0.943015,-2.25 0.58246,0 0.780902,-0.450001 0.440983,-1 -1.147247,-1.856285 -2.437406,-1.017285 -3.459906,2.25 l -1.01709,3.25 0.533811,-3.75 c 0.293596,-2.0625 0.120732,-3.75 -0.384142,-3.75 -0.94508,0 -6.534826,5.826281 -11.512824,12 -1.552168,1.925 -2.367011,2.575752 -1.810762,1.446117 0.622835,-1.264858 0.659888,-2.609425 0.09645,-3.5 -0.562954,-0.88981 -0.920802,-0.990298 -0.930224,-0.261218 -0.02387,1.847227 -2.016336,6.647411 -2.541307,6.122439 -0.836295,-0.836295 4.626208,-15.215169 6.954918,-18.307338 1.242614,-1.6500005 2.795281,-4.0125005 3.450371,-5.2500005 l 1.191073,-2.25 H 20.133482 c -10.5592388,0 -13.0351838,0.268206 -13.0351838,1.412032 z M 33.598298,32.080227 c 1.076859,1.742395 -0.519288,3.228881 -2.078017,1.935251 -0.769979,-0.639026 -1.153359,-1.560878 -0.851956,-2.048558 0.729479,-1.180321 2.164771,-1.124815 2.929973,0.113307 z"
       id="path64" />
    <path
       style="fill:#ffffff;stroke-width:0.06"
       d="m 32.646194,4.9898855 c -1.142156,2.179524 -2.014771,3.591525 -3.526798,5.7067975 -0.488895,0.68395 -1.018427,1.459544 -1.176736,1.723544 -1.878932,3.133351 -5.251581,11.578296 -6.242242,15.630265 -0.57376,2.346773 -0.01122,2.591493 1.017687,0.442721 0.759938,-1.587056 1.438881,-3.864721 1.439952,-4.83064 3e-4,-0.267673 0.120458,-0.388563 0.293938,-0.295719 0.18756,0.100379 0.6607,0.801589 0.790981,1.172262 0.278062,0.791138 0.193315,1.736853 -0.248724,2.775558 -0.386323,0.907786 -0.298406,1.018247 0.337203,0.423668 0.21865,-0.204537 0.713553,-0.751287 1.099785,-1.215 0.38623,-0.463713 1.241073,-1.491021 1.899648,-2.282906 4.552861,-5.474452 9.207105,-10.203625 9.939716,-10.099735 0.24701,0.03503 0.41924,0.497674 0.461344,1.239266 0.05503,0.96927 -0.0263,1.941471 -0.347202,4.15026 -0.259691,1.787489 -0.297722,2.127669 -0.227505,2.035 0.01042,-0.01375 0.269866,-0.835001 0.57655,-1.825 0.824933,-2.66295 1.239649,-3.594238 1.875446,-4.211514 0.285622,-0.277302 0.497145,-0.378486 0.79122,-0.378486 0.573307,0 1.479687,1.111708 1.297362,1.591261 -0.06373,0.167626 -0.374252,0.328739 -0.633594,0.328739 -0.225917,0 -0.520536,0.322165 -0.685874,0.75 -0.112145,0.29019 -0.144228,0.511255 -0.165449,1.14 -0.02713,0.803747 0.04908,1.617689 0.162047,1.730651 0.110116,0.110117 0.224919,-0.07794 0.382702,-0.626903 0.347689,-1.209689 0.951117,-1.930112 1.616666,-1.930112 0.440104,0 0.7795,0.57369 0.676192,1.142985 -0.108153,0.595989 -1.04755,2.256446 -2.162455,3.822306 -0.779578,1.094901 -1.138547,1.671535 -1.71884,2.761073 -2.148175,4.033336 -4.164783,9.715936 -4.919056,13.86141 -0.110048,0.60482 -0.136378,1.031267 -0.166304,2.693518 l -0.03556,1.974929 -0.75,-1.074692 c -1.279211,-1.83301 -1.785171,-2.379799 -2.508989,-2.711454 -0.328354,-0.150452 -0.48295,-0.15259 -0.82543,-0.01141 -0.369631,0.15237 -0.7899,-0.09695 -1.091113,-0.647299 -0.112884,-0.20625 -0.244697,-0.375 -0.292918,-0.375 -0.222396,0 -0.351644,0.684183 -0.440081,2.329602 -0.08792,1.635904 -0.28732,2.50194 -0.657753,2.856838 -0.245232,0.234947 -0.44166,0.21898 -0.726383,-0.05905 -0.434265,-0.424048 -0.809907,-1.298172 -1.13623,-2.644023 -0.41279,-1.702469 -0.770471,-2.528884 -1.069596,-2.471278 -0.05367,0.01034 -0.206462,0.233529 -0.339543,0.495984 -0.31393,0.619121 -0.585013,0.825604 -1.129413,0.860268 -0.443069,0.02821 -1.095591,-0.165546 -1.722551,-0.511492 -1.759628,-0.970933 -5.19198,-3.847312 -7.48434,-6.272022 C 10.268958,29.284188 7.4226812,23.420074 5.7732622,15.405126 5.0420602,11.852032 4.3811652,7.9408905 4.2347372,6.3002255 c -0.132528,-1.484922 0.07987,-2.19 0.659714,-2.19 0.455892,0 1.213483,2.922688 2.014065,7.7700005 0.716364,4.337392 1.650496,8.026014 3.2364958,12.78 0.93369,2.798707 1.688751,4.650737 2.226166,5.460387 0.269927,0.406662 0.430485,0.494455 0.582116,0.3183 0.08463,-0.09832 0.105,-0.236583 0.105,-0.712753 0,-1.035464 -0.49507,-2.672022 -1.371617,-4.534165 C 11.455803,24.701522 11.128141,23.895226 10.958541,23.400226 9.4169002,18.900755 7.2085942,8.7140175 7.1590072,5.8732755 c -0.01048,-0.600112 -0.0069,-0.617653 0.161342,-0.794005 0.33384,-0.349911 0.976672,-0.530914 2.467945,-0.6949 1.8419828,-0.202553 3.2209108,-0.229241 13.2822348,-0.257061 l 10.042234,-0.02777 z M 31.444375,31.223651 c -0.587913,0.26703 -0.970867,0.818755 -0.899345,1.295698 0.145117,0.967711 1.269505,2.010877 2.167446,2.010877 1.040494,0 1.573482,-1.084118 1.065566,-2.167402 -0.281873,-0.60118 -0.73738,-1.051875 -1.205587,-1.192856 -0.300299,-0.09042 -0.870557,-0.06328 -1.12808,0.05368 z"
       id="path186" />
  </g>
</svg>
