<?xml version="1.0" encoding="UTF-8" standalone="no"?>
<svg
   xmlns:dc="http://purl.org/dc/elements/1.1/"
   xmlns:cc="http://creativecommons.org/ns#"
   xmlns:rdf="http://www.w3.org/1999/02/22-rdf-syntax-ns#"
   xmlns:svg="http://www.w3.org/2000/svg"
   xmlns="http://www.w3.org/2000/svg"
   xmlns:sodipodi="http://sodipodi.sourceforge.net/DTD/sodipodi-0.dtd"
   xmlns:inkscape="http://www.inkscape.org/namespaces/inkscape"
   version="1.1"
   id="svg10"
   width="48"
   height="48"
   viewBox="0 0 48 48"
   sodipodi:docname="WFairyBishop.svg"
   inkscape:version="1.0.2 (e86c870879, 2021-01-15, custom)">
  <metadata
     id="metadata16">
    <rdf:RDF>
      <cc:Work
         rdf:about="">
        <dc:format>image/svg+xml</dc:format>
        <dc:type
           rdf:resource="http://purl.org/dc/dcmitype/StillImage" />
        <dc:title></dc:title>
      </cc:Work>
    </rdf:RDF>
  </metadata>
  <defs
     id="defs14" />
  <sodipodi:namedview
     pagecolor="#ffffff"
     bordercolor="#666666"
     borderopacity="1"
     objecttolerance="10"
     gridtolerance="10"
     guidetolerance="10"
     inkscape:pageopacity="0"
     inkscape:pageshadow="2"
     inkscape:window-width="1587"
     inkscape:window-height="974"
     id="namedview12"
     showgrid="false"
     inkscape:zoom="16.666667"
     inkscape:cx="24"
     inkscape:cy="24"
     inkscape:window-x="0"
     inkscape:window-y="0"
     inkscape:window-maximized="0"
     inkscape:current-layer="g18"
     inkscape:document-rotation="0" />
  <g
     inkscape:groupmode="layer"
     inkscape:label="Image"
     id="g18">
    <path
       style="fill:#000000"
       d="m 8.3800024,3.5937856 c -0.9884363,2.575824 0.6250963,3.547403 5.9290146,3.570123 L 19.5,7.1861446 17,9.1196186 c -2.137193,1.6528834 -2.325095,2.2177734 -1.294783,3.8924864 0.969463,1.575807 0.92056,2.195256 -0.25,3.166735 -3.475018,2.884009 -0.306693,16.130031 4.965346,20.758943 2.358481,2.070773 3.079833,3.303493 2.356427,4.0269 -1.389683,1.389682 -0.239917,4.17699 1.72301,4.17699 1.962927,0 3.112693,-2.787308 1.72301,-4.17699 -0.723406,-0.723407 -0.0021,-1.956127 2.356427,-4.0269 5.272039,-4.628912 8.440364,-17.874934 4.965346,-20.758943 -1.17056,-0.971479 -1.219463,-1.590928 -0.25,-3.166735 1.030676,-1.675304 0.843862,-2.23344 -1.289958,-3.8539594 l -2.495176,-1.894948 5.495176,-0.310763 C 39.729746,6.6852316 40.5,6.3613346 40.5,4.6416726 c 0,-1.738732 -0.767911,-2.039678 -5.878352,-2.303734 -4.830866,-0.24961 -6.270845,0.06499 -8.080969,1.765518 l -2.202617,2.069251 -1.824019,-2.015517 C 20.215493,1.6173206 9.3053285,1.1824246 8.3800024,3.5937856 Z M 21.5,5.1416726 c 2.292956,2.533688 3.716739,2.522975 6.041139,-0.04546 1.469238,-1.62349 2.844835,-1.984506 6.66811,-1.75 6.399312,0.392512 6.60446,2.212674 0.294205,2.610318 -3.026798,0.190736 -5.313162,0.880624 -5.79969,1.75 -1.088791,1.945565 -7.590063,1.895017 -8.342138,-0.064858 -0.401803,-1.047082 -2.035205,-1.5 -5.409598,-1.5 -4.576211,0 -6.6760341,-0.942661 -5.2581748,-2.36052 0.3517138,-0.351714 2.7447358,-0.63948 5.3178258,-0.63948 3.408354,0 5.169685,0.542923 6.488321,2 z m 9.943736,5.6167834 c 1.244067,0.477393 1.347876,0.929383 0.459343,2 -1.58402,1.908627 -13.234883,1.89327 -14.822372,-0.01954 -0.893976,-1.077175 -0.86437,-1.523051 0.127555,-1.921053 1.857102,-0.745146 12.334526,-0.788872 14.235474,-0.05941 z m 0.727523,6.038205 c 2.205638,1.996074 2.294197,4.480558 0.385744,10.821863 C 31.13464,32.344678 26.696196,38.141673 24.5,38.141673 c -2.196196,0 -6.63464,-5.796995 -8.057003,-10.523149 -1.863389,-6.191569 -1.819352,-8.403502 0.211991,-10.64811 2.241302,-2.476612 12.840489,-2.595303 15.516271,-0.173753 z M 23,20.641673 c 0,1.833333 -0.533333,2.5 -2,2.5 -1.111111,0 -2,0.666667 -2,1.5 0,0.833333 0.888889,1.5 2,1.5 1.466667,0 2,0.666667 2,2.5 0,1.555556 0.566667,2.5 1.5,2.5 0.933333,0 1.5,-0.944444 1.5,-2.5 0,-1.833333 0.533333,-2.5 2,-2.5 1.111111,0 2,-0.666667 2,-1.5 0,-0.833333 -0.888889,-1.5 -2,-1.5 -1.466667,0 -2,-0.666667 -2,-2.5 0,-1.555556 -0.566667,-2.5 -1.5,-2.5 -0.933333,0 -1.5,0.944444 -1.5,2.5 z m 4.316422,3.636182 c 2.172398,0.135485 2.172058,0.138401 -0.06642,0.569551 -1.61375,0.310822 -2.292369,1.19134 -2.399832,3.113818 l -0.149832,2.680449 -0.41659,-2.75 c -0.299287,-1.975657 -1.031441,-2.788346 -2.600168,-2.886182 -2.172398,-0.135485 -2.172058,-0.138401 0.06642,-0.569551 1.61375,-0.310822 2.292369,-1.19134 2.399832,-3.113818 l 0.149834,-2.680449 0.41659,2.75 c 0.299287,1.975657 1.031441,2.788346 2.600168,2.886182 z m -1.869208,18.949228 c -0.321976,0.520967 -1.011657,0.683779 -1.532624,0.361803 -0.520968,-0.321975 -0.683779,-1.011656 -0.361804,-1.532624 0.321976,-0.520967 1.011657,-0.683779 1.532624,-0.361803 0.520968,0.321976 0.683779,1.011656 0.361804,1.532624 z"
       id="path22" />
    <path
       style="fill:#ffffff;stroke-width:0.06"
       d="m 24.3,41.58977 c -0.265054,0.06047 -0.411807,0.152561 -0.618812,0.388327 -0.582927,0.663916 -0.07569,1.727421 0.823891,1.727421 0.311952,0 0.563945,-0.106428 0.767057,-0.323964 C 25.43541,43.206686 25.59,42.846851 25.59,42.641672 25.59,42.436493 25.43541,42.076658 25.272136,41.90179 25.02496,41.637062 24.637633,41.512744 24.3,41.58977 Z"
       id="path142" />
    <path
       style="fill:#ffffff;stroke-width:0.06"
       d="m 23.16,15.110935 c -2.805388,0.223146 -4.337469,0.568778 -5.67,1.279131 -0.91578,0.48819 -1.866428,1.812901 -2.185994,3.046147 -0.38475,1.484798 -0.145479,3.536344 0.805985,6.910646 0.810923,2.875882 1.599677,4.599782 3.214138,7.024814 1.465922,2.201915 3.038732,3.839753 4.281348,4.45836 0.44063,0.219357 0.556488,0.251639 0.903111,0.251639 0.337504,0 0.465472,-0.03353 0.84622,-0.221702 1.777717,-0.878595 4.219486,-3.85272 5.901623,-7.188297 0.822628,-1.631222 1.286971,-2.932976 1.894109,-5.31 1.150119,-4.502864 0.946812,-6.607237 -0.805442,-8.336891 -1.052962,-1.03938 -3.103993,-1.672848 -6.125098,-1.891755 -0.76997,-0.05579 -2.481023,-0.06814 -3.06,-0.02209 z m 1.849599,3.102525 c 0.107659,0.04498 0.305224,0.206163 0.439033,0.358178 0.36471,0.414333 0.50173,0.89583 0.566307,1.990035 0.07535,1.276823 0.194145,1.710281 0.574029,2.094602 0.281391,0.284676 0.620977,0.39866 1.35923,0.456235 0.767759,0.05988 1.096098,0.158203 1.48885,0.445868 0.332917,0.24384 0.592952,0.718911 0.592952,1.083295 0,0.364384 -0.260035,0.839455 -0.592952,1.083295 -0.392752,0.287665 -0.721091,0.385993 -1.48885,0.445868 -0.738253,0.05757 -1.077839,0.171559 -1.35923,0.456235 -0.379884,0.384321 -0.498675,0.817779 -0.574029,2.094602 -0.06596,1.117637 -0.201483,1.581953 -0.586838,2.01056 -0.310202,0.34502 -0.559985,0.442407 -1.04477,0.40734 -0.878562,-0.06355 -1.338053,-0.853161 -1.407026,-2.4179 -0.05601,-1.270568 -0.220665,-1.815272 -0.657615,-2.175443 -0.280343,-0.231082 -0.584503,-0.318028 -1.319139,-0.377084 -0.712506,-0.05728 -1.168593,-0.212426 -1.527462,-0.519604 -0.644805,-0.55193 -0.644805,-1.463808 0,-2.015738 0.364214,-0.311753 0.814661,-0.463134 1.557911,-0.523563 0.81659,-0.06639 1.051237,-0.147459 1.381687,-0.477345 0.376576,-0.375933 0.476077,-0.713802 0.54204,-1.840581 0.0727,-1.241847 0.198155,-1.733347 0.565296,-2.214694 0.300675,-0.394205 1.006162,-0.566562 1.490576,-0.364161 z"
       id="path144" />
    <path
       style="fill:#ffffff;stroke-width:0.06"
       d="m 24.221327,20.47849 c -0.03994,0.73875 -0.115033,1.545683 -0.166876,1.793183 -0.271169,1.294583 -0.963279,1.925858 -2.430838,2.217173 -0.342987,0.06808 -0.826113,0.169003 -1.073613,0.224264 -0.427715,0.0955 -0.439765,0.102647 -0.24332,0.14433 0.113674,0.02412 0.518674,0.06204 0.9,0.08427 1.546696,0.09015 2.199136,0.427663 2.6647,1.378468 0.229736,0.469184 0.363587,1.042717 0.602468,2.581499 0.112705,0.726 0.207729,1.3065 0.211165,1.29 0.0034,-0.0165 0.04497,-0.667367 0.09231,-1.446371 0.04733,-0.779004 0.128058,-1.597475 0.179393,-1.818825 0.197089,-0.849831 0.649175,-1.468285 1.308661,-1.790247 0.337551,-0.164793 0.752103,-0.275258 1.981426,-0.527987 0.35574,-0.07313 0.635112,-0.144659 0.620826,-0.158945 -0.01429,-0.01429 -0.491083,-0.06356 -1.059552,-0.109487 -1.284738,-0.103808 -1.667502,-0.217642 -2.118844,-0.630143 -0.611719,-0.559077 -0.831645,-1.170029 -1.120204,-3.11191 -0.101024,-0.679847 -0.204245,-1.287018 -0.22938,-1.349268 -0.02552,-0.06321 -0.07776,0.479854 -0.118318,1.23 z"
       id="path146" />
    <path
       style="fill:#ffffff;stroke-width:0.06"
       d="m 21.33,10.336539 c -1.888905,0.08891 -3.312012,0.261422 -3.988538,0.48351 C 16.851688,10.98083 16.47,11.302629 16.47,11.554773 c 0,0.322924 0.538818,1.148605 0.912824,1.398806 1.571955,1.051596 6.64722,1.507495 10.847176,0.974376 1.704948,-0.216417 3.043652,-0.631042 3.53288,-1.094209 0.364656,-0.345231 0.66712,-0.869664 0.66712,-1.1567 0,-0.225543 -0.02932,-0.281119 -0.246286,-0.466833 C 31.567176,10.68248 30.488995,10.473385 27.66,10.332917 c -1.365644,-0.06781 -4.854806,-0.06581 -6.33,0.0036 z"
       id="path148" />
    <path
       style="fill:#ffffff;stroke-width:0.06"
       d="m 12.87,3.2298486 c -0.60869,0.04203 -1.945987,0.21027 -2.362532,0.297225 -0.5760729,0.120258 -0.7943169,0.23933 -1.0080533,0.549985 -0.6691532,0.972581 0.4469589,1.658584 3.1449973,1.933029 0.348088,0.03541 1.519995,0.08965 2.604238,0.120534 2.498081,0.07116 3.411821,0.202366 4.227409,0.607018 0.472043,0.234202 0.665521,0.414556 0.883547,0.823615 0.34997,0.656611 0.913315,1.021089 2.007043,1.298536 1.735531,0.440253 4.081292,0.268296 5.398029,-0.395707 0.353074,-0.178047 0.722247,-0.506488 1.027635,-0.914251 0.604026,-0.806515 2.630043,-1.378348 5.767687,-1.627899 2.504715,-0.199212 3.931226,-0.521841 4.380431,-0.99071 0.419383,-0.437742 -0.224369,-0.863104 -1.808748,-1.195137 -1.995088,-0.418103 -5.403491,-0.545235 -6.771683,-0.252579 -1.204719,0.257688 -1.725174,0.580102 -3.03,1.877038 -1.324873,1.316862 -1.928255,1.671127 -2.84625,1.671127 -0.882302,0 -1.448225,-0.335048 -2.822828,-1.67122 -1.083644,-1.053349 -1.493909,-1.328927 -2.482162,-1.667286 -1.099134,-0.376324 -1.768338,-0.455246 -3.99876,-0.471592 -1.089,-0.008 -2.1285,-0.0043 -2.31,0.0083 z"
       id="path150" />
  </g>
</svg>
