<?xml version="1.0" encoding="UTF-8" standalone="no"?>
<svg
   xmlns:dc="http://purl.org/dc/elements/1.1/"
   xmlns:cc="http://creativecommons.org/ns#"
   xmlns:rdf="http://www.w3.org/1999/02/22-rdf-syntax-ns#"
   xmlns:svg="http://www.w3.org/2000/svg"
   xmlns="http://www.w3.org/2000/svg"
   xmlns:sodipodi="http://sodipodi.sourceforge.net/DTD/sodipodi-0.dtd"
   xmlns:inkscape="http://www.inkscape.org/namespaces/inkscape"
   version="1.1"
   id="svg10"
   width="46"
   height="48"
   viewBox="0 0 46 48"
   sodipodi:docname="WKing.svg"
   inkscape:version="1.0.2 (e86c870879, 2021-01-15, custom)">
  <metadata
     id="metadata16">
    <rdf:RDF>
      <cc:Work
         rdf:about="">
        <dc:format>image/svg+xml</dc:format>
        <dc:type
           rdf:resource="http://purl.org/dc/dcmitype/StillImage" />
        <dc:title />
      </cc:Work>
    </rdf:RDF>
  </metadata>
  <defs
     id="defs14" />
  <sodipodi:namedview
     pagecolor="#ffffff"
     bordercolor="#666666"
     borderopacity="1"
     objecttolerance="10"
     gridtolerance="10"
     guidetolerance="10"
     inkscape:pageopacity="0"
     inkscape:pageshadow="2"
     inkscape:window-width="1681"
     inkscape:window-height="974"
     id="namedview12"
     showgrid="false"
     inkscape:zoom="16.666667"
     inkscape:cx="23"
     inkscape:cy="24"
     inkscape:window-x="0"
     inkscape:window-y="0"
     inkscape:window-maximized="0"
     inkscape:current-layer="g18"
     inkscape:document-rotation="0" />
  <g
     inkscape:groupmode="layer"
     inkscape:label="Image"
     id="g18">
    <path
       style="fill:#000000"
       d="M 8.9294597,42.92946 C 7.5090829,41.509083 6.9471396,39.834948 7.1398693,37.597936 7.3454203,35.212108 6.5592371,33.165384 4.2104096,29.971474 1.6784587,26.528555 1,24.619473 1,20.937856 1,14.282046 3.7682423,10.98832 9.3225801,11.035435 11.620161,11.054925 14.625,11.713979 16,12.5 c 3.651069,2.08714 5,1.817353 5,-1 C 21,9.9444444 20.433333,9 19.5,9 18.566667,9 18,8.0555556 18,6.5 18,4.9444444 18.566667,4 19.5,4 20.325,4 21,3.325 21,2.5 21,1.5666667 21.944444,1 23.5,1 25.055556,1 26,1.5666667 26,2.5 26,3.325 26.675,4 27.5,4 28.433333,4 29,4.9444444 29,6.5 29,8.0555556 28.433333,9 27.5,9 26.566667,9 26,9.9444444 26,11.5 c 0,2.817353 1.348931,3.08714 5,1 1.375,-0.786021 4.379839,-1.445075 6.67742,-1.464565 C 43.231758,10.98832 46,14.282046 46,20.937856 c 0,3.681617 -0.678459,5.590699 -3.21041,9.033618 -2.348827,3.19391 -3.13501,5.240634 -2.929459,7.626462 0.192729,2.237012 -0.369214,3.911147 -1.789591,5.331524 C 36.197344,44.802656 34.328619,45.78 23.02,45.78 9.6949907,45.78 10.802656,44.802656 8.9294597,42.92946 Z M 35.690532,42.364077 c 0.345269,-0.899757 0.169602,-2.362257 -0.390371,-3.25 -1.502431,-2.381847 -22.097891,-2.381847 -23.600322,0 -0.559973,0.887743 -0.73564,2.350243 -0.390371,3.25 0.938404,2.445442 23.44266,2.445442 24.381064,0 z M 11.005973,37.641092 C 11.452487,37.168692 10.508808,34.718091 8.9089083,32.195311 7.3090087,29.672531 5.52,24.286668 5.52,22.866726 5.52,19.160234 6.8002004,17.82 9.769874,17.82 c 3.210464,0 11.317737,6.912887 12.82117,11.993205 L 23.682088,33.5 24.352774,30 C 25.235339,25.394296 32.104498,18 35.463171,18 38.398802,18 41,21.34109 41,25.026726 c 0,1.419942 -1.33078,4.680135 -2.957289,7.244873 -1.641174,2.587864 -2.531256,4.926464 -2,5.254798 0.526509,0.3254 0.970973,1.577579 0.987698,2.78262 0.02811,2.025075 0.110661,2.052983 1.090227,0.368546 0.582901,-1.00234 0.362665,-2.146707 0.443921,-4.276371 0.07278,-1.907523 0.249664,-3.587529 2.909772,-7.071366 C 44.049745,25.956907 44.490813,23.169228 44.46,20.451056 44.4,15.158143 41.82308,12.48 37.961347,12.48 c -3.323762,0 -9.491997,2.093846 -12.561256,4.761489 -1.881798,1.635562 -2.233088,1.664663 -3.382108,0.280179 C 20.214485,15.348586 11.986724,12.36 8.6454619,12.36 4.8809373,12.36 2.42,15.997795 2.42,20.871056 c 0,2.725338 0.533101,5.089578 3.1410511,8.505107 2.4704717,3.235478 2.6617058,5.228321 2.9326123,6.643802 0.2543587,1.329019 -0.2269616,2.872501 0.311802,3.690035 0.6945679,1.053955 0.6023618,2.680548 0.9844524,0.79 0.2223162,-1.1 0.7695412,-2.386509 1.2160552,-2.858908 z M 22.012626,33.31 C 20.833084,28.435698 18.588295,25.802611 15.359627,22.81 12.837427,20.472206 12.610401,19.922271 9.636704,19.722506 5.2180327,19.425671 6.7689608,25.480297 10.157976,30.824219 13.062237,35.403763 13.080736,36 17.997028,36 c 4.994017,0 4.674864,0.03433 4.015598,-2.69 z m 14.589398,-1.645781 c 4.409015,-5.403922 2.38928,-12.108157 -1.398728,-11.581713 -3.391409,0.471326 -4.340938,2.713012 -6.202923,4.407494 -1.388967,1.264016 -2.653457,4.005698 -3.832999,8.88 -0.659266,2.724328 -1.158419,2.63 3.835598,2.63 4.916292,0 4.170886,-0.134039 7.599052,-4.335781 z M 25,11.940983 C 25,9.1045537 25.42041,8 26.5,8 27.325,8 28,7.325 28,6.5 28,5.675 27.325,5 26.5,5 25.675,5 25,4.325 25,3.5 25,2.675 24.325,2 23.5,2 22.675,2 22,2.675 22,3.5 22,4.325 21.325,5 20.5,5 19.675,5 19,5.675 19,6.5 19,7.325 19.675,8 20.5,8 c 1.072464,0 1.5,1.0925926 1.5,3.833333 0,2.108334 0.287766,4.1211 0.63948,4.472814 C 23.972416,17.639083 25,15.738835 25,11.940983 Z"
       id="path22"
       sodipodi:nodetypes="ssssssssssssssssssssssssssssssssssscsssssssssssssssssssssssssssssssssssssssssssss" />
  </g>
</svg>
