<?xml version="1.0" encoding="UTF-8" standalone="no"?>
<svg
   xmlns:dc="http://purl.org/dc/elements/1.1/"
   xmlns:cc="http://creativecommons.org/ns#"
   xmlns:rdf="http://www.w3.org/1999/02/22-rdf-syntax-ns#"
   xmlns:svg="http://www.w3.org/2000/svg"
   xmlns="http://www.w3.org/2000/svg"
   xmlns:xlink="http://www.w3.org/1999/xlink"
   xmlns:sodipodi="http://sodipodi.sourceforge.net/DTD/sodipodi-0.dtd"
   xmlns:inkscape="http://www.inkscape.org/namespaces/inkscape"
   version="1.1"
   id="svg10"
   width="541.91364"
   height="565.48688"
   viewBox="0 0 541.91364 565.48688"
   sodipodi:docname="WKing1.svg"
   inkscape:version="1.0.2 (e86c870879, 2021-01-15, custom)">
  <metadata
     id="metadata16">
    <rdf:RDF>
      <cc:Work
         rdf:about="">
        <dc:format>image/svg+xml</dc:format>
        <dc:type
           rdf:resource="http://purl.org/dc/dcmitype/StillImage" />
        <dc:title></dc:title>
      </cc:Work>
    </rdf:RDF>
  </metadata>
  <defs
     id="defs14" />
  <sodipodi:namedview
     pagecolor="#ffffff"
     bordercolor="#666666"
     borderopacity="1"
     objecttolerance="10"
     gridtolerance="10"
     guidetolerance="10"
     inkscape:pageopacity="0"
     inkscape:pageshadow="2"
     inkscape:window-width="1748"
     inkscape:window-height="974"
     id="namedview12"
     showgrid="false"
     inkscape:zoom="1.4147101"
     inkscape:cx="270.95682"
     inkscape:cy="282.74344"
     inkscape:window-x="0"
     inkscape:window-y="0"
     inkscape:window-maximized="0"
     inkscape:current-layer="g18" />
  <g
     inkscape:groupmode="layer"
     inkscape:label="Image"
     id="g18">
    <path
       style="fill:#000000;stroke-width:0.270957"
       d="m 228.92436,539.18418 c -60.48739,-0.8873 -91.89114,-4.35625 -106.79923,-11.79738 -5.83413,-2.912 -9.35643,-5.91439 -16.33461,-13.92363 -2.27223,-2.60796 -5.73737,-6.44102 -7.700304,-8.51791 -6.26745,-6.63131 -9.810926,-11.51981 -13.144641,-18.13397 -3.803973,-7.5472 -5.978692,-14.9841 -7.062749,-24.15252 -0.522988,-4.42316 -0.599107,-14.79449 -0.144182,-19.64437 0.370867,-3.95375 0.381228,-12.90963 0.01916,-16.56739 C 75.621596,404.86557 66.067632,384.48797 43.603108,353.59865 19.909865,321.0198 10.999814,302.19131 7.3177655,276.92142 5.0940776,261.66027 4.8330576,239.79359 6.662761,222.04911 c 3.87392,-37.5693 17.550161,-64.0334 40.532747,-78.43256 10.344557,-6.48112 22.804325,-10.71396 37.072063,-12.59415 9.369958,-1.23477 21.295339,-1.41318 29.532369,-0.44183 15.23046,1.79606 34.74939,6.48498 53.5159,12.85582 12.47522,4.23509 21.25705,7.94446 29.08527,12.28539 15.22911,8.4449 24.07097,12.02898 30.72629,12.45502 7.8156,0.50032 11.5699,-3.63448 13.08286,-14.40881 0.52381,-3.73021 1.00529,-15.9951 0.79777,-20.32176 -0.55189,-11.50666 -3.02234,-18.88168 -7.83203,-23.3809 -2.9794,-2.78708 -4.67912,-3.40728 -11.22956,-4.09743 -8.34451,-0.87919 -13.70079,-7.965355 -15.66105,-20.719032 -0.56528,-3.677751 -0.64093,-12.946295 -0.13517,-16.561315 1.56703,-11.200734 5.76527,-18.292549 12.29845,-20.774963 0.87965,-0.334239 2.8892,-0.682641 5.22621,-0.906083 2.57327,-0.246031 4.37451,-0.572651 5.58882,-1.013419 4.55759,-1.654318 7.89319,-4.665321 9.97853,-9.007482 1.26098,-2.625675 1.57164,-3.938824 1.89494,-8.009934 0.15173,-1.910566 0.45843,-3.684451 0.78617,-4.546986 2.45343,-6.456913 9.54332,-10.707535 20.49834,-12.289427 3.2882,-0.474813 17.03357,-0.474813 20.32176,0 10.95503,1.581892 18.04491,5.832514 20.49835,12.289427 0.32775,0.862535 0.63444,2.63642 0.78615,4.546986 0.32331,4.07111 0.63396,5.384259 1.89496,8.009934 2.08534,4.342161 5.42093,7.353164 9.97853,9.007482 1.21429,0.440768 3.01553,0.767388 5.58881,1.013419 2.337,0.223442 4.34655,0.571844 5.22621,0.906083 6.53318,2.482414 10.73144,9.574229 12.29846,20.774963 0.50574,3.61502 0.43009,12.883564 -0.13518,16.561315 -1.23355,8.025632 -3.53723,13.277727 -7.44654,16.977162 -2.34443,2.21856 -4.92849,3.39565 -8.21452,3.74187 -6.55043,0.69015 -8.25014,1.31035 -11.22956,4.09743 -4.80967,4.49922 -7.28012,11.87424 -7.83203,23.3809 -0.2075,4.32666 0.27396,16.59155 0.79778,20.32176 1.51296,10.77433 5.26726,14.90913 13.08288,14.40881 6.65529,-0.42604 15.49715,-4.01012 30.72628,-12.45502 7.82822,-4.34093 16.61003,-8.0503 29.08527,-12.28539 18.76649,-6.37084 38.28544,-11.05976 53.51589,-12.85582 8.23703,-0.97135 20.16241,-0.79294 29.53237,0.44183 22.2093,2.92672 40.02634,11.60436 52.51057,25.57481 13.85369,15.50297 22.18429,37.23121 25.09423,65.4519 1.50034,14.55009 1.6101,33.05006 0.27895,47.01101 -1.67671,17.58542 -5.66847,31.71122 -13.22798,46.8105 -5.52478,11.03512 -12.11039,21.39142 -23.9913,37.72803 -22.46452,30.88932 -32.01848,51.26692 -34.1547,72.84836 -0.36208,3.65776 -0.35171,12.61364 0.0192,16.56739 0.45494,4.84988 0.3788,15.22121 -0.14417,19.64437 -1.08405,9.16842 -3.25877,16.60532 -7.06276,24.15252 -3.33372,6.61416 -6.87719,11.50266 -13.14463,18.13397 -1.96295,2.07689 -5.42808,5.90995 -7.7003,8.51791 -8.65,9.92805 -13.15744,13.22654 -22.40095,16.39267 -20.76629,7.113 -60.62463,9.69879 -147.5071,9.56949 -14.7536,-0.022 -32.99759,-0.13049 -40.5422,-0.24115 z m 71.43127,-18.94563 c 62.81221,-1.81996 105.6413,-8.64276 115.58729,-18.41335 1.64888,-1.61981 1.86846,-1.97135 2.52038,-4.03526 2.13002,-6.74319 2.13192,-16.13854 0.005,-24.67335 -1.16484,-4.67433 -3.52951,-10.25664 -5.47143,-12.91654 -2.46167,-3.37181 -10.21703,-7.10814 -20.43833,-9.84665 -16.84872,-4.51414 -43.96247,-7.89259 -76.21647,-9.49679 -25.35064,-1.26085 -62.16841,-1.26085 -87.51905,0 -48.6909,2.4217 -83.15087,8.62076 -94.12255,16.93182 -2.00506,1.51885 -2.92369,2.69504 -4.42342,5.6637 -3.39609,6.72244 -5.13212,14.35925 -5.14763,22.6444 -0.009,4.70208 0.45609,8.15946 1.57238,11.69341 0.65193,2.06391 0.87151,2.41545 2.52038,4.03526 9.05886,8.89909 45.54622,15.39788 100.41371,17.88469 17.02644,0.77171 53.03977,1.04094 70.71973,0.52866 z M 106.58026,486.43523 c 0.42169,-0.82886 1.30632,-4.25868 2.77797,-10.77054 2.81942,-12.47561 8.10609,-25.03657 13.2089,-31.38389 1.82488,-2.26997 2.22033,-3.64137 1.97402,-6.84581 C 123.6604,425.97677 114.31126,404.8245 99.489576,380.75624 93.970136,371.79345 90.516177,365.598 86.010899,356.57917 77.243606,339.02849 69.463856,320.34778 63.668114,302.92972 60.025013,291.98106 58.47398,285.55332 57.866636,278.8874 c -1.989818,-21.83928 1.033684,-39.05184 8.889337,-50.60628 2.074413,-3.05113 5.836727,-6.98676 8.825576,-9.23212 6.077662,-4.56582 15.021261,-7.7553 24.651201,-8.79115 4.26889,-0.45918 11.64108,-0.40554 14.40697,0.10483 6.32949,1.16793 13.25265,3.71467 21.92252,8.06435 37.20999,18.66832 84.32382,62.4981 108.11907,100.58271 6.09946,9.76227 10.0364,17.50852 13.31035,26.18925 1.13009,2.99637 13.77803,45.38469 13.77803,46.17567 0,0.81114 0.59779,2.86496 0.79789,2.7413 0.10632,-0.0657 0.35164,-0.82628 0.54514,-1.69012 0.67888,-3.03103 12.99931,-44.41256 14.06073,-47.22685 8.29114,-21.98354 25.85432,-47.11373 50.43875,-72.17 23.2931,-23.74016 49.21221,-43.67566 70.99068,-54.60196 8.66986,-4.34968 15.59303,-6.89642 21.92252,-8.06435 2.7659,-0.51037 10.13807,-0.56401 14.40697,-0.10483 24.61542,2.64777 38.51537,16.69427 42.10103,42.54486 1.37594,9.91965 1.01169,25.06559 -0.80651,33.536 -3.49962,16.30374 -14.88412,45.84096 -27.07268,70.24046 -4.50528,9.01883 -7.95922,15.21428 -13.47866,24.17707 -13.03652,21.16943 -21.64823,39.63123 -24.49816,52.51921 -0.24527,1.10919 -0.46192,3.35792 -0.48143,4.9972 -0.0408,3.42327 0.0543,3.67927 2.58268,6.95419 2.83692,3.67458 5.73366,9.42713 8.57332,17.02549 1.7953,4.80385 2.97358,8.92608 4.51506,15.79597 1.32004,5.88312 2.05019,8.43665 2.55731,8.94377 0.57346,0.57345 1.07386,-0.44621 2.83294,-5.77276 2.15766,-6.53347 3.33905,-9.35232 5.24391,-12.51203 3.48163,-5.77525 3.71064,-7.36422 3.46884,-24.06714 -0.13198,-9.11575 -0.0946,-13.70044 0.12822,-15.7155 0.33062,-2.99041 2.18044,-13.31034 3.3755,-18.8315 4.66612,-21.55783 13.90645,-40.11754 32.08576,-64.44604 10.13806,-13.5673 16.04982,-22.80194 21.70911,-33.91128 8.79615,-17.2671 13.37782,-33.98454 14.62787,-53.37387 0.35984,-5.58109 0.359,-18.55239 -0.003,-23.66257 -3.20472,-45.42327 -24.83596,-78.60365 -56.62735,-86.86119 -6.27867,-1.63083 -8.77505,-1.92283 -16.38571,-1.91668 -4.82482,0.004 -7.90441,0.14466 -10.70279,0.48919 -41.66411,5.12967 -108.96548,30.37636 -136.96984,51.38136 -4.51913,3.38961 -6.96039,5.68343 -11.081,10.4117 -6.78757,7.78851 -9.85944,9.89677 -14.43953,9.91005 -1.22066,0.004 -2.29476,0.12836 -2.38686,0.27739 -0.0921,0.14902 -0.70175,0.27095 -1.35478,0.27095 -0.65304,0 -1.26269,-0.12193 -1.35479,-0.27095 -0.0921,-0.14903 -1.10522,-0.27386 -2.25138,-0.27739 -4.4298,-0.0137 -7.58384,-2.19884 -14.30404,-9.91005 -4.11944,-4.72827 -6.56072,-7.02209 -11.07983,-10.4117 -28.00438,-21.005 -95.30574,-46.25169 -136.96985,-51.38136 -5.53265,-0.68117 -16.310289,-0.68524 -20.45724,-0.008 -13.536927,2.21166 -24.720428,7.86516 -34.647595,17.51511 -16.471891,16.01191 -26.496639,40.81231 -28.611007,70.78128 -0.360533,5.11018 -0.361389,18.08148 -0.0016,23.66257 1.250082,19.38933 5.831741,36.10677 14.627885,53.37387 5.659275,11.10934 11.571049,20.34398 21.709112,33.91127 18.179314,24.32851 27.419636,42.88821 32.085775,64.44605 1.195036,5.52116 3.044858,15.84109 3.37549,18.8315 0.222795,2.01505 0.2602,6.59975 0.128223,15.7155 -0.241824,16.70291 -0.01282,18.29189 3.468832,24.06714 1.902805,3.15632 3.085575,5.97696 5.236865,12.48873 2.09022,6.32692 2.38169,6.80722 3.17945,5.23922 z M 232.61643,423.7743 c 11.68063,-0.38062 17.06295,-1.12288 20.39826,-2.813 4.44638,-2.25314 5.19862,-5.85066 3.17906,-15.20346 -1.0041,-4.65011 -4.85987,-19.88975 -6.24267,-24.67368 -8.51086,-29.44426 -21.41605,-53.72928 -40.88371,-76.93513 -13.31735,-15.87455 -38.81801,-40.47666 -54.97009,-53.03314 -13.70126,-10.65123 -24.39763,-15.97043 -41.59119,-20.68289 -8.37763,-2.29616 -14.869745,-2.1585 -20.174061,0.42779 -12.368542,6.03066 -16.351811,25.76215 -10.911342,54.0503 4.334093,22.53546 14.367144,48.14654 27.916503,71.26165 2.87479,4.90437 16.12656,25.91463 21.19162,33.59864 8.74537,13.26727 14.81321,20.27153 21.57181,24.90093 2.47817,1.69744 7.70853,4.21401 11.01539,5.3 6.54805,2.1504 17.22312,3.53133 30.0762,3.89067 7.166,0.20035 32.28864,0.14382 39.42422,-0.0887 z m 127.48518,-0.25048 c 9.47707,-0.69129 16.89132,-1.89106 21.94751,-3.55151 3.30686,-1.08599 8.53722,-3.60256 11.01539,-5.3 6.75859,-4.6294 12.82642,-11.63366 21.5718,-24.90093 5.06507,-7.68401 18.31684,-28.69427 21.19161,-33.59864 17.50546,-29.86416 29.12634,-64.21726 30.16909,-89.18434 0.6047,-14.47886 -1.69199,-24.79393 -6.93606,-31.15184 -5.72326,-6.93891 -14.35478,-8.70547 -26.40192,-5.40356 -17.19357,4.71246 -27.88994,10.03166 -41.5912,20.68289 -16.15209,12.55648 -41.65273,37.15859 -54.97009,53.03314 -19.46765,23.20585 -32.37284,47.49087 -40.8837,76.93513 -1.3828,4.78393 -5.23857,20.02357 -6.24268,24.67368 -1.31834,6.10541 -1.40066,9.86505 -0.26413,12.06283 2.00898,3.88501 7.89676,5.44279 22.48668,5.94956 8.5612,0.29738 43.8934,0.11936 48.9077,-0.24641 z m -86.3279,-225.95073 c 0.0766,-0.12396 1.00723,-0.3805 2.06806,-0.57007 1.06079,-0.18958 2.74284,-0.75606 3.73782,-1.25885 2.01768,-1.01957 4.73288,-3.23089 5.68529,-4.63024 1.45499,-2.13775 3.04017,-7.83313 4.21647,-15.14946 1.62553,-10.11013 2.27972,-19.07268 2.6091,-35.74432 0.27283,-13.80955 0.51669,-18.07879 1.37291,-24.03652 1.55749,-10.83691 4.52845,-17.191114 9.50544,-20.329911 1.40217,-0.884289 3.90261,-1.514781 6.73485,-1.698192 5.75257,-0.372527 8.91155,-1.708055 12.47019,-5.272042 3.88733,-3.893194 5.2807,-7.45261 5.08626,-12.992891 -0.13228,-3.768544 -0.82861,-6.014965 -2.7695,-8.934452 -3.15326,-4.743186 -8.79987,-7.887556 -14.16432,-7.887556 -3.96239,0 -8.10112,-1.422027 -11.39753,-3.916084 -4.08321,-3.089355 -6.80893,-8.657377 -6.8373,-13.967066 -0.0462,-8.642165 -6.66082,-16.179591 -15.17358,-17.290339 -2.48703,-0.324511 -8.33479,-0.208347 -10.11144,0.200861 -7.89315,1.817992 -13.68971,9.031415 -13.73276,17.089478 -0.0284,5.309689 -2.75408,10.877711 -6.8373,13.967066 -3.29641,2.494057 -7.43514,3.916084 -11.39752,3.916084 -5.36447,0 -11.01107,3.14437 -14.16434,7.887556 -1.94087,2.919487 -2.63721,5.165908 -2.76948,8.934452 -0.19446,5.540281 1.19893,9.099697 5.08627,12.992891 3.55862,3.563987 6.7176,4.899515 12.47018,5.272042 2.83222,0.183411 5.33268,0.813903 6.73485,1.698192 4.97699,3.138797 7.94796,9.493001 9.50543,20.329911 0.85624,5.95773 1.10009,10.22697 1.37292,24.03652 0.32937,16.67164 0.98357,25.63419 2.60908,35.74432 1.17633,7.31633 2.76149,13.01171 4.21648,15.14946 1.74999,2.57118 6.41989,5.49691 9.23817,5.78778 0.84903,0.0876 1.6814,0.32525 1.84971,0.52805 0.33192,0.39995 2.55626,0.5144 2.78559,0.14333 z"
       id="path22" />
  </g>
</svg>
