<?xml version="1.0" encoding="UTF-8" standalone="no"?>
<svg
   xmlns:dc="http://purl.org/dc/elements/1.1/"
   xmlns:cc="http://creativecommons.org/ns#"
   xmlns:rdf="http://www.w3.org/1999/02/22-rdf-syntax-ns#"
   xmlns:svg="http://www.w3.org/2000/svg"
   xmlns="http://www.w3.org/2000/svg"
   xmlns:sodipodi="http://sodipodi.sourceforge.net/DTD/sodipodi-0.dtd"
   xmlns:inkscape="http://www.inkscape.org/namespaces/inkscape"
   version="1.1"
   id="svg24"
   width="48"
   height="48"
   viewBox="0 0 48 48"
   sodipodi:docname="WMarshal.svg"
   inkscape:version="1.0.2 (e86c870879, 2021-01-15, custom)">
  <metadata
     id="metadata30">
    <rdf:RDF>
      <cc:Work
         rdf:about="">
        <dc:format>image/svg+xml</dc:format>
        <dc:type
           rdf:resource="http://purl.org/dc/dcmitype/StillImage" />
        <dc:title />
      </cc:Work>
    </rdf:RDF>
  </metadata>
  <defs
     id="defs28" />
  <sodipodi:namedview
     pagecolor="#ffffff"
     bordercolor="#666666"
     borderopacity="1"
     objecttolerance="10"
     gridtolerance="10"
     guidetolerance="10"
     inkscape:pageopacity="0"
     inkscape:pageshadow="2"
     inkscape:window-width="1768"
     inkscape:window-height="974"
     id="namedview26"
     showgrid="false"
     inkscape:zoom="16.666667"
     inkscape:cx="24"
     inkscape:cy="24"
     inkscape:window-x="0"
     inkscape:window-y="0"
     inkscape:window-maximized="0"
     inkscape:current-layer="g32"
     inkscape:document-rotation="0" />
  <g
     inkscape:groupmode="layer"
     inkscape:label="Image"
     id="g32">
    <path
       style="fill:#000000"
       d="M 6.556704,42.777494 C 4.6327181,40.030619 4.5658597,37.15497 6.3777091,35.078741 8.0880562,33.118824 11.624734,22.884628 12.479649,17.421365 12.957915,14.36505 12.727138,13.018434 11.558946,12.048921 10.701526,11.337325 10,9.2352107 10,7.3775553 10,4.1841588 10.190835,4 13.5,4 16.566667,4 17,4.3095238 17,6.5 17,8.0555556 17.566667,9 18.5,9 19.433333,9 20,8.0555556 20,6.5 20,4.2037037 20.366667,4 24.5,4 28.633333,4 29,4.2037037 29,6.5 29,8.0555556 29.566667,9 30.5,9 31.433333,9 32,8.0555556 32,6.5 32,4.3095238 32.433333,4 35.5,4 38.809165,4 39,4.1841588 39,7.3775553 39,9.2352107 38.325,11.315311 37.5,12 c -2.884713,2.394099 -1.944804,12.263135 2,21 5.46368,12.100837 5.522765,12 -7.031326,12 H 21.937349 l 0.233332,-3.46466 c 0.128333,-1.905563 -0.01606,-3.714055 -0.320879,-4.018871 -0.304816,-0.304816 -2.308219,1.253881 -4.452007,3.463772 -4.531407,4.671132 -8.3811261,5.309345 -10.841091,1.797253 z m 11.833478,-5.023463 c 3.268905,-3.435284 5.449792,-5.323537 4.846416,-4.196118 -0.685688,1.281218 -0.753983,2.592102 -0.182135,3.495969 0.562954,0.88981 0.920802,0.990298 0.930224,0.261218 0.02494,-1.929993 2.0276,-6.636146 2.586229,-6.077517 0.283228,0.283227 -0.404136,2.933137 -1.527474,5.888688 C 23.920103,40.081822 23.000782,42.8375 23.000504,43.25 23.000227,43.6625 26.6,44 31,44 c 8.983172,0 9.053739,-0.08097 5.978038,-6.859204 -1.087921,-2.397562 -1.959966,-5.097562 -1.937878,-6 C 35.091553,29.041067 39.906211,39.91312 39.95984,42.25 39.981928,43.2125 40.45,44 41,44 44.488173,44 37.556534,30.584796 31.041966,24.72764 25.695206,19.920443 23.511122,19.006274 22.733379,21.25 22.49507,21.9375 21.971815,21.0375 21.57059,19.25 21.169365,17.4625 20.426844,16 19.920545,16 c -0.5063,0 -0.927436,1.4625 -0.935858,3.25 C 18.973067,21.716223 18.735598,22.138257 18,21 17.466844,20.175 17.023735,19.8926 17.015313,20.372445 16.993129,21.636348 14,18.961284 14,17.677555 14,16.975506 14.418176,17.018176 15.2,17.8 c 1.700357,1.700357 2.489311,1.49608 3.089749,-0.8 0.287656,-1.1 0.999308,-2 1.581448,-2 0.582139,0 1.540101,0.9 2.128803,2 0.588702,1.1 1.953238,2 3.032303,2 1.079064,0 3.763232,1.627363 5.964816,3.616362 L 35,26.232725 V 19.616362 13 H 24.561273 14.122546 l -0.672173,4.75 C 12.508662,24.404725 9.1476242,34.632593 7.4355626,36.053478 5.8317772,37.384502 5.4945201,40 6.9266758,40 7.4363475,40 8.0591469,39.2125 8.3106745,38.25 8.6548191,36.93309 8.7967053,37.05683 8.8839986,38.75 8.9477994,39.9875 8.5234424,41 7.940983,41 7.3585237,41 7.1600813,41.45 7.5,42 c 1.147247,1.856285 2.4374067,1.017285 3.459906,-2.25 l 1.017091,-3.25 -0.533812,3.75 c -0.293596,2.0625 -0.187909,3.75 0.234861,3.75 0.42277,0 3.443231,-2.810686 6.712136,-6.245969 z M 14.5,29 c -1.076859,-1.742395 0.519288,-3.228882 2.078017,-1.935251 0.769979,0.639025 1.153359,1.560877 0.851956,2.048558 C 16.700494,30.293627 15.265202,30.238122 14.5,29 Z M 36.8,10.8 C 37.46,10.14 38,8.565 38,7.3 38,5.5133333 37.442029,5 35.5,5 33.5,5 33,5.5 33,7.5 33,9.5 32.5,10 30.5,10 28.5,10 28,9.5 28,7.5 28,5.3095238 27.566667,5 24.5,5 21.433333,5 21,5.3095238 21,7.5 21,9.5 20.5,10 18.5,10 16.5,10 16,9.5 16,7.5 16,5.5 15.5,5 13.5,5 11.557971,5 11,5.5133333 11,7.3 c 0,1.265 0.54,2.84 1.2,3.5 1.650467,1.650467 22.949533,1.650467 24.6,0 z"
       id="path36" />
    <path
       style="fill:#ffffff;stroke-width:0.06"
       d="M 11.525986,43.815 C 11.39606,43.612881 11.31,43.040019 11.31,42.377274 c 0,-0.752932 0.117847,-1.843206 0.441251,-4.082274 0.141801,-0.98175 0.240471,-1.785 0.219268,-1.785 -0.0212,0 -0.169134,0.42525 -0.328735,0.945 -0.989469,3.222264 -1.436523,4.32415 -2.0081318,4.949581 C 9.1338619,42.951432 8.7464611,43.056536 8.266779,42.775423 8.1187488,42.688672 7.8863958,42.462432 7.7372341,42.25981 7.1990214,41.5287 7.2515334,41.164303 7.9142824,41.031216 8.3228592,40.94917 8.442801,40.85135 8.6362704,40.442389 8.859526,39.970465 8.9327016,39.415786 8.8897618,38.520894 8.8476524,37.643308 8.795781,37.388557 8.6536229,37.361166 c -0.076168,-0.01468 -0.1396218,0.117787 -0.287421,0.6 -0.3319262,1.08295 -0.697179,1.681783 -1.1634683,1.907511 C 6.5004113,40.208665 5.9358373,39.5278 6.0844095,38.52 6.2124917,37.651189 6.5369128,37.053498 7.3538763,36.181224 7.6831451,35.829663 8.046838,35.365368 8.2071409,35.091935 9.8869394,32.226654 12.217601,24.898756 13.223455,19.32 c 0.0952,-0.528 0.342755,-2.15475 0.550124,-3.615 L 14.150614,13.05 H 24.550307 34.95 v 6.546493 6.546492 L 34.425,25.663806 C 32.461572,23.871742 30.44538,22.079191 29.91,21.649622 29.040926,20.952311 27.55058,19.963349 26.763263,19.561513 26.029185,19.18685 25.55379,19.034126 24.826388,18.93928 23.707818,18.793427 22.657891,18.050096 22.016243,16.949744 21.345997,15.800346 20.441609,14.97 19.859966,14.97 c -0.405867,0 -0.948374,0.511891 -1.303566,1.23 -0.08161,0.165 -0.25929,0.651 -0.394838,1.08 -0.615004,1.946437 -1.216765,2.07503 -2.819441,0.602502 -0.860334,-0.790469 -1.18367,-0.912557 -1.327106,-0.501097 -0.0894,0.256445 -0.0825,0.361845 0.04797,0.733057 0.415064,1.180932 2.386034,2.946417 2.854918,2.557277 0.04891,-0.04059 0.10614,-0.165584 0.127186,-0.277768 0.02105,-0.112184 0.07212,-0.203971 0.113496,-0.203971 0.136283,0 0.387485,0.242867 0.67178,0.649491 0.919229,1.314762 1.112154,1.076979 1.184157,-1.459491 0.0178,-0.627 0.07416,-1.378866 0.12524,-1.670814 C 19.318356,16.688508 19.618679,16.05 19.920165,16.05 c 0.45434,0 1.142056,1.329814 1.566971,3.03 0.414493,1.658488 0.748359,2.43 1.051566,2.43 0.07779,0 0.163973,-0.118807 0.293643,-0.404788 0.517979,-1.142377 1.330615,-1.271463 2.877655,-0.457109 1.189693,0.626248 3.196185,2.190403 5.46,4.256327 4.229483,3.859766 9.337423,11.838423 10.511808,16.419557 0.236202,0.921396 0.269539,1.792273 0.08299,2.168096 -0.22838,0.460107 -0.806909,0.608271 -1.17283,0.300369 -0.349434,-0.294029 -0.514023,-0.725277 -0.603956,-1.582452 -0.07264,-0.692385 -0.300534,-1.566198 -0.751177,-2.880277 -0.94146,-2.745303 -2.724121,-6.729666 -3.553992,-7.943405 -0.314637,-0.460176 -0.426204,-0.55473 -0.583373,-0.494419 -0.312803,0.120034 0.271896,2.411276 1.219314,4.778101 0.16512,0.4125 0.589034,1.397842 0.942031,2.189649 1.633693,3.664529 1.833735,4.588954 1.142593,5.280096 -0.664272,0.664272 -1.86779,0.809847 -6.693412,0.809623 -4.622156,-2.4e-4 -7.619456,-0.201765 -8.505393,-0.571933 -0.230332,-0.09624 -0.235357,-0.0316 0.08843,-1.137435 0.266666,-0.910745 0.85387,-2.60444 1.622557,-4.68 0.746117,-2.014617 1.157653,-3.269235 1.454923,-4.435508 0.361646,-1.41884 0.387254,-1.954492 0.09344,-1.954492 -0.450562,0 -1.515549,2.060897 -2.094235,4.052636 -0.273417,0.941056 -0.32999,1.208058 -0.396681,1.872166 -0.03064,0.305142 -0.07246,0.581892 -0.09292,0.615 -0.07401,0.119759 -0.203881,0.05477 -0.46016,-0.230274 -0.854401,-0.950299 -0.934746,-2.249452 -0.2311,-3.736834 0.09957,-0.210482 0.181065,-0.416444 0.181091,-0.457694 6e-5,-0.139432 -0.22924,-0.07615 -0.520357,0.143594 -0.693935,0.523803 -1.2744,1.083103 -4.849591,4.672771 -2.079,2.087419 -4.1175,4.098297 -4.53,4.468618 C 12.63043,43.323704 11.8261,43.95 11.697691,43.95 c -0.04671,0 -0.123976,-0.06075 -0.171705,-0.135 z m 5.092318,-13.930425 c 0.255324,-0.106681 0.730514,-0.539573 0.853623,-0.777639 0.232318,-0.449252 -0.04189,-1.23372 -0.644897,-1.844956 -0.476816,-0.483323 -0.876606,-0.676398 -1.40703,-0.679513 -0.544982,-0.0032 -0.832855,0.140272 -1.08,0.53826 -0.161325,0.259791 -0.18,0.34028 -0.18,0.77583 0,0.427304 0.02361,0.533918 0.195561,0.883207 0.375296,0.762333 0.977688,1.188555 1.681366,1.18965 0.20731,3e-4 0.46893,-0.03786 0.581377,-0.08484 z"
       id="path200" />
    <path
       style="fill:#ffffff;stroke-width:0.06"
       d="m 21.398835,11.965257 c -4.150032,-0.111081 -7.4267,-0.454375 -8.62841,-0.903992 -0.506082,-0.18935 -0.763846,-0.460049 -1.101754,-1.1570383 -0.7623,-1.5723644 -0.859507,-3.5176082 -0.213497,-4.2723258 0.284944,-0.3328929 0.677467,-0.4892047 1.436625,-0.5720969 1.106553,-0.1208243 2.151167,0.07049 2.568847,0.4704672 0.343235,0.3286873 0.527704,1.1245798 0.528862,2.2817759 0.0012,1.2300759 0.358357,1.8487083 1.200492,2.0795546 0.786006,0.2154603 2.284461,0.1688723 2.88556,-0.089714 C 20.455753,9.638333 20.758402,9.2986174 20.88031,8.8985754 20.9415,8.6977793 20.996842,8.180718 21.03,7.5000002 21.06192,6.8446783 21.11909,6.300429 21.175386,6.1159181 c 0.13151,-0.4310275 0.436726,-0.7166869 0.930595,-0.8709693 0.604609,-0.1888771 2.105854,-0.2721304 3.385655,-0.1877554 1.078109,0.071078 1.504417,0.1610211 1.842239,0.3886794 0.457955,0.3086152 0.585584,0.7054143 0.631755,1.9641274 0.05036,1.3730309 0.21848,1.9295894 0.67755,2.2430793 0.461969,0.31547 1.514961,0.4564225 2.547881,0.3410565 0.704695,-0.078706 1.103962,-0.236601 1.385051,-0.5477334 C 32.879986,9.1100503 32.969138,8.7336338 33.03,7.5300003 33.098153,6.1821633 33.210372,5.8051894 33.659483,5.4154029 33.92772,5.1825979 34.570691,5.0479068 35.43,5.0445108 c 1.389825,-0.00549 1.963387,0.2139058 2.303471,0.8811205 0.16107,0.3160047 0.17855,0.4115272 0.203931,1.1144044 0.02084,0.5772326 0.0023,0.8947433 -0.07447,1.2743691 -0.279989,1.3847395 -0.824391,2.3950002 -1.435889,2.6646142 -1.17864,0.519671 -4.318301,0.859036 -9.157044,0.989782 -2.406107,0.06502 -3.330659,0.06446 -5.871165,-0.0035 z"
       id="path202" />
  </g>
</svg>
