<?xml version="1.0" encoding="UTF-8" standalone="no"?>
<svg
   xmlns:dc="http://purl.org/dc/elements/1.1/"
   xmlns:cc="http://creativecommons.org/ns#"
   xmlns:rdf="http://www.w3.org/1999/02/22-rdf-syntax-ns#"
   xmlns:svg="http://www.w3.org/2000/svg"
   xmlns="http://www.w3.org/2000/svg"
   xmlns:sodipodi="http://sodipodi.sourceforge.net/DTD/sodipodi-0.dtd"
   xmlns:inkscape="http://www.inkscape.org/namespaces/inkscape"
   version="1.1"
   id="svg10"
   width="48"
   height="48"
   viewBox="0 0 48 48"
   sodipodi:docname="WPawn.svg"
   inkscape:version="1.0.2 (e86c870879, 2021-01-15, custom)">
  <metadata
     id="metadata16">
    <rdf:RDF>
      <cc:Work
         rdf:about="">
        <dc:format>image/svg+xml</dc:format>
        <dc:type
           rdf:resource="http://purl.org/dc/dcmitype/StillImage" />
        <dc:title />
      </cc:Work>
    </rdf:RDF>
  </metadata>
  <defs
     id="defs14" />
  <sodipodi:namedview
     pagecolor="#ffffff"
     bordercolor="#666666"
     borderopacity="1"
     objecttolerance="10"
     gridtolerance="10"
     guidetolerance="10"
     inkscape:pageopacity="0"
     inkscape:pageshadow="2"
     inkscape:window-width="1561"
     inkscape:window-height="974"
     id="namedview12"
     showgrid="false"
     inkscape:zoom="16.666667"
     inkscape:cx="24"
     inkscape:cy="24"
     inkscape:window-x="0"
     inkscape:window-y="0"
     inkscape:window-maximized="0"
     inkscape:current-layer="g18"
     inkscape:document-rotation="0" />
  <g
     inkscape:groupmode="layer"
     inkscape:label="Image"
     id="g18">
    <path
       style="fill:#000000"
       d="m 13.449778,43.91874 c -0.36754,-0.594694 0.515206,-2.316529 1.96166,-3.826301 2.629085,-2.744174 2.629277,-2.745617 0.609238,-4.573727 -2.864648,-2.592471 -2.508146,-5.893922 1.077421,-9.977657 2.544707,-2.898261 2.812641,-3.618967 1.5,-4.034796 -5.265972,-1.668199 -5.016422,-1.386534 -3.102333,-3.501579 0.972402,-1.074492 2.596033,-2.216428 3.608069,-2.537635 1.529221,-0.485356 1.641139,-0.902547 0.662504,-2.46959 -0.957789,-1.533665 -0.830312,-2.269283 0.683039,-3.9415156 2.364144,-2.6123505 4.737104,-2.6123505 7.101248,0 1.513351,1.6722326 1.640828,2.4078506 0.683039,3.9415156 -0.978635,1.567043 -0.866717,1.984234 0.662504,2.46959 1.012036,0.321207 2.635667,1.463143 3.608069,2.537635 1.914089,2.115045 2.163639,1.83338 -3.102333,3.501579 -1.312641,0.415829 -1.044707,1.136535 1.5,4.034796 3.585567,4.083735 3.942069,7.385186 1.077421,9.977657 -2.020039,1.82811 -2.019847,1.829553 0.609238,4.573727 1.446454,1.509772 2.3292,3.231607 1.96166,3.826301 -0.898562,1.453903 -20.201882,1.453903 -21.100444,0 z M 33,43.304719 c 0,-0.382405 -1.209191,-1.957405 -2.687091,-3.5 C 28.33624,37.741521 26.667212,37 24,37 21.332788,37 19.66376,37.741521 17.687091,39.804719 16.209191,41.347314 15,42.922314 15,43.304719 15,43.687123 19.05,44 24,44 c 4.95,0 9,-0.312877 9,-0.695281 z M 31.171259,34.345012 C 32.177067,33.434769 33,32.146831 33,31.482927 33,29.559234 25.652779,21.007705 24,21.007705 c -1.567994,0 -9,8.50673 -9,10.301469 0,0.568339 0.744744,1.856278 1.654988,2.862085 2.221206,2.454406 11.868581,2.569881 14.516271,0.173753 z M 31.089289,18.607587 C 28.78485,15.830908 24.257397,14.650742 21.033156,15.986267 19.401391,16.662165 17.546291,17.84176 16.910711,18.607587 15.939086,19.778323 17.067727,20 24,20 c 6.932273,0 8.060914,-0.221677 7.089289,-1.392413 z m -4.215265,-5.955795 c 0.853679,-1.028621 0.645658,-1.776499 -0.877555,-3.1549878 -1.9253,-1.7423724 -2.067638,-1.7423724 -3.992938,0 C 20.480318,10.875293 20.272297,11.623171 21.125976,12.651792 21.741378,13.393306 23.034689,14 24,14 c 0.965311,0 2.258622,-0.606694 2.874024,-1.348208 z"
       id="path22" />
    <path
       style="fill:#ffffff;stroke-width:0.06"
       d="m 23.22,13.855984 c -0.1815,-0.04737 -0.582526,-0.210142 -0.891168,-0.361725 -0.979809,-0.481212 -1.6566,-1.289753 -1.652556,-1.974259 0.003,-0.504772 0.231593,-0.857913 1.126416,-1.7399997 1.49613,-1.4748349 2.015617,-1.7448417 2.710155,-1.4086218 0.622261,0.3012314 2.346689,1.9490865 2.643141,2.5257725 0.335255,0.652169 0.178922,1.229572 -0.520433,1.922176 -0.446447,0.442137 -1.230979,0.875539 -1.883161,1.04032 -0.442445,0.111789 -1.095979,0.110227 -1.532394,-0.0037 z"
       id="path216" />
    <path
       style="fill:#ffffff;stroke-width:0.06"
       d="m 19.110977,19.882024 c -0.920086,-0.05535 -1.785162,-0.186201 -2.099574,-0.317571 -0.111138,-0.04644 -0.246337,-0.151991 -0.300442,-0.234566 -0.09221,-0.140726 -0.09092,-0.164747 0.02054,-0.383219 0.300816,-0.589649 1.73261,-1.647552 3.303409,-2.440776 1.57066,-0.793155 2.412747,-1.012578 3.905094,-1.017553 0.5115,-0.0017 1.1325,0.03162 1.38,0.07407 1.69149,0.290053 3.158987,0.890932 4.38,1.793427 0.567505,0.419464 1.400707,1.26193 1.563346,1.580728 0.116552,0.22846 0.118108,0.252285 0.02569,0.393328 -0.19787,0.301988 -0.933416,0.46131 -2.579039,0.558631 -1.203853,0.07119 -8.3885,0.06633 -9.599023,-0.0065 z"
       id="path218" />
    <path
       style="fill:#ffffff;stroke-width:0.06"
       d="m 22.35,35.989657 c -1.928794,-0.1621 -3.780315,-0.620405 -4.809137,-1.190401 -0.747105,-0.413917 -1.684461,-1.532662 -2.244304,-2.678605 -0.219216,-0.448713 -0.242296,-0.537998 -0.222474,-0.860651 0.03673,-0.597829 0.665438,-1.704722 1.874386,-3.3 2.477668,-3.269428 5.74996,-6.541059 6.881454,-6.880062 0.211894,-0.06349 0.261903,-0.05234 0.664605,0.148126 1.884075,0.937892 6.780672,6.50371 8.105116,9.212848 0.416186,0.851304 0.438862,1.149711 0.135855,1.787758 -0.41951,0.883369 -1.317335,1.94691 -2.042271,2.419225 -1.375954,0.89647 -3.830526,1.394173 -6.766524,1.372019 C 23.191518,36.014366 22.482,36.000751 22.35,35.989657 Z"
       id="path220" />
    <path
       style="fill:#ffffff;stroke-width:0.06"
       d="M 20.28,43.913388 C 17.385287,43.763157 16.19588,43.656139 15.505786,43.483822 14.958683,43.34721 14.951523,43.279879 15.411106,42.593504 16.2447,41.348564 18.192969,39.240683 19.190112,38.504902 20.586962,37.474186 21.989314,37.05 24,37.05 c 2.009173,0 3.407239,0.422476 4.809884,1.453479 0.985275,0.724219 2.946854,2.847239 3.779006,4.090025 0.459824,0.686729 0.452601,0.753664 -0.09611,0.890669 -0.465378,0.116199 -1.616258,0.247719 -3.062781,0.35001 -0.881124,0.06231 -8.24699,0.12607 -9.15,0.0792 z"
       id="path222" />
    <path
       style="fill:#ffffff;stroke-width:0.06"
       d="m 20.28,43.913388 c -2.894713,-0.150231 -4.08412,-0.257249 -4.774214,-0.429566 -0.336598,-0.08405 -0.419225,-0.127914 -0.433844,-0.230318 -0.03878,-0.271623 1.127039,-1.800835 2.443461,-3.205111 C 19.615126,37.808541 21.255616,37.05 24,37.05 c 2.747953,0 4.377911,0.751256 6.468681,2.981449 1.33181,1.420622 2.498367,2.94894 2.459378,3.222055 -0.01463,0.102455 -0.09735,0.146294 -0.435278,0.230669 -0.465378,0.116199 -1.616258,0.247719 -3.062781,0.35001 -0.881124,0.06231 -8.24699,0.12607 -9.15,0.0792 z"
       id="path224" />
    <path
       style="fill:#ffffff;stroke-width:0.06"
       d="m 22.35,35.989218 c -1.970713,-0.169233 -3.770627,-0.614599 -4.809137,-1.189962 -0.747105,-0.413917 -1.684461,-1.532662 -2.244304,-2.678605 -0.325921,-0.667127 -0.316329,-0.9914 0.05094,-1.722155 1.417109,-2.819591 6.901885,-8.845018 8.482422,-9.318558 0.211894,-0.06349 0.261903,-0.05234 0.664605,0.148126 1.890458,0.941069 6.776886,6.495925 8.106191,9.215058 0.42192,0.86305 0.44037,1.167634 0.111272,1.836878 -0.556965,1.132622 -1.550987,2.173811 -2.564846,2.686549 -0.84158,0.425611 -2.392801,0.801866 -4.003133,0.970975 -0.795317,0.08352 -3.063515,0.114424 -3.794014,0.05169 z"
       id="path226" />
  </g>
</svg>
