<?xml version="1.0" encoding="UTF-8" standalone="no"?>
<svg
   xmlns:dc="http://purl.org/dc/elements/1.1/"
   xmlns:cc="http://creativecommons.org/ns#"
   xmlns:rdf="http://www.w3.org/1999/02/22-rdf-syntax-ns#"
   xmlns:svg="http://www.w3.org/2000/svg"
   xmlns="http://www.w3.org/2000/svg"
   xmlns:xlink="http://www.w3.org/1999/xlink"
   xmlns:sodipodi="http://sodipodi.sourceforge.net/DTD/sodipodi-0.dtd"
   xmlns:inkscape="http://www.inkscape.org/namespaces/inkscape"
   version="1.1"
   id="svg10"
   width="48"
   height="48"
   viewBox="0 0 48 48"
   sodipodi:docname="WPawn.svg"
   inkscape:version="1.0.2 (e86c870879, 2021-01-15, custom)">
  <metadata
     id="metadata16">
    <rdf:RDF>
      <cc:Work
         rdf:about="">
        <dc:format>image/svg+xml</dc:format>
        <dc:type
           rdf:resource="http://purl.org/dc/dcmitype/StillImage" />
        <dc:title></dc:title>
      </cc:Work>
    </rdf:RDF>
  </metadata>
  <defs
     id="defs14" />
  <sodipodi:namedview
     pagecolor="#ffffff"
     bordercolor="#666666"
     borderopacity="1"
     objecttolerance="10"
     gridtolerance="10"
     guidetolerance="10"
     inkscape:pageopacity="0"
     inkscape:pageshadow="2"
     inkscape:window-width="1561"
     inkscape:window-height="974"
     id="namedview12"
     showgrid="false"
     inkscape:zoom="16.666667"
     inkscape:cx="24"
     inkscape:cy="24"
     inkscape:window-x="0"
     inkscape:window-y="0"
     inkscape:window-maximized="0"
     inkscape:current-layer="g18" />
  <g
     inkscape:groupmode="layer"
     inkscape:label="Image"
     id="g18">
    <path
       style="fill:#000000"
       d="m 13.449778,43.91874 c -0.36754,-0.594694 0.515206,-2.316529 1.96166,-3.826301 2.629085,-2.744174 2.629277,-2.745617 0.609238,-4.573727 -2.864648,-2.592471 -2.508146,-5.893922 1.077421,-9.977657 2.544707,-2.898261 2.812641,-3.618967 1.5,-4.034796 -5.265972,-1.668199 -5.016422,-1.386534 -3.102333,-3.501579 0.972402,-1.074492 2.596033,-2.216428 3.608069,-2.537635 1.529221,-0.485356 1.641139,-0.902547 0.662504,-2.46959 -0.957789,-1.533665 -0.830312,-2.269283 0.683039,-3.9415156 2.364144,-2.6123505 4.737104,-2.6123505 7.101248,0 1.513351,1.6722326 1.640828,2.4078506 0.683039,3.9415156 -0.978635,1.567043 -0.866717,1.984234 0.662504,2.46959 1.012036,0.321207 2.635667,1.463143 3.608069,2.537635 1.914089,2.115045 2.163639,1.83338 -3.102333,3.501579 -1.312641,0.415829 -1.044707,1.136535 1.5,4.034796 3.585567,4.083735 3.942069,7.385186 1.077421,9.977657 -2.020039,1.82811 -2.019847,1.829553 0.609238,4.573727 1.446454,1.509772 2.3292,3.231607 1.96166,3.826301 -0.898562,1.453903 -20.201882,1.453903 -21.100444,0 z M 33,43.304719 c 0,-0.382405 -1.209191,-1.957405 -2.687091,-3.5 C 28.33624,37.741521 26.667212,37 24,37 21.332788,37 19.66376,37.741521 17.687091,39.804719 16.209191,41.347314 15,42.922314 15,43.304719 15,43.687123 19.05,44 24,44 c 4.95,0 9,-0.312877 9,-0.695281 z M 31.171259,34.345012 C 32.177067,33.434769 33,32.146831 33,31.482927 33,29.559234 25.652779,21.007705 24,21.007705 c -1.567994,0 -9,8.50673 -9,10.301469 0,0.568339 0.744744,1.856278 1.654988,2.862085 2.221206,2.454406 11.868581,2.569881 14.516271,0.173753 z M 31.089289,18.607587 C 28.78485,15.830908 24.257397,14.650742 21.033156,15.986267 19.401391,16.662165 17.546291,17.84176 16.910711,18.607587 15.939086,19.778323 17.067727,20 24,20 c 6.932273,0 8.060914,-0.221677 7.089289,-1.392413 z m -4.215265,-5.955795 c 0.853679,-1.028621 0.645658,-1.776499 -0.877555,-3.1549878 -1.9253,-1.7423724 -2.067638,-1.7423724 -3.992938,0 C 20.480318,10.875293 20.272297,11.623171 21.125976,12.651792 21.741378,13.393306 23.034689,14 24,14 c 0.965311,0 2.258622,-0.606694 2.874024,-1.348208 z"
       id="path22" />
  </g>
</svg>
