<?xml version="1.0" encoding="UTF-8" standalone="no"?>
<svg
   xmlns:dc="http://purl.org/dc/elements/1.1/"
   xmlns:cc="http://creativecommons.org/ns#"
   xmlns:rdf="http://www.w3.org/1999/02/22-rdf-syntax-ns#"
   xmlns:svg="http://www.w3.org/2000/svg"
   xmlns="http://www.w3.org/2000/svg"
   xmlns:sodipodi="http://sodipodi.sourceforge.net/DTD/sodipodi-0.dtd"
   xmlns:inkscape="http://www.inkscape.org/namespaces/inkscape"
   version="1.1"
   id="svg10"
   width="48"
   height="48"
   viewBox="0 0 48 48"
   sodipodi:docname="WQueen.svg"
   inkscape:version="1.0.2 (e86c870879, 2021-01-15, custom)">
  <metadata
     id="metadata16">
    <rdf:RDF>
      <cc:Work
         rdf:about="">
        <dc:format>image/svg+xml</dc:format>
        <dc:type
           rdf:resource="http://purl.org/dc/dcmitype/StillImage" />
        <dc:title />
      </cc:Work>
    </rdf:RDF>
  </metadata>
  <defs
     id="defs14" />
  <sodipodi:namedview
     pagecolor="#ffffff"
     bordercolor="#666666"
     borderopacity="1"
     objecttolerance="10"
     gridtolerance="10"
     guidetolerance="10"
     inkscape:pageopacity="0"
     inkscape:pageshadow="2"
     inkscape:window-width="1642"
     inkscape:window-height="974"
     id="namedview12"
     showgrid="false"
     inkscape:zoom="16.666667"
     inkscape:cx="24"
     inkscape:cy="24"
     inkscape:window-x="0"
     inkscape:window-y="0"
     inkscape:window-maximized="0"
     inkscape:current-layer="g18"
     inkscape:document-rotation="0" />
  <g
     inkscape:groupmode="layer"
     inkscape:label="Image"
     id="g18">
    <path
       style="fill:#000000"
       d="M 14.235509,43.75 C 13.680351,43.0625 12.921755,40.475 12.549741,38 11.685182,32.248101 7.1099429,19.020327 5.2126475,16.787245 3.5796175,14.865199 4.3245429,11.608434 6.2505259,12.249708 6.9377367,12.478522 7.6574235,13.528443 7.8498301,14.582866 8.0422366,15.63729 9.0248422,17.4 10.033398,18.5 c 1.008556,1.1 2.561631,3.35 3.451277,5 1.603909,2.974718 1.611935,2.949437 0.95246,-3 -0.365795,-3.3 -1.063793,-6.4275 -1.551108,-6.95 -1.339874,-1.436616 -1.06165,-5.1593565 0.481294,-6.4398865 1.946436,-1.6153979 4.009421,1.1387558 3.367656,4.4959325 -0.275206,1.439646 0.119068,3.804731 0.876164,5.255746 0.757096,1.451014 1.386201,3.538208 1.398011,4.638208 0.01181,1.1 0.433664,2.65153 0.937453,3.447845 0.990631,1.565845 0.946416,1.694306 3.001561,-8.720527 0.781793,-3.961886 0.735974,-5.760228 -0.184309,-7.2338349 -1.011377,-1.6194723 -0.923273,-2.2626382 0.505692,-3.6916033 1.640601,-1.6406016 1.820301,-1.6406016 3.460902,0 1.428965,1.4289651 1.517069,2.072131 0.505692,3.6916033 -0.920283,1.4736069 -0.966102,3.2719489 -0.184309,7.2338349 2.055145,10.414833 2.01093,10.286372 3.001561,8.720527 C 30.557184,24.15153 30.979038,22.6 30.990848,21.5 c 0.01181,-1.1 0.640915,-3.187194 1.398011,-4.638208 0.757096,-1.451015 1.15137,-3.8161 0.876164,-5.255746 -0.641765,-3.3571767 1.42122,-6.1113304 3.367656,-4.4959325 1.542944,1.28053 1.821168,5.0032705 0.481294,6.4398865 -0.487315,0.5225 -1.185313,3.65 -1.551108,6.95 -0.659475,5.949437 -0.651449,5.974718 0.95246,3 0.889646,-1.65 2.442721,-3.9 3.451277,-5 1.008556,-1.1 1.991161,-2.86271 2.183568,-3.917134 0.192406,-1.054423 0.912093,-2.104344 1.599304,-2.333158 1.925983,-0.641274 2.670908,2.615491 1.037879,4.537537 C 42.890057,19.020327 38.314818,32.248101 37.450259,38 36.434619,44.757031 36.002473,45 25,45 18.400914,45 14.91833,44.595593 14.235509,43.75 Z m 20.507851,-1 c 0.543537,-0.6875 1.197048,-2.413285 1.452246,-3.835078 0.437467,-2.437274 0.130675,-2.653924 -5.365805,-3.789203 -4.545387,-0.938835 -7.114215,-0.938835 -11.659602,0 -5.49648,1.135279 -5.803272,1.351929 -5.365805,3.789203 C 14.630582,43.51789 15.692023,44 25,44 c 5.810355,0 9.087505,-0.420434 9.74336,-1.25 z M 25,33.557241 c 2.475,0 6.1875,0.374702 8.25,0.832671 3.35129,0.744138 3.75,0.622103 3.75,-1.147779 0,-2.194848 -3.820751,-3.220122 -12,-3.220122 -8.179249,0 -12,1.025274 -12,3.220122 0,1.769882 0.39871,1.891917 3.75,1.147779 2.0625,-0.457969 5.775,-0.832671 8.25,-0.832671 z M 38.000504,29.5 c 2.78e-4,0 0.906792,-2.475 2.014476,-5.5 l 2.013971,-5.5 -2.509508,3 c -1.38023,1.65 -2.511744,3.5625 -2.514476,4.25 C 37.002235,26.4375 36.263043,27 35.362319,27 33.963088,27 33.819946,26.189073 34.379218,21.430539 35.079638,15.471056 33.6458,14.577975 32.50228,20.261468 31.354593,25.965671 30.893759,27 29.5,27 27.950837,27 27.396943,25.504989 26.443417,18.75 26.074639,16.1375 25.425102,14 25,14 24.574898,14 23.925361,16.1375 23.556583,18.75 22.603057,25.504989 22.049163,27 20.5,27 19.106241,27 18.645407,25.965671 17.49772,20.261468 16.3542,14.577975 14.920362,15.471056 15.620782,21.430539 16.180054,26.189073 16.036912,27 14.637681,27 c -0.900724,0 -1.639916,-0.5625 -1.642648,-1.25 -0.0027,-0.6875 -1.134246,-2.6 -2.514476,-4.25 l -2.5095084,-3 2.0139715,5.5 c 1.1076839,3.025 2.0141979,5.5 2.0144759,5.5 2.77e-4,0 5.850504,0 13.000504,0 7.15,0 13.000227,0 13.000504,0 z M 7,15 C 7,14.45 6.5234424,14 5.940983,14 5.3585237,14 5.1600813,14.45 5.5,15 5.8399187,15.55 6.3164763,16 6.559017,16 6.8015576,16 7,15.55 7,15 Z m 37.5,0 C 44.839919,14.45 44.641476,14 44.059017,14 43.476558,14 43,14.45 43,15 c 0,0.55 0.198442,1 0.440983,1 0.242541,0 0.719098,-0.45 1.059017,-1 z M 15.6,9.4 C 15.115953,8.1385928 14.634435,7.9655651 13.834435,8.7655651 13.229435,9.3705651 13.033939,10.646061 13.4,11.6 c 0.484047,1.261407 0.965565,1.434435 1.765565,0.634435 0.605,-0.605 0.800496,-1.880496 0.434435,-2.834435 z m 21,0 C 36.115953,8.1385928 35.634435,7.9655651 34.834435,8.7655651 34.229435,9.3705651 34.033939,10.646061 34.4,11.6 c 0.484047,1.261407 0.965565,1.434435 1.765565,0.634435 C 36.770565,11.629435 36.966061,10.353939 36.6,9.4 Z M 26.457295,8.0690983 C 27.196836,6.8724959 25.31567,5.6868712 23.983688,6.5100813 22.86533,7.2012647 23.599521,9 25,9 25.485081,9 26.140864,8.5810942 26.457295,8.0690983 Z"
       id="path22" />
    <path
       style="fill:#ffffff;stroke-width:0.06"
       d="m 6.418451,15.917117 c -0.4057731,-0.214818 -1.0484506,-1.070512 -1.0484506,-1.39596 0,-0.467037 0.6357376,-0.641984 1.1341988,-0.312118 0.3209188,0.212374 0.4507749,0.468668 0.4463554,0.880961 -0.00619,0.577044 -0.2598031,0.971274 -0.5321036,0.827117 z"
       id="path240" />
    <path
       style="fill:#ffffff;stroke-width:0.06"
       d="m 13.91995,12.429628 c -0.293382,-0.30619 -0.537994,-0.873014 -0.637953,-1.478285 -0.120044,-0.726898 0.09535,-1.591572 0.522234,-2.0964289 0.210076,-0.2484487 0.663328,-0.5449974 0.832516,-0.5446895 0.245798,4.47e-4 0.487589,0.2192231 0.709946,0.6423693 0.4758,0.9054486 0.530157,1.8315801 0.158404,2.6988461 -0.210353,0.490733 -0.844915,1.03856 -1.202992,1.03856 -0.07819,0 -0.235126,-0.106923 -0.382155,-0.260372 z"
       id="path242" />
    <path
       style="fill:#ffffff;stroke-width:0.06"
       d="M 24.537192,8.8904356 C 23.889917,8.6410424 23.49,8.1078149 23.49,7.4941673 c 0,-0.3656484 0.121388,-0.6269364 0.397546,-0.8557157 1.030738,-0.8539022 2.97572,-0.031831 2.66396,1.125957 -0.09027,0.3352329 -0.536509,0.8037463 -0.97354,1.0221335 -0.393464,0.1966162 -0.716443,0.2288571 -1.040774,0.1038935 z"
       id="path244" />
    <path
       style="fill:#ffffff;stroke-width:0.06"
       d="m 34.91995,12.429628 c -0.293382,-0.30619 -0.537995,-0.873014 -0.637953,-1.478285 -0.120045,-0.726898 0.09535,-1.591572 0.522233,-2.0964289 0.210076,-0.2484487 0.663328,-0.5449974 0.832517,-0.5446895 0.245798,4.47e-4 0.487588,0.2192231 0.709946,0.6423693 0.475799,0.9054486 0.530157,1.8315801 0.158403,2.6988461 -0.210353,0.490733 -0.844915,1.03856 -1.202991,1.03856 -0.07819,0 -0.235126,-0.106923 -0.382155,-0.260372 z"
       id="path246" />
    <path
       style="fill:#ffffff;stroke-width:0.06"
       d="m 43.324743,15.908654 c -0.227485,-0.171938 -0.355881,-0.897434 -0.221415,-1.251105 0.167158,-0.439659 0.814125,-0.737967 1.226662,-0.565598 0.488863,0.20426 0.313179,0.861938 -0.420846,1.575445 -0.283316,0.275397 -0.448829,0.343726 -0.584401,0.241258 z"
       id="path248" />
    <path
       style="fill:#ffffff;stroke-width:0.06"
       d="M 11.88716,29.085136 C 11.302169,27.540505 8.1385675,18.841433 8.1556191,18.824381 c 0.036704,-0.0367 2.6852509,3.1652 3.1644709,3.825619 0.95444,1.315326 1.499266,2.344808 1.645339,3.108968 0.108047,0.565237 0.286393,0.80902 0.776224,1.061032 0.313043,0.161057 0.407139,0.18 0.894105,0.18 0.680136,0 0.89522,-0.104431 1.114242,-0.541006 0.14686,-0.292736 0.149912,-0.326622 0.145782,-1.618994 -0.0035,-1.079204 -0.04055,-1.642886 -0.203377,-3.09 -0.296356,-2.633831 -0.283454,-4.329895 0.03819,-5.020359 0.232717,-0.499571 0.578139,-0.205 0.997152,0.850359 0.280607,0.706758 0.511359,1.592404 0.883252,3.39 0.853988,4.127869 1.340915,5.481663 2.120842,5.89655 0.354545,0.188602 1.160555,0.189275 1.513842,0.0013 0.970611,-0.516537 1.47503,-2.209092 2.276236,-7.637816 0.429364,-2.909232 0.984563,-4.933339 1.416605,-5.164561 0.231074,-0.123667 0.60351,0.665003 0.951345,2.014561 0.227133,0.881249 0.369183,1.660131 0.662032,3.63 0.846548,5.694371 1.405568,7.18138 2.745412,7.302872 1.007445,0.09135 1.54943,-0.382426 2.03954,-1.782872 0.247374,-0.70685 0.610583,-2.161833 0.97356,-3.9 0.660804,-3.164344 1.012047,-4.257359 1.520826,-4.732591 0.196998,-0.184008 0.315365,-0.135686 0.457778,0.186882 0.308728,0.699277 0.307414,2.440565 -0.0039,5.175709 -0.148608,1.305612 -0.192769,1.954106 -0.198165,2.91 -0.0069,1.221939 -0.0059,1.232166 0.15536,1.560472 0.232292,0.472973 0.418639,0.569606 1.097695,0.569225 0.435934,-2.4e-4 0.597814,-0.02688 0.84,-0.138217 0.555216,-0.25524 0.787962,-0.56848 0.87269,-1.174507 0.09029,-0.645833 0.961557,-2.202868 1.934404,-3.456973 0.585012,-0.754145 2.833069,-3.418965 2.846948,-3.374741 0.0077,0.02461 -0.856569,2.420741 -1.920648,5.324741 l -1.934689,5.28 -12.969054,0.01514 -12.969055,0.01514 z"
       id="path250" />
    <path
       style="fill:#ffffff;stroke-width:0.06"
       d="M 13.487913,34.657128 C 13.152815,34.444609 13.08,34.22913 13.08,33.45 c 0,-0.818295 0.06976,-1.00741 0.543574,-1.473675 1.025137,-1.008799 3.312709,-1.565892 7.526426,-1.832912 1.445566,-0.0916 6.175787,-0.09163 7.71,-4.6e-5 4.766903,0.284567 7.266509,1.039341 7.932345,2.395228 0.150682,0.306843 0.166946,0.400075 0.160647,0.920952 -0.0087,0.71674 -0.14568,1.061112 -0.486531,1.222856 -0.347519,0.164908 -1.239193,0.09016 -2.776461,-0.232754 -2.831131,-0.594695 -5.768585,-0.895532 -8.73,-0.894076 -2.982406,0.0015 -5.90101,0.311522 -8.88,0.94336 -1.325385,0.281111 -2.304091,0.340841 -2.592087,0.158195 z"
       id="path252" />
    <path
       style="fill:#ffffff;stroke-width:0.06"
       d="m 20.88,43.910003 c -2.269173,-0.08911 -3.865734,-0.373243 -4.828687,-0.85934 -0.445751,-0.225015 -1.050045,-0.786807 -1.308946,-1.216884 -0.44371,-0.737075 -0.938255,-2.608353 -1.013704,-3.835686 -0.0338,-0.549839 -0.0267,-0.600452 0.128875,-0.918432 0.285834,-0.584224 0.844638,-0.863559 2.642462,-1.320913 0.561,-0.142714 1.7625,-0.40894 2.67,-0.591613 2.694506,-0.542383 3.992677,-0.696598 5.866706,-0.69693 1.792761,-3.18e-4 3.241603,0.177236 5.953294,0.729569 4.599844,0.936922 5.309903,1.290589 5.292433,2.636052 -0.01593,1.226639 -0.82176,3.848475 -1.457069,4.740684 -0.529455,0.743551 -2.278522,1.130744 -5.929161,1.312545 -1.061214,0.05285 -6.820616,0.0679 -8.016203,0.02095 z"
       id="path254" />
  </g>
</svg>
