<?xml version="1.0" encoding="UTF-8" standalone="no"?>
<svg
   xmlns:dc="http://purl.org/dc/elements/1.1/"
   xmlns:cc="http://creativecommons.org/ns#"
   xmlns:rdf="http://www.w3.org/1999/02/22-rdf-syntax-ns#"
   xmlns:svg="http://www.w3.org/2000/svg"
   xmlns="http://www.w3.org/2000/svg"
   xmlns:sodipodi="http://sodipodi.sourceforge.net/DTD/sodipodi-0.dtd"
   xmlns:inkscape="http://www.inkscape.org/namespaces/inkscape"
   version="1.1"
   id="svg10"
   width="48"
   height="48"
   viewBox="0 0 48 48"
   sodipodi:docname="WRook.svg"
   inkscape:version="1.0.2 (e86c870879, 2021-01-15, custom)">
  <metadata
     id="metadata16">
    <rdf:RDF>
      <cc:Work
         rdf:about="">
        <dc:format>image/svg+xml</dc:format>
        <dc:type
           rdf:resource="http://purl.org/dc/dcmitype/StillImage" />
        <dc:title />
      </cc:Work>
    </rdf:RDF>
  </metadata>
  <defs
     id="defs14" />
  <sodipodi:namedview
     pagecolor="#ffffff"
     bordercolor="#666666"
     borderopacity="1"
     objecttolerance="10"
     gridtolerance="10"
     guidetolerance="10"
     inkscape:pageopacity="0"
     inkscape:pageshadow="2"
     inkscape:window-width="1758"
     inkscape:window-height="974"
     id="namedview12"
     showgrid="false"
     inkscape:zoom="16.666667"
     inkscape:cx="24"
     inkscape:cy="24"
     inkscape:window-x="0"
     inkscape:window-y="0"
     inkscape:window-maximized="0"
     inkscape:current-layer="g18"
     inkscape:document-rotation="0" />
  <g
     inkscape:groupmode="layer"
     inkscape:label="Image"
     id="g18">
    <path
       style="fill:#000000"
       d="M 10.395817,40.25 C 10.766736,37.6375 11.471566,33.025 11.962105,30 13.406207,21.094674 13.209139,13.41846 11.5,12 10.675,11.315311 10,9.2352107 10,7.3775553 10,4.1841588 10.190835,4 13.5,4 16.566667,4 17,4.3095238 17,6.5 17,8.0555556 17.566667,9 18.5,9 19.433333,9 20,8.0555556 20,6.5 20,4.2037037 20.366667,4 24.5,4 28.633333,4 29,4.2037037 29,6.5 29,8.0555556 29.566667,9 30.5,9 31.433333,9 32,8.0555556 32,6.5 32,4.3095238 32.433333,4 35.5,4 38.809165,4 39,4.1841588 39,7.3775553 39,9.2352107 38.325,11.315311 37.5,12 c -1.709139,1.41846 -1.906207,9.094674 -0.462105,18 0.490539,3.025 1.195369,7.6375 1.566288,10.25 L 39.278582,45 H 24.5 9.7214181 Z M 38,42 C 38,40.098765 37.333333,40 24.5,40 11.666667,40 11,40.098765 11,42 c 0,1.901235 0.666667,2 13.5,2 C 37.333333,44 38,43.90123 38,42 Z m -1.479494,-6.742384 c -0.386141,-2.058311 -0.91278,-4.083311 -1.170308,-4.5 -0.611337,-0.989165 -21.089059,-0.989165 -21.700396,0 -0.257528,0.416689 -0.784167,2.441689 -1.170308,4.5 L 11.777418,39 H 24.5 37.222582 Z M 35.083333,28.58778 c 0.229167,-0.226721 0.268615,-3.826721 0.08766,-8 L 34.841992,13 H 24.5 14.158008 l -0.329004,7.58778 c -0.180952,4.173279 -0.141504,7.773279 0.08766,8 0.544089,0.538283 20.622577,0.538283 21.166666,0 z M 36.8,10.8 C 37.46,10.14 38,8.565 38,7.3 38,5.5133333 37.442029,5 35.5,5 33.5,5 33,5.5 33,7.5 33,9.5 32.5,10 30.5,10 28.5,10 28,9.5 28,7.5 28,5.3095238 27.566667,5 24.5,5 21.433333,5 21,5.3095238 21,7.5 21,9.5 20.5,10 18.5,10 16.5,10 16,9.5 16,7.5 16,5.5 15.5,5 13.5,5 11.557971,5 11,5.5133333 11,7.3 c 0,1.265 0.54,2.84 1.2,3.5 1.650467,1.650467 22.949533,1.650467 24.6,0 z"
       id="path24" />
    <path
       style="fill:#ffffff;stroke-width:0.06"
       d="m 21.398835,11.965257 c -4.150032,-0.111081 -7.4267,-0.454375 -8.62841,-0.903992 -0.506082,-0.18935 -0.763846,-0.460049 -1.101754,-1.1570383 -0.7623,-1.5723644 -0.859507,-3.5176082 -0.213497,-4.2723258 0.284944,-0.3328929 0.677467,-0.4892047 1.436625,-0.5720969 1.106553,-0.1208243 2.151167,0.07049 2.568847,0.4704672 0.343235,0.3286873 0.527704,1.1245798 0.528862,2.2817759 0.0012,1.2300759 0.358357,1.8487083 1.200492,2.0795546 0.786006,0.2154603 2.284461,0.1688723 2.88556,-0.089714 C 20.455753,9.638333 20.758402,9.2986174 20.88031,8.8985754 20.9415,8.6977793 20.996842,8.180718 21.03,7.5000002 21.06192,6.8446783 21.11909,6.300429 21.175386,6.1159181 c 0.13151,-0.4310275 0.436726,-0.7166869 0.930595,-0.8709693 0.604609,-0.1888771 2.105854,-0.2721304 3.385655,-0.1877554 1.078109,0.071078 1.504417,0.1610211 1.842239,0.3886794 0.457955,0.3086152 0.585584,0.7054143 0.631755,1.9641274 0.05036,1.3730309 0.21848,1.9295894 0.67755,2.2430793 0.461969,0.31547 1.514961,0.4564225 2.547881,0.3410565 0.704695,-0.078706 1.103962,-0.236601 1.385051,-0.5477334 C 32.879986,9.1100503 32.969138,8.7336338 33.03,7.5300003 33.098153,6.1821633 33.210372,5.8051894 33.659483,5.4154029 33.92772,5.1825979 34.570691,5.0479068 35.43,5.0445108 c 1.389825,-0.00549 1.963387,0.2139058 2.303471,0.8811205 0.16107,0.3160047 0.17855,0.4115272 0.203931,1.1144044 0.02084,0.5772326 0.0023,0.8947433 -0.07447,1.2743691 -0.279989,1.3847395 -0.824391,2.3950002 -1.435889,2.6646142 -1.18212,0.521205 -4.304014,0.858649 -9.157044,0.989782 -2.406107,0.06502 -3.330659,0.06446 -5.871165,-0.0035 z"
       id="path268" />
    <path
       style="fill:#ffffff;stroke-width:0.06"
       d="m 18.15,28.885181 c -1.955385,-0.05621 -3.561571,-0.159879 -3.938361,-0.254184 -0.23317,-0.05836 -0.294677,-0.103037 -0.345544,-0.250997 -0.03977,-0.115684 -0.06139,-1.412731 -0.06051,-3.63 0.0013,-3.199159 0.140937,-7.518167 0.358458,-11.085 l 0.03751,-0.615 H 24.515774 34.83 v 0.214539 c 0,0.117996 0.08452,2.082246 0.187821,4.365 0.248667,5.495056 0.276779,10.537051 0.0607,10.886678 -0.107084,0.173267 -1.495093,0.287607 -4.538518,0.373871 -2.334135,0.06616 -10.023956,0.06311 -12.39,-0.0049 z"
       id="path270" />
    <path
       style="fill:#ffffff;stroke-width:0.06"
       d="m 11.85,38.874306 c 0,-0.115201 0.665678,-3.659767 0.877846,-4.674306 0.34666,-1.657651 0.78463,-3.196334 0.969593,-3.406394 0.409681,-0.465269 4.231996,-0.723245 10.752561,-0.725712 4.905457,-0.0019 8.120281,0.133314 9.9,0.416256 0.799255,0.127066 0.955284,0.215955 1.116006,0.635787 0.169097,0.44171 0.514154,1.726763 0.738435,2.750063 0.156257,0.712936 0.965559,4.953675 0.965559,5.059525 0,0.02226 -5.697,0.04048 -12.66,0.04048 -11.548133,0 -12.66,-0.0084 -12.66,-0.09569 z"
       id="path272" />
    <path
       style="fill:#ffffff;stroke-width:0.06"
       d="M 15.640999,43.886162 C 13.419901,43.799818 12.378116,43.65233 11.73,43.332472 11.413921,43.176481 11.311753,43.088824 11.190968,42.87 11.060194,42.633078 11.041936,42.526493 11.041936,42 c 0,-0.526494 0.01826,-0.633078 0.149032,-0.87 0.120785,-0.218824 0.222953,-0.306482 0.539032,-0.462473 1.079786,-0.532895 2.803479,-0.615975 12.78,-0.615975 8.580896,0 10.626284,0.06114 12.010062,0.359021 0.591548,0.127338 0.906642,0.271246 1.14612,0.523448 C 37.883249,41.162622 37.95,41.413329 37.95,42 c 0,0.586671 -0.06675,0.837377 -0.283818,1.065978 -0.491205,0.517304 -1.513564,0.703848 -4.516182,0.824041 -1.680793,0.06728 -15.758828,0.06418 -17.509001,-0.0039 z"
       id="path274" />
  </g>
</svg>
