<?xml version="1.0" encoding="UTF-8" standalone="no"?>
<svg
   xmlns:dc="http://purl.org/dc/elements/1.1/"
   xmlns:cc="http://creativecommons.org/ns#"
   xmlns:rdf="http://www.w3.org/1999/02/22-rdf-syntax-ns#"
   xmlns:svg="http://www.w3.org/2000/svg"
   xmlns="http://www.w3.org/2000/svg"
   xmlns:sodipodi="http://sodipodi.sourceforge.net/DTD/sodipodi-0.dtd"
   xmlns:inkscape="http://www.inkscape.org/namespaces/inkscape"
   version="1.0"
   width="64"
   height="64"
   viewBox="-5 -10 450 450"
   id="svg2"
   sodipodi:docname="Chess_tile_kd.svg"
   inkscape:version="1.0.2 (e86c870879, 2021-01-15, custom)">
  <metadata
     id="metadata8">
    <rdf:RDF>
      <cc:Work
         rdf:about="">
        <dc:format>image/svg+xml</dc:format>
        <dc:type
           rdf:resource="http://purl.org/dc/dcmitype/StillImage" />
        <dc:title></dc:title>
      </cc:Work>
    </rdf:RDF>
  </metadata>
  <sodipodi:namedview
     pagecolor="#ffffff"
     bordercolor="#666666"
     borderopacity="1"
     objecttolerance="10"
     gridtolerance="10"
     guidetolerance="10"
     inkscape:pageopacity="0"
     inkscape:pageshadow="2"
     inkscape:window-width="901"
     inkscape:window-height="974"
     id="namedview6"
     showgrid="false"
     inkscape:zoom="6"
     inkscape:cx="32"
     inkscape:cy="32"
     inkscape:window-x="0"
     inkscape:window-y="0"
     inkscape:window-maximized="0"
     inkscape:current-layer="svg2" />
  <defs
     id="defs4" />
  <g
     transform="matrix(0.91364517,0,0,0.9128541,21.09356,3.8896778)"
     id="layer1">
    <path
       d="m 212.46875,0 -1,21 -32,1 v 14 l 32,1 v 38.875 l -6,3.03125 C 194.24801,84.57107 184.90405,96.105528 179.875,110.5 c -1.93427,5.53639 -2.28327,8.57547 -2.3125,20.5 -0.0398,16.22629 1.34288,23.83367 8.09375,44.8125 2.4456,7.59988 4.27922,14.28734 4.09375,14.84375 -0.18547,0.55642 -3.36614,-2.61406 -7.09375,-7.03125 -25.78382,-30.55376 -64.27783,-54.34232 -98.1875,-60.6875 -32.500719,-6.08154 -63.36239,8.24923 -76.90625,35.6875 -9.8203,19.89477 -10.0777101,38.38062 -0.78125,58.21875 4.6453,9.91282 8.801389,16.20333 23.5625,35.65625 12.18238,16.05454 22.50592,31.58377 30.59375,46 2.93134,5.225 6.146447,10.40001 7.125,11.5 1.4316,1.60929 2.179889,6.34785 3.84375,24.21875 2.58058,27.717 2.58798,28.87171 -0.09375,50.65625 -2.14926,17.45914 -2.177009,17.90949 -0.34375,19.25 33.20598,17.36002 62.79514,26.25155 147.46875,26.1875 84.73674,-0.064 114.00724,-8.70976 147.53125,-26.1875 2.01383,-1.04991 1.83675,-1.79086 -0.3125,-19.25 -2.68173,-21.78454 -2.70557,-22.93925 -0.125,-50.65625 1.66386,-17.8709 2.41215,-22.60945 3.84375,-24.21875 0.97855,-1.1 4.19366,-6.27499 7.125,-11.5 8.08783,-14.41624 18.41137,-29.94546 30.59375,-46 14.76111,-19.45292 18.9172,-25.74343 23.5625,-35.65625 9.29646,-19.83813 9.03905,-38.32397 -0.78125,-58.21875 -13.54386,-27.43828 -44.40553,-41.76904 -76.90625,-35.6875 -33.90967,6.34518 -72.37243,30.13373 -98.15625,60.6875 -3.72761,4.4172 -6.93952,7.58767 -7.125,7.03125 -0.18547,-0.55641 1.6794,-7.24387 4.125,-14.84375 6.75087,-20.97883 8.10227,-28.58621 8.0625,-44.8125 -0.0292,-11.92453 -0.37822,-14.96361 -2.3125,-20.5 -5.01465,-14.35326 -14.54426,-26.157068 -25.375,-31.4375 l -5.75,-2.8125 0.53125,-39.25 31,-1 V 22 l -31,-1 -1,-21 z m 6.5,83.03125 c 9.23559,0 13.44225,1.858402 20.78125,9.15625 10.41002,10.35165 15.07541,25.42705 13.84375,44.8125 -0.96798,15.23542 -3.37237,24.0878 -19.34375,71.625 -8.11016,24.13906 -14.98029,43.875 -15.28125,43.875 -0.98707,0 -29.97985,-87.54621 -32,-96.625 -6.17683,-27.75945 -2.20491,-50.33912 11.21875,-63.6875 7.33901,-7.297847 11.54566,-9.156249 20.78125,-9.15625 z m 0,11.96875 c -5.6047,0 -7.30742,0.451598 -10.875,2.8125 -2.32673,1.53977 -5.57889,4.91477 -7.21875,7.5 -11.8729,18.71767 -8.17756,49.23361 13.3125,109.9375 2.19047,6.1875 4.34571,11.25 4.78125,11.25 1.53533,0 14.34576,-38.23583 19.09375,-57 9.51667,-37.61016 6.73803,-61.78957 -8.21875,-71.6875 -3.56758,-2.3609 -5.2703,-2.812502 -10.875,-2.8125 z m -149.5,34.125 c 11.857809,0.0148 15.453652,0.4138 23.5625,2.59375 26.06895,7.00829 51.6721,22.58409 74.40625,45.28125 13.25675,13.23518 22.83636,26.01871 30.375,40.5 5.70223,10.95366 7.93319,18.37114 13.125,44 l 2.21875,16.5 h 12.375 L 227,261.5 c 5.19181,-25.62887 7.42277,-33.04634 13.125,-44 7.53864,-14.48129 17.11825,-27.26482 30.375,-40.5 22.73415,-22.69716 48.33729,-38.27296 74.40625,-45.28125 8.10885,-2.17995 11.70469,-2.57899 23.5625,-2.59375 12.53638,-0.0156 14.83635,0.26439 22,2.65625 34.03472,11.36384 49.94566,49.35529 34.71875,82.9375 -3.61536,7.9735 -8.23834,14.86298 -22.59375,33.78125 -12.70712,16.74607 -22.28616,31.22862 -32.5,49.1875 -7.17552,12.61665 -11.56973,17.81251 -15.125,17.8125 -1.0206,0 -7.41279,-1.56739 -14.1875,-3.5 -21.65502,-6.1775 -47.88675,-11.16965 -74.8125,-14.1875 -21.67907,-2.42979 -72.32093,-2.42978 -94,0 -26.92575,3.01784 -53.15748,8.01 -74.8125,14.1875 -6.7747,1.93261 -13.166898,3.50001 -14.1875,3.5 -3.55526,0 -7.949477,-5.19584 -15.125,-17.8125 -10.21383,-17.95889 -19.792879,-32.44143 -32.5,-49.1875 -14.35541,-18.91827 -18.94714,-25.80774 -22.5625,-33.78125 -15.2269002,-33.58222 0.652781,-71.57365 34.6875,-82.9375 7.163655,-2.39187 9.463622,-2.67187 22,-2.65625 z m -1.25,7.53125 c -24.19098,0.34301 -43.217897,14.60118 -48.71875,37.9375 -3.13231,13.28823 -1.340771,27.13768 5.375,41.46875 4.33064,9.24137 8.501084,15.42617 26.3125,39.21875 6.29281,8.40597 15.211518,21.39462 19.84375,28.84375 7.652799,12.30654 8.661917,13.50245 10.9375,13.09375 1.3774,-0.24739 8.350001,-2.10892 15.5,-4.125 30.46092,-8.58901 70.83528,-14.56422 98.75,-14.59375 h 10.25 l -0.5,-5.09375 c 0,-13.38393 -7.45306,-37.47602 -16.46875,-53.28125 -21.5612,-37.79847 -70.17749,-75.03539 -107.375,-82.21875 -4.781976,-0.92346 -9.426439,-1.31352 -13.90625,-1.25 z m 300.4375,0 c -17.84577,0.16748 -38.5186,7.76261 -60.78125,22.6875 -25.89755,17.36173 -46.95756,38.90297 -59.4375,60.78125 -8.96976,15.7247 -16.46875,39.89432 -16.46875,53.125 v 4.9375 l 16.75,0.625 c 29.15135,1.09639 57.22355,5.24628 85.75,12.65625 8.25,2.14301 16.125,4.3528 17.5,4.90625 5.63629,2.26869 6.16399,1.81528 14.96875,-12.34375 4.60574,-7.40653 13.55094,-20.34403 19.84375,-28.75 22.99701,-30.71954 28.78593,-40.72306 31.71875,-54.5625 4.07256,-19.21757 -1.5116,-39.70381 -13.90625,-50.90625 -9.87831,-8.92812 -22.05746,-13.28651 -35.9375,-13.15625 z m -149.6875,194.375 c 33.45801,0 54.07273,2.40276 85.59375,9.96875 15.88602,3.81312 43.6953,12.78585 48.3125,15.59375 3.72574,2.26576 4.94504,6.29147 2.96875,9.8125 -2.63231,4.68979 -5.35676,4.73811 -17.46875,0.28125 -23.61883,-8.69103 -50.73183,-15.24277 -77.90625,-18.84375 -18.26291,-2.42009 -64.73709,-2.42009 -83,0 -27.03139,3.58203 -54.28148,10.15203 -77.5625,18.71875 -5.87065,2.16023 -11.425142,3.93751 -12.34375,3.9375 -2.44686,0 -6.593749,-4.52914 -6.59375,-7.21875 0,-5.57975 5.336742,-8.46427 30.21875,-16.21875 36.32209,-11.31976 68.08585,-16.03126 107.78125,-16.03125 z m 0.0625,37.84375 c 33.45801,0 54.10398,2.40277 85.625,9.96875 15.88602,3.81312 43.66404,12.78585 48.28125,15.59375 3.72574,2.26576 4.94504,6.32273 2.96875,9.84375 -2.63231,4.68979 -5.35677,4.73808 -17.46875,0.28125 -23.61883,-8.69103 -50.73184,-15.24276 -77.90625,-18.84375 -18.26291,-2.42009 -64.7371,-2.42008 -83,0 -27.03139,3.58203 -54.28149,10.15203 -77.5625,18.71875 -5.870649,2.16023 -11.425137,3.93749 -12.34375,3.9375 -2.44686,0 -6.593753,-4.56039 -6.59375,-7.25 0,-5.57975 5.336754,-8.43304 30.21875,-16.1875 36.32209,-11.31976 68.08584,-16.06251 107.78125,-16.0625 z"
       transform="translate(0,8.576477)"
       style="fill:#000000"
       id="Rey" />
  </g>
</svg>
