<?xml version="1.0" encoding="UTF-8" standalone="no"?>
<svg
   xmlns:dc="http://purl.org/dc/elements/1.1/"
   xmlns:cc="http://creativecommons.org/ns#"
   xmlns:rdf="http://www.w3.org/1999/02/22-rdf-syntax-ns#"
   xmlns:svg="http://www.w3.org/2000/svg"
   xmlns="http://www.w3.org/2000/svg"
   xmlns:sodipodi="http://sodipodi.sourceforge.net/DTD/sodipodi-0.dtd"
   xmlns:inkscape="http://www.inkscape.org/namespaces/inkscape"
   version="1.0"
   width="64"
   height="64"
   viewBox="0 -3 430 430"
   id="svg2061"
   sodipodi:docname="Chess_tile_nd_inverted.svg"
   inkscape:version="1.0.2 (e86c870879, 2021-01-15, custom)">
  <metadata
     id="metadata90">
    <rdf:RDF>
      <cc:Work
         rdf:about="">
        <dc:format>image/svg+xml</dc:format>
        <dc:type
           rdf:resource="http://purl.org/dc/dcmitype/StillImage" />
        <dc:title></dc:title>
      </cc:Work>
    </rdf:RDF>
  </metadata>
  <defs
     id="defs88" />
  <sodipodi:namedview
     pagecolor="#ffffff"
     bordercolor="#666666"
     borderopacity="1"
     objecttolerance="10"
     gridtolerance="10"
     guidetolerance="10"
     inkscape:pageopacity="0"
     inkscape:pageshadow="2"
     inkscape:window-width="1501"
     inkscape:window-height="974"
     id="namedview86"
     showgrid="false"
     inkscape:zoom="12.5"
     inkscape:cx="32"
     inkscape:cy="35.97863"
     inkscape:window-x="0"
     inkscape:window-y="0"
     inkscape:window-maximized="0"
     inkscape:current-layer="svg2061"
     inkscape:document-rotation="0" />
  <g
     transform="matrix(-0.94198474,0,0,-1,541.37734,495.98033)"
     id="layer1">
    <rect
       width="77.14286"
       height="70"
       x="72.85714"
       y="105.08702"
       transform="translate(132.7361,63.84317)"
       style="opacity:1;fill:#ffffff;fill-opacity:1;fill-rule:nonzero;stroke:none;stroke-width:0.3;stroke-linecap:round;stroke-miterlimit:1.4;stroke-dasharray:none;stroke-opacity:1"
       id="rect2107" />
    <rect
       width="37.14286"
       height="47.857143"
       x="146.30751"
       y="303.21588"
       style="opacity:1;fill:#ffffff;fill-opacity:1;fill-rule:nonzero;stroke:none;stroke-width:0.3;stroke-linecap:round;stroke-miterlimit:1.4;stroke-dasharray:none;stroke-opacity:1"
       id="rect2994" />
    <path
       d="m 237.85714,53.301304 c 48.17276,-1.526857 48.33334,12.380952 72.50001,18.571428 0,0 35.98833,28.226318 53.21428,53.214288 10.67643,15.48723 29.89015,67.4427 42.01051,122.7287 16.79362,76.60265 25.99697,159.59928 19.77521,160.84273 l -2.14286,10.35714 C 397.29318,434.96704 327.6538,367.3925 331.42857,307.94416 334.84239,254.1803 206.19148,87.81268 202.5,57.944161"
       transform="translate(132.7361,63.84317)"
       style="fill:#ffffff;fill-opacity:1;fill-rule:evenodd;stroke:none;stroke-width:1px;stroke-linecap:butt;stroke-linejoin:miter;stroke-opacity:1"
       id="path3002" />
    <g
       transform="matrix(1,0,0,0.94904578,48.57143,12.647295)"
       id="g2079">
      <path
         d="m 205.21983,487.32965 c -0.3959,-0.96425 -0.70533,-7.15318 -0.68761,-13.75318 0.0259,-9.65588 0.48381,-13.45819 2.34401,-19.46476 5.44361,-17.57734 11.33634,-25.56792 39.11136,-53.03524 23.16971,-22.91302 29.06202,-30.24589 36.96321,-46 8.70131,-17.34945 12.8296,-33.16329 13.70543,-52.5 0.54486,-12.02952 -0.70258,-26.94635 -2.39495,-28.63872 -0.53768,-0.53768 -2.69583,0.39592 -5.33227,2.30671 -9.83836,7.13043 -24.48147,15.74347 -44.07872,25.92697 -39.55355,20.55357 -46.31679,26.6611 -61.27343,55.33282 -3.70908,7.11027 -8.48335,15.48939 -10.60948,18.62025 -9.44651,13.91061 -22.94842,20.30964 -31.65356,15.00174 -3.66753,-2.23625 -5.4429,-5.08601 -6.26091,-10.04977 -0.55141,-3.34601 -0.77426,-3.51081 -5.06485,-3.74574 -23.26921,-1.27406 -39.459401,-13.36056 -44.578014,-33.27891 -3.365903,-13.09793 0.200199,-31.89113 9.376085,-49.41157 2.034713,-3.88508 9.696909,-16.06378 17.027099,-27.06378 16.09734,-24.15635 21.04353,-33.03632 25.34376,-45.5 3.21846,-9.3283 3.27866,-9.82532 3.33114,-27.5 0.0669,-22.532 -0.0592,-22.25114 17.95091,-40 15.13596,-14.91645 21.5617,-23.85534 21.55957,-29.99166 -7.7e-4,-2.20459 -0.90014,-14.80834 -1.99861,-28.008344 -2.31705,-27.843358 -2.36798,-29.5 -0.90699,-29.5 0.60115,0 13.9809,7.738024 29.73278,17.19561 15.75188,9.457585 29.3875,17.220084 30.30138,17.250004 0.91388,0.0299 9.40993,-8.181324 18.88013,-18.247192 10.15582,-10.794617 17.84037,-18.177877 18.73452,-18 0.90114,0.179264 6.23652,10.643831 13.15497,25.801578 l 11.63899,25.500004 3.98211,-0.25891 c 16.52098,-1.07415 38.6485,-0.58032 46.66433,1.04142 28.02582,5.67013 51.76876,18.52992 72.31778,39.16918 23.6434,23.74724 39.06979,51.14883 54.07272,96.04831 21.28167,63.68998 36.02748,150.62665 36.72176,216.5 l 0.20552,19.5 -153.78017,0.25318 c -145.75938,0.23997 -153.81771,0.16173 -154.5,-1.5 z m 300.41861,-7.80072 c 2.50788,-2.50787 2.53734,-2.71415 1.89249,-13.25 -3.64481,-59.55043 -10.00626,-105.28752 -22.14305,-159.20246 -10.28131,-45.67234 -20.78576,-77.34122 -34.49643,-104 -9.03207,-17.5618 -18.0163,-30.13681 -30.38329,-42.52673 C 396.10139,136.0977 366.86699,123.02366 333,121.41486 c -16.01952,-0.76099 -34.2494,1.62538 -37.79732,4.94783 -3.09599,2.89923 -2.6995,8.27428 0.80232,10.87677 2.38078,1.76935 3.00062,1.78697 12.5,0.35523 37.42703,-5.64095 72.03615,5.2173 99.64579,31.26284 27.06161,25.52855 46.04886,68.30646 62.23709,140.21894 11.72518,52.08648 18.16969,97.19405 21.64471,151.49963 0.96424,15.06867 1.32794,17.25524 3.20192,19.25 2.85684,3.04096 7.18957,2.9172 10.40393,-0.29717 z M 114.63315,337.1795 c 7.63807,-5.31002 11.35654,-9.85954 11.36311,-13.90269 0.006,-3.56753 -2.73131,-8.01197 -5.96353,-9.68341 -9.83292,-5.08481 -18.60157,4.43339 -19.76848,21.45828 -0.296537,4.32631 -0.25002,8.61949 0.10337,9.5404 0.73892,1.92559 1.11245,1.7315 14.26553,-7.41258 z M 174.1501,211.82647 c 6.03845,-3.08987 10.35897,-6.29728 15.82778,-11.75 C 196.88903,193.18564 205,181.44098 205,178.32447 c 0,-0.71363 -1.15429,-1.73636 -2.5651,-2.27275 -6.40152,-2.43385 -14.75054,0.2034 -20.16441,6.36946 C 179.31055,185.79236 162,213.98986 162,215.44018 c 0,1.62783 4.55326,0.27359 12.1501,-3.61371 z"
         style="fill:#000000;fill-opacity:1"
         id="path2087" />
    </g>
    <path
       style="fill:#ffffff;stroke-width:0.08"
       d="m 12.771785,23.277699 c -0.07378,-0.119385 2.132036,-3.790007 2.739021,-4.557901 0.743765,-0.940932 2.067392,-1.360609 2.917884,-0.92516 0.195635,0.100164 0.221839,0.151347 0.181289,0.354095 -0.06064,0.30318 -0.366665,0.823816 -0.932109,1.58576 -1.192532,1.606952 -2.539494,2.710159 -4.049493,3.316667 -0.655634,0.263343 -0.808809,0.303853 -0.856592,0.226539 z"
       id="path92"
       transform="matrix(7.1325465,0,0,6.71875,120.08768,60.84317)" />
    <path
       style="fill:#ffffff;stroke-width:0.08"
       d="m 4.08,40.694423 c 0,-2.188497 0.8086702,-3.694254 1.9840067,-3.694254 0.4654863,0 0.7866198,0.152769 1.1205091,0.533048 0.5668876,0.645649 0.5206321,1.262405 -0.1496836,1.995837 C 6.5134008,40.099583 4.4563825,41.57863 4.1843375,41.57863 4.1048476,41.57863 4.08,41.36806 4.08,40.694423 Z"
       id="path94"
       transform="matrix(7.1325465,0,0,6.71875,120.08768,60.84317)" />
    <path
       style="fill:#ffffff;stroke-width:0.08"
       d="m 59.661006,60.733399 c -0.247662,-0.134379 -0.416748,-0.423396 -0.488375,-0.834769 -0.02681,-0.154 -0.122693,-1.324 -0.213068,-2.6 -0.457177,-6.454971 -1.142669,-11.722056 -2.248924,-17.28 -2.420357,-12.160127 -5.160908,-19.042982 -9.190464,-23.081726 -2.387809,-2.393254 -5.179973,-3.919293 -8.426423,-4.605408 -1.39405,-0.294623 -3.879456,-0.35937 -5.514206,-0.14365 -1.630114,0.215109 -1.841742,0.205511 -2.144509,-0.09726 -0.466766,-0.466765 -0.376245,-1.23209 0.179734,-1.519598 0.78919,-0.408106 3.553261,-0.6740277 5.430315,-0.522431 3.93159,0.317527 7.096632,1.546845 10.114914,3.928683 1.012278,0.798826 2.806822,2.658429 3.648103,3.780361 2.709238,3.613037 4.842719,8.81181 6.62398,16.141025 1.879475,7.733322 2.923183,14.501205 3.528438,22.88 0.247583,3.427402 0.236269,3.551164 -0.358241,3.918591 -0.306394,0.189363 -0.635634,0.202016 -0.941274,0.03618 z"
       id="path96"
       transform="matrix(7.1325465,0,0,6.71875,120.08768,60.84317)" />
  </g>
</svg>
