<?xml version="1.0" encoding="UTF-8" standalone="no"?>
<svg
   xmlns:dc="http://purl.org/dc/elements/1.1/"
   xmlns:cc="http://creativecommons.org/ns#"
   xmlns:rdf="http://www.w3.org/1999/02/22-rdf-syntax-ns#"
   xmlns:svg="http://www.w3.org/2000/svg"
   xmlns="http://www.w3.org/2000/svg"
   xmlns:sodipodi="http://sodipodi.sourceforge.net/DTD/sodipodi-0.dtd"
   xmlns:inkscape="http://www.inkscape.org/namespaces/inkscape"
   version="1.0"
   width="64"
   height="64"
   viewBox="0 0 504 504"
   id="svg176"
   sodipodi:docname="Chess_tile_rd.svg"
   inkscape:version="1.0.2 (e86c870879, 2021-01-15, custom)">
  <metadata
     id="metadata182">
    <rdf:RDF>
      <cc:Work
         rdf:about="">
        <dc:format>image/svg+xml</dc:format>
        <dc:type
           rdf:resource="http://purl.org/dc/dcmitype/StillImage" />
      </cc:Work>
    </rdf:RDF>
  </metadata>
  <defs
     id="defs180" />
  <sodipodi:namedview
     pagecolor="#ffffff"
     bordercolor="#666666"
     borderopacity="1"
     objecttolerance="10"
     gridtolerance="10"
     guidetolerance="10"
     inkscape:pageopacity="0"
     inkscape:pageshadow="2"
     inkscape:window-width="1229"
     inkscape:window-height="953"
     id="namedview178"
     showgrid="false"
     inkscape:zoom="12.5"
     inkscape:cx="32"
     inkscape:cy="31.64"
     inkscape:window-x="0"
     inkscape:window-y="0"
     inkscape:window-maximized="0"
     inkscape:current-layer="svg176" />
  <path
     d="M 90,430.5 L 90,412 L 102.5,412 L 115,412 L 115,390.6452 L 115,369.29041 L 136,346.9288 L 157,324.56719 L 157,250.00884 L 157,175.45049 L 132.55624,156.97524 L 108.11248,138.5 L 108.05624,104.75 L 108,71 L 136.5,71 L 165,71 L 165,86 L 165,101 L 191,101 L 217,101 L 217,86 L 217,71 L 252,71 L 287,71 L 287,86 L 287,101 L 313,101 L 339,101 L 339,86 L 339,71 L 367.5,71 L 396,71 L 395.94794,104.75 L 395.89588,138.5 L 371.44945,157 L 347.00303,175.5 L 347.00151,250.19619 L 347,324.89237 L 367.97107,347.19619 L 388.94214,369.5 L 388.97107,390.75 L 389,412 L 401.5,412 L 414,412 L 414,430.5 L 414,449 L 252,449 L 90,449 L 90,430.5 z M 379.73331,417.03383 C 383.68969,413.3479 383.42932,408.61599 379.08666,405.2818 C 377.85933,404.33949 349.06386,404.0564 251.93856,404.0318 C 128.45676,404.00053 126.34217,404.03257 124.26669,405.96617 C 120.31031,409.6521 120.57068,414.38401 124.91334,417.7182 C 126.14067,418.66051 154.93614,418.9436 252.06144,418.9682 C 375.54324,418.99947 377.65783,418.96743 379.73331,417.03383 z M 379.73331,375.03383 C 383.68969,371.3479 383.42932,366.61599 379.08666,363.2818 C 377.85933,362.33949 349.06386,362.0564 251.93856,362.0318 C 128.45676,362.00053 126.34217,362.03257 124.26669,363.96617 C 120.31031,367.6521 120.57068,372.38401 124.91334,375.7182 C 126.14067,376.66051 154.93614,376.9436 252.06144,376.9682 C 375.54324,376.99947 377.65783,376.96743 379.73331,375.03383 z M 337.54545,329.54545 C 340.67373,326.41718 340.67373,322.58282 337.54545,319.45455 L 335.09091,317 L 252,317 L 168.90909,317 L 166.45455,319.45455 C 163.32627,322.58282 163.32627,326.41718 166.45455,329.54545 L 168.90909,332 L 252,332 L 335.09091,332 L 337.54545,329.54545 z M 337.54545,180.54545 C 340.67373,177.41718 340.67373,173.58282 337.54545,170.45455 L 335.09091,168 L 252,168 L 168.90909,168 L 166.45455,170.45455 C 163.32627,173.58282 163.32627,177.41718 166.45455,180.54545 L 168.90909,183 L 252,183 L 335.09091,183 L 337.54545,180.54545 z M 387.54545,142.54545 C 390.67373,139.41718 390.67373,135.58282 387.54545,132.45455 L 385.09091,130 L 252,130 L 118.90909,130 L 116.45455,132.45455 C 113.32627,135.58282 113.32627,139.41718 116.45455,142.54545 L 118.90909,145 L 252,145 L 385.09091,145 L 387.54545,142.54545 z "
     style="fill:#000000"
     id="path174" />
  <path
     style="fill:#ffffff;stroke-width:0.08"
     d="m 14.849309,18.07977 c -0.427052,-0.472696 -0.377545,-0.932636 0.14823,-1.377108 0.152384,-0.12882 1.210663,-0.137504 17.061959,-0.14 l 16.899499,-0.0027 0.240501,0.332003 c 0.334919,0.462342 0.321975,0.777355 -0.04881,1.187767 L 48.861382,18.4 H 32 15.138618 Z"
     id="path184"
     transform="scale(7.875)" />
  <path
     style="fill:#ffffff;stroke-width:0.08"
     d="m 21.215347,22.925256 c -0.428052,-0.487523 -0.429495,-0.801345 -0.0059,-1.283789 L 21.456575,21.36 H 32 42.543426 l 0.241228,0.274744 c 0.428051,0.487523 0.429494,0.801345 0.0059,1.283789 L 42.543426,23.2 H 32 21.456575 Z"
     id="path186"
     transform="scale(7.875)" />
  <path
     style="fill:#ffffff;stroke-width:0.08"
     d="M 21.210189,41.801787 C 20.781885,41.337132 20.772804,41.079114 21.169309,40.64023 L 21.458618,40.32 H 32 42.541382 l 0.289309,0.32023 c 0.376152,0.416356 0.375854,0.662429 -0.0014,1.146641 L 42.538596,42.16 H 32.039487 21.540378 Z"
     id="path188"
     transform="scale(7.875)" />
  <path
     style="fill:#ffffff;stroke-width:0.08"
     d="m 18.068257,47.766544 c -1.931974,-0.04218 -2.147229,-0.06057 -2.296989,-0.196218 -0.492934,-0.446483 -0.322431,-1.208285 0.319752,-1.428641 0.331093,-0.11361 24.10991,-0.181874 28.88219,-0.08291 3.441574,0.07137 3.317964,0.04908 3.51062,0.632834 0.07555,0.228908 0.06534,0.319715 -0.06409,0.570326 -0.295461,0.572085 0.751966,0.532896 -14.499741,0.542509 -7.546,0.0048 -14.679284,-0.0123 -15.851743,-0.03789 z"
     id="path190"
     transform="scale(7.875)" />
  <path
     style="fill:#ffffff;stroke-width:0.08"
     d="m 22.12,53.122759 c -6.688671,-0.04704 -6.314139,-0.01595 -6.565222,-0.545063 -0.100049,-0.210838 -0.107469,-0.317439 -0.03697,-0.531069 0.146562,-0.444089 0.319894,-0.538729 1.136738,-0.620661 0.436177,-0.04375 7.000606,-0.06432 15.98631,-0.0501 14.520569,0.02298 15.256692,0.03098 15.465851,0.168049 0.120786,0.07915 0.277626,0.265572 0.348531,0.414264 0.151648,0.318008 0.06492,0.621043 -0.26698,0.932846 l -0.198871,0.18683 -3.574696,0.05398 c -3.964681,0.05987 -13.01575,0.05618 -22.294696,-0.0091 z"
     id="path192"
     transform="scale(7.875)" />
</svg>
