<?xml version="1.0" encoding="UTF-8" standalone="no"?>
<svg
   xmlns:dc="http://purl.org/dc/elements/1.1/"
   xmlns:cc="http://creativecommons.org/ns#"
   xmlns:rdf="http://www.w3.org/1999/02/22-rdf-syntax-ns#"
   xmlns:svg="http://www.w3.org/2000/svg"
   xmlns="http://www.w3.org/2000/svg"
   xmlns:sodipodi="http://sodipodi.sourceforge.net/DTD/sodipodi-0.dtd"
   xmlns:inkscape="http://www.inkscape.org/namespaces/inkscape"
   version="1.0"
   width="64"
   height="64"
   viewBox="-5 -10 450 450"
   id="svg2"
   sodipodi:docname="Chess_tile_kd.svg"
   inkscape:version="1.0.2 (e86c870879, 2021-01-15, custom)">
  <metadata
     id="metadata8">
    <rdf:RDF>
      <cc:Work
         rdf:about="">
        <dc:format>image/svg+xml</dc:format>
        <dc:type
           rdf:resource="http://purl.org/dc/dcmitype/StillImage" />
        <dc:title></dc:title>
      </cc:Work>
    </rdf:RDF>
  </metadata>
  <sodipodi:namedview
     pagecolor="#ffffff"
     bordercolor="#666666"
     borderopacity="1"
     objecttolerance="10"
     gridtolerance="10"
     guidetolerance="10"
     inkscape:pageopacity="0"
     inkscape:pageshadow="2"
     inkscape:window-width="901"
     inkscape:window-height="974"
     id="namedview6"
     showgrid="false"
     inkscape:zoom="6"
     inkscape:cx="32"
     inkscape:cy="31.25"
     inkscape:window-x="0"
     inkscape:window-y="0"
     inkscape:window-maximized="0"
     inkscape:current-layer="svg2" />
  <defs
     id="defs4" />
  <g
     transform="matrix(0.91364517,0,0,0.9128541,21.09356,3.8896778)"
     id="layer1">
    <path
       d="m 212.46875,0 -1,21 -32,1 v 14 l 32,1 v 38.875 l -6,3.03125 C 194.24801,84.57107 184.90405,96.105528 179.875,110.5 c -1.93427,5.53639 -2.28327,8.57547 -2.3125,20.5 -0.0398,16.22629 1.34288,23.83367 8.09375,44.8125 2.4456,7.59988 4.27922,14.28734 4.09375,14.84375 -0.18547,0.55642 -3.36614,-2.61406 -7.09375,-7.03125 -25.78382,-30.55376 -64.27783,-54.34232 -98.1875,-60.6875 -32.500719,-6.08154 -63.36239,8.24923 -76.90625,35.6875 -9.8203,19.89477 -10.0777101,38.38062 -0.78125,58.21875 4.6453,9.91282 8.801389,16.20333 23.5625,35.65625 12.18238,16.05454 22.50592,31.58377 30.59375,46 2.93134,5.225 6.146447,10.40001 7.125,11.5 1.4316,1.60929 2.179889,6.34785 3.84375,24.21875 2.58058,27.717 2.58798,28.87171 -0.09375,50.65625 -2.14926,17.45914 -2.177009,17.90949 -0.34375,19.25 33.20598,17.36002 62.79514,26.25155 147.46875,26.1875 84.73674,-0.064 114.00724,-8.70976 147.53125,-26.1875 2.01383,-1.04991 1.83675,-1.79086 -0.3125,-19.25 -2.68173,-21.78454 -2.70557,-22.93925 -0.125,-50.65625 1.66386,-17.8709 2.41215,-22.60945 3.84375,-24.21875 0.97855,-1.1 4.19366,-6.27499 7.125,-11.5 8.08783,-14.41624 18.41137,-29.94546 30.59375,-46 14.76111,-19.45292 18.9172,-25.74343 23.5625,-35.65625 9.29646,-19.83813 9.03905,-38.32397 -0.78125,-58.21875 -13.54386,-27.43828 -44.40553,-41.76904 -76.90625,-35.6875 -33.90967,6.34518 -72.37243,30.13373 -98.15625,60.6875 -3.72761,4.4172 -6.93952,7.58767 -7.125,7.03125 -0.18547,-0.55641 1.6794,-7.24387 4.125,-14.84375 6.75087,-20.97883 8.10227,-28.58621 8.0625,-44.8125 -0.0292,-11.92453 -0.37822,-14.96361 -2.3125,-20.5 -5.01465,-14.35326 -14.54426,-26.157068 -25.375,-31.4375 l -5.75,-2.8125 0.53125,-39.25 31,-1 V 22 l -31,-1 -1,-21 z m 6.5,83.03125 c 9.23559,0 13.44225,1.858402 20.78125,9.15625 10.41002,10.35165 15.07541,25.42705 13.84375,44.8125 -0.96798,15.23542 -3.37237,24.0878 -19.34375,71.625 -8.11016,24.13906 -14.98029,43.875 -15.28125,43.875 -0.98707,0 -29.97985,-87.54621 -32,-96.625 -6.17683,-27.75945 -2.20491,-50.33912 11.21875,-63.6875 7.33901,-7.297847 11.54566,-9.156249 20.78125,-9.15625 z m 0,11.96875 c -5.6047,0 -7.30742,0.451598 -10.875,2.8125 -2.32673,1.53977 -5.57889,4.91477 -7.21875,7.5 -11.8729,18.71767 -8.17756,49.23361 13.3125,109.9375 2.19047,6.1875 4.34571,11.25 4.78125,11.25 1.53533,0 14.34576,-38.23583 19.09375,-57 9.51667,-37.61016 6.73803,-61.78957 -8.21875,-71.6875 -3.56758,-2.3609 -5.2703,-2.812502 -10.875,-2.8125 z m -149.5,34.125 c 11.857809,0.0148 15.453652,0.4138 23.5625,2.59375 26.06895,7.00829 51.6721,22.58409 74.40625,45.28125 13.25675,13.23518 22.83636,26.01871 30.375,40.5 5.70223,10.95366 7.93319,18.37114 13.125,44 l 2.21875,16.5 h 12.375 L 227,261.5 c 5.19181,-25.62887 7.42277,-33.04634 13.125,-44 7.53864,-14.48129 17.11825,-27.26482 30.375,-40.5 22.73415,-22.69716 48.33729,-38.27296 74.40625,-45.28125 8.10885,-2.17995 11.70469,-2.57899 23.5625,-2.59375 12.53638,-0.0156 14.83635,0.26439 22,2.65625 34.03472,11.36384 49.94566,49.35529 34.71875,82.9375 -3.61536,7.9735 -8.23834,14.86298 -22.59375,33.78125 -12.70712,16.74607 -22.28616,31.22862 -32.5,49.1875 -7.17552,12.61665 -11.56973,17.81251 -15.125,17.8125 -1.0206,0 -7.41279,-1.56739 -14.1875,-3.5 -21.65502,-6.1775 -47.88675,-11.16965 -74.8125,-14.1875 -21.67907,-2.42979 -72.32093,-2.42978 -94,0 -26.92575,3.01784 -53.15748,8.01 -74.8125,14.1875 -6.7747,1.93261 -13.166898,3.50001 -14.1875,3.5 -3.55526,0 -7.949477,-5.19584 -15.125,-17.8125 -10.21383,-17.95889 -19.792879,-32.44143 -32.5,-49.1875 -14.35541,-18.91827 -18.94714,-25.80774 -22.5625,-33.78125 -15.2269002,-33.58222 0.652781,-71.57365 34.6875,-82.9375 7.163655,-2.39187 9.463622,-2.67187 22,-2.65625 z m -1.25,7.53125 c -24.19098,0.34301 -43.217897,14.60118 -48.71875,37.9375 -3.13231,13.28823 -1.340771,27.13768 5.375,41.46875 4.33064,9.24137 8.501084,15.42617 26.3125,39.21875 6.29281,8.40597 15.211518,21.39462 19.84375,28.84375 7.652799,12.30654 8.661917,13.50245 10.9375,13.09375 1.3774,-0.24739 8.350001,-2.10892 15.5,-4.125 30.46092,-8.58901 70.83528,-14.56422 98.75,-14.59375 h 10.25 l -0.5,-5.09375 c 0,-13.38393 -7.45306,-37.47602 -16.46875,-53.28125 -21.5612,-37.79847 -70.17749,-75.03539 -107.375,-82.21875 -4.781976,-0.92346 -9.426439,-1.31352 -13.90625,-1.25 z m 300.4375,0 c -17.84577,0.16748 -38.5186,7.76261 -60.78125,22.6875 -25.89755,17.36173 -46.95756,38.90297 -59.4375,60.78125 -8.96976,15.7247 -16.46875,39.89432 -16.46875,53.125 v 4.9375 l 16.75,0.625 c 29.15135,1.09639 57.22355,5.24628 85.75,12.65625 8.25,2.14301 16.125,4.3528 17.5,4.90625 5.63629,2.26869 6.16399,1.81528 14.96875,-12.34375 4.60574,-7.40653 13.55094,-20.34403 19.84375,-28.75 22.99701,-30.71954 28.78593,-40.72306 31.71875,-54.5625 4.07256,-19.21757 -1.5116,-39.70381 -13.90625,-50.90625 -9.87831,-8.92812 -22.05746,-13.28651 -35.9375,-13.15625 z m -149.6875,194.375 c 33.45801,0 54.07273,2.40276 85.59375,9.96875 15.88602,3.81312 43.6953,12.78585 48.3125,15.59375 3.72574,2.26576 4.94504,6.29147 2.96875,9.8125 -2.63231,4.68979 -5.35676,4.73811 -17.46875,0.28125 -23.61883,-8.69103 -50.73183,-15.24277 -77.90625,-18.84375 -18.26291,-2.42009 -64.73709,-2.42009 -83,0 -27.03139,3.58203 -54.28148,10.15203 -77.5625,18.71875 -5.87065,2.16023 -11.425142,3.93751 -12.34375,3.9375 -2.44686,0 -6.593749,-4.52914 -6.59375,-7.21875 0,-5.57975 5.336742,-8.46427 30.21875,-16.21875 36.32209,-11.31976 68.08585,-16.03126 107.78125,-16.03125 z m 0.0625,37.84375 c 33.45801,0 54.10398,2.40277 85.625,9.96875 15.88602,3.81312 43.66404,12.78585 48.28125,15.59375 3.72574,2.26576 4.94504,6.32273 2.96875,9.84375 -2.63231,4.68979 -5.35677,4.73808 -17.46875,0.28125 -23.61883,-8.69103 -50.73184,-15.24276 -77.90625,-18.84375 -18.26291,-2.42009 -64.7371,-2.42008 -83,0 -27.03139,3.58203 -54.28149,10.15203 -77.5625,18.71875 -5.870649,2.16023 -11.425137,3.93749 -12.34375,3.9375 -2.44686,0 -6.593753,-4.56039 -6.59375,-7.25 0,-5.57975 5.336754,-8.43304 30.21875,-16.1875 36.32209,-11.31976 68.08584,-16.06251 107.78125,-16.0625 z"
       transform="translate(0,8.576477)"
       style="fill:#000000"
       id="Rey" />
  </g>
  <path
     style="fill:#ffffff;stroke-width:0.166667"
     d="M 14.661039,55.660676 C 14.183466,55.152323 14.34952,54.666277 15.137118,54.267178 16.765138,53.442214 21.59076,52.122077 25,51.569007 c 2.712692,-0.440071 8.607872,-0.610149 11.599867,-0.33466 4.911725,0.452249 12.966761,2.626703 13.340763,3.601334 0.162028,0.42224 -0.218685,1.080986 -0.624743,1.080986 -0.19686,0 -1.501109,-0.370143 -2.89833,-0.822539 -5.104169,-1.652642 -8.506545,-2.170954 -14.25089,-2.170954 -5.798305,0 -9.335619,0.554008 -14.619212,2.289636 l -2.527247,0.830185 z"
     id="path10"
     transform="matrix(7.03125,0,0,7.03125,-5,-10)" />
  <path
     style="fill:#ffffff;stroke-width:0.166667"
     d="m 14.594556,50.762401 c -0.709464,-0.783949 0.06671,-1.379794 3.033582,-2.328777 4.171829,-1.334401 7.157063,-1.89757 11.621862,-2.192482 4.957508,-0.327456 10.003495,0.144344 14.583333,1.363544 2.288169,0.609133 5.310787,1.662939 5.74145,2.001698 0.507737,0.399386 0.530637,0.643167 0.109294,1.163502 l -0.315922,0.390148 -1.809078,-0.61204 C 41.411432,48.468147 36.885793,47.784781 30.5,47.972094 c -4.784918,0.140355 -8.682816,0.856496 -13.344113,2.451645 -1.060095,0.362777 -2.004721,0.659594 -2.099168,0.659594 -0.09445,0 -0.302421,-0.144419 -0.462163,-0.320932 z"
     id="path12"
     transform="matrix(7.03125,0,0,7.03125,-5,-10)" />
  <path
     style="fill:#ffffff;stroke-width:0.166667"
     d="M 13.791409,43.435483 C 13.552121,43.151107 12.85202,42.074285 12.235628,41.04255 10.874894,38.764908 10.017918,37.494305 7.9353325,34.666667 7.057657,33.475 6.0769568,32.004004 5.7559988,31.397787 4.6043973,29.222671 4.4163319,27.048573 5.1982354,24.949859 7.3030978,19.30018 13.981937,18.255557 20.766276,22.514896 c 4.515157,2.834703 8.119377,7.006768 9.372252,10.848849 0.311269,0.954538 0.862197,3.510197 1.116215,5.177922 L 31.362633,39.25 h 0.878054 0.878055 l 0.108828,-1.291667 c 0.05985,-0.710416 0.325425,-2.165389 0.590157,-3.233273 0.792271,-3.195907 2.226435,-5.592049 5.05658,-8.448329 6.502851,-6.5629 14.405575,-8.307462 18.532813,-4.091201 1.795957,1.834694 2.553002,4.388742 2.03234,6.85652 -0.332478,1.575843 -1.08705,2.971121 -3.041817,5.624617 -2.048001,2.780056 -3.268863,4.595023 -4.463236,6.635173 -0.526509,0.899347 -1.170512,1.873815 -1.43112,2.165487 l -0.473835,0.530313 -2.889725,-0.704252 c -5.26935,-1.284188 -8.206885,-1.68912 -13.22306,-1.822765 -6.207912,-0.165396 -11.607027,0.434182 -16.986071,1.886327 -2.496464,0.673953 -2.635253,0.677425 -3.139187,0.07853 z m 3.212664,-2.344546 c 4.06047,-1.037547 7.224472,-1.514799 11.694532,-1.76398 l 1.948607,-0.108624 -0.08976,-0.859166 C 30.303138,35.92473 29.401143,33.279122 28.08296,31.101309 25.601098,27.000947 20.489747,22.896571 15.880464,21.302797 14.782157,20.923031 14.302321,20.853773 12.75,20.85096 c -2.424408,-0.0044 -3.4077333,0.360936 -4.8479185,1.801122 -1.2516918,1.251691 -1.74612,2.408221 -1.8609932,4.353095 -0.1501949,2.542897 0.5693147,4.265291 3.4103012,8.16373 1.0011335,1.373768 2.4356055,3.41651 3.1877175,4.539426 0.752111,1.122917 1.461576,2.041667 1.57659,2.041667 0.115013,0 1.369782,-0.296578 2.788376,-0.659063 z m 35.160852,-2.04927 c 1.01671,-1.489584 2.357605,-3.406909 2.97977,-4.260723 1.43821,-1.973699 2.111992,-3.088031 2.661158,-4.401146 0.384049,-0.918301 0.437049,-1.270998 0.432742,-2.879798 -0.0065,-2.428651 -0.3741,-3.414675 -1.807343,-4.847918 -1.440185,-1.440186 -2.423512,-1.805515 -4.847919,-1.801122 -1.552321,0.0028 -2.032156,0.07207 -3.130463,0.451837 -4.350963,1.504454 -9.089055,5.181999 -11.824012,9.177397 -1.484166,2.168164 -2.794225,5.822369 -2.795105,7.796511 l -5e-4,0.943372 1.458334,0.09907 c 5.709178,0.387845 8.095698,0.739378 11.875,1.749183 1.329166,0.355143 2.581598,0.653807 2.783181,0.663693 0.293957,0.01442 0.73247,-0.518185 2.215077,-2.690356 z"
     id="path14"
     transform="matrix(7.03125,0,0,7.03125,-5,-10)" />
  <path
     style="fill:#ffffff;stroke-width:0.166667"
     d="m 30.168056,29.800246 c -2.219184,-6.71955 -2.370758,-7.320307 -2.388553,-9.466913 -0.01617,-1.951157 0.284156,-3.144864 1.094045,-4.348447 1.833327,-2.724523 4.75291,-2.724523 6.586237,0 1.156146,1.718158 1.422479,4.424125 0.723265,7.348447 -0.438883,1.835541 -3.860941,12.083334 -4.035002,12.083334 -0.06882,0 -0.959815,-2.52739 -1.979992,-5.616421 z m 2.467504,1.908087 c 0.799434,-2.144555 2.057253,-6.280047 2.383905,-7.83787 0.503372,-2.400607 0.502172,-5.025068 -0.0029,-6.32477 -0.249439,-0.641891 -0.595487,-1.146592 -1.057042,-1.541666 -0.64024,-0.548022 -0.76262,-0.58736 -1.827251,-0.58736 -1.123915,0 -1.151918,0.01086 -1.86443,0.723376 -1.024132,1.024133 -1.350003,2.063141 -1.341306,4.276624 0.0084,2.127525 0.43253,4.19236 1.608116,7.8282 1.078308,3.334983 1.45579,4.338466 1.632006,4.338466 0.07849,0 0.289496,-0.39375 0.468893,-0.875 z"
     id="path16"
     transform="matrix(7.03125,0,0,7.03125,-5,-10)" />
  <path
     style="fill:#ffffff;stroke-width:0.166667"
     d="m 13.773827,43.414588 c -0.23236,-0.276143 -1.023262,-1.500545 -1.757562,-2.72089 -0.7343,-1.220346 -2.3113107,-3.563161 -3.5044685,-5.206255 -2.492694,-3.43268 -3.2311518,-4.730115 -3.608326,-6.339656 -0.5716555,-2.439464 0.2269749,-5.183788 2.0345758,-6.991389 3.1303527,-3.130353 8.4925617,-2.991337 13.8282297,0.358498 1.888606,1.185703 3.182801,2.232387 4.856634,3.927815 3.467623,3.512358 4.822952,6.410851 5.61848,12.015622 L 31.353758,39.25 h 0.882492 0.882492 l 0.108828,-1.291667 c 0.05985,-0.710416 0.325425,-2.165389 0.590157,-3.233273 0.792271,-3.195907 2.226435,-5.592049 5.05658,-8.448329 6.508561,-6.568663 14.40195,-8.311164 18.532813,-4.091201 2.412798,2.46484 2.868112,6.006157 1.181557,9.189853 -0.32767,0.618539 -1.527559,2.398213 -2.66642,3.95483 -1.138864,1.556617 -2.71994,3.90373 -3.513505,5.215805 -1.633515,2.700844 -2.143789,3.370649 -2.567842,3.370649 -0.162868,0 -1.149952,-0.224995 -2.193517,-0.499989 C 45.299455,42.797965 42.23699,42.194265 39.5,41.810593 c -1.626517,-0.228005 -3.23451,-0.29204 -7.333333,-0.29204 -4.098824,0 -5.706817,0.06404 -7.333334,0.29204 -2.73699,0.383672 -5.799455,0.987372 -8.147393,1.606085 -1.043566,0.274994 -2.030649,0.499989 -2.193517,0.499989 -0.162869,0 -0.486237,-0.225935 -0.718596,-0.502079 z m 3.191783,-2.324155 c 4.14191,-1.043603 7.280533,-1.515238 11.737328,-1.763746 l 1.952937,-0.108895 -0.09072,-0.775564 c -0.514862,-4.401405 -2.29665,-7.9152 -5.75079,-11.34091 -4.41216,-4.375844 -9.601555,-6.804626 -13.311863,-6.230324 -4.8641303,0.752897 -6.9519338,5.856187 -4.3928925,10.737699 0.3196665,0.609782 1.1727087,1.922282 1.8956492,2.916667 0.7229406,0.994385 2.1463243,3.026723 3.1630763,4.516307 1.016751,1.489583 1.923094,2.708333 2.014096,2.708333 0.091,0 1.343433,-0.296805 2.783182,-0.659567 z M 50.418957,41.4739 c 0.151855,-0.151853 0.862798,-1.145603 1.579875,-2.208333 C 52.71591,38.202838 54.060845,36.283333 54.98758,35 c 2.754653,-3.814621 3.475347,-5.580362 3.29924,-8.083333 -0.13197,-1.875663 -0.644442,-3.053459 -1.855568,-4.264585 -1.440185,-1.440186 -2.423512,-1.805515 -4.847919,-1.801122 -1.562411,0.0028 -2.030366,0.07125 -3.166666,0.46297 -4.763379,1.642108 -10.154514,6.127462 -12.569064,10.457298 -1.109695,1.989937 -2.010863,4.939425 -2.013101,6.58881 l -0.0012,0.860039 1.458333,0.09907 c 5.709179,0.387845 8.095699,0.739378 11.875,1.749183 2.836319,0.757845 2.892954,0.764907 3.25229,0.40557 z"
     id="path18"
     transform="matrix(7.03125,0,0,7.03125,-5,-10)" />
  <path
     style="fill:#ffffff;stroke-width:0.166667"
     d="m 14.609165,50.778543 c -0.654487,-0.7232 -0.13458,-1.245325 2.02035,-2.028971 7.862439,-2.859197 17.956997,-3.396649 26.203818,-1.395137 2.529472,0.613905 6.22547,1.84608 6.731565,2.244173 0.515957,0.405853 0.542082,0.649016 0.125057,1.164019 l -0.310043,0.382889 -2.39829,-0.777267 c -2.99115,-0.969409 -5.118965,-1.502718 -7.898289,-1.979603 -1.895263,-0.325195 -2.761668,-0.371763 -6.916666,-0.371763 -4.153268,0 -5.022194,0.04666 -6.916667,0.371452 -2.73441,0.468787 -5.534738,1.175222 -8.042897,2.028971 -1.076167,0.366315 -2.038891,0.666027 -2.139387,0.666027 -0.100496,0 -0.306844,-0.137155 -0.458551,-0.30479 z"
     id="path20"
     transform="matrix(7.03125,0,0,7.03125,-5,-10)" />
  <path
     style="fill:#ffffff;stroke-width:0.166667"
     d="m 14.664895,55.66478 c -0.778455,-0.828627 -0.16672,-1.304697 2.979513,-2.318744 4.714364,-1.519462 8.069329,-2.081648 13.188925,-2.210043 5.894655,-0.147834 9.979982,0.397312 15.258399,2.036081 3.621558,1.124371 4.16624,1.462502 3.767085,2.338554 -0.249374,0.547314 -0.61705,0.522263 -2.70107,-0.184027 -2.136817,-0.724184 -4.925447,-1.440393 -7.574414,-1.945352 -1.829468,-0.348741 -2.461858,-0.381071 -7.416666,-0.379156 -4.945071,0.0019 -5.590795,0.0353 -7.416667,0.383466 -2.718401,0.51836 -5.448194,1.223697 -7.777707,2.009641 l -1.944374,0.656002 z"
     id="path22"
     transform="matrix(7.03125,0,0,7.03125,-5,-10)" />
</svg>
