<?xml version="1.0" encoding="UTF-8" standalone="no"?>
<svg
   xmlns:dc="http://purl.org/dc/elements/1.1/"
   xmlns:cc="http://creativecommons.org/ns#"
   xmlns:rdf="http://www.w3.org/1999/02/22-rdf-syntax-ns#"
   xmlns:svg="http://www.w3.org/2000/svg"
   xmlns="http://www.w3.org/2000/svg"
   xmlns:sodipodi="http://sodipodi.sourceforge.net/DTD/sodipodi-0.dtd"
   xmlns:inkscape="http://www.inkscape.org/namespaces/inkscape"
   version="1.0"
   width="64"
   height="64"
   viewBox="-5 -10 450 450"
   id="svg2"
   sodipodi:docname="Chess_tile_kd.svg"
   inkscape:version="1.0.2 (e86c870879, 2021-01-15, custom)">
  <metadata
     id="metadata54">
    <rdf:RDF>
      <cc:Work
         rdf:about="">
        <dc:format>image/svg+xml</dc:format>
        <dc:type
           rdf:resource="http://purl.org/dc/dcmitype/StillImage" />
      </cc:Work>
    </rdf:RDF>
  </metadata>
  <sodipodi:namedview
     pagecolor="#ffffff"
     bordercolor="#666666"
     borderopacity="1"
     objecttolerance="10"
     gridtolerance="10"
     guidetolerance="10"
     inkscape:pageopacity="0"
     inkscape:pageshadow="2"
     inkscape:window-width="1263"
     inkscape:window-height="974"
     id="namedview52"
     showgrid="false"
     inkscape:zoom="12.5"
     inkscape:cx="32"
     inkscape:cy="31.64"
     inkscape:window-x="0"
     inkscape:window-y="0"
     inkscape:window-maximized="0"
     inkscape:current-layer="svg2" />
  <defs
     id="defs4" />
  <g
     transform="translate(0,-8.576477)"
     id="layer1">
    <path
       d="M 212.46875,0 L 211.46875,21 L 179.46875,22 L 179.46875,36 L 211.46875,37 L 211.46875,75.875 L 205.46875,78.90625 C 194.24801,84.57107 184.90405,96.105528 179.875,110.5 C 177.94073,116.03639 177.59173,119.07547 177.5625,131 C 177.52272,147.22629 178.90538,154.83367 185.65625,175.8125 C 188.10185,183.41238 189.93547,190.09984 189.75,190.65625 C 189.56453,191.21267 186.38386,188.04219 182.65625,183.625 C 156.87243,153.07124 118.37842,129.28268 84.46875,122.9375 C 51.968031,116.85596 21.10636,131.18673 7.5625,158.625 C -2.2578,178.51977 -2.5152101,197.00562 6.78125,216.84375 C 11.42655,226.75657 15.582639,233.04708 30.34375,252.5 C 42.52613,268.55454 52.84967,284.08377 60.9375,298.5 C 63.86884,303.725 67.083947,308.90001 68.0625,310 C 69.4941,311.60929 70.242389,316.34785 71.90625,334.21875 C 74.48683,361.93575 74.49423,363.09046 71.8125,384.875 C 69.66324,402.33414 69.635491,402.78449 71.46875,404.125 C 104.67473,421.48502 134.26389,430.37655 218.9375,430.3125 C 303.67424,430.24846 332.94474,421.60274 366.46875,404.125 C 368.48258,403.07509 368.3055,402.33414 366.15625,384.875 C 363.47452,363.09046 363.45068,361.93575 366.03125,334.21875 C 367.69511,316.34785 368.4434,311.6093 369.875,310 C 370.85355,308.9 374.06866,303.72501 377,298.5 C 385.08783,284.08376 395.41137,268.55454 407.59375,252.5 C 422.35486,233.04708 426.51095,226.75657 431.15625,216.84375 C 440.45271,197.00562 440.1953,178.51978 430.375,158.625 C 416.83114,131.18672 385.96947,116.85596 353.46875,122.9375 C 319.55908,129.28268 281.09632,153.07123 255.3125,183.625 C 251.58489,188.0422 248.37298,191.21267 248.1875,190.65625 C 248.00203,190.09984 249.8669,183.41238 252.3125,175.8125 C 259.06337,154.83367 260.41477,147.22629 260.375,131 C 260.34577,119.07547 259.99678,116.03639 258.0625,110.5 C 253.04785,96.14674 243.51824,84.342932 232.6875,79.0625 L 226.9375,76.25 L 227.46875,37 L 258.46875,36 L 258.46875,22 L 227.46875,21 L 226.46875,0 L 212.46875,0 z M 218.96875,83.03125 C 228.20434,83.03125 232.411,84.889652 239.75,92.1875 C 250.16002,102.53915 254.82541,117.61455 253.59375,137 C 252.62577,152.23542 250.22138,161.0878 234.25,208.625 C 226.13984,232.76406 219.26971,252.5 218.96875,252.5 C 217.98168,252.5 188.9889,164.95379 186.96875,155.875 C 180.79192,128.11555 184.76384,105.53588 198.1875,92.1875 C 205.52651,84.889653 209.73316,83.031251 218.96875,83.03125 z M 218.96875,95 C 213.36405,95 211.66133,95.451598 208.09375,97.8125 C 205.76702,99.35227 202.51486,102.72727 200.875,105.3125 C 189.0021,124.03017 192.69744,154.54611 214.1875,215.25 C 216.37797,221.4375 218.53321,226.5 218.96875,226.5 C 220.50408,226.5 233.31451,188.26417 238.0625,169.5 C 247.57917,131.88984 244.80053,107.71043 229.84375,97.8125 C 226.27617,95.4516 224.57345,94.999998 218.96875,95 z M 69.46875,129.125 C 81.326559,129.13976 84.922402,129.5388 93.03125,131.71875 C 119.1002,138.72704 144.70335,154.30284 167.4375,177 C 180.69425,190.23518 190.27386,203.01871 197.8125,217.5 C 203.51473,228.45366 205.74569,235.87114 210.9375,261.5 L 213.15625,278 L 225.53125,278 L 227,261.5 C 232.19181,235.87113 234.42277,228.45366 240.125,217.5 C 247.66364,203.01871 257.24325,190.23518 270.5,177 C 293.23415,154.30284 318.83729,138.72704 344.90625,131.71875 C 353.0151,129.5388 356.61094,129.13976 368.46875,129.125 C 381.00513,129.10938 383.3051,129.38939 390.46875,131.78125 C 424.50347,143.14509 440.41441,181.13654 425.1875,214.71875 C 421.57214,222.69225 416.94916,229.58173 402.59375,248.5 C 389.88663,265.24607 380.30759,279.72862 370.09375,297.6875 C 362.91823,310.30415 358.52402,315.50001 354.96875,315.5 C 353.94815,315.5 347.55596,313.93261 340.78125,312 C 319.12623,305.8225 292.8945,300.83035 265.96875,297.8125 C 244.28968,295.38271 193.64782,295.38272 171.96875,297.8125 C 145.043,300.83034 118.81127,305.8225 97.15625,312 C 90.38155,313.93261 83.989352,315.50001 82.96875,315.5 C 79.41349,315.5 75.019273,310.30416 67.84375,297.6875 C 57.62992,279.72861 48.050871,265.24607 35.34375,248.5 C 20.98834,229.58173 16.39661,222.69226 12.78125,214.71875 C -2.4456502,181.13653 13.434031,143.1451 47.46875,131.78125 C 54.632405,129.38938 56.932372,129.10938 69.46875,129.125 z M 68.21875,136.65625 C 44.02777,136.99926 25.000853,151.25743 19.5,174.59375 C 16.36769,187.88198 18.159229,201.73143 24.875,216.0625 C 29.20564,225.30387 33.376084,231.48867 51.1875,255.28125 C 57.48031,263.68722 66.399018,276.67587 71.03125,284.125 C 78.684049,296.43154 79.693167,297.62745 81.96875,297.21875 C 83.34615,296.97136 90.318751,295.10983 97.46875,293.09375 C 127.92967,284.50474 168.30403,278.52953 196.21875,278.5 L 206.46875,278.5 L 205.96875,273.40625 C 205.96875,260.02232 198.51569,235.93023 189.5,220.125 C 167.9388,182.32653 119.32251,145.08961 82.125,137.90625 C 77.343024,136.98279 72.698561,136.59273 68.21875,136.65625 z M 368.65625,136.65625 C 350.81048,136.82373 330.13765,144.41886 307.875,159.34375 C 281.97745,176.70548 260.91744,198.24672 248.4375,220.125 C 239.46774,235.8497 231.96875,260.01932 231.96875,273.25 L 231.96875,278.1875 L 248.71875,278.8125 C 277.8701,279.90889 305.9423,284.05878 334.46875,291.46875 C 342.71875,293.61176 350.59375,295.82155 351.96875,296.375 C 357.60504,298.64369 358.13274,298.19028 366.9375,284.03125 C 371.54324,276.62472 380.48844,263.68722 386.78125,255.28125 C 409.77826,224.56171 415.56718,214.55819 418.5,200.71875 C 422.57256,181.50118 416.9884,161.01494 404.59375,149.8125 C 394.71544,140.88438 382.53629,136.52599 368.65625,136.65625 z M 218.96875,331.03125 C 252.42676,331.03125 273.04148,333.43401 304.5625,341 C 320.44852,344.81312 348.2578,353.78585 352.875,356.59375 C 356.60074,358.85951 357.82004,362.88522 355.84375,366.40625 C 353.21144,371.09604 350.48699,371.14436 338.375,366.6875 C 314.75617,357.99647 287.64317,351.44473 260.46875,347.84375 C 242.20584,345.42366 195.73166,345.42366 177.46875,347.84375 C 150.43736,351.42578 123.18727,357.99578 99.90625,366.5625 C 94.0356,368.72273 88.481108,370.50001 87.5625,370.5 C 85.11564,370.5 80.968751,365.97086 80.96875,363.28125 C 80.96875,357.7015 86.305492,354.81698 111.1875,347.0625 C 147.50959,335.74274 179.27335,331.03124 218.96875,331.03125 z M 219.03125,368.875 C 252.48926,368.875 273.13523,371.27777 304.65625,378.84375 C 320.54227,382.65687 348.32029,391.6296 352.9375,394.4375 C 356.66324,396.70326 357.88254,400.76023 355.90625,404.28125 C 353.27394,408.97104 350.54948,409.01933 338.4375,404.5625 C 314.81867,395.87147 287.70566,389.31974 260.53125,385.71875 C 242.26834,383.29866 195.79415,383.29867 177.53125,385.71875 C 150.49986,389.30078 123.24976,395.87078 99.96875,404.4375 C 94.098101,406.59773 88.543613,408.37499 87.625,408.375 C 85.17814,408.375 81.031247,403.81461 81.03125,401.125 C 81.03125,395.54525 86.368004,392.69196 111.25,384.9375 C 147.57209,373.61774 179.33584,368.87499 219.03125,368.875 z "
       transform="translate(0,8.576477)"
       style="fill:#000000"
       id="Rey" />
  </g>
  <path
     style="fill:#ffffff;stroke-width:0.08"
     d="m 31.265921,35.617432 c -1.686071,-4.819215 -3.80017,-11.426637 -4.019208,-12.561667 -0.730979,-3.787845 -0.120238,-6.694387 1.803065,-8.580863 0.316872,-0.310805 0.791936,-0.680122 1.055698,-0.820706 0.927875,-0.494552 2.476131,-0.511995 3.454524,-0.03892 0.614967,0.297352 1.777849,1.487213 2.215554,2.266956 0.87344,1.555978 1.155013,3.480436 0.865916,5.918256 -0.137215,1.157062 -0.35151,2.077656 -0.91238,3.91951 -0.619106,2.033097 -3.775021,11.392598 -3.875246,11.492822 -0.01212,0.01212 -0.276688,-0.705802 -0.587923,-1.59539 z M 32.18457,33.06 c 0.491566,-1.190428 1.409015,-3.950154 2.045518,-6.153008 1.615689,-5.591683 1.543198,-9.329241 -0.21535,-11.103311 -0.713813,-0.720114 -0.989348,-0.838509 -2.029081,-0.871883 -0.826066,-0.02651 -0.928982,-0.01285 -1.348075,0.179019 -0.961929,0.440385 -1.769449,1.600476 -2.133888,3.065563 -0.14529,0.584084 -0.175187,0.934667 -0.175979,2.06362 -9.97e-4,1.419578 0.09556,2.232101 0.480122,4.04 0.618171,2.906174 2.727855,9.36 3.05968,9.36 0.04265,0 0.185327,-0.261 0.317053,-0.58 z"
     id="path56"
     transform="matrix(7.03125,0,0,7.03125,-5,-10)" />
  <path
     style="fill:#ffffff;stroke-width:0.08"
     d="M 12.23709,46.15174 C 12.106887,46.08419 11.937573,45.972103 11.860838,45.902658 11.631719,45.695309 10.826862,44.47246 10.160978,43.32 8.8085714,40.979359 7.4683121,38.980531 5.4404976,36.28 3.1592031,33.241898 2.5683898,32.23759 2.0887513,30.582458 1.2558041,27.708132 2.0050676,24.588082 4.054352,22.39739 5.3521134,21.010079 7.2463516,20.055396 9.0744591,19.86729 10.118145,19.759898 12.161397,19.829647 13.08,20.004024 c 0.904716,0.171741 2.799136,0.802165 3.84,1.277873 5.910314,2.701201 11.414189,8.512495 12.885844,13.605583 0.330648,1.144302 0.841978,3.571656 0.992709,4.71252 0.06976,0.528 0.146483,1.059 0.170497,1.18 L 31.01271,41 h 0.913644 c 0.893444,0 0.913696,-0.004 0.91602,-0.18 0.0218,-1.650364 0.793362,-5.438168 1.438617,-7.062502 1.588791,-3.999549 5.539479,-8.393253 10.04878,-11.175614 1.951687,-1.204244 4.612647,-2.281187 6.470226,-2.618629 0.761101,-0.138259 2.873723,-0.191847 3.801059,-0.09642 2.792395,0.287361 5.332637,2.137011 6.574552,4.787189 1.098451,2.344032 1.019261,5.169026 -0.213769,7.625972 -0.44873,0.894145 -0.998024,1.70582 -2.835724,4.190268 -2.000417,2.70443 -2.917484,4.061475 -4.142366,6.129732 -1.536846,2.595018 -2.051289,3.326022 -2.506262,3.561298 -0.24564,0.127026 -0.510613,0.07337 -3.15749,-0.639359 -2.555355,-0.688085 -6.570827,-1.423391 -9.6,-1.757933 -3.352566,-0.370258 -10.417257,-0.369669 -13.76,0.0011 -3.48753,0.386876 -6.9396,1.042988 -10.48,1.99186 -2.072486,0.555454 -1.968413,0.537138 -2.24291,0.394727 z m 1.888054,-2.876316 c 5.234245,-1.423379 10.364758,-2.194095 14.612352,-2.195098 L 30.114992,41.08 30.07139,40.42 C 29.956944,38.687615 29.504424,36.83167 28.719029,34.873484 27.6688,32.255001 26.330123,30.322192 23.844226,27.835141 20.400347,24.389664 16.316058,21.896523 12.76,21.069082 11.78109,20.841304 10.051346,20.785045 9.1044014,20.950185 7.5483429,21.221551 6.2739301,21.871971 5.24,22.922455 3.309553,24.883808 2.7288278,27.972358 3.728805,30.95965 c 0.5309295,1.586077 1.2126996,2.721777 3.4921575,5.817274 1.7930951,2.435017 2.4798327,3.420062 3.6134555,5.183076 1.037661,1.613775 1.157688,1.76 1.444671,1.76 0.11616,0 0.946884,-0.200059 1.846055,-0.444576 z m 37.715218,0.169686 c 0.142591,-0.15119 0.575148,-0.77219 0.961237,-1.38 0.932621,-1.468197 2.060868,-3.093683 3.432394,-4.94511 2.275629,-3.071878 3.387729,-4.897114 3.799729,-6.236309 0.68803,-2.236423 0.490261,-4.743134 -0.520396,-6.595983 -0.836253,-1.533113 -2.391352,-2.716539 -4.233326,-3.221551 -0.872109,-0.239106 -3.088121,-0.261216 -4.12,-0.04111 -2.439903,0.520451 -5.405364,1.99513 -8.114084,4.035011 -2.618019,1.971575 -4.83987,4.262373 -6.370989,6.568689 -1.634526,2.462079 -2.844873,5.885978 -3.006025,8.50362 l -0.05248,0.852371 0.511787,0.045 c 0.281482,0.02475 1.123786,0.066 1.871786,0.09166 3.099936,0.106341 6.181216,0.47707 9.349046,1.124845 1.51423,0.309639 4.078992,0.955061 5.010954,1.261007 0.877466,0.288057 1.161318,0.276141 1.480362,-0.06214 z"
     id="path58"
     transform="matrix(7.03125,0,0,7.03125,-5,-10)" />
  <path
     style="fill:#ffffff;stroke-width:0.08"
     d="m 12.705293,53.78 c -0.528129,-0.557972 -0.557717,-0.887576 -0.119055,-1.326238 0.373609,-0.373609 1.149518,-0.709007 3.151191,-1.362147 C 19.970487,49.71038 23.452409,49.010877 27.8,48.6683 c 1.604066,-0.126396 6.723875,-0.125969 8.32,6.94e-4 3.538895,0.280833 7.065236,0.971552 10.866528,2.128473 1.822723,0.554744 3.387215,1.11497 3.833026,1.372561 0.531436,0.307064 0.715797,0.816177 0.468636,1.294134 -0.332396,0.642783 -0.698692,0.657226 -2.33862,0.09221 -2.119747,-0.730324 -3.395675,-1.112763 -5.18957,-1.55549 -4.687183,-1.15678 -7.705555,-1.470978 -13.2,-1.374054 -3.013444,0.05316 -4.048536,0.126724 -5.88,0.417898 -3.497902,0.556113 -6.192004,1.230822 -9.558363,2.393791 C 14.164058,53.769335 13.284015,54.04 13.165986,54.04 c -0.138298,0 -0.302099,-0.09244 -0.460693,-0.26 z"
     id="path60"
     transform="matrix(7.03125,0,0,7.03125,-5,-10)" />
  <path
     style="fill:#ffffff;stroke-width:0.08"
     d="M 12.898368,59.332803 C 12.585921,59.126778 12.28,58.686204 12.28,58.442258 c 0,-0.211025 0.174682,-0.521435 0.396329,-0.704278 0.320341,-0.264258 1.184158,-0.627777 2.704656,-1.138195 4.422714,-1.484666 8.389638,-2.277845 12.837538,-2.566839 1.951686,-0.126807 7.628417,-0.05259 9.181477,0.120035 3.592582,0.399325 7.54613,1.303545 11.383803,2.603601 1.80752,0.612318 2.24238,0.817455 2.452051,1.156709 0.443508,0.717612 -0.118891,1.601498 -0.923016,1.450643 -0.159407,-0.0299 -0.763007,-0.217602 -1.341334,-0.417106 C 44.424076,57.378117 40.080779,56.400932 36.36,56.109404 c -1.572962,-0.123244 -7.404943,-0.123234 -9,1.4e-5 -3.434142,0.265354 -7.792991,1.220199 -11.928984,2.613151 -1.236941,0.416587 -2.262941,0.757194 -2.28,0.756904 -0.01706,-2.88e-4 -0.13075,-0.06629 -0.252648,-0.14667 z"
     id="path62"
     transform="matrix(7.03125,0,0,7.03125,-5,-10)" />
  <path
     style="fill:#ffffff;stroke-width:0.08"
     d="M 12.23709,46.15174 C 12.106887,46.08419 11.937573,45.972103 11.860838,45.902658 11.618098,45.682982 10.812369,44.447373 9.994124,43.04 8.9066459,41.169548 7.293641,38.769322 5.5587794,36.44 3.0282018,33.042306 2.5841335,32.291919 2.0852786,30.570474 1.3698833,28.101795 1.8186914,25.459248 3.3229274,23.283293 4.6022782,21.432647 6.8496976,20.09923 9.08,19.867564 c 1.133556,-0.117745 3.271705,-0.02995 4.184867,0.171836 0.981694,0.216929 2.646247,0.785173 3.719621,1.269802 5.247818,2.369391 10.578794,7.683089 12.411022,12.370798 0.513801,1.31455 1.141503,3.965099 1.40197,5.92 0.07035,0.528 0.147556,1.059 0.17157,1.18 L 31.01271,41 h 0.913644 c 0.893444,0 0.913696,-0.004 0.91602,-0.18 0.02076,-1.571941 0.727769,-5.151746 1.351648,-6.843795 1.456004,-3.948894 5.531835,-8.54778 10.051601,-11.341532 2.046424,-1.264932 4.700676,-2.345168 6.594374,-2.683799 0.944665,-0.168925 3.965752,-0.142401 4.68,0.04109 1.420129,0.364829 2.704984,1.07049 3.756862,2.063323 2.821831,2.663431 3.472389,6.648819 1.672232,10.244267 -0.444445,0.887688 -1.15696,1.940124 -2.911468,4.300447 -1.714166,2.30605 -3.068879,4.315483 -4.152929,6.16 -1.398833,2.380122 -1.956661,3.168311 -2.407207,3.401298 -0.245252,0.126825 -0.49502,0.07636 -3.154977,-0.637424 C 45.191607,44.683713 40.448978,43.866267 37.4,43.641258 35.458262,43.49796 30.591365,43.45045 28.221751,43.551661 23.634666,43.747585 19.434249,44.434758 14.079105,45.865347 12.459397,46.298041 12.505322,46.2909 12.23709,46.15174 Z m 1.72342,-2.837714 c 5.041001,-1.383256 9.68522,-2.11168 14.097477,-2.211124 l 2.057987,-0.04638 -0.04295,-0.60826 C 29.996996,39.371562 29.791188,38.184049 29.51007,37.2 28.432979,33.429677 26.88755,30.875632 23.844695,27.837152 20.801301,24.798133 17.27933,22.508122 14.008669,21.441696 12.516303,20.955099 12.043491,20.879454 10.52,20.883545 8.7686038,20.888249 7.7789054,21.137825 6.5408708,21.886977 5.026036,22.803625 3.920903,24.338817 3.4648658,26.16 c -0.252737,1.009304 -0.2555126,2.881418 -0.00576,3.88425 0.4991654,2.004291 1.1950408,3.241434 3.8675108,6.87575 1.826399,2.483736 2.3345237,3.212507 3.4447874,4.940638 1.100218,1.712496 1.218941,1.859362 1.503051,1.859362 0.113611,0 0.872336,-0.182688 1.686054,-0.405974 z m 37.876733,0.134392 c 0.140875,-0.149371 0.537108,-0.716371 0.880519,-1.26 0.932154,-1.475628 1.823075,-2.761256 3.50237,-5.054036 3.360576,-4.588272 4.087832,-6.06826 4.197258,-8.541552 0.07352,-1.661606 -0.292616,-3.28017 -1.024021,-4.526917 C 59.025862,23.439464 57.805042,22.233046 57.159584,21.85848 56.413288,21.425396 55.520774,21.101031 54.664642,20.951746 53.767785,20.79536 52.011112,20.838901 51.08,21.040596 46.239012,22.089234 39.962077,26.705986 36.66905,31.64 c -1.615197,2.420086 -2.842018,5.905802 -3.002664,8.53135 l -0.04977,0.813411 0.511691,0.04295 c 0.28143,0.02362 1.357691,0.08028 2.391691,0.125919 4.003728,0.176702 7.589334,0.711936 11.56,1.725593 0.924,0.235885 1.95,0.518009 2.28,0.626943 0.87379,0.288441 1.16135,0.2772 1.477243,-0.05774 z"
     id="path64"
     transform="matrix(7.03125,0,0,7.03125,-5,-10)" />
</svg>
