<?xml version="1.0" encoding="UTF-8" standalone="no"?>
<svg
   xmlns:dc="http://purl.org/dc/elements/1.1/"
   xmlns:cc="http://creativecommons.org/ns#"
   xmlns:rdf="http://www.w3.org/1999/02/22-rdf-syntax-ns#"
   xmlns:svg="http://www.w3.org/2000/svg"
   xmlns="http://www.w3.org/2000/svg"
   xmlns:sodipodi="http://sodipodi.sourceforge.net/DTD/sodipodi-0.dtd"
   xmlns:inkscape="http://www.inkscape.org/namespaces/inkscape"
   version="1.0"
   width="64"
   height="64"
   viewBox="0 0 504 504"
   id="svg23"
   sodipodi:docname="Chess_tile_black_upsidedownRook.svg"
   inkscape:version="1.0.2 (e86c870879, 2021-01-15, custom)">
  <metadata
     id="metadata29">
    <rdf:RDF>
      <cc:Work
         rdf:about="">
        <dc:format>image/svg+xml</dc:format>
        <dc:type
           rdf:resource="http://purl.org/dc/dcmitype/StillImage" />
        <dc:title></dc:title>
      </cc:Work>
    </rdf:RDF>
  </metadata>
  <defs
     id="defs27" />
  <sodipodi:namedview
     pagecolor="#ffffff"
     bordercolor="#666666"
     borderopacity="1"
     objecttolerance="10"
     gridtolerance="10"
     guidetolerance="10"
     inkscape:pageopacity="0"
     inkscape:pageshadow="2"
     inkscape:window-width="1226"
     inkscape:window-height="947"
     id="namedview25"
     showgrid="false"
     inkscape:zoom="12.5"
     inkscape:cx="32"
     inkscape:cy="32"
     inkscape:window-x="0"
     inkscape:window-y="0"
     inkscape:window-maximized="0"
     inkscape:current-layer="svg23" />
  <path
     d="M 414,89.5 V 108 H 401.5 389 v 21.3548 21.35479 l -21,22.36161 -21,22.36161 v 74.55835 74.55835 l 24.44376,18.47525 24.44376,18.47524 0.0562,33.75 L 396,449 H 367.5 339 v -15 -15 h -26 -26 v 15 15 h -35 -35 v -15 -15 h -26 -26 v 15 15 H 136.5 108 l 0.0521,-33.75 0.0521,-33.75 24.44643,-18.5 24.44642,-18.5 0.002,-74.69619 L 157,195.10763 136.02893,172.80381 115.05786,150.5 115.02893,129.25 115,108 H 102.5 90 V 89.5 71 h 162 162 z m -289.73331,13.46617 c -3.95638,3.68593 -3.69601,8.41784 0.64665,11.75203 1.22733,0.94231 30.0228,1.2254 127.1481,1.25 123.4818,0.0313 125.59639,-7.7e-4 127.67187,-1.93437 3.95638,-3.68593 3.69601,-8.41784 -0.64665,-11.75203 -1.22733,-0.94231 -30.0228,-1.2254 -127.1481,-1.25 -123.4818,-0.0313 -125.59639,7.7e-4 -127.67187,1.93437 z m 0,42 c -3.95638,3.68593 -3.69601,8.41784 0.64665,11.75203 1.22733,0.94231 30.0228,1.2254 127.1481,1.25 123.4818,0.0313 125.59639,-7.7e-4 127.67187,-1.93437 3.95638,-3.68593 3.69601,-8.41784 -0.64665,-11.75203 -1.22733,-0.94231 -30.0228,-1.2254 -127.1481,-1.25 -123.4818,-0.0313 -125.59639,7.7e-4 -127.67187,1.93437 z m 42.18786,45.48838 c -3.12828,3.12827 -3.12828,6.96263 0,10.0909 L 168.90909,203 H 252 335.09091 l 2.45454,-2.45455 c 3.12828,-3.12827 3.12828,-6.96263 0,-10.0909 L 335.09091,188 H 252 168.90909 Z m 0,149 c -3.12828,3.12827 -3.12828,6.96263 0,10.0909 L 168.90909,352 H 252 335.09091 l 2.45454,-2.45455 c 3.12828,-3.12827 3.12828,-6.96263 0,-10.0909 L 335.09091,337 H 252 168.90909 Z m -50,38 c -3.12828,3.12827 -3.12828,6.96263 0,10.0909 L 118.90909,390 H 252 385.09091 l 2.45454,-2.45455 c 3.12828,-3.12827 3.12828,-6.96263 0,-10.0909 L 385.09091,375 H 252 118.90909 Z"
     style="fill:#000000"
     id="path21" />
  <path
     style="fill:#000000;stroke-width:0.63"
     d="m 336.92914,339.46361 c 3.37091,3.83924 3.38228,6.31059 0.0465,10.10984 L 335.02947,351.79 H 252 168.97052 l -1.89967,-2.16361 c -3.3709,-3.83924 -3.38227,-6.31059 -0.0465,-10.10984 L 168.97052,337.3 H 252 335.02947 Z"
     id="path31" />
  <path
     style="fill:#000000;stroke-width:0.63"
     d="m 336.96976,190.81093 c 3.3729,3.65916 3.44441,5.69105 0.32193,9.14726 L 335.01338,202.48 H 252 168.98662 l -2.27831,-2.52181 c -2.9622,-3.2788 -2.95985,-5.21663 0.011,-9.0298 l 2.28923,-2.93839 h 82.68048 82.68048 z"
     id="path33" />
  <path
     style="fill:#000000;stroke-width:0.63"
     d="m 361.71248,143.83847 c 15.21429,0.33216 16.90942,0.47698 18.08878,1.54521 3.88186,3.51606 2.53915,9.51525 -2.51804,11.25055 -2.60736,0.89468 -189.86554,1.43226 -227.44725,0.65292 -27.10239,-0.56204 -26.12897,-0.38651 -27.64613,-4.98357 -0.59496,-1.80265 -0.51455,-2.51776 0.50471,-4.49132 2.32675,-4.50517 -5.92173,-4.19655 114.18546,-4.27226 59.42475,-0.0378 115.59936,0.0969 124.83247,0.29839 z"
     id="path35" />
</svg>
