<?xml version="1.0" encoding="UTF-8" standalone="no"?>
<svg
   xmlns:dc="http://purl.org/dc/elements/1.1/"
   xmlns:cc="http://creativecommons.org/ns#"
   xmlns:rdf="http://www.w3.org/1999/02/22-rdf-syntax-ns#"
   xmlns:svg="http://www.w3.org/2000/svg"
   xmlns="http://www.w3.org/2000/svg"
   xmlns:sodipodi="http://sodipodi.sourceforge.net/DTD/sodipodi-0.dtd"
   xmlns:inkscape="http://www.inkscape.org/namespaces/inkscape"
   version="1.0"
   width="64"
   height="64"
   viewBox="0 -3 430 430"
   id="svg2061"
   sodipodi:docname="Chess_tile_nd.svg"
   inkscape:version="1.0.2 (e86c870879, 2021-01-15, custom)">
  <metadata
     id="metadata13">
    <rdf:RDF>
      <cc:Work
         rdf:about="">
        <dc:format>image/svg+xml</dc:format>
        <dc:type
           rdf:resource="http://purl.org/dc/dcmitype/StillImage" />
      </cc:Work>
    </rdf:RDF>
  </metadata>
  <defs
     id="defs11" />
  <sodipodi:namedview
     pagecolor="#ffffff"
     bordercolor="#666666"
     borderopacity="1"
     objecttolerance="10"
     gridtolerance="10"
     guidetolerance="10"
     inkscape:pageopacity="0"
     inkscape:pageshadow="2"
     inkscape:window-width="901"
     inkscape:window-height="930"
     id="namedview9"
     showgrid="false"
     inkscape:zoom="6"
     inkscape:cx="32"
     inkscape:cy="31.25"
     inkscape:window-x="82"
     inkscape:window-y="0"
     inkscape:window-maximized="0"
     inkscape:current-layer="svg2061" />
  <g
     transform="matrix(0.89080968,0,0,0.90259359,-92.912534,-33.854488)"
     id="layer1">
    <rect
       width="77.14286"
       height="70"
       x="72.85714"
       y="105.08702"
       transform="translate(132.7361,63.84317)"
       style="opacity:1;fill:#ffffff;fill-opacity:1;fill-rule:nonzero;stroke:none;stroke-width:0.3;stroke-linecap:round;stroke-miterlimit:1.4;stroke-dasharray:none;stroke-opacity:1"
       id="rect2107" />
    <rect
       width="37.14286"
       height="47.857143"
       x="146.30751"
       y="303.21588"
       style="opacity:1;fill:#ffffff;fill-opacity:1;fill-rule:nonzero;stroke:none;stroke-width:0.3;stroke-linecap:round;stroke-miterlimit:1.4;stroke-dasharray:none;stroke-opacity:1"
       id="rect2994" />
    <path
       d="m 237.85714,53.301304 c 48.17276,-1.526857 48.33334,12.380952 72.50001,18.571428 0,0 35.98833,28.226318 53.21428,53.214288 10.67643,15.48723 29.89015,67.4427 42.01051,122.7287 16.79362,76.60265 25.99697,159.59928 19.77521,160.84273 l -2.14286,10.35714 C 397.29318,434.96704 327.6538,367.3925 331.42857,307.94416 334.84239,254.1803 206.19148,87.81268 202.5,57.944161"
       transform="translate(132.7361,63.84317)"
       style="fill:#ffffff;fill-opacity:1;fill-rule:evenodd;stroke:none;stroke-width:1px;stroke-linecap:butt;stroke-linejoin:miter;stroke-opacity:1"
       id="path3002" />
    <g
       transform="translate(48.57143,-1.428576)"
       id="g2079">
      <path
         d="m 205.21983,487.32965 c -0.3959,-0.96425 -0.70533,-7.15318 -0.68761,-13.75318 0.0259,-9.65588 0.48381,-13.45819 2.34401,-19.46476 5.44361,-17.57734 11.33634,-25.56792 39.11136,-53.03524 23.16971,-22.91302 29.06202,-30.24589 36.96321,-46 8.70131,-17.34945 12.8296,-33.16329 13.70543,-52.5 0.54486,-12.02952 -0.70258,-26.94635 -2.39495,-28.63872 -0.53768,-0.53768 -2.69583,0.39592 -5.33227,2.30671 -9.83836,7.13043 -24.48147,15.74347 -44.07872,25.92697 -39.55355,20.55357 -46.31679,26.6611 -61.27343,55.33282 -3.70908,7.11027 -8.48335,15.48939 -10.60948,18.62025 -9.44651,13.91061 -22.94842,20.30964 -31.65356,15.00174 -3.66753,-2.23625 -5.4429,-5.08601 -6.26091,-10.04977 -0.55141,-3.34601 -0.77426,-3.51081 -5.06485,-3.74574 -23.26921,-1.27406 -39.459401,-13.36056 -44.578014,-33.27891 -3.365903,-13.09793 0.200199,-31.89113 9.376085,-49.41157 2.034713,-3.88508 9.696909,-16.06378 17.027099,-27.06378 16.09734,-24.15635 21.04353,-33.03632 25.34376,-45.5 3.21846,-9.3283 3.27866,-9.82532 3.33114,-27.5 0.0669,-22.532 -0.0592,-22.25114 17.95091,-40 15.13596,-14.91645 21.5617,-23.85534 21.55957,-29.99166 -7.7e-4,-2.20459 -0.90014,-14.80834 -1.99861,-28.008344 -2.31705,-27.843358 -2.36798,-29.5 -0.90699,-29.5 0.60115,0 13.9809,7.738024 29.73278,17.19561 15.75188,9.457585 29.3875,17.220084 30.30138,17.250004 0.91388,0.0299 9.40993,-8.181324 18.88013,-18.247192 10.15582,-10.794617 17.84037,-18.177877 18.73452,-18 0.90114,0.179264 6.23652,10.643831 13.15497,25.801578 l 11.63899,25.500004 3.98211,-0.25891 c 16.52098,-1.07415 38.6485,-0.58032 46.66433,1.04142 28.02582,5.67013 51.76876,18.52992 72.31778,39.16918 23.6434,23.74724 39.06979,51.14883 54.07272,96.04831 21.28167,63.68998 36.02748,150.62665 36.72176,216.5 l 0.20552,19.5 -153.78017,0.25318 c -145.75938,0.23997 -153.81771,0.16173 -154.5,-1.5 z m 300.41861,-7.80072 c 2.50788,-2.50787 2.53734,-2.71415 1.89249,-13.25 -3.64481,-59.55043 -10.00626,-105.28752 -22.14305,-159.20246 -10.28131,-45.67234 -20.78576,-77.34122 -34.49643,-104 -9.03207,-17.5618 -18.0163,-30.13681 -30.38329,-42.52673 C 396.10139,136.0977 366.86699,123.02366 333,121.41486 c -16.01952,-0.76099 -34.2494,1.62538 -37.79732,4.94783 -3.09599,2.89923 -2.6995,8.27428 0.80232,10.87677 2.38078,1.76935 3.00062,1.78697 12.5,0.35523 37.42703,-5.64095 72.03615,5.2173 99.64579,31.26284 27.06161,25.52855 46.04886,68.30646 62.23709,140.21894 11.72518,52.08648 18.16969,97.19405 21.64471,151.49963 0.96424,15.06867 1.32794,17.25524 3.20192,19.25 2.85684,3.04096 7.18957,2.9172 10.40393,-0.29717 z M 114.63315,337.1795 c 7.63807,-5.31002 11.35654,-9.85954 11.36311,-13.90269 0.006,-3.56753 -2.73131,-8.01197 -5.96353,-9.68341 -9.83292,-5.08481 -18.60157,4.43339 -19.76848,21.45828 -0.296537,4.32631 -0.25002,8.61949 0.10337,9.5404 0.73892,1.92559 1.11245,1.7315 14.26553,-7.41258 z M 174.1501,211.82647 c 6.03845,-3.08987 10.35897,-6.29728 15.82778,-11.75 C 196.88903,193.18564 205,181.44098 205,178.32447 c 0,-0.71363 -1.15429,-1.73636 -2.5651,-2.27275 -6.40152,-2.43385 -14.75054,0.2034 -20.16441,6.36946 C 179.31055,185.79236 162,213.98986 162,215.44018 c 0,1.62783 4.55326,0.27359 12.1501,-3.61371 z"
         style="fill:#000000;fill-opacity:1"
         id="path2087" />
    </g>
  </g>
  <path
     style="fill:#ffffff;stroke-width:0.166667"
     d="M 6,40.706753 C 6,38.835151 6.8743612,37.25 7.906727,37.25 c 0.5283815,0 1.2599397,0.774318 1.2599397,1.333584 0,0.608676 -0.4602515,1.158027 -1.709676,2.040647 C 5.8993139,41.724609 6,41.718906 6,40.706753 Z"
     id="path15"
     transform="matrix(6.71875,0,0,6.71875,0,-3)" />
  <path
     style="fill:#ffffff;stroke-width:0.166667"
     d="m 14.333333,23.963179 c 0,-0.181552 1.889915,-3.286933 2.437431,-4.005021 0.227223,-0.298013 0.645036,-0.661763 0.928471,-0.808333 0.574936,-0.297311 1.580074,-0.353849 1.830935,-0.102988 0.460701,0.460701 -2.132202,3.591383 -3.646945,4.403336 -0.954465,0.511625 -1.549892,0.708708 -1.549892,0.513006 z"
     id="path17"
     transform="matrix(6.71875,0,0,6.71875,0,-3)" />
  <path
     style="fill:#ffffff;stroke-width:0.166667"
     d="m 58.413335,59.579652 c -0.25491,-0.281674 -0.353648,-0.959055 -0.601278,-4.125 -1.156432,-14.784945 -4.43937,-28.282153 -8.345055,-34.309187 -2.398308,-3.700932 -5.795859,-6.257015 -9.633669,-7.247708 -1.558645,-0.402349 -4.428439,-0.514019 -6.610996,-0.257248 -1.170143,0.137663 -1.200063,0.131757 -1.477501,-0.291667 -0.261508,-0.39911 -0.262613,-0.463553 -0.01445,-0.842298 0.414251,-0.632226 1.391244,-0.824405 4.186281,-0.823458 2.013948,6.83e-4 2.785376,0.07191 3.96783,0.366344 4.846017,1.206682 8.871113,4.34994 11.66037,9.105759 3.897901,6.646114 7.207271,20.887378 8.150673,35.074924 l 0.203705,3.063445 -0.384753,0.311555 c -0.491437,0.39794 -0.722825,0.39259 -1.101157,-0.02546 z"
     id="path19"
     transform="matrix(6.71875,0,0,6.71875,0,-3)" />
</svg>
