<?xml version="1.0" encoding="UTF-8" standalone="no"?>
<svg
   xmlns:dc="http://purl.org/dc/elements/1.1/"
   xmlns:cc="http://creativecommons.org/ns#"
   xmlns:rdf="http://www.w3.org/1999/02/22-rdf-syntax-ns#"
   xmlns:svg="http://www.w3.org/2000/svg"
   xmlns="http://www.w3.org/2000/svg"
   xmlns:xlink="http://www.w3.org/1999/xlink"
   xmlns:sodipodi="http://sodipodi.sourceforge.net/DTD/sodipodi-0.dtd"
   xmlns:inkscape="http://www.inkscape.org/namespaces/inkscape"
   version="1.1"
   id="svg52"
   width="48"
   height="48"
   viewBox="0 0 48 48"
   sodipodi:docname="WKnight.svg"
   inkscape:version="1.0.2 (e86c870879, 2021-01-15, custom)">
  <metadata
     id="metadata58">
    <rdf:RDF>
      <cc:Work
         rdf:about="">
        <dc:format>image/svg+xml</dc:format>
        <dc:type
           rdf:resource="http://purl.org/dc/dcmitype/StillImage" />
        <dc:title></dc:title>
      </cc:Work>
    </rdf:RDF>
  </metadata>
  <defs
     id="defs56" />
  <sodipodi:namedview
     pagecolor="#ffffff"
     bordercolor="#666666"
     borderopacity="1"
     objecttolerance="10"
     gridtolerance="10"
     guidetolerance="10"
     inkscape:pageopacity="0"
     inkscape:pageshadow="2"
     inkscape:window-width="1321"
     inkscape:window-height="964"
     id="namedview54"
     showgrid="false"
     inkscape:zoom="16.666667"
     inkscape:cx="24"
     inkscape:cy="24"
     inkscape:window-x="0"
     inkscape:window-y="0"
     inkscape:window-maximized="0"
     inkscape:current-layer="g60" />
  <g
     inkscape:groupmode="layer"
     inkscape:label="Image"
     id="g60">
    <path
       style="fill:#000000"
       d="m 14,44.612212 c 0,-0.763283 1.623538,-3.747997 3.607863,-6.632698 C 24.756103,27.5878 24.182817,22.151699 16.810935,30.422766 11.184065,36.735972 7.3618173,37.782354 4.556704,33.777494 2.3977248,30.695119 2.6061513,28.393296 5.3801707,24.683278 7.9839608,21.200928 12,10.620127 12,7.2424379 12,4.4700678 13.451903,3.6346575 15.009138,5.5110105 16.688176,7.5341279 17.666928,7.3816707 18.289749,5 18.959125,2.440302 20.630091,2.440302 22,5 c 0.588702,1.1 1.973813,2 3.078025,2 2.905073,0 11.710184,8.648538 14.588969,14.329548 C 42.014906,25.962927 45,38.421846 45,43.587968 V 46 H 29.5 C 16.945902,46 14,45.73624 14,44.612212 Z M 41,43.587968 C 41,40.120306 37.975294,26.852903 36.561397,24.118729 35.702629,22.458054 35.018072,20.289473 35.04016,19.29966 35.130986,15.229584 39.939135,29.110225 41.084826,36.75 41.765288,41.2875 42.699572,45 43.161014,45 44.318183,45 44.222543,43.339066 42.567191,34.687319 40.677831,24.812524 37.249774,18.308992 30.947161,12.642402 25.689224,7.9150639 23.508331,7.0143262 22.733379,9.25 22.49507,9.9375 21.971815,9.0375 21.57059,7.25 20.629621,3.057888 19.022885,3.057888 18.921053,7.25 18.877632,9.0375 18.614197,9.9346962 18.335642,9.2437694 18.057088,8.5528426 17.448404,8.222871 16.983012,8.5104993 16.51762,8.7981275 15.431054,8.0258035 14.568422,6.7942236 L 13,4.5549875 V 7.4609147 C 13,11.504118 9.2369968,21.862513 6.3801707,25.683278 5.0710768,27.434081 4,29.346581 4,29.933278 4,31.679909 5.8160062,31.142907 6.3106745,29.25 6.6548191,27.93309 6.7967053,28.05683 6.8839986,29.75 6.9477994,30.9875 6.5234424,32 5.940983,32 5.3585237,32 5.1600813,32.45 5.5,33 6.647247,34.856285 7.9374067,34.017285 8.9599063,30.75 L 9.9769965,27.5 9.4431852,31.25 C 9.149589,33.3125 9.3224528,35 9.8273269,35 10.772407,35 16.362153,29.173719 21.340151,23 c 1.552168,-1.925 2.367011,-2.575753 1.810762,-1.446118 -0.622835,1.264858 -0.659888,2.609426 -0.09645,3.5 0.562954,0.88981 0.920802,0.990298 0.930224,0.261218 0.02387,-1.847227 2.016336,-6.64741 2.541307,-6.122439 0.836295,0.836295 -4.626208,15.215169 -6.954918,18.307339 -1.242614,1.65 -2.795281,4.0125 -3.450371,5.25 L 14.929632,45 H 27.964816 C 38.524055,45 41,44.731794 41,43.587968 Z M 14.5,17 c -1.076859,-1.742395 0.519288,-3.228882 2.078017,-1.935251 0.769979,0.639025 1.153359,1.560877 0.851956,2.048558 C 16.700494,18.293627 15.265202,18.238122 14.5,17 Z"
       id="path64" />
  </g>
</svg>
