<?xml version="1.0" encoding="UTF-8" standalone="no"?>
<svg
   xmlns:dc="http://purl.org/dc/elements/1.1/"
   xmlns:cc="http://creativecommons.org/ns#"
   xmlns:rdf="http://www.w3.org/1999/02/22-rdf-syntax-ns#"
   xmlns:svg="http://www.w3.org/2000/svg"
   xmlns="http://www.w3.org/2000/svg"
   xmlns:sodipodi="http://sodipodi.sourceforge.net/DTD/sodipodi-0.dtd"
   xmlns:inkscape="http://www.inkscape.org/namespaces/inkscape"
   version="1.1"
   viewBox="-10 0 1410 2048"
   id="svg4"
   sodipodi:docname="QuiviraWKnight.svg"
   inkscape:version="1.0.2 (e86c870879, 2021-01-15, custom)">
  <metadata
     id="metadata10">
    <rdf:RDF>
      <cc:Work
         rdf:about="">
        <dc:format>image/svg+xml</dc:format>
        <dc:type
           rdf:resource="http://purl.org/dc/dcmitype/StillImage" />
      </cc:Work>
    </rdf:RDF>
  </metadata>
  <defs
     id="defs8" />
  <sodipodi:namedview
     pagecolor="#ffffff"
     bordercolor="#666666"
     borderopacity="1"
     objecttolerance="10"
     gridtolerance="10"
     guidetolerance="10"
     inkscape:pageopacity="0"
     inkscape:pageshadow="2"
     inkscape:window-width="1293"
     inkscape:window-height="909"
     id="namedview6"
     showgrid="false"
     inkscape:zoom="0.390625"
     inkscape:cx="705"
     inkscape:cy="1012.48"
     inkscape:window-x="0"
     inkscape:window-y="0"
     inkscape:window-maximized="0"
     inkscape:current-layer="svg4" />
  <path
     fill="currentColor"
     d="M1150 1488l-75 -50h-650l-75 50h800zM1000 1288l100 50v50l150 100v150h-1000v-150l150 -100v-50l100 -50q-15 -14 -20 -35q-3 -10 -3 -20q0 -11 3 -22q6 -20 21 -44q25 -25 84.5 -96.5t66.5 -85.5q4 -11 4 -21v-7q-2 -13 -10 -21q-19 -21 -54 -23h-5q-45 0 -175 124 q-75 72 -127 72q-45 0 -73 -51q-62 -111 -62 -176t82.5 -160.5t89.5 -170.5t78 -140q26 -14 53 -25q4 -7 8 -15q36 -71 89 -133q44 52 77 109h23q36 0 71 5q33 -60 79 -114q53 62 90 133q12 23 20 46q114 64 176 179q64 121 64 251t-64.5 250t-85.5 191zM495 523.5 q12 -6.5 25 -6.5t25 6.5t18.5 18.5t6.5 25t-6.5 25t-18.5 18.5t-25 6.5t-25 -6.5t-18.5 -18.5t-6.5 -25t6.5 -25t18.5 -18.5zM485 376q65 -22 110 -22h7q-21 -35 -52 -66q-31 31 -65 88zM1200 1588v-50h-900v50h900zM1050 1388v-25l-100 -50h-400l-100 50v25h600z M1034 1099.5q60 -102.5 60 -213.5q1 -13 1 -26q0 -104 -69 -248q-45 -81 -120 -133q-45 -109 -54 -125q-21 -35 -52 -66q-31 31 -51 66q-10 15 -24 49l-25 -3q-31 -4 -63 -4q-91 0 -145.5 21.5t-78.5 34.5q-63 56 -69.5 121t-79.5 148q-65 72 -73 125q6 -10 17 -16 q12 -6 25 -6t15 6v3q0 6 -6 16q-9 12 -9 25t9 25q6 10 6 16v2q-2 7 -15 7t-25 -7q-5 -2 -10 -7q13 45 47 104q25 42 61 42q47 0 113 -68q116 -120 165 -120h14q34 0 58 14q34 23 38 57v16q0 24 -8 40q-12 21 -62.5 82t-71.5 82q-13 21 -18 38q-3 10 -3 19q0 8 3 17 q4 18 17 30h405q18 -61 78 -163.5z"
     id="path2" />
  <path
     style="fill:#ffffff;stroke-width:2.56"
     d="m 507.92284,358.00779 c 10.01779,-15.82158 31.57011,-44.97094 43.97267,-59.47271 l 7.41063,-8.66493 14.31829,15.82223 c 7.87506,8.70222 19.02168,22.52737 24.77027,30.72254 l 10.45198,14.90033 -26.34563,2.96453 c -21.70856,2.44276 -54.11629,9.48686 -79.33822,17.24485 -3.70156,1.13855 -2.67672,-1.77164 4.76001,-13.51684 z"
     id="path12"
     transform="translate(-10)" />
  <path
     style="fill:#ffffff;stroke-width:2.56"
     d="m 555.39214,1254.012 c -2.95002,-3.7504 -7.20369,-13.1483 -9.45257,-20.8842 -8.38937,-28.8584 1.83877,-55.2624 36.41623,-94.0087 53.56872,-60.0272 106.9352,-127.7198 115.67242,-146.72437 5.18334,-11.27447 6.35159,-18.03907 6.63174,-38.4 0.40785,-29.64276 -4.30178,-42.29128 -22.53658,-60.52608 -19.44182,-19.44182 -48.92851,-28.56162 -85.2671,-26.37182 -37.73975,2.2742 -69.99109,24.031 -149.21934,100.6635 -69.22735,66.95927 -97.76923,85.67967 -130.63073,85.67967 -29.39729,0 -46.64582,-14.4423 -70.90107,-59.36602 C 231.42055,966.87634 212.2,923.76765 212.2,918.03008 c 0,-1.41885 4.896,-0.35738 10.88,2.35886 28.65318,13.00616 43.94274,0.0883 28.86678,-24.38894 -8.50568,-13.80979 -8.5549,-29.84714 -0.13356,-43.52 7.29124,-11.83803 8.48073,-25.5594 2.41741,-27.88611 -11.62865,-4.46233 -33.77498,0.37597 -44.31165,9.68072 l -6.12102,5.40539 1.7954,-7.68 c 5.98844,-25.61608 32.00849,-66.54477 71.59848,-112.62208 47.92132,-55.77382 70.97655,-99.71917 78.24573,-149.14342 5.46351,-37.14719 21.30169,-67.83744 51.06002,-98.94097 14.11052,-14.74837 21.13094,-19.66778 42.50241,-29.78259 37.16403,-17.58921 70.75599,-29.53282 101.23092,-35.99262 22.92358,-4.85913 35.22745,-5.70903 85.64908,-5.91629 32.384,-0.13312 68.11395,0.74717 79.39991,1.95618 l 20.51989,2.19822 9.82044,-20.97964 c 11.62386,-24.83239 34.64745,-59.83366 52.11056,-79.22033 l 12.50601,-13.88355 15.47397,17.97891 c 29.61311,34.40689 37.50413,48.7118 70.17283,127.20974 18.14633,43.60288 19.57501,46.10792 30.55639,53.57744 6.336,4.30974 25.41901,21.74204 42.40671,38.73844 45.61559,45.639 67.02269,80.57537 96.58239,157.62256 26.7686,69.77216 37.6248,122.60022 37.6148,183.04 -0.015,94.46943 -16.2885,152.6436 -68.5271,244.9783 -25.803,45.6082 -48.53683,91.7678 -59.64329,121.1017 l -9.69272,25.6 -202.21251,0.6554 -202.21248,0.6553 z m -5.86486,-639.73419 c 26.65764,-11.13828 38.69681,-42.51505 26.47422,-68.99781 -20.91978,-45.32704 -89.90009,-35.24724 -96.5366,14.1065 -5.3417,39.72444 33.51047,70.16368 70.06238,54.89131 z"
     id="path14"
     transform="translate(-10)" />
  <path
     style="fill:#ffffff;stroke-width:2.56"
     d="m 460.52,1375.3295 v -10.9105 l 49.93696,-24.9295 49.93696,-24.9295 H 760.04 959.68608 l 49.93702,24.9295 49.9369,24.9295 v 10.9105 10.9105 H 760.04 460.52 Z"
     id="path16"
     transform="translate(-10)" />
  <path
     style="fill:#ffffff;stroke-width:2.56"
     d="m 369.768,1483.8517 c 1.3376,-1.2255 16.51005,-11.5935 33.71655,-23.04 L 434.7691,1440 H 760.04 1085.3109 l 31.2845,20.8117 c 17.2065,11.4465 32.379,21.8145 33.7166,23.04 1.3809,1.2653 -167.28904,2.2283 -390.272,2.2283 -222.98296,0 -391.65292,-0.963 -390.272,-2.2283 z"
     id="path18"
     transform="translate(-10)" />
  <path
     style="fill:#ffffff;stroke-width:2.56"
     d="m 312.04,1562.88 v -23.04 h 448 448 v 23.04 23.04 h -448 -448 z"
     id="path20"
     transform="translate(-10)" />
</svg>
