<?xml version="1.0" encoding="UTF-8" standalone="no"?>
<svg
   xmlns:dc="http://purl.org/dc/elements/1.1/"
   xmlns:cc="http://creativecommons.org/ns#"
   xmlns:rdf="http://www.w3.org/1999/02/22-rdf-syntax-ns#"
   xmlns:svg="http://www.w3.org/2000/svg"
   xmlns="http://www.w3.org/2000/svg"
   xmlns:sodipodi="http://sodipodi.sourceforge.net/DTD/sodipodi-0.dtd"
   xmlns:inkscape="http://www.inkscape.org/namespaces/inkscape"
   version="1.1"
   viewBox="-10 0 1410 2048"
   id="svg4"
   sodipodi:docname="QuiviraBQueen.svg"
   inkscape:version="1.0.2 (e86c870879, 2021-01-15, custom)">
  <metadata
     id="metadata10">
    <rdf:RDF>
      <cc:Work
         rdf:about="">
        <dc:format>image/svg+xml</dc:format>
        <dc:type
           rdf:resource="http://purl.org/dc/dcmitype/StillImage" />
      </cc:Work>
    </rdf:RDF>
  </metadata>
  <defs
     id="defs8" />
  <sodipodi:namedview
     pagecolor="#ffffff"
     bordercolor="#666666"
     borderopacity="1"
     objecttolerance="10"
     gridtolerance="10"
     guidetolerance="10"
     inkscape:pageopacity="0"
     inkscape:pageshadow="2"
     inkscape:window-width="1237"
     inkscape:window-height="968"
     id="namedview6"
     showgrid="false"
     inkscape:zoom="0.390625"
     inkscape:cx="705"
     inkscape:cy="1012.48"
     inkscape:window-x="0"
     inkscape:window-y="0"
     inkscape:window-maximized="0"
     inkscape:current-layer="svg4" />
  <path
     fill="currentColor"
     d="M850 1103l-150 -75l-150 75l150 75zM345 1272l75 -63l-75 -12v75zM1055 1197l-75 12l75 63v-75zM656.5 313q-6.5 12 -6.5 25t6.5 25t18.5 18.5t25 6.5t25 -6.5t18.5 -18.5t6.5 -25t-6.5 -25t-18.5 -18.5t-25 -6.5t-25 6.5t-18.5 18.5zM1184 393q-10 9 -15 21q-3 8 -3 17 q0 4 1 8q2 14 11 24.5t21 14.5q9 4 18 4q4 0 8 -1q13 -2 23.5 -11t14.5 -22q4 -9 4 -18q0 -4 -1 -8q-2 -13 -11 -23t-22 -15q-8 -3 -17 -3q-4 0 -8 1q-14 2 -24 11zM925.5 315q-8.5 11 -10.5 23q-1 4 -1 9q0 8 3 17q4 13 15 21.5t24 10.5q5 1 10 1q7 0 15 -3 q13 -4 21.5 -14.5t10.5 -23.5q1 -5 1 -10q0 -8 -2 -16q-5 -13 -15.5 -21.5t-23.5 -10.5q-4 -1 -9 -1q-8 0 -17 3q-13 4 -21.5 15zM167 384q-13 5 -22 15t-11 23q-1 4 -1 8q0 9 4 18q4 13 14.5 22t24.5 11q3 1 7 1q9 0 18 -4q12 -4 21 -14.5t11 -24.5q1 -4 1 -8q0 -9 -3 -17 q-5 -12 -15 -21t-23 -11q-5 -1 -9 -1q-9 0 -17 3zM427 298q-13 2 -23.5 10.5t-14.5 21.5q-3 8 -3 16q0 5 1 10q2 13 10.5 23.5t21.5 14.5q8 3 15 3q5 0 10 -1q13 -2 24 -10.5t15 -21.5q3 -9 3 -17q0 -5 -1 -9q-2 -12 -10.5 -23t-21.5 -15q-9 -3 -17 -3q-5 0 -9 1zM1055 1339 q-46 -45 -105 -77q-120 -64 -250 -64t-251 64q-59 32 -104 77v50q45 -45 104 -77q121 -64 251 -64t250 64q59 32 105 77v-50zM345 1139q45 -45 104 -77q121 -64 251 -64t250 64q59 32 105 77v-50q-46 -45 -105 -77q-120 -64 -250 -64t-251 64q-59 32 -104 77v50zM1105 1448 q-60 85 -155 135q-120 65 -250 65t-251 -65q-94 -50 -154 -135v-419l-86 -501q-13 3 -27 3q-8 0 -16 -1q-27 -4 -47 -22t-29 -43q-6 -17 -6 -35q0 -8 1 -16q4 -27 22 -47.5t43 -29.5q17 -6 35 -6q8 0 16 1q27 4 47.5 22t29.5 43q6 17 6 36q0 8 -1 16q-4 27 -22 47 q-15 16 -35 25l216 370l2 -444h-8q-17 0 -34 -6q-26 -8 -43 -29.5t-22 -47.5q-1 -8 -1 -16q0 -17 6 -35q8 -26 29.5 -43t46.5 -21q10 -2 19 -2q17 0 33 5q26 9 43 30.5t21 47.5q2 9 2 19q0 16 -5 32q-9 26 -31 43q-17 14 -38 20l153 414l76 -420q-21 -2 -41 -13 q-24 -13 -37 -37t-13 -50t13 -50t37 -37t50 -13t50 13t37 37t13 50t-13 50t-37 37q-20 11 -41 13l76 420l153 -414q-21 -6 -38 -20q-22 -17 -30 -43q-6 -16 -6 -32q0 -10 2 -19q4 -26 21 -47.5t43 -30.5q16 -5 33 -5q9 0 19 2q25 4 46.5 21t30.5 43q5 18 5 35q0 8 -1 16 q-5 26 -22 47.5t-43 29.5q-17 6 -34 6h-8l2 444l216 -369q-20 -9 -35 -26q-18 -20 -22 -47q-1 -8 -1 -16q0 -19 6 -36q9 -25 29.5 -43t47.5 -22q8 -1 16 -1q18 0 35 6q25 9 43 29.5t22 47.5q1 8 1 16q0 18 -6 35q-9 25 -29 43t-47 22q-8 1 -16 1q-14 0 -27 -3l-86 501v419z "
     id="path2" />
  <path
     style="fill:#ffffff;stroke-width:2.56"
     d="m 178.54503,477.26151 c -28.35644,-8.72956 -42.75421,-47.06141 -26.81426,-71.38884 10.91059,-16.65167 35.05917,-26.64688 52.82284,-21.86362 18.30212,4.92825 38.15959,28.15359 38.29589,44.79095 0.16312,19.9128 -15.71299,41.84617 -35.06181,48.43897 -13.94093,4.75016 -13.88595,4.75011 -29.24266,0.0225 z"
     id="path12"
     transform="translate(-10)" />
  <path
     style="fill:#ffffff;stroke-width:2.56"
     d="m 435.83698,394.2566 c -32.26739,-7.28813 -47.77678,-43.4829 -30.94174,-72.20973 14.45884,-24.67214 52.54398,-30.64692 73.15389,-11.47634 14.51556,13.50182 19.87296,38.12838 12.25896,56.35122 -7.96608,19.06552 -33.76453,32.01177 -54.47111,27.33485 z"
     id="path14"
     transform="translate(-10)" />
  <path
     style="fill:#ffffff;stroke-width:2.56"
     d="m 690.99617,382.64817 c -11.91759,-5.35947 -17.54642,-10.77944 -23.68396,-22.80519 -10.9334,-21.42262 -3.66931,-48.9381 16.43141,-62.24012 15.18867,-10.05139 37.56409,-10.05139 52.75276,0 28.02657,18.5471 28.18799,61.98035 0.29896,80.43645 -12.78854,8.46305 -32.75981,10.47279 -45.79917,4.60886 z"
     id="path16"
     transform="translate(-10)" />
  <path
     style="fill:#ffffff;stroke-width:2.56"
     d="m 963.44693,393.81796 c -12.77676,-2.75311 -28.78587,-15.57774 -33.48497,-26.82427 -10.12995,-24.2444 2.34704,-55.9917 25.4447,-64.74316 9.95303,-3.7711 28.44111,-3.4183 38.31556,0.73117 13.08488,5.49855 24.27798,18.75987 27.15428,32.1716 7.7364,36.07368 -21.87818,66.32518 -57.42957,58.66466 z"
     id="path18"
     transform="translate(-10)" />
  <path
     style="fill:#ffffff;stroke-width:2.56"
     d="m 1215.116,478.84299 c -23.2954,-7.38688 -39.645,-30.58621 -37.1508,-52.71508 3.6745,-32.59939 41.0019,-52.90147 69.7934,-37.96003 24.5263,12.72803 33.7051,40.7724 21.2474,64.91788 -10.2582,19.88231 -35.0494,31.73153 -53.89,25.75723 z"
     id="path20"
     transform="translate(-10)" />
  <path
     style="fill:#ffffff;stroke-width:2.56"
     d="m 355.56,1112.8952 v -21.5558 l 14.72,-14.0214 c 46.86043,-44.6363 116.57924,-83.0446 192.64,-106.12606 79.15205,-24.01954 168.27914,-27.83171 252.16,-10.78544 81.67767,16.59853 178.81797,64.8753 233.4925,116.041 l 16.448,15.3925 -0.8103,21.6242 -0.8102,21.6242 -14.0299,-12.4722 c -35.4527,-31.5165 -76.94323,-57.9525 -123.7003,-78.8165 -147.18707,-65.67774 -308.98675,-62.10531 -453.02279,10.0025 -41.45322,20.7524 -56.5703,31.0342 -109.83503,74.7033 l -7.25198,5.9456 z"
     id="path22"
     transform="translate(-10)" />
  <path
     style="fill:#ffffff;stroke-width:2.56"
     d="m 355.56,1232.6808 c 0,-32.0729 0.3683,-34.8384 4.48,-33.639 2.464,0.7187 18.016,3.2934 34.56,5.7216 16.544,2.4281 30.00828,5.0857 29.92061,5.9057 -0.18134,1.6962 -63.35424,54.7959 -66.74742,56.1042 -1.21725,0.4694 -2.21319,-14.8723 -2.21319,-34.0925 z"
     id="path24"
     transform="translate(-10)" />
  <path
     style="fill:#ffffff;stroke-width:2.56"
     d="m 638.52373,1140.2739 c -37.96995,-18.9433 -69.90581,-35.312 -70.96858,-36.3747 -1.06276,-1.0628 30.58613,-18.1796 70.33088,-38.0375 l 72.26319,-36.1051 72.92742,36.4817 72.92742,36.4817 -72.28437,36.16 c -39.75641,19.888 -73.15633,36.0872 -74.22204,35.9982 -1.06571,-0.089 -33.00397,-15.6609 -70.97392,-34.6043 z"
     id="path26"
     transform="translate(-10)" />
  <path
     style="fill:#ffffff;stroke-width:2.56"
     d="m 1030.12,1240.685 c -18.304,-15.3836 -33.59308,-28.7462 -33.97573,-29.6948 -0.64831,-1.607 66.40283,-13.1635 67.97023,-11.7149 0.393,0.3633 0.393,16.1223 0,35.0201 l -0.7145,34.3596 z"
     id="path28"
     transform="translate(-10)" />
  <path
     style="fill:#ffffff;stroke-width:2.56"
     d="m 355.56,1362.1347 v -22.9423 l 21.41075,-18.2313 c 33.12353,-28.2046 58.51832,-44.8785 99.02144,-65.0165 191.65682,-95.2906 414.75012,-67.6013 573.96781,71.2384 l 14.72,12.836 v 22.5276 22.5276 L 1041,1365.3347 c -118.1751,-98.5098 -279.49192,-138.6186 -434.56,-108.0464 -59.68128,11.7664 -136.42595,43.0813 -184.32,75.21 -11.968,8.0285 -31.84,23.1431 -44.16,33.588 l -22.4,18.9907 z"
     id="path30"
     transform="translate(-10)" />
</svg>
