<?xml version="1.0" encoding="UTF-8" standalone="no"?>
<svg
   xmlns:dc="http://purl.org/dc/elements/1.1/"
   xmlns:cc="http://creativecommons.org/ns#"
   xmlns:rdf="http://www.w3.org/1999/02/22-rdf-syntax-ns#"
   xmlns:svg="http://www.w3.org/2000/svg"
   xmlns="http://www.w3.org/2000/svg"
   xmlns:sodipodi="http://sodipodi.sourceforge.net/DTD/sodipodi-0.dtd"
   xmlns:inkscape="http://www.inkscape.org/namespaces/inkscape"
   version="1.1"
   viewBox="-10 0 1410 2048"
   id="svg4"
   sodipodi:docname="QuiviraBBishop.svg"
   inkscape:version="1.0.2 (e86c870879, 2021-01-15, custom)">
  <metadata
     id="metadata10">
    <rdf:RDF>
      <cc:Work
         rdf:about="">
        <dc:format>image/svg+xml</dc:format>
        <dc:type
           rdf:resource="http://purl.org/dc/dcmitype/StillImage" />
      </cc:Work>
    </rdf:RDF>
  </metadata>
  <defs
     id="defs8" />
  <sodipodi:namedview
     pagecolor="#ffffff"
     bordercolor="#666666"
     borderopacity="1"
     objecttolerance="10"
     gridtolerance="10"
     guidetolerance="10"
     inkscape:pageopacity="0"
     inkscape:pageshadow="2"
     inkscape:window-width="1271"
     inkscape:window-height="939"
     id="namedview6"
     showgrid="false"
     inkscape:zoom="0.390625"
     inkscape:cx="705"
     inkscape:cy="1012.48"
     inkscape:window-x="0"
     inkscape:window-y="0"
     inkscape:window-maximized="0"
     inkscape:current-layer="svg4" />
  <path
     fill="currentColor"
     d="M675 309.5q-12 6.5 -18.5 18.5t-6.5 25t6.5 25t18.5 18.5t25 6.5t25 -6.5t18.5 -18.5t6.5 -25t-6.5 -25t-18.5 -18.5t-25 -6.5t-25 6.5zM776 1090l-75 -37l-75 37l75 38zM523 1175l38 -32l-38 -6v38zM878 1137l-37 6l37 32v-38zM878 1208q-23 -22 -52 -38 q-60 -32 -125 -32t-126 32q-29 16 -52 38v25q23 -22 52 -38q61 -32 126 -32t125 32q29 16 52 38v-25zM878 1083q-23 -22 -52 -38q-60 -32 -125 -32t-126 32q-29 16 -52 38v25q23 -22 52 -38q61 -32 126 -32t125 32q29 16 52 38v-25zM663 968h75v-178h177v-55h-177v-177h-75 v177h-178v55h178v178zM602 1343q-14 -6 -27 -13q-47 -25 -77 -67v-125q4 -6 9 -12q-157 -89 -157 -223q0 -180 285 -442q-29 -16 -44 -45q-16 -30 -16 -63t16 -63t46 -46t63 -16t63 16t46 46t16 63t-16 63q-15 29 -44 45q285 262 285 442q0 134 -156 223q5 6 9 12v125 q-30 42 -77 67q-14 8 -28 14q61 103 158 103q30 0 63 -10q22 -3 42 -3q88 0 148 51q72 63 111 212l-50 130q-65 -249 -217 -249q-29 0 -62 9q-22 3 -42 3q-88 0 -148 -51q-63 -55 -101 -176q-38 122 -102 176q-58 51 -146 51q-21 0 -44 -3q-33 -9 -62 -9q-151 0 -216 249 l-50 -130q39 -149 111 -211q58 -51 146 -51q21 0 44 3q33 9 62 9q98 0 159 -104z"
     id="path2" />
  <path
     style="fill:#ffffff;stroke-width:2.56"
     d="m 686.43372,395.34248 c -21.03896,-11.10665 -30.36693,-39.32665 -20.4269,-61.79773 16.77796,-37.92936 69.4575,-38.2907 87.7025,-0.60155 11.02426,22.77308 0.85491,52.63627 -21.35864,62.72155 -13.99116,6.35219 -33.53356,6.21503 -45.91696,-0.32227 z"
     id="path12"
     transform="translate(-10)" />
  <path
     style="fill:#ffffff;stroke-width:2.56"
     d="m 674.28,878.08 v -88.32 h -89.6 -89.6 V 762.88 736 h 89.6 89.6 v -88.32 -88.32 h 35.84 35.84 V 647.68 736 h 88.32 88.32 v 26.88 26.88 h -88.32 -88.32 v 88.32 88.32 h -35.84 -35.84 z"
     id="path14"
     transform="translate(-10)" />
  <path
     style="fill:#ffffff;stroke-width:2.56"
     d="m 533.96083,1094.0961 c 0.72688,-10.0358 2.18863,-12.158 16.15917,-23.4599 30.79559,-24.913 73.04527,-43.9303 115.2,-51.8535 30.78921,-5.7869 81.01331,-4.0296 110.08,3.8517 35.78212,9.7021 77.67849,31.6922 101.65998,53.358 8.06661,7.2877 9.70002,10.4425 9.70002,18.7349 v 9.9716 l -13.57665,-11.0583 c -26.88799,-21.9006 -56.88159,-37.1877 -94.29508,-48.0603 -24.09415,-7.0019 -82.92399,-9.6359 -111.66426,-4.9996 -40.4296,6.522 -88.24095,27.4735 -118.4217,51.8939 l -15.64064,12.6554 z"
     id="path16"
     transform="translate(-10)" />
  <path
     style="fill:#ffffff;stroke-width:2.56"
     d="m 533.48,1154.5618 c 0,-14.969 0.53216,-16.8316 4.48,-15.6801 2.464,0.7187 10.1824,2.1136 17.152,3.0999 l 12.672,1.7933 -10.112,8.6936 c -5.5616,4.7815 -13.28,11.0305 -17.152,13.8869 l -7.04,5.1932 z"
     id="path18"
     transform="translate(-10)" />
  <path
     style="fill:#ffffff;stroke-width:2.56"
     d="m 673.09619,1107.1272 -33.1838,-17.2656 33.78725,-16.9308 C 692.28263,1063.6189 708.69826,1056 710.17882,1056 c 1.48056,0 18.48901,7.5824 37.79656,16.8499 l 35.10462,16.8499 -34.56,17.5764 c -19.008,9.667 -36.288,17.4729 -38.4,17.3464 -2.112,-0.1264 -18.77271,-7.9994 -37.02381,-17.4954 z"
     id="path20"
     transform="translate(-10)" />
  <path
     style="fill:#ffffff;stroke-width:2.56"
     d="m 870.20167,1157.3145 -15.27833,-13.5732 15.27833,-2.6544 c 8.40308,-1.4599 15.62477,-2.3272 16.04819,-1.9274 0.42343,0.3998 0.42343,7.7022 0,16.2276 l -0.76986,15.5007 z"
     id="path22"
     transform="translate(-10)" />
  <path
     style="fill:#ffffff;stroke-width:2.56"
     d="m 533.48,1220.1673 c 0,-8.2924 1.6334,-11.4472 9.70003,-18.7349 24.27743,-21.9332 65.90094,-43.6665 102.93997,-53.749 19.01043,-5.1749 27.42087,-5.9049 66.56,-5.7767 41.22991,0.135 46.63604,0.7038 67.84,7.1377 31.27526,9.4899 65.32572,26.7434 87.68,44.4278 17.27055,13.6627 18.56,15.366 18.56,24.5164 0,11.1073 0.18125,11.1437 -18.80402,-3.7803 -48.19761,-37.8875 -121.06155,-58.064 -183.48185,-50.8072 -54.15994,6.2964 -99.18791,24.5411 -137.41747,55.6795 L 533.48,1230.1389 Z"
     id="path24"
     transform="translate(-10)" />
</svg>
