<?xml version="1.0" standalone="no"?>
<!DOCTYPE svg PUBLIC "-//W3C//DTD SVG 1.1//EN" "http://www.w3.org/Graphics/SVG/1.1/DTD/svg11.dtd" >
<svg xmlns="http://www.w3.org/2000/svg" xmlns:xlink="http://www.w3.org/1999/xlink" version="1.1" viewBox="-10 0 1410 2048">
   <path fill="currentColor"
d="M998 1435q86 30 138 78q64 60 64 125h-1000q0 -65 65 -125q51 -48 137 -78q146 -221 185 -497h-187q0 -52 38.5 -100t111.5 -74q23 -8 46 -14q-45 -26 -70 -72q-26 -48 -26 -100t26 -100t74 -74t100 -26t100 26t74 74t26 100t-26 100q-25 46 -70 72q23 6 47 14
q72 26 110.5 74t38.5 100h-187q39 276 185 497zM625 447.5q-36 19.5 -55.5 55.5t-19.5 75t19.5 75t55.5 55.5t75 19.5t75 -19.5t55.5 -55.5t19.5 -75t-19.5 -75t-55.5 -55.5t-75 -19.5t-75 19.5zM584.5 801q-50.5 13 -77.5 37t-27 50h440q0 -26 -27 -50t-77.5 -37
t-115.5 -13t-115.5 13zM494.5 1457.5q-88.5 19.5 -151.5 55.5t-63 75h840q0 -39 -63 -75t-151.5 -55.5t-205.5 -19.5t-205.5 19.5zM773 938h-146q0 176 -155 475q156 -25 244 -25q105 0 212 25q-155 -299 -155 -475z" />
</svg>
