<?xml version="1.0" encoding="UTF-8" standalone="no"?>
<svg
   xmlns:dc="http://purl.org/dc/elements/1.1/"
   xmlns:cc="http://creativecommons.org/ns#"
   xmlns:rdf="http://www.w3.org/1999/02/22-rdf-syntax-ns#"
   xmlns:svg="http://www.w3.org/2000/svg"
   xmlns="http://www.w3.org/2000/svg"
   xmlns:sodipodi="http://sodipodi.sourceforge.net/DTD/sodipodi-0.dtd"
   xmlns:inkscape="http://www.inkscape.org/namespaces/inkscape"
   version="1.1"
   viewBox="-10 0 1410 2048"
   id="svg4"
   sodipodi:docname="QuiviraWKing.svg"
   inkscape:version="1.0.2 (e86c870879, 2021-01-15, custom)">
  <metadata
     id="metadata10">
    <rdf:RDF>
      <cc:Work
         rdf:about="">
        <dc:format>image/svg+xml</dc:format>
        <dc:type
           rdf:resource="http://purl.org/dc/dcmitype/StillImage" />
      </cc:Work>
    </rdf:RDF>
  </metadata>
  <defs
     id="defs8" />
  <sodipodi:namedview
     pagecolor="#ffffff"
     bordercolor="#666666"
     borderopacity="1"
     objecttolerance="10"
     gridtolerance="10"
     guidetolerance="10"
     inkscape:pageopacity="0"
     inkscape:pageshadow="2"
     inkscape:window-width="1326"
     inkscape:window-height="878"
     id="namedview6"
     showgrid="false"
     inkscape:zoom="0.390625"
     inkscape:cx="705"
     inkscape:cy="1012.48"
     inkscape:window-x="0"
     inkscape:window-y="0"
     inkscape:window-maximized="0"
     inkscape:current-layer="svg4" />
  <path
     fill="currentColor"
     d="M850 1103l-150 -75l-150 75l150 75zM345 1272l75 -63l-75 -12v75zM1055 1197l-75 12l75 63v-75zM738 463l-38 -35l-38 35h-87l82 -75l-82 -75h87l38 35l38 -35h87l-82 75l82 75h-87zM582 1012q58 -14 118 -14t118 14q-11 -33 -28 -67q-37 -71 -90 -133q-53 62 -89 133 q-18 34 -29 67zM455 1534q118 64 245 64t244 -64q63 -35 111 -86q-48 -51 -111 -86q-117 -64 -244 -64t-245 64q-63 35 -110 86q47 51 110 86zM345 1389q45 -45 104 -77q121 -64 251 -64t250 64q59 32 105 77v-50q-46 -45 -105 -77q-120 -64 -250 -64t-251 64 q-59 32 -104 77v50zM550 488h300v-200h-300v200zM705 564.5q-12 6.5 -18.5 18.5t-6.5 25t6.5 25t18.5 18.5t25 6.5t25 -6.5t18.5 -18.5t6.5 -25t-6.5 -25t-18.5 -18.5t-25 -6.5t-25 6.5zM587 538h-87v-300h400v300h-87q10 11 18 25q18 33 19 69q34 -22 71 -41 q102 -53 192 -53h17q96 6 151 61q56 55 62 152v17q0 90 -53 192q-58 113 -150 205q-17 17 -35 33v250q-60 85 -155 135q-120 65 -250 65t-251 -65q-94 -50 -154 -135v-250q-18 -16 -35 -33q-92 -92 -150 -205q-53 -102 -53 -192v-17q6 -97 62 -152q55 -55 152 -61h16 q90 0 193 53q36 19 70 41q1 -36 20 -69q7 -14 17 -25zM674 786q-25 -5 -49 -18q-36 -19 -55 -55q-9 -15 -14 -31q-37 -26 -77 -47q-91 -47 -170 -47h-14q-85 5 -133 54q-50 48 -55 133v15q0 79 47 169q51 99 132 180q15 16 31 30q55 -65 132 -107q41 -22 84 -36 q13 -40 34 -82q44 -85 107 -158zM844 682q-5 16 -13 31q-20 36 -56 55q-24 13 -49 18q64 73 108 158q22 42 34 82q41 14 82 36q78 42 133 107q16 -14 31 -30q81 -81 132 -180q47 -90 47 -169v-15q-5 -85 -55 -133q-48 -49 -133 -54h-14q-79 0 -169 47q-41 21 -78 47z"
     id="path2" />
  <path
     style="fill:#ffffff;stroke-width:2.56"
     d="M 561.64,387.84 V 289.28 H 710.12 858.6 v 98.56 98.56 H 710.12 561.64 Z m 130.71585,58.54985 17.57802,-16.97015 17.64078,17.03073 17.64078,17.03074 45.63712,-0.70059 45.63711,-0.70058 -40.45536,-36.98314 -40.45537,-36.98314 25.27053,-23.14737 C 794.74826,352.23529 813.032,335.20348 821.48,327.11787 l 15.36,-14.70111 -45.39201,-0.0484 -45.39202,-0.0484 -17.93033,16.91457 -17.93033,16.91456 -18.26929,-16.91456 -18.2693,-16.91457 -45.12836,0.0484 -45.12836,0.0484 15.36,14.70111 c 8.448,8.08561 26.71019,25.09749 40.58265,37.80419 l 25.22265,23.10307 -39.94265,36.61234 C 602.65419,444.77426 584.68,461.7246 584.68,462.3049 c 0,0.58031 20.27201,1.0551 45.04891,1.0551 h 45.04891 z"
     id="path12"
     transform="translate(-10)" />
  <path
     style="fill:#ffffff;stroke-width:2.56"
     d="m 727.08807,654.03984 c -35.87376,-9.10871 -46.89421,-56.53079 -19.1372,-82.34931 21.18215,-19.70285 58.40259,-13.69485 73.36873,11.84294 22.06391,37.64921 -11.5455,81.34478 -54.23153,70.50637 z"
     id="path14"
     transform="translate(-10)" />
  <path
     style="fill:#ffffff;stroke-width:2.56"
     d="M 293.50276,1133.0995 C 242.685,1080.9272 207.91375,1034.814 175.52582,976.64 146.88553,925.19739 129.55914,879.25722 122.58865,836.27934 103.0882,716.04563 155.33706,623.56581 258.28,596.10735 c 27.68875,-7.38556 84.7205,-7.95295 116.48,-1.15884 49.53001,10.59566 114.16653,38.49385 163.84,70.71605 l 24.32,15.77591 11.36599,23.37403 c 19.06616,39.20937 53.65494,67.85914 95.21475,78.86607 l 11.86073,3.14126 -15.86406,19.38909 c -47.88447,58.52441 -90.74227,131.01727 -114.23964,193.23341 l -9.57945,25.36437 -20.09915,7.2808 c -63.79095,23.108 -127.45341,64.5027 -175.57395,114.1619 l -19.79478,20.4277 z"
     id="path16"
     transform="translate(-10)" />
  <path
     style="fill:#ffffff;stroke-width:2.56"
     d="m 594.92,1008.0863 c 0,-3.5911 15.40722,-38.12226 28.30864,-63.4463 22.87213,-44.89543 79.28673,-128 86.89136,-128 3.56303,0 33.14536,39.06035 55.54179,73.33706 21.57385,33.01782 42.35367,72.71389 53.25598,101.73588 l 6.62393,17.63296 -9.71085,-1.6862 c -79.26605,-13.76356 -138.64206,-13.76316 -212.59085,0 -4.576,0.8518 -8.32,1.0431 -8.32,0.4252 z"
     id="path18"
     transform="translate(-10)" />
  <path
     style="fill:#ffffff;stroke-width:2.56"
     d="m 1064.5685,1137.92 c -15.5494,-15.488 -39.1654,-35.9442 -52.48,-45.4582 -25.6587,-18.3345 -95.7049,-55.0779 -118.99263,-62.4187 l -13.894,-4.3797 -6.76175,-20.3037 C 855.71599,955.14171 806.1304,869.95807 760.965,813.85535 l -21.82056,-27.10464 11.72778,-3.1057 c 44.61491,-11.81475 81.67981,-44.26154 98.86636,-86.54811 5.50328,-13.54053 7.40118,-15.42124 31.04154,-30.76054 30.07885,-19.51698 88.99313,-48.87475 117.02331,-58.31428 80.38167,-27.06959 158.51827,-24.06455 214.05787,8.23241 25.0549,14.56967 52.9743,43.75584 66.093,69.09151 17.6608,34.10801 21.819,53.6127 21.9868,103.134 0.1297,38.2926 -0.5313,44.84879 -7.0737,70.15596 -9.2601,35.81972 -19.4108,62.2317 -37.5199,97.62672 -35.7841,69.94122 -86.0246,137.04472 -143.6738,191.89732 l -18.8337,17.92 z"
     id="path20"
     transform="translate(-10)" />
  <path
     style="fill:#ffffff;stroke-width:2.56"
     d="m 356.84,1232.8492 v -34.6412 l 7.04,1.3827 c 3.872,0.7605 19.57159,3.3714 34.88798,5.8019 l 27.84798,4.4193 -30.28237,25.494 c -16.65531,14.0218 -32.3549,26.9994 -34.88798,28.8393 -4.37205,3.1755 -4.60561,1.5884 -4.60561,-31.296 z"
     id="path22"
     transform="translate(-10)" />
  <path
     style="fill:#ffffff;stroke-width:2.56"
     d="m 634.96163,1138.9135 c -39.2251,-19.7175 -70.9051,-36.2313 -70.4,-36.6973 0.5051,-0.466 33.32278,-17.0374 72.92817,-36.8254 l 72.00981,-35.9781 71.32097,35.606 c 39.22654,19.5833 71.6249,36.5178 71.99638,37.6322 0.76675,2.3002 -138.44064,72.4637 -143.34909,72.2509 -1.75333,-0.076 -35.28114,-16.2707 -74.50624,-35.9883 z"
     id="path24"
     transform="translate(-10)" />
  <path
     style="fill:#ffffff;stroke-width:2.56"
     d="m 1027.7856,1238.5621 -34.33431,-28.9108 34.33431,-5.453 c 18.8839,-2.9992 34.6569,-5.1842 35.0511,-4.8556 0.3942,0.3286 0.3942,15.7923 0,34.3638 l -0.7167,33.7664 z"
     id="path26"
     transform="translate(-10)" />
  <path
     style="fill:#ffffff;stroke-width:2.56"
     d="m 356.84,1362.6627 v -23.04 l 13.44,-12.7091 c 52.62948,-49.7671 138.7634,-94.0508 221.09569,-113.6711 52.92082,-12.6113 128.10275,-16.8529 180.18431,-10.1656 102.0097,13.098 203.10083,57.6686 275.0056,121.2484 l 16.8344,14.8853 v 23.4077 23.4077 l -10.88,-10.4741 c -27.9576,-26.9147 -72.67994,-56.3013 -118.76649,-78.0402 -155.56093,-73.3779 -333.39662,-66.463 -485.38622,18.8736 -25.96548,14.5786 -58.85235,38.4195 -78.08729,56.6083 l -13.44,12.7091 z"
     id="path28"
     transform="translate(-10)" />
  <path
     style="fill:#ffffff;stroke-width:2.56"
     d="m 679.4,1595.762 c -80.28922,-7.6941 -137.06702,-23.8916 -202.43666,-57.7508 -36.18813,-18.7442 -68.02231,-41.1183 -97.84755,-68.7705 -26.20695,-24.2975 -27.05636,-19.2099 8.40734,-50.3568 67.70494,-59.4636 158.51398,-100.3963 253.80542,-114.4042 35.30184,-5.1894 102.04731,-5.2105 137.5829,-0.043 71.10835,10.3395 144.40799,38.1094 203.84855,77.2288 22.3665,14.7201 63.0721,47.4314 74.9982,60.2691 l 5.8782,6.3276 -18.6049,17.2253 c -79.22349,73.3488 -183.2924,119.1039 -293.9515,129.2391 -28.04595,2.5687 -52.06272,2.9158 -71.68,1.0359 z"
     id="path30"
     transform="translate(-10)" />
</svg>
