<?xml version="1.0" encoding="UTF-8" standalone="no"?>
<svg
   xmlns:dc="http://purl.org/dc/elements/1.1/"
   xmlns:cc="http://creativecommons.org/ns#"
   xmlns:rdf="http://www.w3.org/1999/02/22-rdf-syntax-ns#"
   xmlns:svg="http://www.w3.org/2000/svg"
   xmlns="http://www.w3.org/2000/svg"
   xmlns:sodipodi="http://sodipodi.sourceforge.net/DTD/sodipodi-0.dtd"
   xmlns:inkscape="http://www.inkscape.org/namespaces/inkscape"
   version="1.1"
   viewBox="-10 0 1410 2048"
   id="svg4"
   sodipodi:docname="QuiviraWQueen.svg"
   inkscape:version="1.0.2 (e86c870879, 2021-01-15, custom)">
  <metadata
     id="metadata10">
    <rdf:RDF>
      <cc:Work
         rdf:about="">
        <dc:format>image/svg+xml</dc:format>
        <dc:type
           rdf:resource="http://purl.org/dc/dcmitype/StillImage" />
      </cc:Work>
    </rdf:RDF>
  </metadata>
  <defs
     id="defs8" />
  <sodipodi:namedview
     pagecolor="#ffffff"
     bordercolor="#666666"
     borderopacity="1"
     objecttolerance="10"
     gridtolerance="10"
     guidetolerance="10"
     inkscape:pageopacity="0"
     inkscape:pageshadow="2"
     inkscape:window-width="1255"
     inkscape:window-height="958"
     id="namedview6"
     showgrid="false"
     inkscape:zoom="0.390625"
     inkscape:cx="705"
     inkscape:cy="1012.48"
     inkscape:window-x="0"
     inkscape:window-y="0"
     inkscape:window-maximized="0"
     inkscape:current-layer="svg4" />
  <path
     fill="currentColor"
     d="M850 1103l-150 -75l-150 75l150 75zM675 294.5q-12 6.5 -18.5 18.5t-6.5 25t6.5 25t18.5 18.5t25 6.5t25 -6.5t18.5 -18.5t6.5 -25t-6.5 -25t-18.5 -18.5t-25 -6.5t-25 6.5zM973 298q-4 -1 -9 -1q-8 0 -17 3q-13 4 -21.5 15t-10.5 23q-1 4 -1 9q0 8 3 17q4 13 15 21.5 t24 10.5q5 1 10 1q7 0 15 -3q13 -4 21.5 -14.5t10.5 -23.5q1 -5 1 -10q0 -8 -2 -16q-5 -13 -15.5 -21.5t-23.5 -10.5zM1233 327q-8 -3 -17 -3q-4 0 -8 1q-14 2 -24.5 11t-14.5 21q-4 9 -4 18q0 4 1 7q2 14 11.5 24.5t21.5 14.5q9 4 18 4q4 0 8 -1q13 -2 23 -11.5t15 -21.5 q3 -8 3 -17q0 -4 -1 -9q-2 -13 -11 -23t-21 -15zM427 298q-13 2 -23.5 10.5t-14.5 21.5q-3 8 -3 16q0 5 1 10q2 13 10.5 23.5t21.5 14.5q8 3 15 3q5 0 10 -1q13 -2 24 -10.5t15 -21.5q3 -9 3 -17q0 -5 -1 -9q-2 -12 -10.5 -23t-21.5 -15q-9 -3 -17 -3q-5 0 -9 1zM167 327 q-12 5 -21 15t-11 23q-1 5 -1 9q0 9 3 17q5 12 15 21.5t24 11.5q3 1 7 1q9 0 18 -4q12 -4 21.5 -14.5t11.5 -24.5q1 -3 1 -7q0 -9 -4 -18q-4 -12 -14.5 -21t-23.5 -11q-5 -1 -9 -1q-9 0 -17 3zM455 1534q118 64 245 64t244 -64q63 -35 111 -86q-48 -51 -111 -86 q-117 -64 -244 -64t-245 64q-63 35 -110 86q47 51 110 86zM345 1272l75 -63l-75 -12v75zM1055 1197l-75 12l75 63v-75zM1055 1339q-46 -45 -105 -77q-120 -64 -250 -64t-251 64q-59 32 -104 77v50q45 -45 104 -77q121 -64 251 -64t250 64q59 32 105 77v-50zM615 858l76 -420 q-21 -2 -41 -13q-24 -13 -37 -37t-13 -50t13 -50t37 -37t50 -13t50 13t37 37t13 50t-13 50t-37 37q-20 11 -41 13l76 420l153 -414q-21 -6 -38 -20q-22 -17 -30 -43q-6 -16 -6 -32q0 -10 2 -19q4 -26 21 -47.5t43 -30.5q16 -5 33 -5q9 0 19 2q25 4 46.5 21t30.5 43 q5 18 5 35q0 8 -1 16q-5 26 -22 47.5t-43 29.5q-17 6 -34 6h-8l2 388l215 -370q-19 -9 -34 -26q-18 -21 -22 -48q-1 -8 -1 -16q0 -18 6 -35q9 -25 29.5 -43t47.5 -22q8 -1 16 -1q18 0 35 6q25 9 43 29.5t22 47.5q1 8 1 16q0 18 -6 35q-9 25 -29.5 43t-47.5 22q-8 1 -16 1 q-14 0 -27 -3l-85 501v476q-60 85 -155 135q-120 65 -250 65t-251 -65q-94 -50 -154 -135v-476l-85 -501q-13 3 -27 3q-8 0 -16 -1q-27 -4 -47.5 -22t-29.5 -43q-6 -17 -6 -35q0 -8 1 -16q4 -27 22 -47.5t43 -29.5q17 -6 35 -6q8 0 16 1q27 4 47.5 22t29.5 43q6 17 6 35 q0 8 -1 16q-4 27 -22 48q-15 17 -34 26l215 370l2 -388h-8q-17 0 -34 -6q-26 -8 -43 -29.5t-22 -47.5q-1 -8 -1 -16q0 -17 6 -35q8 -26 29.5 -43t46.5 -21q10 -2 19 -2q17 0 33 5q26 9 43 30.5t21 47.5q2 9 2 19q0 16 -5 32q-9 26 -31 43q-17 14 -38 20zM752 891l-52 -303 l-52 303q-30 3 -59 9l-110 -307l2 344q-11 3 -19 9l-192 -337l75 414v116q45 -45 104 -77q121 -64 251 -64t250 64q59 32 105 77v-116l75 -414l-192 337q-8 -6 -19 -9l2 -344l-110 307q-29 -6 -59 -9z"
     id="path2" />
  <path
     style="fill:#ffffff;stroke-width:2.56"
     d="m 172.82793,418.16504 c -10.48837,-5.34136 -22.41185,-21.18159 -26.01417,-34.55958 -7.7651,-28.83737 24.65765,-63.09406 54.42999,-57.50873 32.05434,6.01343 50.76793,41.77509 36.32826,69.42327 -11.66412,22.33373 -43.4944,33.46676 -64.74408,22.64504 z"
     id="path12"
     transform="translate(-10)" />
  <path
     style="fill:#ffffff;stroke-width:2.56"
     d="m 431.44654,393.00587 c -36.78407,-11.56671 -45.26698,-61.19154 -14.47489,-84.67781 13.2869,-10.13441 34.67941,-11.69927 51.12198,-3.73955 19.78867,9.57953 30.9806,35.05637 24.36102,55.45438 -4.78804,14.75416 -11.54414,22.94008 -23.63252,28.63398 -15.45128,7.27789 -24.6203,8.33989 -37.37559,4.329 z"
     id="path14"
     transform="translate(-10)" />
  <path
     style="fill:#ffffff;stroke-width:2.56"
     d="m 687.73547,380.00717 c -10.72926,-5.34662 -14.35602,-8.97338 -19.70264,-19.70264 -7.71956,-15.49113 -8.21463,-27.50025 -1.71432,-41.58453 17.83783,-38.64935 69.76515,-38.64935 87.60298,0 11.39932,24.69898 -0.30705,52.94448 -26.4742,63.87782 -13.51708,5.64779 -24.63488,4.92251 -39.71182,-2.59065 z"
     id="path16"
     transform="translate(-10)" />
  <path
     style="fill:#ffffff;stroke-width:2.56"
     d="m 964.47698,394.35793 c -21.26423,-5.07078 -35.95257,-21.4796 -38.33156,-42.82143 -1.90131,-17.05666 8.69294,-38.03868 23.33458,-46.21439 20.93788,-11.69144 49.65627,-5.63526 64.2964,13.55893 14.353,18.81772 9.6194,51.28127 -9.5922,65.78524 -7.22907,5.45766 -25.8682,12.73156 -30.3842,11.8574 -0.704,-0.13628 -4.89936,-1.11086 -9.32302,-2.16575 z"
     id="path18"
     transform="translate(-10)" />
  <path
     style="fill:#ffffff;stroke-width:2.56"
     d="m 1211.4825,419.70542 c -42.5012,-14.38807 -46.6635,-68.08156 -6.817,-87.93794 15.3461,-7.64727 23.9869,-8.26491 37.3767,-2.67168 29.1062,12.15837 40.3377,42.83474 25.1633,68.72796 -12.905,22.02065 -32.5384,29.73043 -55.723,21.88166 z"
     id="path20"
     transform="translate(-10)" />
  <path
     style="fill:#ffffff;stroke-width:2.56"
     d="m 356.84,1079.9323 v -54.3352 L 320.93233,827.24156 C 301.18311,718.14602 285.4003,627.7591 285.85942,626.38174 c 0.45912,-1.37737 42.09298,69.95527 92.51969,158.51698 50.42671,88.56171 91.93503,161.3068 92.24071,161.65575 0.30568,0.34895 5.47788,-1.37905 11.4938,-3.84 L 493.05164,938.24 491.48569,770.56 c -1.39774,-149.66753 -1.1577,-166.7175 2.23456,-158.72 2.09028,4.928 26.21749,71.57415 53.61601,148.10255 27.39852,76.5284 50.30689,139.63392 50.90746,140.23453 0.60058,0.60057 11.19335,-0.66957 23.53946,-2.82256 12.34611,-2.15298 25.70038,-3.91452 29.67616,-3.91452 6.32581,0 7.45393,-1.19903 9.0323,-9.6 0.992,-5.28 12.4193,-71.232 25.39399,-146.56 12.9747,-75.328 24.23404,-135.232 25.02078,-133.12 0.78671,2.112 11.89155,65.472 24.67742,140.8 12.78585,75.328 23.82902,139.552 24.54037,142.72 0.97078,4.3234 3.11301,5.76 8.58923,5.76 4.01275,0 17.39728,1.76154 29.74339,3.91452 12.34611,2.15299 22.87173,3.49028 23.39023,2.97175 0.51853,-0.51853 24.62349,-67.05547 53.56659,-147.8599 28.94308,-80.80444 53.13995,-147.43328 53.77076,-148.06411 0.63083,-0.63083 0.41008,74.22459 -0.49058,166.34539 l -1.63755,167.49235 11.00408,4.47447 c 6.05223,2.46095 11.21613,4.18895 11.47536,3.84 0.2592,-0.34895 42.11269,-73.78647 93.00769,-163.19447 50.8951,-89.408 92.5365,-160.88523 92.5365,-158.83829 10e-5,2.04695 -16.1279,92.81811 -35.8399,201.7137 l -35.84,197.99199 v 54.9834 54.9834 l -23.68,-19.7213 c -31.7676,-26.4568 -58.79434,-43.7356 -99.07963,-63.344 -141.51217,-68.87933 -298.29468,-72.08127 -443.66652,-9.0609 -44.80289,19.4225 -86.02613,45.2215 -121.57385,76.0852 l -18.56,16.1143 z"
     id="path22"
     transform="translate(-10)" />
  <path
     style="fill:#ffffff;stroke-width:2.56"
     d="m 356.84,1232.8492 v -34.6412 l 7.04,1.3827 c 3.872,0.7605 19.57159,3.3714 34.88798,5.8019 l 27.84798,4.4193 -30.28237,25.494 c -16.65531,14.0218 -32.3549,26.9994 -34.88798,28.8393 -4.37205,3.1755 -4.60561,1.5884 -4.60561,-31.296 z"
     id="path24"
     transform="translate(-10)" />
  <path
     style="fill:#ffffff;stroke-width:2.56"
     d="m 634.61798,1138.7416 -71.66202,-36.022 73.39808,-36.7165 73.39808,-36.7165 71.86394,35.9429 c 39.52518,19.7685 71.86394,36.7328 71.86394,37.6983 0,2.2781 -139.81773,72.1558 -144.01213,71.974 -1.75333,-0.076 -35.43578,-16.348 -74.84989,-36.1602 z"
     id="path26"
     transform="translate(-10)" />
  <path
     style="fill:#ffffff;stroke-width:2.56"
     d="m 1027.7856,1238.5621 -34.33431,-28.9108 34.33431,-5.453 c 18.8839,-2.9992 34.6569,-5.1842 35.0511,-4.8556 0.3942,0.3286 0.3942,15.7923 0,34.3638 l -0.7167,33.7664 z"
     id="path28"
     transform="translate(-10)" />
  <path
     style="fill:#ffffff;stroke-width:2.56"
     d="m 356.84,1362.6627 v -23.04 l 13.44,-12.7091 c 52.62948,-49.7671 138.7634,-94.0508 221.09569,-113.6711 52.92082,-12.6113 128.10275,-16.8529 180.18431,-10.1656 102.0097,13.098 203.10083,57.6686 275.0056,121.2484 l 16.8344,14.8853 v 23.4077 23.4077 l -10.88,-10.4741 c -27.9576,-26.9147 -72.67994,-56.3013 -118.76649,-78.0402 -155.56093,-73.3779 -333.39662,-66.463 -485.38622,18.8736 -25.96548,14.5786 -58.85235,38.4195 -78.08729,56.6083 l -13.44,12.7091 z"
     id="path30"
     transform="translate(-10)" />
  <path
     style="fill:#ffffff;stroke-width:2.56"
     d="m 679.4,1595.762 c -80.28922,-7.6941 -137.06702,-23.8916 -202.43666,-57.7508 -36.18813,-18.7442 -68.02231,-41.1183 -97.84755,-68.7705 -26.20695,-24.2975 -27.05636,-19.2099 8.40734,-50.3568 67.70494,-59.4636 158.51398,-100.3963 253.80542,-114.4042 35.30184,-5.1894 102.04731,-5.2105 137.5829,-0.043 71.10835,10.3395 144.40799,38.1094 203.84855,77.2288 22.3665,14.7201 63.0721,47.4314 74.9982,60.2691 l 5.8782,6.3276 -18.6049,17.2253 c -79.22349,73.3488 -183.2924,119.1039 -293.9515,129.2391 -28.04595,2.5687 -52.06272,2.9158 -71.68,1.0359 z"
     id="path32"
     transform="translate(-10)" />
</svg>
