<?xml version="1.0" encoding="UTF-8" standalone="no"?>
<svg
   xmlns:dc="http://purl.org/dc/elements/1.1/"
   xmlns:cc="http://creativecommons.org/ns#"
   xmlns:rdf="http://www.w3.org/1999/02/22-rdf-syntax-ns#"
   xmlns:svg="http://www.w3.org/2000/svg"
   xmlns="http://www.w3.org/2000/svg"
   xmlns:sodipodi="http://sodipodi.sourceforge.net/DTD/sodipodi-0.dtd"
   xmlns:inkscape="http://www.inkscape.org/namespaces/inkscape"
   version="1.1"
   viewBox="-10 0 1410 2048"
   id="svg4"
   sodipodi:docname="QuiviraWMarshal.svg"
   inkscape:version="1.0.2 (e86c870879, 2021-01-15, custom)">
  <metadata
     id="metadata10">
    <rdf:RDF>
      <cc:Work
         rdf:about="">
        <dc:format>image/svg+xml</dc:format>
        <dc:type
           rdf:resource="http://purl.org/dc/dcmitype/StillImage" />
      </cc:Work>
    </rdf:RDF>
  </metadata>
  <defs
     id="defs8" />
  <sodipodi:namedview
     pagecolor="#ffffff"
     bordercolor="#666666"
     borderopacity="1"
     objecttolerance="10"
     gridtolerance="10"
     guidetolerance="10"
     inkscape:pageopacity="0"
     inkscape:pageshadow="2"
     inkscape:window-width="1281"
     inkscape:window-height="874"
     id="namedview6"
     showgrid="false"
     inkscape:zoom="0.390625"
     inkscape:cx="705"
     inkscape:cy="1012.48"
     inkscape:window-x="0"
     inkscape:window-y="0"
     inkscape:window-maximized="0"
     inkscape:current-layer="svg4" />
  <path
     fill="currentColor"
     d="M750 288h-100v150h-250v-130l-50 20v160h700v-160l-50 -20v130h-250v-150zM400 538l75 50h450l75 -50h-600zM450 950v-312l-150 -100v-250l150 -50v150h150v-150h200v150h150v-150l150 50v250l-150 100v347q-22 -37 -50 -64v-283h-400v242q-38 36 -50 70zM937 1538 l-15 -10h-384l-15 10h414zM892 1423l58 29v31l90 60v105h-620v-105l90 -60v-31l52 -26q0 -1 -4 -16q-2 -7 -2 -15q0 -9 3 -16q4 -13 14 -30q16 -16 50.5 -57.5t38.5 -49.5q2 -4 2 -8v-4q-1 -3 -4 -6q-9 -10 -25 -11h-3q-23 0 -98 71q-48 47 -83 47q-33 0 -53 -36 q-38 -69 -38 -111q0 -43 49.5 -100t53.5 -102.5t51 -87.5q18 -10 31 -15q0 -1 3 -6q22 -44 62 -90q34 40 52 70h8q23 0 37 2q17 -31 53 -72q40 46 63 90q7 15 11 25q67 39 107 110q39 75 39 155q0 81 -39 153.5t-49 106.5zM572 960.5q9 -5.5 20 -5.5t20 5.5t14.5 15 t5.5 19.5t-5.5 20.5t-15 15t-19.5 4.5t-19.5 -4.5t-15 -15t-5.5 -20.5t5.5 -19.5t14.5 -15zM593 863q15 -5 44 -5h-13q-3 -5 -14 -16q-11 11 -17 21zM990 1598v-10h-520v10h520zM890.5 1311q35.5 -61 35.5 -125q1 -8 1 -15q0 -60 -40 -144q-26 -46 -71 -77q-28 -68 -34 -77 q-11 -20 -22 -31q-11 11 -22 31q-6 9 -17 35l-22 -3q-19 -2 -37 -2q-52 0 -84 12.5t-44 18.5q-34 31 -38 69.5t-51 91.5q-25 32 -25 45q15 0 19 11v4q0 7 -6 16q-3 4 -3 9q0 4 3 10q6 8 6 14v2q-3 14 -19 14q0 10 16 39q12 20 28 20q24 0 60 -38q73 -75 106 -75h9q23 0 40 9 q25 17 27 44v9q0 17 -5 29q-9 14 -39.5 51t-42.5 49q-7 10 -9 18q-1 5 -1 10q0 4 1 8q2 7 5 10h231q9 -31 44.5 -92zM562 1478h336l-50 -25h-236z"
     id="path2" />
  <path
     style="fill:#ffffff;stroke-width:2.56"
     d="m 362.56353,408.0785 0.67647,-79.6015 21.6142,-8.7185 c 11.88781,-4.79517 21.96781,-8.7185 22.4,-8.7185 0.43219,0 0.7858,28.8 0.7858,64 v 64 H 534.76 661.48 V 363.52 288 h 48.64 48.64 v 75.52 75.52 h 126.72 126.72 v -64 c 0,-35.2 0.3536,-64 0.7858,-64 0.4322,0 10.5122,3.92333 22.4,8.7185 l 21.6142,8.7185 0.6765,79.6015 0.6764,79.6015 H 710.12 361.88706 Z"
     id="path12"
     transform="translate(-10)" />
  <path
     style="fill:#ffffff;stroke-width:2.56"
     d="M 450.29545,563.03709 414.47091,538.88 H 710.12174 1005.7726 L 969.34609,563.2 932.91956,587.52 709.51978,587.35709 486.12,587.19418 Z"
     id="path14"
     transform="translate(-10)" />
  <path
     style="fill:#ffffff;stroke-width:2.56"
     d="m 623.17007,1396.6483 c -6.61452,-12.3594 -1.20407,-30.1186 14.08976,-46.2483 15.76156,-16.623 65.47821,-77.9959 71.82268,-88.6618 7.79761,-13.1087 10.63731,-38.2446 6.17902,-54.6937 -4.03026,-14.8698 -22.8085,-34.1332 -37.14153,-38.1011 -5.632,-1.5592 -19.57242,-2.8413 -30.97872,-2.8491 -17.3083,-0.013 -22.76129,1.0611 -32.96635,6.4872 -18.67289,9.9285 -39.79447,27.1053 -75.74682,61.5999 -41.2168,39.5456 -56.02207,47.9158 -72.45048,40.96 -10.32639,-4.3723 -14.7665,-9.6002 -24.13834,-28.4214 -11.23213,-22.5571 -12.1962,-26.88 -5.99466,-26.88 12.53869,0 16.78826,-15.2481 8.87458,-31.8432 -4.02436,-8.4392 -4.01106,-9.4795 0.222,-17.3669 2.61206,-4.8669 4.14084,-12.1491 3.64079,-17.3424 -0.69523,-7.2205 -2.48758,-9.7168 -9.26456,-12.9034 l -8.40255,-3.951 6.70368,-12.6965 c 3.68703,-6.9831 13.27759,-20.7606 21.31237,-30.6166 30.5289,-37.4488 42.43981,-59.2897 47.90179,-87.8369 4.82281,-25.20656 12.78027,-42.1368 27.41174,-58.32105 10.13839,-11.21434 15.58202,-14.54951 38.91942,-23.84496 39.42703,-15.70405 60.55126,-19.05615 110.07611,-17.46745 22.528,0.72267 42.74903,2.05129 44.93563,2.9525 2.98657,1.23091 5.37213,-1.725 9.58917,-11.8818 3.08746,-7.43619 11.41274,-22.56356 18.50063,-33.61639 l 12.88709,-20.09605 7.86901,9.85605 c 9.24887,11.58435 23.14312,38.79181 36.79828,72.05771 6.62759,16.1457 12.31294,25.88292 17.67522,30.27212 19.01982,15.56831 43.81232,42.02302 54.88635,58.56622 13.65673,20.4014 30.2795,60.3197 40.60825,97.5175 6.32353,22.7735 7.03163,29.4131 6.93648,65.0425 -0.1472,55.1365 -5.23049,75.0447 -32.6528,127.8819 -28.87762,55.6414 -42.16978,82.9805 -44.11723,90.7398 l -1.67114,6.6583 H 740.65256 c -110.9114,0 -114.92291,-0.169 -117.48249,-4.9517 z M 623.08,1031.036 c 10.23863,-5.1147 20.51289,-22.7712 20.42378,-35.09844 -0.0852,-11.77958 -8.56045,-28.03182 -18.20547,-34.91082 -11.59426,-8.26924 -34.27883,-8.66896 -44.91059,-0.79135 -18.10008,13.41126 -23.88261,35.6084 -14.26374,54.75361 9.57977,19.0673 36.00594,26.5128 56.95602,16.047 z"
     id="path16"
     transform="translate(-10)" />
  <path
     style="fill:#ffffff;stroke-width:2.56"
     d="m 613.44104,851.99532 c 6.75707,-6.75706 6.98251,-6.79615 12.16232,-2.10848 6.46911,5.85447 3.02297,8.89597 -10.14518,8.95396 l -8.90182,0.0392 z"
     id="path18"
     transform="translate(-10)" />
  <path
     style="fill:#ffffff;stroke-width:2.56"
     d="m 600.04,1465.6 19.2,-9.9866 h 120.32 120.32 l 19.2,9.9866 19.2,9.9866 H 739.56 580.84 Z"
     id="path20"
     transform="translate(-10)" />
  <path
     style="fill:#ffffff;stroke-width:2.56"
     d="m 644.38927,1527.6808 c 53.2561,-0.3865 139.6561,-0.3863 192.00002,3e-4 52.34388,0.3867 8.77071,0.703 -96.82929,0.7027 -105.6,-2e-4 -148.42683,-0.3166 -95.17073,-0.703 z"
     id="path22"
     transform="translate(-10)" />
  <path
     style="fill:#ffffff;stroke-width:2.56"
     d="m 610.92,1586.5605 c 71.456,-0.3781 188.384,-0.3781 259.84,0 71.456,0.3781 12.992,0.6875 -129.92,0.6875 -142.912,0 -201.376,-0.3094 -129.92,-0.6875 z"
     id="path24"
     transform="translate(-10)" />
  <path
     style="fill:#ffffff;stroke-width:2.56"
     d="m 362.56353,408.0785 0.67647,-79.6015 21.6142,-8.7185 c 11.88781,-4.79517 21.96781,-8.7185 22.4,-8.7185 0.43219,0 0.7858,28.8 0.7858,64 v 64 H 534.76 661.48 V 363.52 288 h 48.64 48.64 v 75.52 75.52 h 126.72 126.72 v -64 c 0,-35.2 0.3536,-64 0.7858,-64 0.4322,0 10.5122,3.92333 22.4,8.7185 l 21.6142,8.7185 0.6765,79.6015 0.6764,79.6015 H 710.12 361.88706 Z"
     id="path26"
     transform="translate(-10)" />
  <path
     style="fill:#ffffff;stroke-width:2.56"
     d="M 450.29545,563.03709 414.47091,538.88 H 710.12174 1005.7726 L 969.34609,563.2 932.91956,587.52 709.51978,587.35709 486.12,587.19418 Z"
     id="path28"
     transform="translate(-10)" />
  <path
     style="fill:#ffffff;stroke-width:2.56"
     d="m 623.17007,1396.6483 c -7.06573,-13.2024 -1.39807,-29.4187 17.55859,-50.2386 18.09748,-19.8763 63.49835,-76.3269 69.31423,-86.1841 6.97608,-11.8236 9.40793,-36.866 5.08083,-52.3209 -4.41484,-15.7683 -22.75688,-35.0973 -37.00372,-38.9948 -5.632,-1.5407 -19.2063,-2.8078 -30.1651,-2.8156 -31.7753,-0.023 -49.56635,11.0157 -108.84846,67.5352 -18.51581,17.653 -37.36911,34.0117 -41.89622,36.3528 -26.94409,13.9333 -41.44181,7.4369 -56.80793,-25.4555 -9.83941,-21.062 -10.50861,-24.6868 -4.55766,-24.6868 2.81031,0 6.91994,-1.8103 9.13251,-4.0229 4.34796,-4.3479 5.51635,-20.3519 1.65982,-22.7354 -4.86751,-3.0083 -5.72982,-16.3117 -1.47791,-22.801 2.54026,-3.8769 3.85788,-10.1994 3.36715,-16.1571 -0.67555,-8.2017 -2.16792,-10.4282 -9.20875,-13.7392 l -8.40256,-3.9513 6.57123,-12.3588 c 3.61418,-6.7973 15.74175,-24.0037 26.95017,-38.2364 25.83814,-32.8099 37.48538,-54.887 42.33847,-80.2518 4.87948,-25.50277 12.79153,-42.38813 27.46971,-58.62405 10.13839,-11.21434 15.58202,-14.54951 38.91942,-23.84496 39.39324,-15.69059 60.54932,-19.0518 110.07611,-17.48856 22.528,0.71107 42.50342,1.71554 44.38981,2.23216 2.11735,0.57986 7.54668,-6.91522 14.18803,-19.58623 5.91701,-11.28905 14.54167,-26.02463 19.1659,-32.74573 l 8.40771,-12.22018 7.74779,9.70573 c 9.27626,11.62047 20.7179,33.89399 35.23169,68.58572 7.03099,16.80586 13.51309,28.11193 18.86961,32.9123 24.99932,22.40376 44.51246,43.37023 55.14084,59.2477 13.65673,20.4014 30.2795,60.3197 40.60825,97.5175 6.3201,22.7611 7.03268,29.4325 6.94728,65.0425 -0.14439,60.2158 -6.94894,82.7245 -47.67839,157.7159 -9.09419,16.7442 -19.90169,38.7819 -24.01669,48.9726 l -7.48183,18.5284 -114.46994,0.032 c -110.57008,0.03 -114.5602,-0.1372 -117.11999,-4.9202 z m -0.11394,-365.878 c 10.25794,-5.5014 20.50387,-22.8864 20.50387,-34.79051 0,-13.95269 -10.14743,-30.15381 -23.04,-36.78508 -20.16134,-10.36995 -39.64506,-4.84744 -53.34656,15.12068 -4.99752,7.28321 -5.816,11.16219 -4.95416,23.47901 1.19098,17.0206 6.94297,26.5415 20.0827,33.2416 11.43372,5.8302 29.60866,5.7117 40.75415,-0.2657 z"
     id="path30"
     transform="translate(-10)" />
</svg>
