<?xml version="1.0" encoding="UTF-8" standalone="no"?>
<svg
   xmlns:dc="http://purl.org/dc/elements/1.1/"
   xmlns:cc="http://creativecommons.org/ns#"
   xmlns:rdf="http://www.w3.org/1999/02/22-rdf-syntax-ns#"
   xmlns:svg="http://www.w3.org/2000/svg"
   xmlns="http://www.w3.org/2000/svg"
   xmlns:sodipodi="http://sodipodi.sourceforge.net/DTD/sodipodi-0.dtd"
   xmlns:inkscape="http://www.inkscape.org/namespaces/inkscape"
   version="1.1"
   viewBox="-10 0 1410 2048"
   id="svg29"
   sodipodi:docname="QuiviraBKing.svg"
   inkscape:version="1.0.2 (e86c870879, 2021-01-15, custom)">
  <metadata
     id="metadata35">
    <rdf:RDF>
      <cc:Work
         rdf:about="">
        <dc:format>image/svg+xml</dc:format>
        <dc:type
           rdf:resource="http://purl.org/dc/dcmitype/StillImage" />
      </cc:Work>
    </rdf:RDF>
  </metadata>
  <defs
     id="defs33" />
  <sodipodi:namedview
     pagecolor="#ffffff"
     bordercolor="#666666"
     borderopacity="1"
     objecttolerance="10"
     gridtolerance="10"
     guidetolerance="10"
     inkscape:pageopacity="0"
     inkscape:pageshadow="2"
     inkscape:window-width="1506"
     inkscape:window-height="951"
     id="namedview31"
     showgrid="false"
     inkscape:zoom="0.390625"
     inkscape:cx="705"
     inkscape:cy="1012.48"
     inkscape:window-x="0"
     inkscape:window-y="0"
     inkscape:window-maximized="0"
     inkscape:current-layer="svg29" />
  <path
     fill="currentColor"
     d="M850 1103l-150 -75l-150 75l150 75zM345 1272l75 -63l-75 -12v75zM1055 1197l-75 12l75 63v-75zM582 1012q58 -14 118 -14t118 14q-11 -33 -28 -67q-37 -71 -90 -133q-53 62 -89 133q-18 34 -29 67zM345 1389q45 -45 104 -77q121 -64 251 -64t250 64q59 32 105 77v-50 q-46 -45 -105 -77q-120 -64 -250 -64t-251 64q-59 32 -104 77v50zM705 564.5q-12 6.5 -18.5 18.5t-6.5 25t6.5 25t18.5 18.5t25 6.5t25 -6.5t18.5 -18.5t6.5 -25t-6.5 -25t-18.5 -18.5t-25 -6.5t-25 6.5zM850 488l-98 -100l98 -100h-104l-46 47l-46 -47h-104l98 100l-98 100 h104l46 -47l46 47h104zM304 1094q-66 -67 -108 -149q-39 -74 -39 -140v-12q4 -71 45 -110q40 -41 110 -45h11q65 0 140 39q81 42 148 108q7 8 14 15q-53 62 -89 133q-18 34 -28 67q-35 12 -69 30q-64 35 -109 89q-13 -12 -26 -25zM865 933q-37 -71 -90 -133q7 -6 14 -14 q67 -67 148 -109q75 -39 140 -39h11q70 4 110 45q41 39 45 110v12q0 66 -39 140q-42 82 -108 149q-13 13 -26 25q-45 -54 -110 -89q-33 -17 -67 -29q-10 -33 -28 -68zM649 928q20 -35 51 -66q31 31 52 66q10 17 16 34q-33 -7 -68 -7t-68 7q7 -17 17 -34zM850 632 q34 -22 71 -41q102 -53 192 -53h17q96 6 151 61q56 55 62 152v17q0 90 -53 192q-58 113 -150 205q-17 17 -35 33v250q-60 85 -155 135q-120 65 -250 65t-251 -65q-94 -50 -154 -135v-250q-18 -16 -35 -33q-92 -92 -150 -205q-53 -102 -53 -192v-17q6 -97 62 -152 q55 -55 152 -61h16q90 0 193 53q36 19 70 41q1 -36 20 -69q7 -14 17 -25h-87v-300h400v300h-87q10 11 18 25q18 33 19 69zM674 786q-25 -5 -49 -18q-36 -19 -55 -55q-9 -15 -14 -31q-37 -26 -77 -47q-91 -47 -170 -47h-14q-85 5 -133 54q-50 48 -55 133v15q0 79 47 169 q51 99 132 180q15 16 31 30q55 -65 132 -107q41 -22 84 -36q13 -40 34 -82q44 -85 107 -158zM844 682q-5 16 -13 31q-20 36 -56 55q-24 13 -49 18q64 73 108 158q22 42 34 82q41 14 82 36q78 42 133 107q16 -14 31 -30q81 -81 132 -180q47 -90 47 -169v-15q-5 -85 -55 -133 q-48 -49 -133 -54h-14q-79 0 -169 47q-41 21 -78 47z"
     id="path27" />
  <path
     style="fill:#ffffff;stroke-width:2.56"
     d="m 586.00735,464 c 12.63933,-13.024 34.39536,-35.40033 48.34672,-49.72518 L 659.7202,388.22964 611.92108,338.75482 564.12196,289.28 l 49.14926,-0.69692 49.14927,-0.69693 23.83587,25.01693 23.83588,25.01692 23.69388,-25.03458 23.69388,-25.03457 49.13752,0.71457 49.13753,0.71458 -47.62113,49.46082 -47.62112,49.46082 21.51513,22.21918 c 11.83332,12.22055 33.5953,34.60318 48.35995,49.73918 l 26.8448,27.52 H 806.93539 756.6381 L 733.24701,462.75696 709.85591,437.83393 686.7304,462.75696 663.60488,487.68 h -50.28906 -50.28907 z"
     id="path37"
     transform="translate(-10)" />
  <path
     style="fill:#ffffff;stroke-width:2.56"
     d="m 718.23078,651.14694 c -31.80517,-15.74315 -34.78837,-63.78229 -5.17771,-83.37769 20.46743,-13.54471 50.03313,-9.01779 64.30863,9.84653 31.38192,41.46953 -12.83062,96.44922 -59.13092,73.53116 z"
     id="path39"
     transform="translate(-10)" />
  <path
     style="fill:#ffffff;stroke-width:2.56"
     d="m 294.52705,1135.2399 c -37.78521,-39.4395 -62.35335,-69.7534 -89.5993,-110.5538 -38.22437,-57.24054 -67.67106,-121.51303 -80.06974,-174.7661 -6.71598,-28.8455 -6.762,-94.92049 -0.0838,-120.32 14.14218,-53.78769 48.16941,-96.37904 95.1058,-119.04243 29.61782,-14.30106 46.42193,-18.15494 86.01604,-19.72701 41.89017,-1.66325 71.71685,2.67208 113.66396,16.52113 31.91959,10.5384 89.24982,38.73463 121.6,59.80546 21.49243,13.99879 21.90707,14.46983 33.72012,38.30796 18.37245,37.07467 49.00382,63.96058 85.71914,75.23781 8.2284,2.52739 15.78977,5.3338 16.80304,6.23647 1.01328,0.90268 -4.59,9.68259 -12.45171,19.51092 -49.0252,61.28885 -85.2013,122.01292 -111.25862,186.75512 l -12.33411,30.64547 -34.01894,14.204 c -66.09459,27.5966 -110.96423,57.3993 -158.83654,105.5004 -12.32968,12.3886 -22.87012,22.5247 -23.42319,22.5247 -0.55307,0 -14.30154,-13.8781 -30.55214,-30.8401 z m 72.32867,-41.5893 c 38.51753,-37.4447 73.80178,-60.4087 126.53629,-82.3534 l 25.19199,-10.4832 8.4201,-21.77953 C 547.47084,926.0951 583.30738,866.43023 628.05239,810.79756 l 8.81239,-10.95668 -17.77239,-18.05536 c -35.54025,-36.10612 -88.4501,-75.26897 -137.53213,-101.79864 -110.49672,-59.72536 -213.38477,-57.37882 -274.5326,6.26117 -49.18877,51.19352 -54.66638,142.54285 -14.08002,234.81056 24.52417,55.75242 67.9884,119.24999 116.46224,170.14139 15.08752,15.84 28.08654,28.8 28.88671,28.8 0.80016,0 13.65177,-11.8572 28.55913,-26.3494 z"
     id="path41"
     transform="translate(-10)" />
  <path
     style="fill:#ffffff;stroke-width:2.56"
     d="m 596.30247,1004.4127 c 8.64923,-27.54648 39.77416,-87.19139 65.81355,-126.1189 16.23639,-24.27255 45.79371,-62.97323 48.00398,-62.8537 6.26253,0.33868 67.94603,90.98615 86.48568,127.0957 12.42737,24.20473 29.71143,64.7705 28.17668,66.1308 -0.4083,0.3619 -12.83836,-1.6987 -27.62236,-4.5792 -36.95989,-7.20103 -132.39137,-7.76645 -168.96,-1.001 -13.376,2.4746 -26.44973,5.1382 -29.05272,5.9192 -3.97963,1.1939 -4.43231,0.4631 -2.84481,-4.5929 z M 673,958.48611 c 23.50716,-3.07195 71.08581,-1.72007 93.44,2.65496 6.336,1.24004 11.94318,1.83542 12.46039,1.32306 0.51721,-0.51237 -2.6079,-8.5141 -6.9447,-17.78163 -9.7521,-20.83976 -29.55579,-49.74624 -47.64214,-69.5409 l -13.68866,-14.9816 -8.17098,7.68 c -18.68977,17.56673 -54.29995,71.14649 -60.14328,90.49272 -1.52226,5.03995 -1.05039,5.78231 2.91665,4.5885 C 647.83027,962.1379 660.328,960.1421 673,958.48611 Z"
     id="path43"
     transform="translate(-10)" />
  <path
     style="fill:#ffffff;stroke-width:2.56"
     d="m 1069.7576,1141.9989 c -45.0839,-45.5114 -106.47629,-84.8858 -171.88957,-110.2427 l -18.33198,-7.1062 -7.0817,-19.525 C 850.77644,945.35675 809.21384,874.2049 760.18664,812.93171 c -10.64473,-13.30357 -18.48839,-24.92516 -17.43035,-25.82577 1.05804,-0.90062 9.41171,-4.26066 18.56371,-7.46676 41.95041,-14.69596 77.61664,-48.28924 89.50097,-84.29911 4.31,-13.05944 7.972,-16.12276 46.76453,-39.11927 77.29693,-45.82223 140.4965,-66.1836 205.1898,-66.10717 37.7154,0.0446 69.4603,6.69881 98.2945,20.60414 18.6176,8.97836 26.1784,14.6487 45.4762,34.1055 26.2364,26.45269 35.8252,42.52494 46.0373,77.16556 9.0951,30.8516 11.1909,76.14658 5.2083,112.56501 -12.3364,75.09585 -62.9925,173.92926 -130.5575,254.72616 -16.912,20.2239 -65.7813,71.6907 -70.165,73.8943 -3.268,1.6427 -9.4748,-3.1696 -27.3115,-21.1754 z m 37.4885,-47.0262 c 54.4284,-56.7725 98.8249,-122.48031 123.8195,-183.25555 37.2997,-90.69584 28.6413,-180.12126 -22.2408,-229.70531 -25.5415,-24.88997 -54.6642,-38.09828 -96.1935,-43.62751 -70.4492,-9.37968 -160.39254,23.10123 -249.74296,90.18879 -24.6191,18.48493 -78.57673,67.32646 -78.48938,71.04727 0.0214,0.91278 8.23321,12.02761 18.24841,24.69961 37.29141,47.18397 77.26388,115.67217 91.88836,157.44 6.98127,19.9387 7.88458,20.9399 24.22427,26.8507 21.0432,7.6122 62.58228,29.0768 85.1188,43.9837 11.6153,7.683 33.5033,25.945 48.64,40.5822 15.1366,14.6372 28.2439,26.6605 29.1273,26.7183 0.8834,0.058 12.4034,-11.1572 25.6,-24.9222 z"
     id="path45"
     transform="translate(-10)" />
  <path
     style="fill:#ffffff;stroke-width:2.56"
     d="m 356.84,1233.8661 c 0,-25.9265 0.79565,-34.4929 3.2,-34.453 4.5926,0.076 64.00046,9.9668 64.77326,10.7839 0.35532,0.3756 -14.79331,13.6187 -33.66362,29.4291 L 356.84,1268.3722 Z"
     id="path47"
     transform="translate(-10)" />
  <path
     style="fill:#ffffff;stroke-width:2.56"
     d="m 635.8829,1139.3743 -72.9571,-36.6694 73.18369,-36.565 73.18369,-36.565 73.62003,36.7603 73.62003,36.7604 -72.56662,36.474 c -39.91164,20.0607 -73.14262,36.474 -73.84662,36.474 -0.704,0 -34.11069,-16.5012 -74.2371,-36.6693 z"
     id="path49"
     transform="translate(-10)" />
  <path
     style="fill:#ffffff;stroke-width:2.56"
     d="m 1028.4447,1239.2739 c -18.5213,-15.6166 -33.37512,-28.7081 -33.00835,-29.0922 1.39725,-1.463 65.88505,-11.1937 66.97305,-10.1056 0.6293,0.6292 0.8215,16.0948 0.4273,34.3679 l -0.7167,33.2239 z"
     id="path51"
     transform="translate(-10)" />
  <path
     style="fill:#ffffff;stroke-width:2.56"
     d="m 356.84,1360.9638 v -22.9559 l 23.68,-19.8698 c 88.9564,-74.6429 210.32861,-118.6668 327.40877,-118.7571 120.20802,-0.093 241.30754,43.603 333.07123,120.1802 l 22.4,18.6928 v 22.9514 22.9514 l -13.0449,-11.1184 C 970.98016,1305.3861 874.89804,1263.2512 770.74287,1250.42 c -41.2727,-5.0846 -123.58566,-1.821 -163.02287,6.4635 -89.21047,18.7403 -170.23013,57.623 -233.45475,112.0387 L 356.84,1383.9197 Z"
     id="path53"
     transform="translate(-10)" />
</svg>
