<?xml version="1.0" encoding="UTF-8" standalone="no"?>
<svg
   xmlns:dc="http://purl.org/dc/elements/1.1/"
   xmlns:cc="http://creativecommons.org/ns#"
   xmlns:rdf="http://www.w3.org/1999/02/22-rdf-syntax-ns#"
   xmlns:svg="http://www.w3.org/2000/svg"
   xmlns="http://www.w3.org/2000/svg"
   xmlns:sodipodi="http://sodipodi.sourceforge.net/DTD/sodipodi-0.dtd"
   xmlns:inkscape="http://www.inkscape.org/namespaces/inkscape"
   version="1.1"
   viewBox="-10 0 1410 2048"
   id="svg67"
   sodipodi:docname="QuiviraBKnight.svg"
   inkscape:version="1.0.2 (e86c870879, 2021-01-15, custom)">
  <metadata
     id="metadata73">
    <rdf:RDF>
      <cc:Work
         rdf:about="">
        <dc:format>image/svg+xml</dc:format>
        <dc:type
           rdf:resource="http://purl.org/dc/dcmitype/StillImage" />
      </cc:Work>
    </rdf:RDF>
  </metadata>
  <defs
     id="defs71" />
  <sodipodi:namedview
     pagecolor="#ffffff"
     bordercolor="#666666"
     borderopacity="1"
     objecttolerance="10"
     gridtolerance="10"
     guidetolerance="10"
     inkscape:pageopacity="0"
     inkscape:pageshadow="2"
     inkscape:window-width="849"
     inkscape:window-height="974"
     id="namedview69"
     showgrid="false"
     inkscape:zoom="0.390625"
     inkscape:cx="705"
     inkscape:cy="1012.48"
     inkscape:window-x="473"
     inkscape:window-y="0"
     inkscape:window-maximized="0"
     inkscape:current-layer="svg67" />
  <path
     fill="currentColor"
     d="M1150 1488l-75 -50h-650l-75 50h800zM1000 1288l100 50v50l150 100v150h-1000v-150l150 -100v-50l100 -50q-15 -14 -20 -35q-3 -10 -3 -20q0 -11 3 -22q6 -20 21 -44q25 -25 84.5 -96.5t66.5 -85.5q4 -11 4 -21v-7q-2 -13 -10 -21q-19 -21 -54 -23h-5q-45 0 -175 124 q-75 72 -127 72q-45 0 -73 -51q-62 -111 -62 -176t82.5 -160.5t89.5 -170.5t78 -140q26 -14 53 -25q4 -7 8 -15q36 -71 89 -133q44 52 77 109h23q36 0 71 5q33 -60 79 -114q53 62 90 133q12 23 20 46q114 64 176 179q64 121 64 251t-64.5 250t-85.5 191zM470 567 q0 13 6.5 25t18.5 18.5t25 6.5t25 -6.5t18.5 -18.5t6.5 -25t-6.5 -25t-18.5 -18.5t-25 -6.5t-25 6.5t-18.5 18.5t-6.5 25zM183 874q0 13 6.5 25t18.5 18.5t25 6.5t15 -7v-2q0 -6 -6 -16q-9 -12 -9 -25t9 -25q6 -10 6 -16v-3q-2 -6 -15 -6t-25 6.5t-18.5 18.5t-6.5 25z M600 367q-13 0 -25 1q68 3 133 24l4 -13q-55 -12 -112 -12zM1035.5 1117q64.5 -120 64.5 -250t-64 -251q-42 -77 -106 -131l26 84q16 22 30 47q64 121 64 251t-64.5 250t-85.5 196h-350l-100 50v25h600v-25l-100 -50q21 -76 85.5 -196z"
     id="path65" />
  <path
     style="fill:#ffffff;stroke-width:2.56"
     d="m 228.30588,920.34968 c -11.31326,-3.41032 -22.28294,-12.59666 -27.68384,-23.18329 -9.391,-18.40788 -4.93759,-46.2715 9.47924,-59.30876 C 224.41927,824.90977 257,821.06432 257,832.32226 c 0,1.98797 -3.456,10.09088 -7.68,18.00648 -9.85392,18.46584 -9.7248,28.31099 0.64,48.79745 8.12362,16.05667 8.20271,16.53109 3.35071,20.09932 -5.42194,3.98737 -14.19769,4.38191 -25.00483,1.12417 z"
     id="path75"
     transform="translate(-10)" />
  <path
     style="fill:#ffffff;stroke-width:2.56"
     d="m 515.02588,613.14968 c -36.79187,-11.09068 -44.52992,-64.74222 -12.40392,-86.0022 28.56673,-18.90456 65.3128,-4.54457 74.24074,29.01252 9.38841,35.28785 -25.91019,67.81953 -61.83682,56.98968 z"
     id="path77"
     transform="translate(-10)" />
  <path
     style="fill:#ffffff;stroke-width:2.56"
     d="M 712.42637,389.29303 C 710.64732,387.51398 669.47822,377.20194 649.96,373.64644 l -17.92,-3.26436 14.08,-0.22075 c 7.744,-0.12141 25.024,1.50297 38.4,3.60972 35.62493,5.61101 35.56904,5.59212 34.02455,11.49827 -1.27366,4.87049 -3.68533,6.45656 -6.11818,4.02371 z"
     id="path79"
     transform="translate(-10)" />
  <path
     style="fill:#ffffff;stroke-width:2.56"
     d="m 461.8,1375.1745 v -11.0656 l 49.98507,-24.7744 49.98508,-24.7745 h 174.991 174.99103 l 3.00639,-12.16 c 6.37744,-25.7951 32.92989,-86.9711 70.27873,-161.92 40.9575,-82.1905 55.518,-119.7716 65.4623,-168.96 26.2079,-129.63446 1.4499,-269.72149 -66.96057,-378.88 -13.6256,-21.74158 -18.90496,-33.44609 -27.6172,-61.22837 -5.9242,-18.89161 -11.39661,-36.17161 -12.1609,-38.4 -2.21268,-6.45145 36.52027,32.34602 54.73718,54.82837 60.13299,74.2129 99.91109,177.46876 108.62059,281.9574 6.118,73.39807 -7.4551,158.66181 -36.5914,229.8587 -5.8034,14.1812 -22.9593,49.9759 -38.1243,79.5439 -15.1649,29.568 -33.86672,68.2298 -41.55947,85.9152 -13.65793,31.399 -33.68089,86.5478 -31.97796,88.0761 0.46994,0.4218 23.03043,11.921 50.13443,25.5538 l 49.28,24.7869 v 11.354 11.354 H 760.04 461.8 Z"
     id="path81"
     transform="translate(-10)" />
  <path
     style="fill:#ffffff;stroke-width:2.56"
     d="m 400.36,1463.04 34.56,-23.0328 h 325.12 325.12 l 34.56,23.0328 34.56,23.0328 H 760.04 365.8 Z"
     id="path83"
     transform="translate(-10)" />
</svg>
