<?xml version="1.0" encoding="UTF-8" standalone="no"?>
<svg
   xmlns:dc="http://purl.org/dc/elements/1.1/"
   xmlns:cc="http://creativecommons.org/ns#"
   xmlns:rdf="http://www.w3.org/1999/02/22-rdf-syntax-ns#"
   xmlns:svg="http://www.w3.org/2000/svg"
   xmlns="http://www.w3.org/2000/svg"
   xmlns:sodipodi="http://sodipodi.sourceforge.net/DTD/sodipodi-0.dtd"
   xmlns:inkscape="http://www.inkscape.org/namespaces/inkscape"
   version="1.1"
   viewBox="-10 0 1410 2048"
   id="svg4"
   sodipodi:docname="QuiviraBMarshal.svg"
   inkscape:version="1.0.2 (e86c870879, 2021-01-15, custom)">
  <metadata
     id="metadata10">
    <rdf:RDF>
      <cc:Work
         rdf:about="">
        <dc:format>image/svg+xml</dc:format>
        <dc:type
           rdf:resource="http://purl.org/dc/dcmitype/StillImage" />
      </cc:Work>
    </rdf:RDF>
  </metadata>
  <defs
     id="defs8" />
  <sodipodi:namedview
     pagecolor="#ffffff"
     bordercolor="#666666"
     borderopacity="1"
     objecttolerance="10"
     gridtolerance="10"
     guidetolerance="10"
     inkscape:pageopacity="0"
     inkscape:pageshadow="2"
     inkscape:window-width="1314"
     inkscape:window-height="898"
     id="namedview6"
     showgrid="false"
     inkscape:zoom="0.390625"
     inkscape:cx="705"
     inkscape:cy="1012.48"
     inkscape:window-x="0"
     inkscape:window-y="0"
     inkscape:window-maximized="0"
     inkscape:current-layer="svg4" />
  <path
     fill="currentColor"
     d="M400 538l75 50h450l75 -50h-600zM450 949v-311l-150 -100v-250l150 -50v150h150v-150h200v150h150v-150l150 50v250l-150 100v347q-22 -37 -50 -64v-283h-50v244q-2 -6 -10 -18q-23 -46 -80 -112q-52 61 -63 81h-23q-13 -22 -64 -81q-54 64 -78 111q-10 4 -30 15 q-39 36 -52 71zM970 1548l-45 -30h-390l-45 30h480zM880 1428l60 30v30l90 60v90h-600v-90l90 -60v-30l60 -30q-9 -8 -12 -21q-1 -6 -1 -12q0 -7 1 -13q4 -12 13 -27q15 -15 50.5 -57.5t40.5 -51.5q2 -6 2 -12v-5q-1 -7 -6 -12q-11 -13 -32 -14h-3q-27 0 -105 74 q-45 44 -77 44q-27 0 -43 -31q-38 -67 -38 -106t49.5 -96t54 -102t46.5 -84q16 -9 32 -15q3 -4 5 -9q22 -43 53 -80q27 31 47 65h13q22 0 43 3q20 -36 47 -68q32 37 54 80q8 14 12 27q69 39 106 108q38 72 38 150t-38.5 150t-51.5 115zM562 995q0 8 4 15.5t11.5 11t14.5 3.5 q8 0 15.5 -3.5t11 -11t3.5 -15.5q0 -7 -3.5 -14.5t-11 -11.5t-15.5 -4q-7 0 -14.5 4t-11.5 11.5t-4 14.5zM390 1180q0 7 4 14.5t11 11.5t15 4t9 -5v-1q0 -3 -3 -9q-6 -8 -6 -15q0 -8 6 -15q3 -6 3 -10v-2q-1 -3 -9 -3t-15 3.5t-11 11t-4 15.5zM640 875q-7 0 -15 1 q41 2 80 14l3 -7q-33 -8 -68 -8zM901.5 1325q38.5 -72 38.5 -150t-38 -150q-25 -46 -64 -79l16 51q10 13 18 28q38 72 38 150t-38.5 150t-51.5 118h-210l-60 30v15h360v-15l-60 -30q13 -46 51.5 -118z"
     id="path2" />
  <path
     style="fill:#ffffff;stroke-width:2.56"
     d="m 590.79358,1021.622 c -22.33598,-9.5659 -21.39295,-43.17679 1.46807,-52.32396 9.4312,-3.77361 11.21956,-3.78399 20.38111,-0.11827 18.42657,7.37285 23.63281,32.54833 9.62727,46.55383 -6.69399,6.694 -22.63317,9.6758 -31.47645,5.8884 z"
     id="path12"
     transform="translate(-10)" />
  <path
     style="fill:#ffffff;stroke-width:2.56"
     d="m 414.47502,1202.7702 c -3.8805,-3.0524 -8.7006,-9.4872 -10.71132,-14.2996 -7.0108,-16.7791 5.7695,-36.4706 23.67046,-36.4706 11.08706,0 12.14977,2.3786 6.10318,13.6602 -6.30233,11.7588 -6.30233,17.2408 0,28.9996 2.75955,5.1487 4.41956,10.3286 3.68892,11.5108 -2.53145,4.0959 -15.72873,2.1235 -22.75124,-3.4004 z"
     id="path14"
     transform="translate(-10)" />
  <path
     style="fill:#ffffff;stroke-width:2.56"
     d="m 561.75766,1480.32 c 0.10744,-6.428 2.68273,-8.264 29.62369,-21.12 l 29.50603,-14.08 104.94757,-1.28 104.94758,-1.28 9.68612,-25.6 c 5.32736,-14.08 20.60853,-47.593 33.95817,-74.4734 36.62456,-73.746 45.61318,-106.8346 45.61318,-167.9097 0,-62.8146 -17.51322,-124.0101 -48.58747,-169.7769 -6.57986,-9.69093 -19.54038,-46.64549 -17.18525,-49.00061 2.56253,-2.56254 37.34392,38.46527 48.85429,57.62811 32.61696,54.3017 47.32053,113.149 44.2184,176.9725 -2.58642,53.2132 -10.23411,78.2219 -46.57964,152.32 -24.48358,49.9149 -43.60333,96.7402 -41.12192,100.7097 0.58115,0.9297 13.83324,7.9845 29.44912,15.6774 26.00988,12.8134 28.39247,14.5857 28.39247,21.12 v 7.1329 H 739.56 561.64 Z"
     id="path16"
     transform="translate(-10)" />
  <path
     style="fill:#ffffff;stroke-width:2.56"
     d="m 507.88,1545.2828 c 0,-0.5265 8.99477,-6.8625 19.98839,-14.08 L 547.85678,1518.08 H 740.41514 932.9735 l 21.03048,14.08 21.03045,14.08 H 741.45721 c -128.46746,0 -233.57721,-0.4308 -233.57721,-0.9572 z"
     id="path18"
     transform="translate(-10)" />
  <path
     style="fill:#ffffff;stroke-width:2.56"
     d="M 450.55756,563.67039 417.55512,541.44 563.83756,540.77903 c 80.45534,-0.36353 212.1099,-0.36353 292.56568,0 l 146.28326,0.66097 -33.62701,22.4 -33.62698,22.4 L 709.49626,586.07039 483.56,585.90078 Z"
     id="path20"
     transform="translate(-10)" />
</svg>
