<?xml version="1.0" standalone="no"?>
<!DOCTYPE svg PUBLIC "-//W3C//DTD SVG 1.1//EN" "http://www.w3.org/Graphics/SVG/1.1/DTD/svg11.dtd" >
<svg xmlns="http://www.w3.org/2000/svg" xmlns:xlink="http://www.w3.org/1999/xlink" version="1.1" viewBox="-10 0 1410 2048">
   <path fill="currentColor"
d="M1150 1488l-75 -50h-650l-75 50h800zM1000 1288l100 50v50l150 100v150h-1000v-150l150 -100v-50l100 -50q-15 -14 -20 -35q-3 -10 -3 -20q0 -11 3 -22q6 -20 21 -44q25 -25 84.5 -96.5t66.5 -85.5q4 -11 4 -21v-7q-2 -13 -10 -21q-19 -21 -54 -23h-5q-45 0 -175 124
q-75 72 -127 72q-45 0 -73 -51q-62 -111 -62 -176t82.5 -160.5t89.5 -170.5t78 -140q26 -14 53 -25q4 -7 8 -15q36 -71 89 -133q44 52 77 109h23q36 0 71 5q33 -60 79 -114q53 62 90 133q12 23 20 46q114 64 176 179q64 121 64 251t-64.5 250t-85.5 191zM470 567
q0 13 6.5 25t18.5 18.5t25 6.5t25 -6.5t18.5 -18.5t6.5 -25t-6.5 -25t-18.5 -18.5t-25 -6.5t-25 6.5t-18.5 18.5t-6.5 25zM183 874q0 13 6.5 25t18.5 18.5t25 6.5t15 -7v-2q0 -6 -6 -16q-9 -12 -9 -25t9 -25q6 -10 6 -16v-3q-2 -6 -15 -6t-25 6.5t-18.5 18.5t-6.5 25z
M600 367q-13 0 -25 1q68 3 133 24l4 -13q-55 -12 -112 -12zM1035.5 1117q64.5 -120 64.5 -250t-64 -251q-42 -77 -106 -131l26 84q16 22 30 47q64 121 64 251t-64.5 250t-85.5 196h-350l-100 50v25h600v-25l-100 -50q21 -76 85.5 -196z" />
</svg>
