<?xml version="1.0" encoding="UTF-8" standalone="no"?>
<svg
   xmlns:dc="http://purl.org/dc/elements/1.1/"
   xmlns:cc="http://creativecommons.org/ns#"
   xmlns:rdf="http://www.w3.org/1999/02/22-rdf-syntax-ns#"
   xmlns:svg="http://www.w3.org/2000/svg"
   xmlns="http://www.w3.org/2000/svg"
   xmlns:sodipodi="http://sodipodi.sourceforge.net/DTD/sodipodi-0.dtd"
   xmlns:inkscape="http://www.inkscape.org/namespaces/inkscape"
   version="1.1"
   viewBox="-10 0 1410 2048"
   id="svg4"
   sodipodi:docname="QuiviraWBishop.svg"
   inkscape:version="1.0.2 (e86c870879, 2021-01-15, custom)">
  <metadata
     id="metadata10">
    <rdf:RDF>
      <cc:Work
         rdf:about="">
        <dc:format>image/svg+xml</dc:format>
        <dc:type
           rdf:resource="http://purl.org/dc/dcmitype/StillImage" />
      </cc:Work>
    </rdf:RDF>
  </metadata>
  <defs
     id="defs8" />
  <sodipodi:namedview
     pagecolor="#ffffff"
     bordercolor="#666666"
     borderopacity="1"
     objecttolerance="10"
     gridtolerance="10"
     guidetolerance="10"
     inkscape:pageopacity="0"
     inkscape:pageshadow="2"
     inkscape:window-width="1399"
     inkscape:window-height="897"
     id="namedview6"
     showgrid="false"
     inkscape:zoom="0.390625"
     inkscape:cx="705"
     inkscape:cy="1012.48"
     inkscape:window-x="0"
     inkscape:window-y="0"
     inkscape:window-maximized="0"
     inkscape:current-layer="svg4" />
  <path
     fill="currentColor"
     d="M650 353q0 13 6.5 25t18.5 18.5t25 6.5t25 -6.5t18.5 -18.5t6.5 -25t-6.5 -25t-18.5 -18.5t-25 -6.5t-25 6.5t-18.5 18.5t-6.5 25zM776 1090l-75 -37l-75 37l75 38zM523 1175l38 -32l-38 -6v38zM878 1137l-37 6l37 32v-38zM878 1208q-23 -22 -52 -38q-60 -32 -125 -32 t-126 32q-29 16 -52 38v25q23 -22 52 -38q61 -32 126 -32t125 32q29 16 52 38v-25zM663 790h-178v-55h178v-177h75v177h177v55h-177v178h-75v-178zM602 1343q-14 -6 -27 -13q-47 -25 -77 -67v-125q4 -6 9 -12q-157 -89 -157 -223q0 -180 285 -442q-29 -16 -44 -45 q-16 -30 -16 -63t16 -63t46 -46t63 -16t63 16t46 46t16 63t-16 63q-15 29 -44 45q285 262 285 442q0 134 -156 223q5 6 9 12v125q-30 42 -77 67q-14 8 -28 14q61 103 158 103q30 0 63 -10q22 -3 42 -3q88 0 148 51q72 63 111 212l-50 130q-65 -249 -217 -249q-29 0 -62 9 q-22 3 -42 3q-88 0 -148 -51q-63 -55 -101 -176q-38 122 -102 176q-58 51 -146 51q-21 0 -44 -3q-33 -9 -62 -9q-151 0 -216 249l-50 -130q39 -149 111 -211q58 -51 146 -51q21 0 44 3q33 9 62 9q98 0 159 -104zM1000 890q0 -175 -300 -437q-300 262 -300 437q0 112 123 188 q8 3 16 3q17 0 36 -11q61 -32 126 -32t125 32q19 11 36 11q8 0 16 -3q122 -76 122 -188zM701 1333q7 0 16 26q42 114 108 170q47 41 117 41q27 0 57 -6q27 -6 51 -6q138 0 210 194l34 -88q-43 -113 -108 -170q-47 -41 -118 -41q-26 0 -56 6q-27 6 -51 6q-119 0 -189 -142 q26 -8 51 -22q31 -18 55 -43q-24 -26 -55 -43q-59 -32 -122 -32q-64 0 -123 32q-31 17 -55 43q24 25 55 43q25 13 50 21q-70 143 -189 143q-24 0 -51 -6q-30 -6 -56 -6q-71 0 -118 41q-65 57 -108 170l34 88q72 -194 210 -194q24 0 51 6q30 6 57 6q70 0 117 -41 q66 -56 108 -170q10 -26 18 -26z"
     id="path2" />
  <path
     style="fill:#ffffff;stroke-width:2.56"
     d="m 690.81409,397.10806 c -45.45264,-20.64627 -34.4657,-87.95369 14.99094,-91.83637 21.99506,-1.72676 38.87681,8.29601 48.07007,28.53945 6.04396,13.30869 6.05875,25.64183 0.0464,38.66886 -11.58363,25.09834 -38.74042,35.69645 -63.1074,24.62806 z"
     id="path12"
     transform="translate(-10)" />
  <path
     style="fill:#ffffff;stroke-width:2.56"
     d="M 533.48,1075.9468 C 507.76042,1062.4382 465.89969,1025.2024 447.74045,999.68 418.49113,958.57073 406.94563,913.51375 413.17299,864.7786 422.96853,788.11909 470.36884,703.10058 559.18917,602.88 585.63974,573.03445 657.1147,502.01912 690.28,472.63218 l 19.84,-17.57973 19.84,17.49128 c 36.2434,31.95281 127.42433,124.76706 153.38614,156.13374 47.86317,57.8276 80.44429,108.26161 100.96151,156.28353 35.12195,82.20536 31.26895,154.53547 -11.41701,214.3256 -14.70219,20.5933 -47.79374,52.0313 -71.01343,67.4649 -24.11082,16.026 -35.60082,16.4513 -63.34728,2.3452 -80.2155,-40.7812 -163.86265,-42.2713 -245.41916,-4.372 -33.16151,15.4102 -46.77794,17.9727 -59.63077,11.2221 z M 748.52,880.64 v -89.6 h 88.32 88.32 V 762.88 734.72 H 836.84 748.52 V 646.4 558.08 h -38.4 -38.4 v 88.32 88.32 h -89.6 -89.6 v 28.16 28.16 h 89.6 89.6 v 89.6 89.6 h 38.4 38.4 z"
     id="path14"
     transform="translate(-10)" />
  <path
     style="fill:#ffffff;stroke-width:2.56"
     d=""
     id="path16"
     transform="translate(-10)" />
  <path
     style="fill:#ffffff;stroke-width:2.56"
     d="m 674.37573,1107.7648 -34.46427,-17.9045 34.9946,-17.5331 34.9946,-17.5331 36.58967,17.4695 36.58967,17.4696 -36.44588,18.3334 c -20.04523,10.0834 -36.74923,18.169 -37.12,17.9681 -0.37077,-0.201 -16.18304,-8.4224 -35.13839,-18.2699 z"
     id="path18"
     transform="translate(-10)" />
  <path
     style="fill:#ffffff;stroke-width:2.56"
     d="m 870.41946,1157.8664 c -7.88492,-6.6295 -13.48195,-12.8482 -12.43784,-13.8194 1.04411,-0.9711 7.94638,-2.5671 15.33838,-3.5466 l 13.44,-1.7808 v 15.6002 c 0,8.5801 -0.45097,15.6002 -1.00215,15.6002 -0.55119,0 -7.45346,-5.4241 -15.33839,-12.0536 z"
     id="path20"
     transform="translate(-10)" />
  <path
     style="fill:#ffffff;stroke-width:2.56"
     d="m 533.48,1218.7671 c 0,-9.5633 1.08036,-11 18.55011,-24.6691 85.23924,-66.6951 207.07733,-72.2269 297.82565,-13.5221 29.66064,19.1873 36.90424,26.67 36.90424,38.1223 v 9.8478 l -18.56,-13.9678 c -70.88156,-53.3438 -161.07523,-66.7099 -247.20318,-36.6339 -26.95871,9.414 -44.45537,18.8334 -68.95682,37.123 l -18.56,13.8545 z"
     id="path22"
     transform="translate(-10)" />
  <path
     style="fill:#ffffff;stroke-width:2.56"
     d="m 147.53436,1740.8 c -1.48918,-3.52 -8.71443,-21.952 -16.05609,-40.96 l -13.34848,-34.56 4.42856,-12.8 c 7.13482,-20.622 33.83959,-72.4573 49.45771,-96 7.93954,-11.968 25.98891,-33.3024 40.10973,-47.4098 27.97878,-27.9522 48.2681,-40.2781 80.71421,-49.0341 23.36298,-6.3049 75.69447,-6.1338 104.96,0.343 26.01999,5.7586 71.67913,6.5995 92.16,1.6973 7.744,-1.8536 24.94543,-8.5706 38.22541,-14.9268 20.91443,-10.0101 27.4466,-14.8586 48.81584,-36.2331 24.21691,-24.2228 41.06604,-47.0221 54.84352,-74.2111 3.81671,-7.532 6.33414,-14.2998 5.59427,-15.0397 -0.73987,-0.7399 -10.89523,-5.2544 -22.5675,-10.0323 -23.10943,-9.4597 -47.52725,-24.7681 -66.83669,-41.9025 l -12.32514,-10.9368 9.76514,-10.1264 c 21.62458,-22.4246 63.91885,-45.4424 103.20515,-56.1674 18.84434,-5.1443 27.41983,-5.9166 64,-5.7632 38.43899,0.1612 44.30149,0.807 65.14916,7.1764 29.63161,9.053 59.4891,24.1154 82.44813,41.5929 26.45998,20.1427 26.36157,19.9535 16.00322,30.7677 -17.66423,18.4415 -58.41067,43.3898 -84.88051,51.9708 -5.28,1.7117 -9.6,4.3697 -9.6,5.9066 0,1.537 3.62214,9.2237 8.04918,17.0815 53.96457,95.785 124.75341,136.2442 213.39082,121.963 73.169,-11.7889 100.9196,-11.3649 139.7382,2.1349 57.2815,19.9205 114.5867,88.5966 153.3978,183.8361 l 5.9525,14.607 -14.8415,39.153 c -8.1628,21.5342 -15.6648,40.0705 -16.6711,41.1918 -1.0062,1.1214 -3.9052,-3.4866 -6.4422,-10.24 -14.4604,-38.4932 -45.1796,-89.6418 -69.8261,-116.2629 -25.1413,-27.1556 -59.3151,-47.9052 -92.7476,-56.3144 -18.7032,-4.7044 -70.3087,-4.1227 -93.44,1.0531 -124.54792,27.8688 -211.08316,-33.0553 -276.24653,-194.488 -7.16841,-17.7587 -15.11928,-33.5616 -17.66858,-35.1176 -6.71235,-4.0968 -14.68705,6.1217 -25.14662,32.2222 -14.72968,36.7558 -39.60512,84.4695 -56.20375,107.8046 -22.66535,31.864 -57.94952,64.8756 -81.87467,76.6014 -29.80462,14.6073 -47.2707,18.3142 -85.57985,18.163 -21.32751,-0.084 -40.17567,-1.6719 -52.48,-4.4209 -90.23628,-20.1602 -163.48699,10.7361 -216.61948,91.3678 -10.89155,16.5286 -37.56689,68.6604 -43.51051,85.0329 l -2.78803,7.68 z"
     id="path24"
     transform="translate(-10)" />
</svg>
