<?xml version="1.0" standalone="no"?>
<!DOCTYPE svg PUBLIC "-//W3C//DTD SVG 1.1//EN" "http://www.w3.org/Graphics/SVG/1.1/DTD/svg11.dtd" >
<svg xmlns="http://www.w3.org/2000/svg" xmlns:xlink="http://www.w3.org/1999/xlink" version="1.1" viewBox="-10 0 1410 2048">
   <path fill="currentColor"
d="M850 1103l-150 -75l-150 75l150 75zM675 294.5q-12 6.5 -18.5 18.5t-6.5 25t6.5 25t18.5 18.5t25 6.5t25 -6.5t18.5 -18.5t6.5 -25t-6.5 -25t-18.5 -18.5t-25 -6.5t-25 6.5zM973 298q-4 -1 -9 -1q-8 0 -17 3q-13 4 -21.5 15t-10.5 23q-1 4 -1 9q0 8 3 17q4 13 15 21.5
t24 10.5q5 1 10 1q7 0 15 -3q13 -4 21.5 -14.5t10.5 -23.5q1 -5 1 -10q0 -8 -2 -16q-5 -13 -15.5 -21.5t-23.5 -10.5zM1233 327q-8 -3 -17 -3q-4 0 -8 1q-14 2 -24.5 11t-14.5 21q-4 9 -4 18q0 4 1 7q2 14 11.5 24.5t21.5 14.5q9 4 18 4q4 0 8 -1q13 -2 23 -11.5t15 -21.5
q3 -8 3 -17q0 -4 -1 -9q-2 -13 -11 -23t-21 -15zM427 298q-13 2 -23.5 10.5t-14.5 21.5q-3 8 -3 16q0 5 1 10q2 13 10.5 23.5t21.5 14.5q8 3 15 3q5 0 10 -1q13 -2 24 -10.5t15 -21.5q3 -9 3 -17q0 -5 -1 -9q-2 -12 -10.5 -23t-21.5 -15q-9 -3 -17 -3q-5 0 -9 1zM167 327
q-12 5 -21 15t-11 23q-1 5 -1 9q0 9 3 17q5 12 15 21.5t24 11.5q3 1 7 1q9 0 18 -4q12 -4 21.5 -14.5t11.5 -24.5q1 -3 1 -7q0 -9 -4 -18q-4 -12 -14.5 -21t-23.5 -11q-5 -1 -9 -1q-9 0 -17 3zM455 1534q118 64 245 64t244 -64q63 -35 111 -86q-48 -51 -111 -86
q-117 -64 -244 -64t-245 64q-63 35 -110 86q47 51 110 86zM345 1272l75 -63l-75 -12v75zM1055 1197l-75 12l75 63v-75zM1055 1339q-46 -45 -105 -77q-120 -64 -250 -64t-251 64q-59 32 -104 77v50q45 -45 104 -77q121 -64 251 -64t250 64q59 32 105 77v-50zM615 858l76 -420
q-21 -2 -41 -13q-24 -13 -37 -37t-13 -50t13 -50t37 -37t50 -13t50 13t37 37t13 50t-13 50t-37 37q-20 11 -41 13l76 420l153 -414q-21 -6 -38 -20q-22 -17 -30 -43q-6 -16 -6 -32q0 -10 2 -19q4 -26 21 -47.5t43 -30.5q16 -5 33 -5q9 0 19 2q25 4 46.5 21t30.5 43
q5 18 5 35q0 8 -1 16q-5 26 -22 47.5t-43 29.5q-17 6 -34 6h-8l2 388l215 -370q-19 -9 -34 -26q-18 -21 -22 -48q-1 -8 -1 -16q0 -18 6 -35q9 -25 29.5 -43t47.5 -22q8 -1 16 -1q18 0 35 6q25 9 43 29.5t22 47.5q1 8 1 16q0 18 -6 35q-9 25 -29.5 43t-47.5 22q-8 1 -16 1
q-14 0 -27 -3l-85 501v476q-60 85 -155 135q-120 65 -250 65t-251 -65q-94 -50 -154 -135v-476l-85 -501q-13 3 -27 3q-8 0 -16 -1q-27 -4 -47.5 -22t-29.5 -43q-6 -17 -6 -35q0 -8 1 -16q4 -27 22 -47.5t43 -29.5q17 -6 35 -6q8 0 16 1q27 4 47.5 22t29.5 43q6 17 6 35
q0 8 -1 16q-4 27 -22 48q-15 17 -34 26l215 370l2 -388h-8q-17 0 -34 -6q-26 -8 -43 -29.5t-22 -47.5q-1 -8 -1 -16q0 -17 6 -35q8 -26 29.5 -43t46.5 -21q10 -2 19 -2q17 0 33 5q26 9 43 30.5t21 47.5q2 9 2 19q0 16 -5 32q-9 26 -31 43q-17 14 -38 20zM752 891l-52 -303
l-52 303q-30 3 -59 9l-110 -307l2 344q-11 3 -19 9l-192 -337l75 414v116q45 -45 104 -77q121 -64 251 -64t250 64q59 32 105 77v-116l75 -414l-192 337q-8 -6 -19 -9l2 -344l-110 307q-29 -6 -59 -9z" />
</svg>
