<?xml version="1.0" encoding="UTF-8" standalone="no"?>
<svg
   xmlns:dc="http://purl.org/dc/elements/1.1/"
   xmlns:cc="http://creativecommons.org/ns#"
   xmlns:rdf="http://www.w3.org/1999/02/22-rdf-syntax-ns#"
   xmlns:svg="http://www.w3.org/2000/svg"
   xmlns="http://www.w3.org/2000/svg"
   xmlns:sodipodi="http://sodipodi.sourceforge.net/DTD/sodipodi-0.dtd"
   xmlns:inkscape="http://www.inkscape.org/namespaces/inkscape"
   version="1.1"
   viewBox="-10 0 1410 2048"
   id="svg4"
   sodipodi:docname="QuiviraWPawn.svg"
   inkscape:version="1.0.2 (e86c870879, 2021-01-15, custom)">
  <metadata
     id="metadata10">
    <rdf:RDF>
      <cc:Work
         rdf:about="">
        <dc:format>image/svg+xml</dc:format>
        <dc:type
           rdf:resource="http://purl.org/dc/dcmitype/StillImage" />
      </cc:Work>
    </rdf:RDF>
  </metadata>
  <defs
     id="defs8" />
  <sodipodi:namedview
     pagecolor="#ffffff"
     bordercolor="#666666"
     borderopacity="1"
     objecttolerance="10"
     gridtolerance="10"
     guidetolerance="10"
     inkscape:pageopacity="0"
     inkscape:pageshadow="2"
     inkscape:window-width="1244"
     inkscape:window-height="974"
     id="namedview6"
     showgrid="false"
     inkscape:zoom="0.390625"
     inkscape:cx="705"
     inkscape:cy="1012.48"
     inkscape:window-x="0"
     inkscape:window-y="0"
     inkscape:window-maximized="0"
     inkscape:current-layer="svg4" />
  <path
     fill="currentColor"
     d="M998 1435q86 30 138 78q64 60 64 125h-1000q0 -65 65 -125q51 -48 137 -78q146 -221 185 -497h-187q0 -52 38.5 -100t111.5 -74q23 -8 46 -14q-45 -26 -70 -72q-26 -48 -26 -100t26 -100t74 -74t100 -26t100 26t74 74t26 100t-26 100q-25 46 -70 72q23 6 47 14 q72 26 110.5 74t38.5 100h-187q39 276 185 497zM625 447.5q-36 19.5 -55.5 55.5t-19.5 75t19.5 75t55.5 55.5t75 19.5t75 -19.5t55.5 -55.5t19.5 -75t-19.5 -75t-55.5 -55.5t-75 -19.5t-75 19.5zM584.5 801q-50.5 13 -77.5 37t-27 50h440q0 -26 -27 -50t-77.5 -37 t-115.5 -13t-115.5 13zM494.5 1457.5q-88.5 19.5 -151.5 55.5t-63 75h840q0 -39 -63 -75t-151.5 -55.5t-205.5 -19.5t-205.5 19.5zM773 938h-146q0 176 -155 475q156 -25 244 -25q105 0 212 25q-155 -299 -155 -475z"
     id="path2" />
  <path
     style="fill:#ffffff;stroke-width:2.56"
     d="m 671.90333,721.68712 c -40.30188,-10.83459 -75.24,-38.72113 -92.37357,-73.72973 -12.69517,-25.93974 -17.90053,-46.14521 -17.85192,-69.29524 0.11984,-57.07729 30.63353,-107.54711 79.62239,-131.69589 34.79542,-17.15221 64.3304,-21.46893 98.03561,-14.32851 36.62908,7.75984 70.20883,28.66261 89.40081,55.65032 27.35522,38.46688 36.01301,82.04798 24.91779,125.42985 -10.85558,42.4449 -35.86947,75.24497 -71.53276,93.79906 -11.02994,5.73839 -26.8006,12.19062 -35.04591,14.33823 -18.74147,4.88153 -56.70491,4.79664 -75.17244,-0.1682 z"
     id="path12"
     transform="translate(-10)" />
  <path
     style="fill:#ffffff;stroke-width:2.56"
     d="m 492.52,881.44825 c 0,-19.31824 27.69762,-48.61927 60.16,-63.64264 83.06572,-38.44226 237.4144,-37.69663 317.96396,1.53601 30.70615,14.95581 57.07604,43.64991 57.07604,62.10663 V 887.04 h -217.6 -217.6 z"
     id="path14"
     transform="translate(-10)" />
  <path
     style="fill:#ffffff;stroke-width:2.56"
     d="m 500.02983,1381.4595 c 23.23487,-46.3507 52.36785,-111.4963 72.27584,-161.6195 37.99343,-95.6576 59.75323,-181.2044 64.9537,-255.36 l 1.84019,-26.24 h 70.97318 70.97319 l 1.76051,27.23088 c 6.84531,105.88022 54.48407,250.70122 135.76356,412.71902 8.02094,15.9885 14.09354,29.5599 13.49468,30.1587 -0.59884,0.5989 -16.50939,-1.7523 -35.35675,-5.2249 -99.92837,-18.4115 -187.48313,-20.7154 -296.66793,-7.8065 -40.99119,4.8464 -104.87949,13.8323 -110.84631,15.5906 -3.52313,1.0382 -0.975,-5.8866 10.83614,-29.4483 z"
     id="path16"
     transform="translate(-10)" />
  <path
     style="fill:#ffffff;stroke-width:2.56"
     d="m 293.26584,1576.32 c 13.09625,-51.4961 132.54999,-108.387 267.09416,-127.2058 47.73832,-6.6772 87.14184,-9.0614 149.76,-9.0614 66.3498,0 103.50966,2.4588 157.44,10.4172 117.12794,17.2846 226.0849,65.162 252.2977,110.8637 4.1218,7.1865 7.5051,15.6583 7.5183,18.8263 l 0.024,5.76 H 709.1122 290.82441 Z"
     id="path18"
     transform="translate(-10)" />
</svg>
