<?xml version="1.0" encoding="UTF-8" standalone="no"?>
<svg
   xmlns:dc="http://purl.org/dc/elements/1.1/"
   xmlns:cc="http://creativecommons.org/ns#"
   xmlns:rdf="http://www.w3.org/1999/02/22-rdf-syntax-ns#"
   xmlns:svg="http://www.w3.org/2000/svg"
   xmlns="http://www.w3.org/2000/svg"
   xmlns:sodipodi="http://sodipodi.sourceforge.net/DTD/sodipodi-0.dtd"
   xmlns:inkscape="http://www.inkscape.org/namespaces/inkscape"
   version="1.1"
   viewBox="-10 0 1410 2048"
   id="svg4"
   sodipodi:docname="QuiviraWFairyKnight.svg"
   inkscape:version="1.0.2 (e86c870879, 2021-01-15, custom)">
  <metadata
     id="metadata10">
    <rdf:RDF>
      <cc:Work
         rdf:about="">
        <dc:format>image/svg+xml</dc:format>
        <dc:type
           rdf:resource="http://purl.org/dc/dcmitype/StillImage" />
        <dc:title />
      </cc:Work>
    </rdf:RDF>
  </metadata>
  <defs
     id="defs8" />
  <sodipodi:namedview
     pagecolor="#ffffff"
     bordercolor="#666666"
     borderopacity="1"
     objecttolerance="10"
     gridtolerance="10"
     guidetolerance="10"
     inkscape:pageopacity="0"
     inkscape:pageshadow="2"
     inkscape:window-width="1298"
     inkscape:window-height="922"
     id="namedview6"
     showgrid="false"
     inkscape:zoom="0.390625"
     inkscape:cx="705"
     inkscape:cy="1012.48"
     inkscape:window-x="138"
     inkscape:window-y="18"
     inkscape:window-maximized="0"
     inkscape:current-layer="svg4"
     inkscape:document-rotation="0" />
  <path
     fill="currentColor"
     d="m 250,388 75,50 h 650 l 75,-50 z M 400,588 300,538 V 488 L 150,388 V 238 h 1000 v 150 l -150,100 v 50 l -100,50 q 15,14 20,35 3,10 3,20 0,11 -3,22 -6,20 -21,44 -25,25 -84.5,96.5 Q 755,877 748,891 q -4,11 -4,21 v 7 q 2,13 10,21 19,21 54,23 h 5 q 45,0 175,-124 75,-72 127,-72 45,0 73,51 62,111 62,176 0,65 -82.5,160.5 -82.5,95.5 -89.5,170.5 -7,75 -78,140 -26,14 -53,25 -4,7 -8,15 -36,71 -89,133 -44,-52 -77,-109 h -23 q -36,0 -71,-5 -33,60 -79,114 -53,-62 -90,-133 -12,-23 -20,-46 Q 376,1395 314,1280 250,1159 250,1029 250,899 314.5,779 379,659 400,588 Z m 505,764.5 q -12,6.5 -25,6.5 -13,0 -25,-6.5 -12,-6.5 -18.5,-18.5 -6.5,-12 -6.5,-25 0,-13 6.5,-25 6.5,-12 18.5,-18.5 12,-6.5 25,-6.5 13,0 25,6.5 12,6.5 18.5,18.5 6.5,12 6.5,25 0,13 -6.5,25 -6.5,12 -18.5,18.5 z m 10,147.5 q -65,22 -110,22 h -7 q 21,35 52,66 31,-31 65,-88 z M 200,288 v 50 h 900 v -50 z m 150,200 v 25 l 100,50 h 400 l 100,-50 v -25 z m 16,288.5 Q 306,879 306,990 q -1,13 -1,26 0,104 69,248 45,81 120,133 45,109 54,125 21,35 52,66 31,-31 51,-66 10,-15 24,-49 l 25,3 q 31,4 63,4 91,0 145.5,-21.5 54.5,-21.5 78.5,-34.5 63,-56 69.5,-121 6.5,-65 79.5,-148 65,-72 73,-125 -6,10 -17,16 -12,6 -25,6 -13,0 -15,-6 v -3 q 0,-6 6,-16 9,-12 9,-25 0,-13 -9,-25 -6,-10 -6,-16 v -2 q 2,-7 15,-7 13,0 25,7 5,2 10,7 -13,-45 -47,-104 -25,-42 -61,-42 -47,0 -113,68 -116,120 -165,120 h -14 q -34,0 -58,-14 -34,-23 -38,-57 v -16 q 0,-24 8,-40 12,-21 62.5,-82 50.5,-61 71.5,-82 13,-21 18,-38 3,-10 3,-19 0,-8 -3,-17 -4,-18 -17,-30 H 444 q -18,61 -78,163.5 z"
     id="path2" />
  <path
     style="fill:#ffffff;stroke-width:2.56"
     d="m 212.2,313.6 v -24.32 h 448 448 v 24.32 24.32 h -448 -448 z"
     id="path62"
     transform="translate(-10)" />
  <path
     style="fill:#ffffff;stroke-width:2.56"
     d="M 300.53545,413.27709 264.71091,389.12 h 395.49083 395.49086 l -36.4265,24.32 -36.42654,24.32 L 659.59978,437.59709 336.36,437.43418 Z"
     id="path64"
     transform="translate(-10)" />
  <path
     style="fill:#ffffff;stroke-width:2.56"
     d="m 408.68,536.1705 -48,-24.19702 V 500.46674 488.96 H 660.2 959.72 v 11.50719 11.50719 L 911.1056,536.30719 862.4912,560.64 659.5856,560.50376 456.68,560.36752 Z"
     id="path66"
     transform="translate(-10)" />
  <path
     style="fill:#ffffff;stroke-width:2.56"
     d="m 595.83026,1569.8194 c -24.9395,-26.9376 -38.39586,-50.2605 -64.50154,-111.7954 -13.6008,-32.0591 -24.77505,-59.0216 -24.83167,-59.9166 -0.0566,-0.8951 -7.13233,-6.8114 -15.72379,-13.1474 -36.13283,-26.6471 -79.03381,-75.0909 -100.51299,-113.4992 -22.61764,-40.4441 -54.82105,-127.6284 -65.44649,-177.1833 -7.10739,-33.1473 -9.64777,-104.30796 -5.17098,-144.84807 7.24098,-65.57164 24.79623,-115.04848 66.64514,-187.82943 22.11484,-38.4607 48.19096,-91.56828 59.07781,-120.32 l 9.69345,-25.6 202.22514,-0.65537 202.22513,-0.65537 5.06099,7.10749 c 8.59865,12.0757 14.08494,32.71989 12.25108,46.09931 -2.64944,19.32971 -14.83251,41.66002 -35.37254,64.83423 -59.52504,67.15892 -111.57005,133.27368 -120.7156,153.34971 -4.14902,9.10776 -5.26382,16.88054 -5.324,37.12 -0.0678,22.82363 0.66078,27.0058 6.71838,38.56246 8.5151,16.24502 24.1064,30.48525 42.72499,39.02264 11.96711,5.4874 19.1241,6.7725 42.54723,7.6396 24.05181,0.8905 30.24074,0.2567 42.42268,-4.3439 29.65005,-11.19768 66.58586,-40.20627 129.09732,-101.39024 58.0748,-56.84161 86.4174,-76.24729 116.5787,-79.81945 33.3454,-3.94927 55.0868,13.81617 82.5471,67.4515 13.8325,27.0174 29.9942,63.86174 29.9942,68.3785 0,0.45332 -6.5808,-1.3974 -14.6239,-4.11277 -28.2093,-9.52341 -38.0416,0.58598 -25.2058,25.91616 8.3537,16.48527 8.3519,28.7705 -0.01,43.0328 -4.2623,7.2731 -6.2775,14.0692 -5.76,19.4249 0.7809,8.0805 1.0659,8.2521 14.9276,8.988 11.1938,0.5942 16.6859,-0.608 26.42,-5.7837 l 12.2886,-6.5339 -1.5794,5.7837 c -0.8686,3.181 -6.7291,16.1517 -13.0232,28.8237 -11.9642,24.0878 -28.6255,47.2753 -65.1175,90.6239 -41.6791,49.5104 -63.4571,91.1086 -70.4502,134.567 -6.9895,43.4354 -19.4597,69.1892 -50.6002,104.501 -12.4979,14.172 -19.14661,19.1982 -36.09474,27.2864 -31.68903,15.1232 -70.56192,30.0708 -92.85719,35.7061 -52.29417,13.2177 -124.20103,15.6634 -190.33467,6.4736 l -11.53699,-1.6032 -10.7155,22.6626 c -12.95631,27.4018 -32.05867,56.505 -50.16617,76.4301 l -13.41496,14.7615 -14.35912,-15.5096 z m 317.58971,-215.4671 c 43.68371,-22.2858 33.32244,-87.0609 -15.37234,-96.1023 -11.81609,-2.194 -29.41978,2.5252 -40.39186,10.8283 -19.17069,14.5073 -24.01306,48.0216 -9.99839,69.1992 12.98532,19.6221 43.96552,27.1948 65.76259,16.0748 z"
     id="path68"
     transform="translate(-10)" />
  <path
     style="fill:#ffffff;stroke-width:2.56"
     d="m 845.47097,1570.0903 c -6.85903,-8.0023 -17.41709,-21.5383 -23.46236,-30.08 l -10.99138,-15.5303 21.97971,-2.0163 c 19.19372,-1.7608 70.45266,-13.0876 84.11361,-18.5868 3.97406,-1.5997 3.59839,-0.072 -2.29828,9.3454 -18.74805,29.9425 -50.56436,71.4177 -54.78574,71.4177 -1.14652,0 -7.69652,-6.5474 -14.55556,-14.5497 z"
     id="path70"
     transform="translate(-10)" />
</svg>
