<?xml version="1.0" encoding="UTF-8" standalone="no"?>
<svg
   xmlns:dc="http://purl.org/dc/elements/1.1/"
   xmlns:cc="http://creativecommons.org/ns#"
   xmlns:rdf="http://www.w3.org/1999/02/22-rdf-syntax-ns#"
   xmlns:svg="http://www.w3.org/2000/svg"
   xmlns="http://www.w3.org/2000/svg"
   xmlns:sodipodi="http://sodipodi.sourceforge.net/DTD/sodipodi-0.dtd"
   xmlns:inkscape="http://www.inkscape.org/namespaces/inkscape"
   version="1.1"
   viewBox="-10 0 1410 2048"
   id="svg4"
   sodipodi:docname="QuiviraBFairyKnight.svg"
   inkscape:version="1.0.2 (e86c870879, 2021-01-15, custom)">
  <metadata
     id="metadata10">
    <rdf:RDF>
      <cc:Work
         rdf:about="">
        <dc:format>image/svg+xml</dc:format>
        <dc:type
           rdf:resource="http://purl.org/dc/dcmitype/StillImage" />
        <dc:title />
      </cc:Work>
    </rdf:RDF>
  </metadata>
  <defs
     id="defs8" />
  <sodipodi:namedview
     pagecolor="#ffffff"
     bordercolor="#666666"
     borderopacity="1"
     objecttolerance="10"
     gridtolerance="10"
     guidetolerance="10"
     inkscape:pageopacity="0"
     inkscape:pageshadow="2"
     inkscape:window-width="1273"
     inkscape:window-height="974"
     id="namedview6"
     showgrid="false"
     inkscape:zoom="0.390625"
     inkscape:cx="705"
     inkscape:cy="1024"
     inkscape:window-x="0"
     inkscape:window-y="0"
     inkscape:window-maximized="0"
     inkscape:current-layer="svg4"
     inkscape:document-rotation="0" />
  <path
     fill="currentColor"
     d="m 250,388 75,50 h 650 l 75,-50 z M 400,588 300,538 V 488 L 150,388 V 238 h 1000 v 150 l -150,100 v 50 l -100,50 q 15,14 20,35 3,10 3,20 0,11 -3,22 -6,20 -21,44 -25,25 -84.5,96.5 Q 755,877 748,891 q -4,11 -4,21 v 7 q 2,13 10,21 19,21 54,23 h 5 q 45,0 175,-124 75,-72 127,-72 45,0 73,51 62,111 62,176 0,65 -82.5,160.5 -82.5,95.5 -89.5,170.5 -7,75 -78,140 -26,14 -53,25 -4,7 -8,15 -36,71 -89,133 -44,-52 -77,-109 h -23 q -36,0 -71,-5 -33,60 -79,114 -53,-62 -90,-133 -12,-23 -20,-46 Q 376,1395 314,1280 250,1159 250,1029 250,899 314.5,779 379,659 400,588 Z m 530,721 q 0,-13 -6.5,-25 -6.5,-12 -18.5,-18.5 -12,-6.5 -25,-6.5 -13,0 -25,6.5 -12,6.5 -18.5,18.5 -6.5,12 -6.5,25 0,13 6.5,25 6.5,12 18.5,18.5 12,6.5 25,6.5 13,0 25,-6.5 12,-6.5 18.5,-18.5 6.5,-12 6.5,-25 z m 287,-307 q 0,-13 -6.5,-25 -6.5,-12 -18.5,-18.5 -12,-6.5 -25,-6.5 -13,0 -15,7 v 2 q 0,6 6,16 9,12 9,25 0,13 -9,25 -6,10 -6,16 v 3 q 2,6 15,6 13,0 25,-6.5 12,-6.5 18.5,-18.5 6.5,-12 6.5,-25 z m -417,507 q 13,0 25,-1 -68,-3 -133,-24 l -4,13 q 55,12 112,12 z M 364.5,759 Q 300,879 300,1009 q 0,130 64,251 42,77 106,131 l -26,-84 q -16,-22 -30,-47 -64,-121 -64,-251 0,-130 64.5,-250 Q 479,639 500,563 H 850 L 950,513 V 488 H 350 v 25 l 100,50 q -21,76 -85.5,196 z"
     id="path2" />
  <path
     style="fill:#ffffff;stroke-width:2.56"
     d="m 302.40758,414.95275 c -17.26584,-11.66234 -32.14584,-21.95767 -33.06667,-22.87851 -0.92083,-0.92083 175.06176,-1.67263 391.07241,-1.67065 l 392.74668,0.004 -34.56,23.03282 -34.56,23.03282 -325.12,-0.1579 -325.12,-0.1579 -31.39242,-21.20426 z"
     id="path7"
     transform="translate(-10)" />
  <path
     style="fill:#ffffff;stroke-width:2.56"
     d="M 455.99192,1366.7458 C 364.66176,1274.7063 312.04,1143.9619 312.04,1009.0817 c 0,-91.97581 16.85572,-155.53067 68.01224,-256.4417 42.30598,-83.45252 73.31618,-154.92846 79.09876,-182.31612 l 1.73896,-8.23612 -50.10498,-25.0134 L 360.68,512.06097 V 501.15048 490.24 H 660.2 959.72 v 10.91212 10.91212 l -48,24.28788 -48,24.28788 -177.3364,1.28 -177.3364,1.28 -9.20313,26.8422 C 486.47483,629.03547 466.53123,673.63201 434.94431,735.16668 381.88216,838.5374 364.50146,896.33201 359.246,986.88 c -5.60822,96.6259 26.00583,217.4132 77.85157,297.4461 13.49682,20.8348 17.80974,30.5267 27.28612,61.3171 6.1905,20.1141 10.77006,37.0564 10.1768,37.6497 -0.59326,0.5932 -8.94912,-6.853 -18.56857,-16.5471 z"
     id="path9"
     transform="translate(-10)" />
  <path
     style="fill:#ffffff;stroke-width:2.56"
     d="m 871.4,1353.3784 c -26.48061,-12.6527 -36.48141,-39.7015 -24.46475,-66.1691 10.10495,-22.2569 41.31741,-32.9349 63.37595,-21.6815 27.99859,14.2838 36.43668,47.1476 18.55386,72.2617 -12.36076,17.3591 -38.76765,24.5226 -57.46506,15.5889 z"
     id="path11"
     transform="translate(-10)" />
  <path
     style="fill:#ffffff;stroke-width:2.56"
     d="m 1167.72,1049.1846 c -4.9125,-1.9823 -3.8367,-10.0183 3.2,-23.9046 8.3848,-16.5466 8.3371,-30.96185 -0.1552,-46.91467 -9.2407,-17.35854 -7.8396,-23.27626 5.745,-24.26421 18.4661,-1.34296 37.4162,11.493 45.488,30.81159 9.6576,23.11389 -1.6555,50.38249 -25.3719,61.15539 -9.9417,4.5159 -22.1704,5.8343 -28.9059,3.1165 z"
     id="path13"
     transform="translate(-10)" />
  <path
     style="fill:#ffffff;stroke-width:2.56"
     d="m 739.56,1502.807 c -31.57732,-4.6321 -38.4,-6.4762 -38.4,-10.3793 0,-6.0451 3.26463,-6.0171 26.88344,0.2309 12.67011,3.3517 32.25256,7.7473 43.51656,9.768 l 20.48,3.6739 -15.36,-0.051 c -8.448,-0.028 -25.152,-1.4872 -37.12,-3.2428 z"
     id="path15"
     transform="translate(-10)" />
</svg>
