<?xml version="1.0" standalone="no"?>
<!DOCTYPE svg PUBLIC "-//W3C//DTD SVG 1.1//EN" "http://www.w3.org/Graphics/SVG/1.1/DTD/svg11.dtd" >
<svg xmlns="http://www.w3.org/2000/svg" xmlns:xlink="http://www.w3.org/1999/xlink" version="1.1" viewBox="-10 0 1410 2048">
   <path fill="currentColor"
d="M1150 1488l-75 -50h-650l-75 50h800zM1000 1288l100 50v50l150 100v150h-1000v-150l150 -100v-50l100 -50q-15 -14 -20 -35q-3 -10 -3 -20q0 -11 3 -22q6 -20 21 -44q25 -25 84.5 -96.5t66.5 -85.5q4 -11 4 -21v-7q-2 -13 -10 -21q-19 -21 -54 -23h-5q-45 0 -175 124
q-75 72 -127 72q-45 0 -73 -51q-62 -111 -62 -176t82.5 -160.5t89.5 -170.5t78 -140q26 -14 53 -25q4 -7 8 -15q36 -71 89 -133q44 52 77 109h23q36 0 71 5q33 -60 79 -114q53 62 90 133q12 23 20 46q114 64 176 179q64 121 64 251t-64.5 250t-85.5 191zM495 523.5
q12 -6.5 25 -6.5t25 6.5t18.5 18.5t6.5 25t-6.5 25t-18.5 18.5t-25 6.5t-25 -6.5t-18.5 -18.5t-6.5 -25t6.5 -25t18.5 -18.5zM485 376q65 -22 110 -22h7q-21 -35 -52 -66q-31 31 -65 88zM1200 1588v-50h-900v50h900zM1050 1388v-25l-100 -50h-400l-100 50v25h600z
M1034 1099.5q60 -102.5 60 -213.5q1 -13 1 -26q0 -104 -69 -248q-45 -81 -120 -133q-45 -109 -54 -125q-21 -35 -52 -66q-31 31 -51 66q-10 15 -24 49l-25 -3q-31 -4 -63 -4q-91 0 -145.5 21.5t-78.5 34.5q-63 56 -69.5 121t-79.5 148q-65 72 -73 125q6 -10 17 -16
q12 -6 25 -6t15 6v3q0 6 -6 16q-9 12 -9 25t9 25q6 10 6 16v2q-2 7 -15 7t-25 -7q-5 -2 -10 -7q13 45 47 104q25 42 61 42q47 0 113 -68q116 -120 165 -120h14q34 0 58 14q34 23 38 57v16q0 24 -8 40q-12 21 -62.5 82t-71.5 82q-13 21 -18 38q-3 10 -3 19q0 8 3 17
q4 18 17 30h405q18 -61 78 -163.5z" />
</svg>
