<?xml version="1.0" encoding="UTF-8" standalone="no"?>
<svg
   xmlns:dc="http://purl.org/dc/elements/1.1/"
   xmlns:cc="http://creativecommons.org/ns#"
   xmlns:rdf="http://www.w3.org/1999/02/22-rdf-syntax-ns#"
   xmlns:svg="http://www.w3.org/2000/svg"
   xmlns="http://www.w3.org/2000/svg"
   xmlns:sodipodi="http://sodipodi.sourceforge.net/DTD/sodipodi-0.dtd"
   xmlns:inkscape="http://www.inkscape.org/namespaces/inkscape"
   version="1.1"
   viewBox="-10 0 1410 2048"
   id="svg4"
   sodipodi:docname="QuiviraWFairyBishop.svg"
   inkscape:version="1.0.2 (e86c870879, 2021-01-15, custom)">
  <metadata
     id="metadata10">
    <rdf:RDF>
      <cc:Work
         rdf:about="">
        <dc:format>image/svg+xml</dc:format>
        <dc:type
           rdf:resource="http://purl.org/dc/dcmitype/StillImage" />
        <dc:title />
      </cc:Work>
    </rdf:RDF>
  </metadata>
  <defs
     id="defs8" />
  <sodipodi:namedview
     pagecolor="#ffffff"
     bordercolor="#666666"
     borderopacity="1"
     objecttolerance="10"
     gridtolerance="10"
     guidetolerance="10"
     inkscape:pageopacity="0"
     inkscape:pageshadow="2"
     inkscape:window-width="1348"
     inkscape:window-height="930"
     id="namedview6"
     showgrid="false"
     inkscape:zoom="0.390625"
     inkscape:cx="705"
     inkscape:cy="1012.48"
     inkscape:window-x="0"
     inkscape:window-y="0"
     inkscape:window-maximized="0"
     inkscape:current-layer="svg4"
     inkscape:document-rotation="0" />
  <path
     fill="currentColor"
     d="m 650,1702 q 0,-13 6.5,-25 6.5,-12 18.5,-18.5 12,-6.5 25,-6.5 13,0 25,6.5 12,6.5 18.5,18.5 6.5,12 6.5,25 0,13 -6.5,25 -6.5,12 -18.5,18.5 -12,6.5 -25,6.5 -13,0 -25,-6.5 -12,-6.5 -18.5,-18.5 -6.5,-12 -6.5,-25 z m 126,-737 -75,37 -75,-37 75,-38 z m -253,-85 38,32 -38,6 z m 355,38 -37,-6 37,-32 z m 0,-71 q -23,22 -52,38 -60,32 -125,32 -65,0 -126,-32 -29,-16 -52,-38 v -25 q 23,22 52,38 61,32 126,32 65,0 125,-32 29,-16 52,-38 z M 663,1265 H 485 v 55 h 178 v 177 h 75 v -177 h 177 v -55 H 738 V 1087 H 663 Z M 602,712 q -14,6 -27,13 -47,25 -77,67 v 125 q 4,6 9,12 -157,89 -157,223 0,180 285,442 -29,16 -44,45 -16,30 -16,63 0,33 16,63 16,30 46,46 30,16 63,16 33,0 63,-16 30,-16 46,-46 16,-30 16,-63 0,-33 -16,-63 -15,-29 -44,-45 285,-262 285,-442 0,-134 -156,-223 5,-6 9,-12 V 792 q -30,-42 -77,-67 -14,-8 -28,-14 61,-103 158,-103 30,0 63,10 22,3 42,3 88,0 148,-51 72,-63 111,-212 l -50,-130 q -65,249 -217,249 -29,0 -62,-9 -22,-3 -42,-3 -88,0 -148,51 -63,55 -101,176 -38,-122 -102,-176 -58,-51 -146,-51 -21,0 -44,3 -33,9 -62,9 -151,0 -216,-249 L 80,358 q 39,149 111,211 58,51 146,51 21,0 44,-3 33,-9 62,-9 98,0 159,104 z m 398,453 q 0,175 -300,437 -300,-262 -300,-437 0,-112 123,-188 8,-3 16,-3 17,0 36,11 61,32 126,32 65,0 125,-32 19,-11 36,-11 8,0 16,3 122,76 122,188 z M 701,722 q 7,0 16,-26 42,-114 108,-170 47,-41 117,-41 27,0 57,6 27,6 51,6 138,0 210,-194 l 34,88 q -43,113 -108,170 -47,41 -118,41 -26,0 -56,-6 -27,-6 -51,-6 -119,0 -189,142 26,8 51,22 31,18 55,43 -24,26 -55,43 -59,32 -122,32 -64,0 -123,-32 -31,-17 -55,-43 24,-25 55,-43 25,-13 50,-21 -70,-143 -189,-143 -24,0 -51,6 -30,6 -56,6 -71,0 -118,-41 -65,-57 -108,-170 l 34,-88 q 72,194 210,194 24,0 51,-6 30,-6 57,-6 70,0 117,41 66,56 108,170 10,26 18,26 z"
     id="path2" />
  <path
     style="fill:#ffffff;stroke-width:2.56"
     d="M 681.96,868.88003 C 630.29388,861.95996 572.11977,835.20202 543.86095,805.35959 l -7.53907,-7.96155 10.00113,-10.2421 c 18.54838,-18.99525 51.44366,-38.18521 89.14747,-52.0055 4.3256,-1.58556 3.93618,-3.13787 -4.76616,-18.99853 -30.86592,-56.25556 -64.3841,-90.99543 -106.87665,-110.7722 -35.84207,-16.68152 -74.85245,-19.63868 -130.86328,-9.92 -61.60705,10.68969 -111.84402,2.77773 -151.72367,-23.8954 -41.02396,-27.4385 -83.8096,-86.30114 -113.33457,-155.92082 l -10.46505,-24.67652 16.42417,-41.88348 c 12.36414,-31.52998 16.88291,-40.61784 18.27995,-36.76349 20.4841,56.51426 59.38388,116.4611 93.73731,144.45469 43.68417,35.59694 95.51129,47.99537 155.75747,37.26134 56.41672,-10.05173 94.66271,-9.33463 128.4287,2.40803 26.58104,9.24397 43.96429,20.70828 68.76598,45.35135 34.72407,34.50199 61.55545,77.80075 87.0307,140.44459 21.48201,52.82437 27.25494,53.5721 45.8198,5.93469 C 755.61312,626.77565 786.71886,575.9818 821.54433,541.44 873.88159,489.52905 924.78109,477.28278 1018.6,494.02896 c 86.2954,15.40327 151.9798,-15.10819 206.649,-95.99191 8.2328,-12.18042 33.3795,-61.52466 39.1168,-76.75705 1.8561,-4.928 4.0542,-9.76562 4.8845,-10.75027 0.8303,-0.98465 8.6482,16.8112 17.373,39.54633 l 15.8633,41.3366 -7.6536,18.3847 c -29.8951,71.8113 -77.3382,137.47601 -117.9848,163.29968 -41.0506,26.08038 -89.0001,32.97556 -152.1566,21.88027 -44.55176,-7.82682 -86.43566,-6.11531 -115.39111,4.71526 -47.94176,17.93226 -86.2442,54.82417 -121.04143,116.58396 -4.59763,8.16008 -7.93178,15.19639 -7.4092,15.63623 0.52257,0.43983 10.53309,4.90263 22.2456,9.91733 26.96758,11.54614 45.05114,22.4874 66.34655,40.14226 l 16.85355,13.97238 -16.66457,15.46762 c -17.44172,16.18896 -51.58748,35.92617 -78.0319,45.10462 -33.78329,11.72564 -77.55067,16.66091 -109.63909,12.36306 z"
     id="path36"
     transform="translate(-10)" />
  <path
     style="fill:#ffffff;stroke-width:2.56"
     d="m 664.3612,911.39024 c -41.33286,-8.60765 -82.27603,-27.04294 -112.24654,-50.54073 -16.58747,-13.00508 -17.20802,-13.89826 -17.28,-24.8717 l -0.0747,-11.38218 8.32,7.92299 c 21.16995,20.15977 66.53747,43.18194 105.6,53.58771 14.45984,3.85193 26.81755,4.74635 64,4.63217 42.64759,-0.13097 47.79621,-0.66264 69.12,-7.13773 29.36891,-8.91805 64.47885,-26.27835 85.76,-42.40451 l 16.64,-12.60924 0.83244,9.38223 c 0.72565,8.17883 -0.42358,10.45935 -8.96,17.77987 -25.42974,21.80762 -64.48896,41.64402 -102.01209,51.80732 -26.64953,7.21813 -83.84892,9.21715 -109.69915,3.8338 z"
     id="path38"
     transform="translate(-10)" />
  <path
     style="fill:#ffffff;stroke-width:2.56"
     d="m 534.76,899.91986 v -15.87009 l 10.5235,8.53511 c 5.78792,4.69432 12.97071,10.47233 15.96175,12.84003 2.99104,2.36771 4.87947,4.84853 4.1965,5.51295 -0.68296,0.66442 -7.86575,2.02795 -15.96175,3.03006 l -14.72,1.82202 z"
     id="path40"
     transform="translate(-10)" />
  <path
     style="fill:#ffffff;stroke-width:2.56"
     d="m 673.79966,982.2663 -33.76033,-17.1463 35.27409,-18.1406 35.2741,-18.1406 36.48497,18.27729 36.48498,18.27728 -36.71874,17.20347 c -20.1953,9.46191 -37.29473,17.11623 -37.99873,17.00961 -0.704,-0.10662 -16.47215,-7.90969 -35.04034,-17.34015 z"
     id="path42"
     transform="translate(-10)" />
  <path
     style="fill:#ffffff;stroke-width:2.56"
     d="m 886.32004,898.56 c 0.0114,-9.856 0.47407,-13.57431 1.02824,-8.2629 0.55418,5.3114 0.54489,13.3754 -0.0207,17.92 -0.56553,4.54459 -1.01895,0.1989 -1.00759,-9.6571 z"
     id="path44"
     transform="translate(-10)" />
  <path
     style="fill:#ffffff;stroke-width:2.56"
     d="m 662.76,1556.8558 c -175.59001,-163.7456 -256.06096,-293.3056 -250.24074,-402.893 3.43066,-64.5951 38.76637,-119.4419 106.97986,-166.05007 23.87148,-16.31066 33.73857,-16.15467 71.0573,1.12336 50.20678,23.24501 82.10279,30.01471 131.69552,27.95141 43.40821,-1.806 76.34983,-10.8376 119.49356,-32.7617 16.88215,-8.57889 35.73678,-10.58143 46.64778,-4.95444 12.49221,6.44243 44.7998,32.15374 60.79508,48.38254 42.56832,43.1898 61.75874,92.4611 58.35994,149.8387 -5.229,88.2723 -66.07291,192.6113 -183.28683,314.3116 -33.35255,34.6291 -110.83766,106.945 -114.51211,106.8727 -1.20414,-0.024 -22.34936,-18.8432 -46.98936,-41.8211 z M 749.8,1410.56 v -88.32 h 88.32 88.32 v -29.44 -29.44 H 838.12 749.8 v -88.32 -88.32 H 711.4 673 v 88.32 88.32 h -89.6 -89.6 v 29.44 29.44 h 89.6 89.6 v 88.32 88.32 h 38.4 38.4 z"
     id="path46"
     transform="translate(-10)" />
  <path
     style="fill:#ffffff;stroke-width:2.56"
     d="m 689.64,1745.7423 c -34.73106,-18.0263 -37.37216,-66.6238 -4.60648,-84.7615 20.95925,-11.6021 39.89229,-9.6502 57.08877,5.8858 24.55654,22.1854 19.19087,62.7577 -10.28861,77.797 -12.05553,6.1503 -31.46626,6.6465 -42.19368,1.0787 z"
     id="path48"
     transform="translate(-10)" />
  <path
     style="fill:#ffffff;stroke-width:2.56"
     d="m 673.80488,982.2663 -33.75511,-17.1463 35.17767,-18.18629 35.17768,-18.18628 36.56019,18.31496 36.56018,18.31497 -35.9683,17.15132 c -19.78256,9.43322 -36.87479,17.09115 -37.98274,17.01762 -1.10795,-0.0735 -17.20425,-7.84954 -35.76957,-17.28 z"
     id="path50"
     transform="translate(-10)" />
</svg>
