<?xml version="1.0" standalone="no"?>
<!DOCTYPE svg PUBLIC "-//W3C//DTD SVG 1.1//EN" "http://www.w3.org/Graphics/SVG/1.1/DTD/svg11.dtd" >
<svg xmlns="http://www.w3.org/2000/svg" xmlns:xlink="http://www.w3.org/1999/xlink" version="1.1" viewBox="-10 0 1410 2048">
   <path fill="currentColor"
d="M400 538l75 50h450l75 -50h-600zM450 949v-311l-150 -100v-250l150 -50v150h150v-150h200v150h150v-150l150 50v250l-150 100v347q-22 -37 -50 -64v-283h-50v244q-2 -6 -10 -18q-23 -46 -80 -112q-52 61 -63 81h-23q-13 -22 -64 -81q-54 64 -78 111q-10 4 -30 15
q-39 36 -52 71zM970 1548l-45 -30h-390l-45 30h480zM880 1428l60 30v30l90 60v90h-600v-90l90 -60v-30l60 -30q-9 -8 -12 -21q-1 -6 -1 -12q0 -7 1 -13q4 -12 13 -27q15 -15 50.5 -57.5t40.5 -51.5q2 -6 2 -12v-5q-1 -7 -6 -12q-11 -13 -32 -14h-3q-27 0 -105 74
q-45 44 -77 44q-27 0 -43 -31q-38 -67 -38 -106t49.5 -96t54 -102t46.5 -84q16 -9 32 -15q3 -4 5 -9q22 -43 53 -80q27 31 47 65h13q22 0 43 3q20 -36 47 -68q32 37 54 80q8 14 12 27q69 39 106 108q38 72 38 150t-38.5 150t-51.5 115zM562 995q0 8 4 15.5t11.5 11t14.5 3.5
q8 0 15.5 -3.5t11 -11t3.5 -15.5q0 -7 -3.5 -14.5t-11 -11.5t-15.5 -4q-7 0 -14.5 4t-11.5 11.5t-4 14.5zM390 1180q0 7 4 14.5t11 11.5t15 4t9 -5v-1q0 -3 -3 -9q-6 -8 -6 -15q0 -8 6 -15q3 -6 3 -10v-2q-1 -3 -9 -3t-15 3.5t-11 11t-4 15.5zM640 875q-7 0 -15 1
q41 2 80 14l3 -7q-33 -8 -68 -8zM901.5 1325q38.5 -72 38.5 -150t-38 -150q-25 -46 -64 -79l16 51q10 13 18 28q38 72 38 150t-38.5 150t-51.5 118h-210l-60 30v15h360v-15l-60 -30q13 -46 51.5 -118z" />
</svg>
