<?xml version="1.0" standalone="no"?>
<!DOCTYPE svg PUBLIC "-//W3C//DTD SVG 1.1//EN" "http://www.w3.org/Graphics/SVG/1.1/DTD/svg11.dtd" >
<svg xmlns="http://www.w3.org/2000/svg" xmlns:xlink="http://www.w3.org/1999/xlink" version="1.1" viewBox="-10 0 1410 2048">
   <path fill="currentColor"
d="M850 1103l-150 -75l-150 75l150 75zM345 1272l75 -63l-75 -12v75zM1055 1197l-75 12l75 63v-75zM738 463l-38 -35l-38 35h-87l82 -75l-82 -75h87l38 35l38 -35h87l-82 75l82 75h-87zM582 1012q58 -14 118 -14t118 14q-11 -33 -28 -67q-37 -71 -90 -133q-53 62 -89 133
q-18 34 -29 67zM455 1534q118 64 245 64t244 -64q63 -35 111 -86q-48 -51 -111 -86q-117 -64 -244 -64t-245 64q-63 35 -110 86q47 51 110 86zM345 1389q45 -45 104 -77q121 -64 251 -64t250 64q59 32 105 77v-50q-46 -45 -105 -77q-120 -64 -250 -64t-251 64
q-59 32 -104 77v50zM550 488h300v-200h-300v200zM705 564.5q-12 6.5 -18.5 18.5t-6.5 25t6.5 25t18.5 18.5t25 6.5t25 -6.5t18.5 -18.5t6.5 -25t-6.5 -25t-18.5 -18.5t-25 -6.5t-25 6.5zM587 538h-87v-300h400v300h-87q10 11 18 25q18 33 19 69q34 -22 71 -41
q102 -53 192 -53h17q96 6 151 61q56 55 62 152v17q0 90 -53 192q-58 113 -150 205q-17 17 -35 33v250q-60 85 -155 135q-120 65 -250 65t-251 -65q-94 -50 -154 -135v-250q-18 -16 -35 -33q-92 -92 -150 -205q-53 -102 -53 -192v-17q6 -97 62 -152q55 -55 152 -61h16
q90 0 193 53q36 19 70 41q1 -36 20 -69q7 -14 17 -25zM674 786q-25 -5 -49 -18q-36 -19 -55 -55q-9 -15 -14 -31q-37 -26 -77 -47q-91 -47 -170 -47h-14q-85 5 -133 54q-50 48 -55 133v15q0 79 47 169q51 99 132 180q15 16 31 30q55 -65 132 -107q41 -22 84 -36
q13 -40 34 -82q44 -85 107 -158zM844 682q-5 16 -13 31q-20 36 -56 55q-24 13 -49 18q64 73 108 158q22 42 34 82q41 14 82 36q78 42 133 107q16 -14 31 -30q81 -81 132 -180q47 -90 47 -169v-15q-5 -85 -55 -133q-48 -49 -133 -54h-14q-79 0 -169 47q-41 21 -78 47z" />
</svg>
