<?xml version="1.0" encoding="UTF-8" standalone="no"?>
<svg
   xmlns:dc="http://purl.org/dc/elements/1.1/"
   xmlns:cc="http://creativecommons.org/ns#"
   xmlns:rdf="http://www.w3.org/1999/02/22-rdf-syntax-ns#"
   xmlns:svg="http://www.w3.org/2000/svg"
   xmlns="http://www.w3.org/2000/svg"
   xmlns:sodipodi="http://sodipodi.sourceforge.net/DTD/sodipodi-0.dtd"
   xmlns:inkscape="http://www.inkscape.org/namespaces/inkscape"
   version="1.1"
   viewBox="-10 0 1410 2048"
   id="svg4"
   sodipodi:docname="QuiviraBFairyBishop.svg"
   inkscape:version="1.0.2 (e86c870879, 2021-01-15, custom)">
  <metadata
     id="metadata10">
    <rdf:RDF>
      <cc:Work
         rdf:about="">
        <dc:format>image/svg+xml</dc:format>
        <dc:type
           rdf:resource="http://purl.org/dc/dcmitype/StillImage" />
        <dc:title />
      </cc:Work>
    </rdf:RDF>
  </metadata>
  <defs
     id="defs8" />
  <sodipodi:namedview
     pagecolor="#ffffff"
     bordercolor="#666666"
     borderopacity="1"
     objecttolerance="10"
     gridtolerance="10"
     guidetolerance="10"
     inkscape:pageopacity="0"
     inkscape:pageshadow="2"
     inkscape:window-width="1288"
     inkscape:window-height="974"
     id="namedview6"
     showgrid="false"
     inkscape:zoom="0.390625"
     inkscape:cx="705"
     inkscape:cy="1012.48"
     inkscape:window-x="312"
     inkscape:window-y="45"
     inkscape:window-maximized="0"
     inkscape:current-layer="svg4"
     inkscape:document-rotation="0" />
  <path
     fill="currentColor"
     d="m 675,1745.5 q -12,-6.5 -18.5,-18.5 -6.5,-12 -6.5,-25 0,-13 6.5,-25 6.5,-12 18.5,-18.5 12,-6.5 25,-6.5 13,0 25,6.5 12,6.5 18.5,18.5 6.5,12 6.5,25 0,13 -6.5,25 -6.5,12 -18.5,18.5 -12,6.5 -25,6.5 -13,0 -25,-6.5 z M 776,965 l -75,37 -75,-37 75,-38 z m -253,-85 38,32 -38,6 z m 355,38 -37,-6 37,-32 z m 0,-71 q -23,22 -52,38 -60,32 -125,32 -65,0 -126,-32 -29,-16 -52,-38 v -25 q 23,22 52,38 61,32 126,32 65,0 125,-32 29,-16 52,-38 z m 0,125 q -23,22 -52,38 -60,32 -125,32 -65,0 -126,-32 -29,-16 -52,-38 v -25 q 23,22 52,38 61,32 126,32 65,0 125,-32 29,-16 52,-38 z m -215,115 h 75 v 178 h 177 v 55 H 738 v 177 H 663 V 1320 H 485 v -55 H 663 Z M 602,712 q -14,6 -27,13 -47,25 -77,67 v 125 q 4,6 9,12 -157,89 -157,223 0,180 285,442 -29,16 -44,45 -16,30 -16,63 0,33 16,63 16,30 46,46 30,16 63,16 33,0 63,-16 30,-16 46,-46 16,-30 16,-63 0,-33 -16,-63 -15,-29 -44,-45 285,-262 285,-442 0,-134 -156,-223 5,-6 9,-12 V 792 q -30,-42 -77,-67 -14,-8 -28,-14 61,-103 158,-103 30,0 63,10 22,3 42,3 88,0 148,-51 72,-63 111,-212 l -50,-130 q -65,249 -217,249 -29,0 -62,-9 -22,-3 -42,-3 -88,0 -148,51 -63,55 -101,176 -38,-122 -102,-176 -58,-51 -146,-51 -21,0 -44,3 -33,9 -62,9 -151,0 -216,-249 L 80,358 q 39,149 111,211 58,51 146,51 21,0 44,-3 33,-9 62,-9 98,0 159,104 z"
     id="path2" />
  <path
     style="fill:#ffffff;stroke-width:2.56"
     d="m 664.3612,911.39024 c -41.33286,-8.60765 -82.27603,-27.04294 -112.24654,-50.54073 -16.43936,-12.88896 -17.20866,-13.98067 -17.28,-24.5219 l -0.0747,-11.03238 12.16,10.12258 c 18.45747,15.3649 38.74499,27.43457 62.42649,37.13944 39.20926,16.06826 52.11242,18.33854 103.33351,18.18125 42.64759,-0.13096 47.79621,-0.66264 69.12,-7.13773 29.36891,-8.91805 64.47885,-26.27835 85.76,-42.40451 l 16.64,-12.60924 0.83244,9.38223 c 0.72565,8.17883 -0.42358,10.45935 -8.96,17.77987 -25.42974,21.80762 -64.48896,41.64402 -102.01209,51.80732 -26.64953,7.21813 -83.84892,9.21715 -109.69915,3.8338 z"
     id="path36"
     transform="translate(-10)" />
  <path
     style="fill:#ffffff;stroke-width:2.56"
     d="m 673.79966,982.2663 -33.76033,-17.1463 35.27409,-18.1406 35.2741,-18.1406 36.43991,18.25471 36.43992,18.25472 -36.67368,17.20633 c -20.17052,9.46349 -37.24967,17.12797 -37.95367,17.03219 -0.704,-0.0958 -16.47215,-7.88999 -35.04034,-17.32045 z"
     id="path38"
     transform="translate(-10)" />
  <path
     style="fill:#ffffff;stroke-width:2.56"
     d="m 534.76,899.91986 v -15.87009 l 10.5235,8.53511 c 5.78792,4.69432 12.97071,10.47233 15.96175,12.84003 2.99104,2.36771 4.87947,4.84853 4.1965,5.51295 -0.68296,0.66442 -7.86575,2.02795 -15.96175,3.03006 l -14.72,1.82202 z"
     id="path40"
     transform="translate(-10)" />
  <path
     style="fill:#ffffff;stroke-width:2.56"
     d="m 886.32004,898.56 c 0.0114,-9.856 0.47407,-13.57431 1.02824,-8.2629 0.55418,5.3114 0.54489,13.3754 -0.0207,17.92 -0.56553,4.54459 -1.01895,0.1989 -1.00759,-9.6571 z"
     id="path42"
     transform="translate(-10)" />
  <path
     style="fill:#ffffff;stroke-width:2.56"
     d="M 669.03099,1036.8992 C 620.62918,1028.1066 574.96428,1007.2464 545.14582,980.30719 536.40179,972.40749 534.76,969.35422 534.76,960.9925 v -9.93172 l 15.80513,12.73592 c 28.8903,23.28008 71.99091,42.2459 113.95618,50.1449 30.00579,5.6478 80.71456,3.9907 109.59869,-3.5816 37.72314,-9.8896 63.31679,-22.08877 93.44,-44.53792 l 16.64,-12.40086 0.81848,9.45092 c 0.90681,10.47094 -1.31983,12.9953 -27.69848,31.40219 -53.99749,37.67917 -125.90464,53.95747 -188.28901,42.62487 z"
     id="path44"
     transform="translate(-10)" />
  <path
     style="fill:#ffffff;stroke-width:2.56"
     d="m 673,1408 v -88.32 h -88.32 -88.32 v -26.88 -26.88 H 584.68 673 v -88.32 -88.32 h 37.12 37.12 v 88.32 88.32 h 88.32 88.32 v 26.88 26.88 h -88.32 -88.32 v 88.32 88.32 H 710.12 673 Z"
     id="path46"
     transform="translate(-10)" />
  <path
     style="fill:#ffffff;stroke-width:2.56"
     d="m 689.64,1745.7423 c -34.73106,-18.0263 -37.37216,-66.6238 -4.60648,-84.7615 20.95925,-11.6021 39.89229,-9.6502 57.08877,5.8858 24.55654,22.1854 19.19087,62.7577 -10.28861,77.797 -12.05553,6.1503 -31.46626,6.6465 -42.19368,1.0787 z"
     id="path48"
     transform="translate(-10)" />
</svg>
