<?xml version="1.0" encoding="UTF-8" standalone="no"?>
<svg
   xmlns:dc="http://purl.org/dc/elements/1.1/"
   xmlns:cc="http://creativecommons.org/ns#"
   xmlns:rdf="http://www.w3.org/1999/02/22-rdf-syntax-ns#"
   xmlns:svg="http://www.w3.org/2000/svg"
   xmlns="http://www.w3.org/2000/svg"
   xmlns:sodipodi="http://sodipodi.sourceforge.net/DTD/sodipodi-0.dtd"
   xmlns:inkscape="http://www.inkscape.org/namespaces/inkscape"
   version="1.1"
   viewBox="-10 0 1410 2048"
   id="svg4"
   sodipodi:docname="QuiviraBFairyBishop.svg"
   inkscape:version="1.0.2 (e86c870879, 2021-01-15, custom)">
  <metadata
     id="metadata10">
    <rdf:RDF>
      <cc:Work
         rdf:about="">
        <dc:format>image/svg+xml</dc:format>
        <dc:type
           rdf:resource="http://purl.org/dc/dcmitype/StillImage" />
        <dc:title></dc:title>
      </cc:Work>
    </rdf:RDF>
  </metadata>
  <defs
     id="defs8" />
  <sodipodi:namedview
     pagecolor="#ffffff"
     bordercolor="#666666"
     borderopacity="1"
     objecttolerance="10"
     gridtolerance="10"
     guidetolerance="10"
     inkscape:pageopacity="0"
     inkscape:pageshadow="2"
     inkscape:window-width="1288"
     inkscape:window-height="974"
     id="namedview6"
     showgrid="false"
     inkscape:zoom="0.390625"
     inkscape:cx="705"
     inkscape:cy="1024"
     inkscape:window-x="0"
     inkscape:window-y="0"
     inkscape:window-maximized="0"
     inkscape:current-layer="svg4" />
  <path
     fill="currentColor"
     d="m 675,1745.5 q -12,-6.5 -18.5,-18.5 -6.5,-12 -6.5,-25 0,-13 6.5,-25 6.5,-12 18.5,-18.5 12,-6.5 25,-6.5 13,0 25,6.5 12,6.5 18.5,18.5 6.5,12 6.5,25 0,13 -6.5,25 -6.5,12 -18.5,18.5 -12,6.5 -25,6.5 -13,0 -25,-6.5 z M 776,965 l -75,37 -75,-37 75,-38 z m -253,-85 38,32 -38,6 z m 355,38 -37,-6 37,-32 z m 0,-71 q -23,22 -52,38 -60,32 -125,32 -65,0 -126,-32 -29,-16 -52,-38 v -25 q 23,22 52,38 61,32 126,32 65,0 125,-32 29,-16 52,-38 z m 0,125 q -23,22 -52,38 -60,32 -125,32 -65,0 -126,-32 -29,-16 -52,-38 v -25 q 23,22 52,38 61,32 126,32 65,0 125,-32 29,-16 52,-38 z m -215,115 h 75 v 178 h 177 v 55 H 738 v 177 H 663 V 1320 H 485 v -55 H 663 Z M 602,712 q -14,6 -27,13 -47,25 -77,67 v 125 q 4,6 9,12 -157,89 -157,223 0,180 285,442 -29,16 -44,45 -16,30 -16,63 0,33 16,63 16,30 46,46 30,16 63,16 33,0 63,-16 30,-16 46,-46 16,-30 16,-63 0,-33 -16,-63 -15,-29 -44,-45 285,-262 285,-442 0,-134 -156,-223 5,-6 9,-12 V 792 q -30,-42 -77,-67 -14,-8 -28,-14 61,-103 158,-103 30,0 63,10 22,3 42,3 88,0 148,-51 72,-63 111,-212 l -50,-130 q -65,249 -217,249 -29,0 -62,-9 -22,-3 -42,-3 -88,0 -148,51 -63,55 -101,176 -38,-122 -102,-176 -58,-51 -146,-51 -21,0 -44,3 -33,9 -62,9 -151,0 -216,-249 L 80,358 q 39,149 111,211 58,51 146,51 21,0 44,-3 33,-9 62,-9 98,0 159,104 z"
     id="path2" />
</svg>
