<?xml version="1.0" standalone="no"?>
<!DOCTYPE svg PUBLIC "-//W3C//DTD SVG 1.1//EN" "http://www.w3.org/Graphics/SVG/1.1/DTD/svg11.dtd" >
<svg xmlns="http://www.w3.org/2000/svg" xmlns:xlink="http://www.w3.org/1999/xlink" version="1.1" viewBox="-10 0 1410 2048">
   <path fill="currentColor"
d="M750 288h-100v150h-250v-130l-50 20v160h700v-160l-50 -20v130h-250v-150zM400 538l75 50h450l75 -50h-600zM450 950v-312l-150 -100v-250l150 -50v150h150v-150h200v150h150v-150l150 50v250l-150 100v347q-22 -37 -50 -64v-283h-400v242q-38 36 -50 70zM937 1538
l-15 -10h-384l-15 10h414zM892 1423l58 29v31l90 60v105h-620v-105l90 -60v-31l52 -26q0 -1 -4 -16q-2 -7 -2 -15q0 -9 3 -16q4 -13 14 -30q16 -16 50.5 -57.5t38.5 -49.5q2 -4 2 -8v-4q-1 -3 -4 -6q-9 -10 -25 -11h-3q-23 0 -98 71q-48 47 -83 47q-33 0 -53 -36
q-38 -69 -38 -111q0 -43 49.5 -100t53.5 -102.5t51 -87.5q18 -10 31 -15q0 -1 3 -6q22 -44 62 -90q34 40 52 70h8q23 0 37 2q17 -31 53 -72q40 46 63 90q7 15 11 25q67 39 107 110q39 75 39 155q0 81 -39 153.5t-49 106.5zM572 960.5q9 -5.5 20 -5.5t20 5.5t14.5 15
t5.5 19.5t-5.5 20.5t-15 15t-19.5 4.5t-19.5 -4.5t-15 -15t-5.5 -20.5t5.5 -19.5t14.5 -15zM593 863q15 -5 44 -5h-13q-3 -5 -14 -16q-11 11 -17 21zM990 1598v-10h-520v10h520zM890.5 1311q35.5 -61 35.5 -125q1 -8 1 -15q0 -60 -40 -144q-26 -46 -71 -77q-28 -68 -34 -77
q-11 -20 -22 -31q-11 11 -22 31q-6 9 -17 35l-22 -3q-19 -2 -37 -2q-52 0 -84 12.5t-44 18.5q-34 31 -38 69.5t-51 91.5q-25 32 -25 45q15 0 19 11v4q0 7 -6 16q-3 4 -3 9q0 4 3 10q6 8 6 14v2q-3 14 -19 14q0 10 16 39q12 20 28 20q24 0 60 -38q73 -75 106 -75h9q23 0 40 9
q25 17 27 44v9q0 17 -5 29q-9 14 -39.5 51t-42.5 49q-7 10 -9 18q-1 5 -1 10q0 4 1 8q2 7 5 10h231q9 -31 44.5 -92zM562 1478h336l-50 -25h-236z" />
</svg>
