<?xml version="1.0" standalone="no"?>
<!DOCTYPE svg PUBLIC "-//W3C//DTD SVG 1.1//EN" "http://www.w3.org/Graphics/SVG/1.1/DTD/svg11.dtd" >
<svg xmlns="http://www.w3.org/2000/svg" xmlns:xlink="http://www.w3.org/1999/xlink" version="1.1" viewBox="-10 0 1410 2048">
   <path fill="currentColor"
d="M675 309.5q-12 6.5 -18.5 18.5t-6.5 25t6.5 25t18.5 18.5t25 6.5t25 -6.5t18.5 -18.5t6.5 -25t-6.5 -25t-18.5 -18.5t-25 -6.5t-25 6.5zM776 1090l-75 -37l-75 37l75 38zM523 1175l38 -32l-38 -6v38zM878 1137l-37 6l37 32v-38zM878 1208q-23 -22 -52 -38
q-60 -32 -125 -32t-126 32q-29 16 -52 38v25q23 -22 52 -38q61 -32 126 -32t125 32q29 16 52 38v-25zM878 1083q-23 -22 -52 -38q-60 -32 -125 -32t-126 32q-29 16 -52 38v25q23 -22 52 -38q61 -32 126 -32t125 32q29 16 52 38v-25zM663 968h75v-178h177v-55h-177v-177h-75
v177h-178v55h178v178zM602 1343q-14 -6 -27 -13q-47 -25 -77 -67v-125q4 -6 9 -12q-157 -89 -157 -223q0 -180 285 -442q-29 -16 -44 -45q-16 -30 -16 -63t16 -63t46 -46t63 -16t63 16t46 46t16 63t-16 63q-15 29 -44 45q285 262 285 442q0 134 -156 223q5 6 9 12v125
q-30 42 -77 67q-14 8 -28 14q61 103 158 103q30 0 63 -10q22 -3 42 -3q88 0 148 51q72 63 111 212l-50 130q-65 -249 -217 -249q-29 0 -62 9q-22 3 -42 3q-88 0 -148 -51q-63 -55 -101 -176q-38 122 -102 176q-58 51 -146 51q-21 0 -44 -3q-33 -9 -62 -9q-151 0 -216 249
l-50 -130q39 -149 111 -211q58 -51 146 -51q21 0 44 3q33 9 62 9q98 0 159 -104z" />
</svg>
