<?xml version="1.0" standalone="no"?>
<!DOCTYPE svg PUBLIC "-//W3C//DTD SVG 1.1//EN" "http://www.w3.org/Graphics/SVG/1.1/DTD/svg11.dtd" >
<svg xmlns="http://www.w3.org/2000/svg" xmlns:xlink="http://www.w3.org/1999/xlink" version="1.1" viewBox="-10 0 1410 2048">
   <path fill="currentColor"
d="M650 353q0 13 6.5 25t18.5 18.5t25 6.5t25 -6.5t18.5 -18.5t6.5 -25t-6.5 -25t-18.5 -18.5t-25 -6.5t-25 6.5t-18.5 18.5t-6.5 25zM776 1090l-75 -37l-75 37l75 38zM523 1175l38 -32l-38 -6v38zM878 1137l-37 6l37 32v-38zM878 1208q-23 -22 -52 -38q-60 -32 -125 -32
t-126 32q-29 16 -52 38v25q23 -22 52 -38q61 -32 126 -32t125 32q29 16 52 38v-25zM663 790h-178v-55h178v-177h75v177h177v55h-177v178h-75v-178zM602 1343q-14 -6 -27 -13q-47 -25 -77 -67v-125q4 -6 9 -12q-157 -89 -157 -223q0 -180 285 -442q-29 -16 -44 -45
q-16 -30 -16 -63t16 -63t46 -46t63 -16t63 16t46 46t16 63t-16 63q-15 29 -44 45q285 262 285 442q0 134 -156 223q5 6 9 12v125q-30 42 -77 67q-14 8 -28 14q61 103 158 103q30 0 63 -10q22 -3 42 -3q88 0 148 51q72 63 111 212l-50 130q-65 -249 -217 -249q-29 0 -62 9
q-22 3 -42 3q-88 0 -148 -51q-63 -55 -101 -176q-38 122 -102 176q-58 51 -146 51q-21 0 -44 -3q-33 -9 -62 -9q-151 0 -216 249l-50 -130q39 -149 111 -211q58 -51 146 -51q21 0 44 3q33 9 62 9q98 0 159 -104zM1000 890q0 -175 -300 -437q-300 262 -300 437q0 112 123 188
q8 3 16 3q17 0 36 -11q61 -32 126 -32t125 32q19 11 36 11q8 0 16 -3q122 -76 122 -188zM701 1333q7 0 16 26q42 114 108 170q47 41 117 41q27 0 57 -6q27 -6 51 -6q138 0 210 194l34 -88q-43 -113 -108 -170q-47 -41 -118 -41q-26 0 -56 6q-27 6 -51 6q-119 0 -189 -142
q26 -8 51 -22q31 -18 55 -43q-24 -26 -55 -43q-59 -32 -122 -32q-64 0 -123 32q-31 17 -55 43q24 25 55 43q25 13 50 21q-70 143 -189 143q-24 0 -51 -6q-30 -6 -56 -6q-71 0 -118 41q-65 57 -108 170l34 88q72 -194 210 -194q24 0 51 6q30 6 57 6q70 0 117 -41
q66 -56 108 -170q10 -26 18 -26z" />
</svg>
