<?xml version="1.0" standalone="no"?>
<!DOCTYPE svg PUBLIC "-//W3C//DTD SVG 1.1//EN" "http://www.w3.org/Graphics/SVG/1.1/DTD/svg11.dtd" >
<svg xmlns="http://www.w3.org/2000/svg" xmlns:xlink="http://www.w3.org/1999/xlink" version="1.1" viewBox="-10 0 1410 2048">
   <path fill="currentColor"
d="M850 1103l-150 -75l-150 75l150 75zM345 1272l75 -63l-75 -12v75zM1055 1197l-75 12l75 63v-75zM656.5 313q-6.5 12 -6.5 25t6.5 25t18.5 18.5t25 6.5t25 -6.5t18.5 -18.5t6.5 -25t-6.5 -25t-18.5 -18.5t-25 -6.5t-25 6.5t-18.5 18.5zM1184 393q-10 9 -15 21q-3 8 -3 17
q0 4 1 8q2 14 11 24.5t21 14.5q9 4 18 4q4 0 8 -1q13 -2 23.5 -11t14.5 -22q4 -9 4 -18q0 -4 -1 -8q-2 -13 -11 -23t-22 -15q-8 -3 -17 -3q-4 0 -8 1q-14 2 -24 11zM925.5 315q-8.5 11 -10.5 23q-1 4 -1 9q0 8 3 17q4 13 15 21.5t24 10.5q5 1 10 1q7 0 15 -3
q13 -4 21.5 -14.5t10.5 -23.5q1 -5 1 -10q0 -8 -2 -16q-5 -13 -15.5 -21.5t-23.5 -10.5q-4 -1 -9 -1q-8 0 -17 3q-13 4 -21.5 15zM167 384q-13 5 -22 15t-11 23q-1 4 -1 8q0 9 4 18q4 13 14.5 22t24.5 11q3 1 7 1q9 0 18 -4q12 -4 21 -14.5t11 -24.5q1 -4 1 -8q0 -9 -3 -17
q-5 -12 -15 -21t-23 -11q-5 -1 -9 -1q-9 0 -17 3zM427 298q-13 2 -23.5 10.5t-14.5 21.5q-3 8 -3 16q0 5 1 10q2 13 10.5 23.5t21.5 14.5q8 3 15 3q5 0 10 -1q13 -2 24 -10.5t15 -21.5q3 -9 3 -17q0 -5 -1 -9q-2 -12 -10.5 -23t-21.5 -15q-9 -3 -17 -3q-5 0 -9 1zM1055 1339
q-46 -45 -105 -77q-120 -64 -250 -64t-251 64q-59 32 -104 77v50q45 -45 104 -77q121 -64 251 -64t250 64q59 32 105 77v-50zM345 1139q45 -45 104 -77q121 -64 251 -64t250 64q59 32 105 77v-50q-46 -45 -105 -77q-120 -64 -250 -64t-251 64q-59 32 -104 77v50zM1105 1448
q-60 85 -155 135q-120 65 -250 65t-251 -65q-94 -50 -154 -135v-419l-86 -501q-13 3 -27 3q-8 0 -16 -1q-27 -4 -47 -22t-29 -43q-6 -17 -6 -35q0 -8 1 -16q4 -27 22 -47.5t43 -29.5q17 -6 35 -6q8 0 16 1q27 4 47.5 22t29.5 43q6 17 6 36q0 8 -1 16q-4 27 -22 47
q-15 16 -35 25l216 370l2 -444h-8q-17 0 -34 -6q-26 -8 -43 -29.5t-22 -47.5q-1 -8 -1 -16q0 -17 6 -35q8 -26 29.5 -43t46.5 -21q10 -2 19 -2q17 0 33 5q26 9 43 30.5t21 47.5q2 9 2 19q0 16 -5 32q-9 26 -31 43q-17 14 -38 20l153 414l76 -420q-21 -2 -41 -13
q-24 -13 -37 -37t-13 -50t13 -50t37 -37t50 -13t50 13t37 37t13 50t-13 50t-37 37q-20 11 -41 13l76 420l153 -414q-21 -6 -38 -20q-22 -17 -30 -43q-6 -16 -6 -32q0 -10 2 -19q4 -26 21 -47.5t43 -30.5q16 -5 33 -5q9 0 19 2q25 4 46.5 21t30.5 43q5 18 5 35q0 8 -1 16
q-5 26 -22 47.5t-43 29.5q-17 6 -34 6h-8l2 444l216 -369q-20 -9 -35 -26q-18 -20 -22 -47q-1 -8 -1 -16q0 -19 6 -36q9 -25 29.5 -43t47.5 -22q8 -1 16 -1q18 0 35 6q25 9 43 29.5t22 47.5q1 8 1 16q0 18 -6 35q-9 25 -29 43t-47 22q-8 1 -16 1q-14 0 -27 -3l-86 501v419z
" />
</svg>
